<svg id="Icons" xmlns="http://www.w3.org/2000/svg" viewBox="0 0 215 215"><defs><style>.cls-1{fill:#fffc00;}.cls-2{fill:#fff;}</style></defs><g id="Snapchat"><path id="Background" class="cls-1" d="M277,657.2c0-48.65,0-73,15.11-88.09S331.55,554,380.2,554h8.6c48.65,0,73,0,88.09,15.11S492,608.55,492,657.2v8.6c0,48.65,0,73-15.11,88.09S437.45,769,388.8,769h-8.6c-48.65,0-73,0-88.09-15.11S277,714.45,277,665.8Z" transform="translate(-277 -554)"/><g id="Snapchat-2" data-name="Snapchat"><path id="Snapchat-3" data-name="Snapchat" class="cls-2" d="M437.85,689.7c-19.14-9.26-22.19-23.57-22.33-24.63-.16-1.29-.35-2.3,1.07-3.6s7.43-5,9.12-6.2c2.78-1.94,4-3.88,3.1-6.27a3.75,3.75,0,0,0-3.79-2.28,7.78,7.78,0,0,0-1.52.17c-3.06.67-6,2.2-7.74,2.61a2.74,2.74,0,0,1-.63.09c-.92,0-1.27-.41-1.18-1.51a108,108,0,0,0,.14-16c-.72-8.38-3.42-12.53-6.63-16.2-1.55-1.78-8.75-9.44-22.65-9.44s-21.08,7.66-22.62,9.41c-3.22,3.68-5.92,7.83-6.64,16.21a112.14,112.14,0,0,0,.15,16c.06,1.05-.26,1.51-1.18,1.51a3.42,3.42,0,0,1-.63-.09c-1.72-.41-4.68-1.94-7.74-2.61a7.08,7.08,0,0,0-1.52-.17,3.74,3.74,0,0,0-3.79,2.28c-.9,2.38.32,4.33,3.11,6.27,1.68,1.18,7.75,4.93,9.12,6.19s1.23,2.32,1.06,3.61c-.13,1.07-3.19,15.38-22.33,24.63-1.12.54-3,1.69.34,3.55,5.28,2.92,8.8,2.61,11.53,4.37,2.31,1.49.94,4.71,2.63,5.87,2.07,1.43,8.2-.1,16.11,2.51,6.63,2.19,10.66,8.36,22.42,8.36s15.91-6.2,22.42-8.36c7.9-2.61,14-1.08,16.11-2.51,1.68-1.16.31-4.38,2.63-5.87,2.73-1.76,6.25-1.45,11.53-4.37C440.88,691.4,439,690.25,437.85,689.7Z" transform="translate(-277 -554)"/><path id="Snapchat-4" data-name="Snapchat" d="M446.18,688.61a8.64,8.64,0,0,0-4.36-4.62,10,10,0,0,0-.95-.5l-1.69-.85a37,37,0,0,1-13.49-11.57,25.91,25.91,0,0,1-2.31-4.11,2,2,0,0,1-.07-1.6,2.62,2.62,0,0,1,.75-.77l2.72-1.78c1.25-.81,2.23-1.45,2.87-1.9a15.65,15.65,0,0,0,5.09-5.42,10.76,10.76,0,0,0,.53-9A10.58,10.58,0,0,0,425,639.79a14.23,14.23,0,0,0-3,.32l-.78.18c0-2.84,0-5.84-.27-8.79-.9-10.39-4.53-15.83-8.32-20.17a33.3,33.3,0,0,0-8.46-6.81,40.37,40.37,0,0,0-38.74,0,32.92,32.92,0,0,0-8.48,6.83c-3.79,4.34-7.42,9.79-8.32,20.16a87.17,87.17,0,0,0-.27,8.79l-.78-.18a14.26,14.26,0,0,0-3-.32,10.58,10.58,0,0,0-10.26,6.74,10.78,10.78,0,0,0,.52,9,15.69,15.69,0,0,0,5.1,5.42c.63.44,1.62,1.08,2.86,1.9.68.43,1.66,1.07,2.62,1.71a2.8,2.8,0,0,1,.84.84,2,2,0,0,1-.09,1.68,25.68,25.68,0,0,1-2.28,4,36.71,36.71,0,0,1-13.1,11.37c-3,1.58-6.07,2.64-7.38,6.19-1,2.68-.34,5.73,2.16,8.3h0a12.48,12.48,0,0,0,3.16,2.39,34.21,34.21,0,0,0,7.73,3.09,5.22,5.22,0,0,1,1.56.7c.91.8.78,2,2,3.77a8.71,8.71,0,0,0,2.29,2.32c2.55,1.76,5.42,1.87,8.45,2a31.74,31.74,0,0,1,9.41,1.4,23.71,23.71,0,0,1,4.77,2.52c4.26,2.62,10.08,6.2,19.83,6.2s15.61-3.6,19.89-6.23a24.38,24.38,0,0,1,4.71-2.48,32.16,32.16,0,0,1,9.41-1.4c3-.11,5.91-.22,8.46-2a8.84,8.84,0,0,0,2.6-2.84c.88-1.49.85-2.53,1.67-3.25a4.77,4.77,0,0,1,1.47-.67,34.41,34.41,0,0,0,7.83-3.12,12.33,12.33,0,0,0,3.32-2.6l0,0A7.72,7.72,0,0,0,446.18,688.61Zm-8.67,4.66c-5.28,2.92-8.79,2.6-11.52,4.36-2.32,1.5-.95,4.72-2.64,5.88-2.07,1.43-8.19-.1-16.1,2.51-6.53,2.16-10.69,8.36-22.43,8.36S369,708.19,362.39,706c-7.89-2.62-14-1.08-16.11-2.52-1.68-1.16-.31-4.38-2.63-5.87-2.73-1.76-6.25-1.45-11.53-4.35-3.36-1.86-1.45-3-.33-3.55,19.14-9.27,22.19-23.57,22.33-24.63.16-1.29.34-2.3-1.07-3.61s-7.43-5-9.12-6.19c-2.78-1.95-4-3.89-3.11-6.28a3.76,3.76,0,0,1,3.79-2.27,7,7,0,0,1,1.52.17c3.06.66,6,2.2,7.74,2.61a2.74,2.74,0,0,0,.64.08c.91,0,1.23-.46,1.17-1.51a110.74,110.74,0,0,1-.14-16c.72-8.38,3.42-12.53,6.63-16.21,1.54-1.76,8.78-9.42,22.63-9.42s21.11,7.63,22.65,9.38c3.21,3.68,5.92,7.83,6.63,16.21a108,108,0,0,1-.14,16c-.07,1.1.26,1.51,1.18,1.51a3.42,3.42,0,0,0,.63-.09c1.72-.41,4.68-1.94,7.74-2.61a7.08,7.08,0,0,1,1.52-.17A3.74,3.74,0,0,1,428.8,649c.9,2.38-.32,4.33-3.1,6.27-1.69,1.18-7.75,4.93-9.12,6.19s-1.23,2.32-1.07,3.61c.14,1.07,3.19,15.38,22.33,24.63C439,690.25,440.88,691.4,437.51,693.27Z" transform="translate(-277 -554)"/></g></g></svg>