<svg id="Icons" xmlns="http://www.w3.org/2000/svg" viewBox="0 0 215 215"><defs><style>.cls-1{fill:#f50;}.cls-2{fill:#fff;}</style></defs><g id="SoundCloud"><path id="Background" class="cls-1" d="M1385,934.2c0-48.65,0-73,15.11-88.09S1439.55,831,1488.2,831h8.6c48.65,0,73,0,88.09,15.11S1600,885.55,1600,934.2v8.6c0,48.65,0,73-15.11,88.09S1545.45,1046,1496.8,1046h-8.6c-48.65,0-73,0-88.09-15.11S1385,991.45,1385,942.8Z" transform="translate(-1385 -831)"/><g id="SoundCloud-2" data-name="SoundCloud"><path id="SoundCloud-3" data-name="SoundCloud" class="cls-2" d="M1444.92,934a1.61,1.61,0,0,0-1.93,1.21,105.57,105.57,0,0,0,0,32.78,1.61,1.61,0,0,0,3.14,0,105.57,105.57,0,0,0,0-32.78A1.59,1.59,0,0,0,1444.92,934Z" transform="translate(-1385 -831)"/><path id="SoundCloud-4" data-name="SoundCloud" class="cls-2" d="M1435.23,932.52a1.53,1.53,0,0,0-1.85,1.11c-.82,3.38-1.37,9.5-1.37,16.49s.55,13.12,1.37,16.5a1.53,1.53,0,0,0,3,0c.82-3.38,1.37-9.5,1.37-16.5s-.55-13.11-1.37-16.49A1.56,1.56,0,0,0,1435.23,932.52Z" transform="translate(-1385 -831)"/><path id="SoundCloud-5" data-name="SoundCloud" class="cls-2" d="M1454.63,923.33a1.62,1.62,0,0,0-1.86,1.33,186.9,186.9,0,0,0,0,43.16,1.62,1.62,0,0,0,3.19,0h0a186.9,186.9,0,0,0,0-43.16A1.63,1.63,0,0,0,1454.63,923.33Z" transform="translate(-1385 -831)"/><path id="SoundCloud-6" data-name="SoundCloud" class="cls-2" d="M1425.74,938.13a1.63,1.63,0,0,0-2.07,1,47.09,47.09,0,0,0,0,22.06,1.65,1.65,0,0,0,1,1,1.63,1.63,0,0,0,2.07-1,47.09,47.09,0,0,0,0-22.06A1.65,1.65,0,0,0,1425.74,938.13Z" transform="translate(-1385 -831)"/><path id="SoundCloud-7" data-name="SoundCloud" class="cls-2" d="M1474,920.6a1.8,1.8,0,0,0-2,1.55,227.77,227.77,0,0,0,0,45.52,1.81,1.81,0,0,0,3.58,0,227.77,227.77,0,0,0,0-45.52A1.81,1.81,0,0,0,1474,920.6Z" transform="translate(-1385 -831)"/><path id="SoundCloud-8" data-name="SoundCloud" class="cls-2" d="M1464.42,919.42a1.78,1.78,0,0,0-2,1.52,227.26,227.26,0,0,0,0,46.84,1.79,1.79,0,0,0,3.54,0,227.26,227.26,0,0,0,0-46.84A1.78,1.78,0,0,0,1464.42,919.42Z" transform="translate(-1385 -831)"/><path id="SoundCloud-9" data-name="SoundCloud" class="cls-2" d="M1538.69,931.2a32.09,32.09,0,0,0-1.84-5.59,32.63,32.63,0,0,0-42.92-16.92,5.1,5.1,0,0,0-3.08,4.68v51.68a3.78,3.78,0,0,0,3.78,3.78h48.9a18.79,18.79,0,0,0,4.84-.62,19.13,19.13,0,1,0-9.68-37Z" transform="translate(-1385 -831)"/><path id="SoundCloud-10" data-name="SoundCloud" class="cls-2" d="M1483.86,914.54a1.82,1.82,0,0,0-2,1.6,296.11,296.11,0,0,0,0,51.46,1.82,1.82,0,0,0,3.62,0,296.11,296.11,0,0,0,0-51.46A1.81,1.81,0,0,0,1483.86,914.54Z" transform="translate(-1385 -831)"/></g></g></svg>