<svg id="Icons" xmlns="http://www.w3.org/2000/svg" viewBox="0 0 215 215"><defs><style>.cls-1{fill:#9146ff;}.cls-2{fill:#fff;}</style></defs><g id="Twitch"><path id="Background" class="cls-1" d="M1108,380.2c0-48.65,0-73,15.11-88.09S1162.55,277,1211.2,277h8.6c48.65,0,73,0,88.09,15.11S1323,331.55,1323,380.2v8.6c0,48.65,0,73-15.11,88.09S1268.45,492,1219.8,492h-8.6c-48.65,0-73,0-88.09-15.11S1108,437.45,1108,388.8Z" transform="translate(-1108 -277)"/><g id="Twitch-2" data-name="Twitch"><path id="Twitch-3" data-name="Twitch" class="cls-2" d="M1185.1,327.86,1162,351v83.33h27.78v23.15l23.14-23.15h18.52l41.66-41.66V327.86ZM1263.79,388l-18.52,18.51h-18.51l-16.2,16.21V406.55h-20.83V337.12h74.06Z" transform="translate(-1108 -277)"/><rect id="Twitch-4" data-name="Twitch" class="cls-2" x="132.65" y="76.32" width="9.26" height="27.78"/><rect id="Twitch-5" data-name="Twitch" class="cls-2" x="107.19" y="76.32" width="9.26" height="27.78"/></g></g></svg>