<svg id="Icons" xmlns="http://www.w3.org/2000/svg" viewBox="0 0 215 215"><defs><style>.cls-1{fill:#07c160;}.cls-2{fill:#fff;}</style></defs><g id="WeChat"><path id="Background" class="cls-1" d="M1108,657.2c0-48.65,0-73,15.11-88.09S1162.55,554,1211.2,554h8.6c48.65,0,73,0,88.09,15.11S1323,608.55,1323,657.2v8.6c0,48.65,0,73-15.11,88.09S1268.45,769,1219.8,769h-8.6c-48.65,0-73,0-88.09-15.11S1108,714.45,1108,665.8Z" transform="translate(-1108 -554)"/><g id="WeChat-2" data-name="WeChat"><path id="WeChat-3" data-name="WeChat" class="cls-2" d="M1256.56,674.78a5.55,5.55,0,1,1,5.55-5.55,5.54,5.54,0,0,1-5.55,5.55m-27.75,0a5.55,5.55,0,1,1,5.55-5.55,5.54,5.54,0,0,1-5.55,5.55m41.11,31.76c8.77-6.36,14.38-15.76,14.38-26.21,0-19.15-18.63-34.68-41.61-34.68s-41.62,15.53-41.62,34.68S1219.7,715,1242.69,715a49,49,0,0,0,13.58-1.9,4.14,4.14,0,0,1,1.22-.18,4.3,4.3,0,0,1,2.21.64l9.11,5.26a1.55,1.55,0,0,0,.8.26,1.39,1.39,0,0,0,1.39-1.39,4.34,4.34,0,0,0-.22-1c-.06-.2-1.18-4.39-1.88-7a3.24,3.24,0,0,1-.14-.88,2.78,2.78,0,0,1,1.16-2.26" transform="translate(-1108 -554)"/><path id="WeChat-4" data-name="WeChat" class="cls-2" d="M1212.72,642.32a6.66,6.66,0,1,1,6.66-6.66,6.66,6.66,0,0,1-6.66,6.66m-33.29,0a6.66,6.66,0,1,1,6.66-6.66,6.66,6.66,0,0,1-6.66,6.66m16.65-35c-27.58,0-49.94,18.63-49.94,41.61,0,12.54,6.73,23.82,17.26,31.45a3.35,3.35,0,0,1,1.4,2.72,3.93,3.93,0,0,1-.18,1.06c-.84,3.13-2.19,8.15-2.25,8.39a5,5,0,0,0-.27,1.21,1.67,1.67,0,0,0,1.67,1.67,2,2,0,0,0,1-.31l10.93-6.31a5.17,5.17,0,0,1,2.65-.77,5.08,5.08,0,0,1,1.47.22,58.94,58.94,0,0,0,16.3,2.28c.92,0,1.83,0,2.74-.06a32.26,32.26,0,0,1-1.67-10.2c0-21,20.38-38,45.54-38,.91,0,1.81,0,2.71.07-3.76-19.88-24.41-35.08-49.32-35.08" transform="translate(-1108 -554)"/></g></g></svg>