<svg id="Icons" xmlns="http://www.w3.org/2000/svg" viewBox="0 0 215 215"><defs><style>.cls-1{fill:#fff;}</style></defs><g id="Behance"><path id="Background" class="cls-1" d="M1108,934.2c0-48.65,0-73,15.11-88.09S1162.55,831,1211.2,831h8.6c48.65,0,73,0,88.09,15.11S1323,885.55,1323,934.2v8.6c0,48.65,0,73-15.11,88.09S1268.45,1046,1219.8,1046h-8.6c-48.65,0-73,0-88.09-15.11S1108,991.45,1108,942.8Z" transform="translate(-1108 -831)"/><g id="Behance-2" data-name="Behance"><path id="Behance-3" data-name="Behance" d="M1190.94,896.13a43.64,43.64,0,0,1,10.32,1.06,23.09,23.09,0,0,1,8,3.42,15.78,15.78,0,0,1,5.12,6.32,23.83,23.83,0,0,1,1.82,9.79,18.76,18.76,0,0,1-2.7,10.49,19.91,19.91,0,0,1-8,6.89,19.2,19.2,0,0,1,10.85,7.69,24,24,0,0,1,3.59,13.34A24.73,24.73,0,0,1,1217.6,966a21.31,21.31,0,0,1-6.22,7.56,27.44,27.44,0,0,1-9,4.32,38.36,38.36,0,0,1-10.32,1.38h-38.29V896.13Zm-2.21,33.63a12.1,12.1,0,0,0,7.62-2.31,9.07,9.07,0,0,0,3-7.56,10.18,10.18,0,0,0-1-4.77,6.9,6.9,0,0,0-2.65-2.86,10,10,0,0,0-3.8-1.46,20.94,20.94,0,0,0-4.47-.39h-16.35v19.43h17.61Zm1,35.4a20.73,20.73,0,0,0,4.9-.53,11.82,11.82,0,0,0,4.1-1.78,8.76,8.76,0,0,0,2.85-3.31,11.7,11.7,0,0,0,1-5.4,11.17,11.17,0,0,0-3.44-9.18,14.05,14.05,0,0,0-9.08-2.7h-18.93v22.9Z" transform="translate(-1108 -831)"/><path id="Behance-4" data-name="Behance" d="M1244.57,964.85a13.66,13.66,0,0,0,10.17,3.62,13.37,13.37,0,0,0,8.19-2.54,10.46,10.46,0,0,0,4.17-5.3h13.83a27.21,27.21,0,0,1-10.17,15.5,28.31,28.31,0,0,1-16.54,4.71,31.43,31.43,0,0,1-12.22-2.32,26,26,0,0,1-9.21-6.48,30.1,30.1,0,0,1-5.78-10,37.7,37.7,0,0,1-2-12.81,36.89,36.89,0,0,1,2.12-12.57,28.35,28.35,0,0,1,27.22-19.28,26,26,0,0,1,12.71,3,26.72,26.72,0,0,1,8.93,8,33.23,33.23,0,0,1,5,11.41,45.2,45.2,0,0,1,1.09,13.42h-41.19A16.34,16.34,0,0,0,1244.57,964.85Zm18.07-31.62a11.44,11.44,0,0,0-8.85-3.32,12.55,12.55,0,0,0-6.22,1.39,13.43,13.43,0,0,0-4,3.32,12.71,12.71,0,0,0-2.12,4.24,17.36,17.36,0,0,0-.73,3.93h25.52a17.31,17.31,0,0,0-3.64-9.55Z" transform="translate(-1108 -831)"/><rect id="Behance-5" data-name="Behance" x="129.48" y="70.69" width="31.97" height="8.17"/></g></g></svg>