<svg id="Icons" xmlns="http://www.w3.org/2000/svg" viewBox="0 0 215 215"><defs><style>.cls-1{fill:#fff;}</style></defs><g id="Snapchat"><path id="Background" class="cls-1" d="M277,657.2c0-48.65,0-73,15.11-88.09S331.55,554,380.2,554h8.6c48.65,0,73,0,88.09,15.11S492,608.55,492,657.2v8.6c0,48.65,0,73-15.11,88.09S437.45,769,388.8,769h-8.6c-48.65,0-73,0-88.09-15.11S277,714.45,277,665.8Z" transform="translate(-277 -554)"/><path id="Snapchat-2" data-name="Snapchat" d="M444.45,694.21c-21.7-10.51-25.16-26.73-25.32-27.93-.18-1.46-.4-2.6,1.21-4.09s8.43-5.69,10.34-7c3.15-2.2,4.54-4.4,3.52-7.11a4.25,4.25,0,0,0-4.3-2.58,8.31,8.31,0,0,0-1.72.19c-3.47.76-6.83,2.49-8.78,3a3.38,3.38,0,0,1-.72.1c-1,0-1.43-.46-1.33-1.71a122.44,122.44,0,0,0,.16-18.09c-.82-9.51-3.88-14.21-7.52-18.38-1.75-2-9.92-10.69-25.67-10.69s-23.91,8.67-25.66,10.67c-3.64,4.16-6.7,8.87-7.51,18.37a125.26,125.26,0,0,0,.16,18.09c.07,1.19-.3,1.71-1.34,1.71a2.82,2.82,0,0,1-.71-.09c-1.95-.47-5.31-2.21-8.78-3a7.62,7.62,0,0,0-1.72-.19,4.26,4.26,0,0,0-4.3,2.57c-1,2.71.36,4.91,3.53,7.12,1.91,1.33,8.78,5.58,10.33,7s1.4,2.63,1.21,4.08c-.15,1.23-3.61,17.45-25.31,27.93-1.27.62-3.43,1.92.38,4,6,3.31,10,2.95,13.07,4.95,2.63,1.69,1.07,5.34,3,6.66,2.35,1.62,9.3-.12,18.27,2.85,7.51,2.47,12.08,9.47,25.42,9.47s18-7,25.42-9.47c8.95-3,15.91-1.23,18.26-2.85,1.91-1.32.36-5,3-6.66,3.09-2,7.07-1.64,13.06-4.95C447.88,696.13,445.72,694.82,444.45,694.21Z" transform="translate(-277 -554)"/></g></svg>