<svg id="Icons" xmlns="http://www.w3.org/2000/svg" viewBox="0 0 215 215"><defs><style>.cls-1{fill:#fff;}</style></defs><g id="TikTok"><path id="Background" class="cls-1" d="M277,380.2c0-48.65,0-73,15.11-88.09S331.55,277,380.2,277h8.6c48.65,0,73,0,88.09,15.11S492,331.55,492,380.2v8.6c0,48.65,0,73-15.11,88.09S437.45,492,388.8,492h-8.6c-48.65,0-73,0-88.09-15.11S277,437.45,277,388.8Z" transform="translate(-277 -277)"/><path id="TikTok-2" data-name="TikTok" d="M422.85,347.29a29.93,29.93,0,0,1-13.17-19.65h0a29.09,29.09,0,0,1-.45-5.44H387.61v86.43a18.16,18.16,0,0,1-18.11,17.48,18.61,18.61,0,0,1-8.45-2,18.15,18.15,0,0,1,8.36-34.2,18.63,18.63,0,0,1,5.35.84v-22.1a36.2,36.2,0,0,0-5.3-.44A39.69,39.69,0,0,0,331.52,396c-5,16,.07,33.57,13.35,43.65.66.55,1.18.87,1.8,1.31a39.29,39.29,0,0,0,22.78,6.73A39.77,39.77,0,0,0,409.22,408V364a51.38,51.38,0,0,0,30,9.62v-21.4A29.66,29.66,0,0,1,422.85,347.29Z" transform="translate(-277 -277)"/></g></svg>