<svg id="Icons" xmlns="http://www.w3.org/2000/svg" viewBox="0 0 215 215"><defs><style>.cls-1{fill:#fff;}</style></defs><g id="Tumblr"><path id="Background" class="cls-1" d="M831,934.2c0-48.65,0-73,15.11-88.09S885.55,831,934.2,831h8.6c48.65,0,73,0,88.09,15.11S1046,885.55,1046,934.2v8.6c0,48.65,0,73-15.11,88.09S991.45,1046,942.8,1046h-8.6c-48.65,0-73,0-88.09-15.11S831,991.45,831,942.8Z" transform="translate(-831 -831)"/><path id="Tumblr-2" data-name="Tumblr" d="M949.64,962.26c0,9.62,4.85,12.94,12.58,12.94h11v24.45H952.43c-18.7,0-32.63-9.62-32.63-32.63V930.18h-17v-20c18.7-4.85,26.52-20.94,27.42-34.87h19.41V907h22.65v23.19H949.64v32.08" transform="translate(-831 -831)"/></g></svg>