<svg id="Icons" xmlns="http://www.w3.org/2000/svg" viewBox="0 0 215 215"><defs><style>.cls-1{fill:#fff;}</style></defs><g id="Vimeo"><path id="Background" class="cls-1" d="M0,934.2c0-48.65,0-73,15.11-88.09S54.55,831,103.2,831h8.6c48.65,0,73,0,88.09,15.11S215,885.55,215,934.2v8.6c0,48.65,0,73-15.11,88.09S160.45,1046,111.8,1046h-8.6c-48.65,0-73,0-88.09-15.11S0,991.45,0,942.8Z" transform="translate(0 -831)"/><path id="Vimeo-2" data-name="Vimeo" d="M172,912.33q-.88,19.45-27.18,53.28-27.16,35.31-46,35.32-11.65,0-19.72-21.51Q73.74,959.7,68.36,940q-6-21.51-12.84-21.51c-1,0-4.49,2.1-10.46,6.27l-6.27-8.07q9.87-8.67,19.45-17.34Q71.4,888,78,887.36q15.56-1.5,19.15,21.27,3.87,24.55,5.38,30.53,4.5,20.39,9.88,20.37,4.17,0,12.56-13.22t9-20.12q1.2-11.4-9-11.41A25,25,0,0,0,115.1,917q9.83-32.16,37.53-31.27Q173.18,886.29,172,912.33Z" transform="translate(0 -831)"/></g></svg>