<svg width="37" height="37" viewBox="0 0 37 37" fill="none" xmlns="http://www.w3.org/2000/svg">
<rect x="0.833496" y="0.813477" width="36" height="36" fill="#FF0000" fill-opacity="0.01"/>
<path d="M21.1759 18.8135L30.3487 9.64068C30.9951 8.99428 30.9951 7.94468 30.3487 7.29828C29.7023 6.65188 28.6527 6.65188 28.0063 7.29828L18.8335 16.4711L9.6607 7.29828C9.0143 6.65188 7.9647 6.65188 7.3183 7.29828C6.6719 7.94468 6.6719 8.99428 7.3183 9.64068L16.4911 18.8135L7.3183 27.9863C6.6719 28.6327 6.6719 29.6823 7.3183 30.3287C7.9647 30.9751 9.0143 30.9751 9.6607 30.3287L18.8335 21.1559L28.0063 30.3287C28.6527 30.9751 29.7023 30.9751 30.3487 30.3287C30.9951 29.6823 30.9951 28.6327 30.3487 27.9863L21.1759 18.8135Z" fill="black"/>
<mask id="mask0_52_983" style="mask-type:luminance" maskUnits="userSpaceOnUse" x="6" y="6" width="25" height="25">
<path d="M21.1759 18.8135L30.3487 9.64068C30.9951 8.99428 30.9951 7.94468 30.3487 7.29828C29.7023 6.65188 28.6527 6.65188 28.0063 7.29828L18.8335 16.4711L9.6607 7.29828C9.0143 6.65188 7.9647 6.65188 7.3183 7.29828C6.6719 7.94468 6.6719 8.99428 7.3183 9.64068L16.4911 18.8135L7.3183 27.9863C6.6719 28.6327 6.6719 29.6823 7.3183 30.3287C7.9647 30.9751 9.0143 30.9751 9.6607 30.3287L18.8335 21.1559L28.0063 30.3287C28.6527 30.9751 29.7023 30.9751 30.3487 30.3287C30.9951 29.6823 30.9951 28.6327 30.3487 27.9863L21.1759 18.8135Z" fill="white"/>
</mask>
<g mask="url(#mask0_52_983)">
<rect x="0.833496" y="0.813477" width="36" height="36" fill="black"/>
</g>
</svg>
