<svg width="72" height="40" viewBox="0 0 72 40" fill="none" xmlns="http://www.w3.org/2000/svg">
<path fill-rule="evenodd" clip-rule="evenodd" d="M52.1273 0.893066C62.6622 0.893066 71.2041 9.43493 71.2041 19.9699C71.2041 30.5049 62.6622 39.047 52.0796 38.9993H41.0699C36.799 38.9994 33.0026 37.291 30.2028 34.4912C27.4031 31.6915 25.6947 27.8949 25.6947 23.6242C25.6947 21.2514 27.6404 19.3057 30.0132 19.3057C32.3859 19.3057 34.3316 21.2514 34.3316 23.6242C34.2844 27.3729 37.3215 30.41 41.0702 30.3627L52.1273 30.4101C57.9168 30.41 62.5674 25.7596 62.5673 19.9701C62.5672 14.1805 57.9167 9.53001 52.1273 9.53001C49.7545 9.53001 47.8088 7.58427 47.8088 5.21154C47.8088 2.8388 49.7545 0.893066 52.1273 0.893066ZM9.4325 20.2388C9.43258 26.0284 14.0831 30.6789 19.8725 30.6789C22.2453 30.6789 24.1915 32.6248 24.1912 34.9972C24.1912 37.3699 22.2455 39.3156 19.8727 39.3156C14.6052 39.2681 9.85967 37.1801 6.39556 33.716C2.93136 30.2518 0.795898 25.459 0.795898 20.2388C0.795898 9.70385 9.33775 1.16199 19.8727 1.162L30.9298 1.20937C39.3767 1.20937 46.3051 8.13776 46.3051 16.5847C46.3051 18.9575 44.3594 20.9032 41.9866 20.9032C39.6139 20.9032 37.6682 18.9575 37.6682 16.5847C37.6682 12.8832 34.6311 9.84613 30.9296 9.84613L19.8725 9.79876C14.083 9.79885 9.43241 14.4492 9.4325 20.2388Z" fill="#00C2FF"/>
</svg>
