<svg width="96" height="96" viewBox="0 0 96 96" fill="none" xmlns="http://www.w3.org/2000/svg">
<mask id="path-1-inside-1_9_2399" fill="white">
<path fill-rule="evenodd" clip-rule="evenodd" d="M66.391 45.6032C66.2139 40.8457 65.5122 36.2639 64.3355 32.1296C66.56 31.4715 68.6457 30.6752 70.5629 29.7475C74.1317 34.1541 76.4341 39.6256 76.915 45.6019H66.391V45.6032ZM64.3342 63.7623C65.5081 59.6259 66.2085 55.0434 66.3876 50.2988H76.9157C76.4347 56.2739 74.1338 61.7411 70.5682 66.1478C68.6483 65.218 66.5593 64.4198 64.3342 63.7623ZM61.9359 70.2339C62.2438 69.5838 62.533 68.9117 62.8114 68.2241C64.3288 68.6615 65.7717 69.1706 67.1188 69.7415C64.8387 71.74 62.2452 73.3894 59.421 74.601C60.328 73.3063 61.171 71.8473 61.9359 70.2339ZM33.2496 68.2449C33.52 68.9096 33.7977 69.5617 34.0969 70.1902C34.867 71.8204 35.7183 73.2955 36.6346 74.6003C33.8185 73.3942 31.2363 71.7527 28.9609 69.7637C30.3019 69.1928 31.7368 68.6842 33.2496 68.2449ZM29.6675 50.2988C29.8446 55.0503 30.5463 59.6434 31.7243 63.7844C29.5038 64.4439 27.419 65.2442 25.5071 66.1753C21.9288 61.7633 19.6206 56.2859 19.1354 50.2974L29.6675 50.2988ZM31.7248 32.1054C30.5448 36.2477 29.8392 40.8356 29.6661 45.6032L19.1361 45.6026C19.6211 39.6113 21.9348 34.1292 25.5151 29.7152C27.427 30.6463 29.5057 31.4466 31.7248 32.1054ZM34.3444 25.1991C33.956 25.984 33.5911 26.8011 33.249 27.647C31.741 27.2076 30.3074 26.7005 28.9704 26.1316C31.2392 24.1465 33.8205 22.5077 36.6306 21.3037C35.8135 22.4676 35.0487 23.7688 34.3444 25.1991ZM61.7032 25.1911C61.0009 23.7642 60.2368 22.4655 59.4211 21.3029C62.2426 22.5124 64.8327 24.1579 67.1089 26.155C65.7645 26.7245 64.3249 27.231 62.8109 27.6684C62.4681 26.8138 62.0963 25.986 61.7032 25.1911ZM50.2629 29.6079V19.3932C52.9072 20.4021 55.4698 23.1667 57.4932 27.2675C57.73 27.7485 57.954 28.2462 58.1734 28.7534C55.6431 29.2156 52.9823 29.5059 50.2629 29.6079ZM50.2629 45.6039V34.3079C53.5593 34.1972 56.7525 33.8383 59.7712 33.2453C60.8586 37.0072 61.5147 41.2114 61.6852 45.6054L50.2629 45.6039ZM50.2629 61.5846V50.2984H61.6852C61.5141 54.679 60.8607 58.8865 59.7733 62.6484C56.7566 62.0554 53.5614 61.6966 50.2629 61.5846ZM50.2629 66.2844C52.9845 66.387 55.6503 66.6788 58.1813 67.143C58.0217 67.5093 57.86 67.8702 57.6929 68.2211C55.6497 72.5331 52.9952 75.4715 50.2621 76.5118L50.2629 66.2844ZM45.567 66.2964V76.4241C42.9052 75.3085 40.3326 72.3964 38.3408 68.1843C38.1812 67.8455 38.0276 67.5041 37.8773 67.1553C40.3379 66.7004 42.922 66.4091 45.567 66.2964ZM45.567 50.2985V61.5946C42.347 61.7167 39.2297 62.0796 36.2828 62.6632C35.1954 58.8952 34.5394 54.6836 34.3649 50.2984L45.567 50.2985ZM45.567 34.2978V45.6033L34.3649 45.604C34.54 41.2033 35.1947 36.9938 36.2862 33.2298C39.2311 33.8114 42.3491 34.1737 45.567 34.2978ZM45.567 29.5959C42.9259 29.4812 40.3432 29.1921 37.8887 28.7372C38.1033 28.2375 38.3227 27.7478 38.5548 27.2742C40.5217 23.2848 43.0011 20.5579 45.5663 19.4804L45.567 29.5959ZM48.0255 14.2715C29.4543 14.2715 14.3453 29.3806 14.3453 47.9518C14.3453 66.523 29.4543 81.632 48.0255 81.632C66.5967 81.632 81.7058 66.5235 81.7058 47.9518C81.7058 29.38 66.5961 14.2715 48.0255 14.2715ZM82.2193 82.0991C81.5981 82.7197 80.773 83.0611 79.8942 83.0611C79.0174 83.0611 78.1923 82.7197 77.5705 82.0991C76.2892 80.8179 76.2892 78.7316 77.5705 77.4503C78.1917 76.8298 79.0168 76.487 79.8942 76.487C80.773 76.487 81.5975 76.8305 82.2193 77.4503C82.8398 78.0715 83.1813 78.8966 83.1813 79.774C83.1813 80.6528 82.8385 81.4773 82.2193 82.0991ZM23.5124 82.9632C38.2392 93.3114 57.8521 93.2994 72.5662 82.935C71.3131 80.0202 71.8725 76.507 74.2493 74.1297C75.7573 72.6237 77.7618 71.7906 79.8936 71.7906C80.9958 71.7906 82.0632 72.0139 83.0472 72.4366C93.3699 57.7232 93.3592 38.126 83.0177 23.4257C82.0443 23.8389 80.9857 24.0563 79.8942 24.0563C77.7623 24.0563 75.7578 23.2265 74.2498 21.7192C71.8851 19.3525 71.3197 15.8608 72.5493 12.9554C57.8433 2.61129 38.2422 2.59978 23.5281 12.9266C24.7739 15.8394 24.2117 19.3472 21.8396 21.7212C20.3336 23.2272 18.3272 24.0583 16.1974 24.0583C15.0891 24.0583 14.0179 23.8349 13.0323 23.4083C2.66995 38.1224 2.65861 57.7308 13.0041 72.4569C13.9977 72.0229 15.0776 71.7922 16.1973 71.7922C18.3272 71.7922 20.3337 72.624 21.8396 74.1313C24.2238 76.5162 24.7792 80.0441 23.512 82.9649L23.5124 82.9632ZM16.1976 83.0611C15.3188 83.0611 14.4923 82.7197 13.8725 82.0991C12.5912 80.8178 12.5912 78.7316 13.8725 77.4503C14.493 76.8298 15.3188 76.487 16.1976 76.487C17.073 76.487 17.8995 76.8305 18.5194 77.4503C19.8007 78.7316 19.8007 80.8178 18.5194 82.0991C17.8982 82.719 17.0731 83.0611 16.1976 83.0611ZM13.8725 13.7514C14.493 13.1309 15.3188 12.7894 16.1976 12.7894C17.073 12.7894 17.8995 13.1309 18.5194 13.7514C19.8007 15.0327 19.8007 17.1189 18.5194 18.4002C17.8982 19.0207 17.0731 19.3635 16.1976 19.3635C15.3188 19.3635 14.4923 19.0201 13.8725 18.4002C13.252 17.779 12.9092 16.9539 12.9092 16.0751C12.9085 15.197 13.2526 14.3725 13.8725 13.7514ZM79.8952 12.7901C80.774 12.7901 81.5985 13.1315 82.2203 13.7521C82.8409 14.3733 83.1823 15.1984 83.1823 16.0758C83.1823 16.9546 82.8409 17.779 82.2203 18.4009C81.5991 19.0221 80.774 19.3642 79.8952 19.3642C79.0185 19.3642 78.1933 19.0207 77.5715 18.4009C76.2902 17.1196 76.2902 15.0334 77.5715 13.7521C78.1927 13.1315 79.0172 12.7901 79.8952 12.7901ZM95.4451 47.9318C95.4411 38.0685 92.3198 28.3611 86.617 20.3824C87.4361 19.1092 87.8775 17.6252 87.8775 16.0736C87.8775 13.9417 87.0477 11.9373 85.5423 10.4293C84.0322 8.92326 82.0298 8.09216 79.8938 8.09216C78.3442 8.09216 76.8603 8.53356 75.5864 9.35264C67.6068 3.65197 57.8996 0.527799 48.037 0.524536H48.0196C38.1624 0.524536 28.4523 3.64063 20.4736 9.33598C19.2064 8.5263 17.7326 8.09226 16.1971 8.09226C14.0611 8.09226 12.0568 8.92207 10.5486 10.4294C9.04263 11.9374 8.21153 13.9418 8.21153 16.0737C8.21153 17.6106 8.64354 19.079 9.4472 20.3428C3.7297 28.3305 0.596943 38.0519 0.593509 47.9317C0.590154 57.8145 3.7175 67.5419 9.43312 75.5344C7.50181 78.6168 7.87411 82.7411 10.5507 85.4197C12.0587 86.9257 14.0632 87.7568 16.1992 87.7568C17.7206 87.7568 19.1784 87.3308 20.4362 86.5392C28.4231 92.2507 38.1453 95.3761 48.0217 95.3761H48.0391C57.9184 95.3721 67.6407 92.2392 75.6297 86.5198C76.8922 87.3235 78.3606 87.7555 79.8956 87.7555C82.0316 87.7555 84.034 86.9257 85.544 85.4184C87.048 83.9104 87.8792 81.9059 87.8792 79.772C87.8792 78.2331 87.4452 76.7606 86.6355 75.4934C92.3329 67.5099 95.4509 57.7963 95.4456 47.9303L95.4451 47.9318Z"/>
</mask>
<path fill-rule="evenodd" clip-rule="evenodd" d="M66.391 45.6032C66.2139 40.8457 65.5122 36.2639 64.3355 32.1296C66.56 31.4715 68.6457 30.6752 70.5629 29.7475C74.1317 34.1541 76.4341 39.6256 76.915 45.6019H66.391V45.6032ZM64.3342 63.7623C65.5081 59.6259 66.2085 55.0434 66.3876 50.2988H76.9157C76.4347 56.2739 74.1338 61.7411 70.5682 66.1478C68.6483 65.218 66.5593 64.4198 64.3342 63.7623ZM61.9359 70.2339C62.2438 69.5838 62.533 68.9117 62.8114 68.2241C64.3288 68.6615 65.7717 69.1706 67.1188 69.7415C64.8387 71.74 62.2452 73.3894 59.421 74.601C60.328 73.3063 61.171 71.8473 61.9359 70.2339ZM33.2496 68.2449C33.52 68.9096 33.7977 69.5617 34.0969 70.1902C34.867 71.8204 35.7183 73.2955 36.6346 74.6003C33.8185 73.3942 31.2363 71.7527 28.9609 69.7637C30.3019 69.1928 31.7368 68.6842 33.2496 68.2449ZM29.6675 50.2988C29.8446 55.0503 30.5463 59.6434 31.7243 63.7844C29.5038 64.4439 27.419 65.2442 25.5071 66.1753C21.9288 61.7633 19.6206 56.2859 19.1354 50.2974L29.6675 50.2988ZM31.7248 32.1054C30.5448 36.2477 29.8392 40.8356 29.6661 45.6032L19.1361 45.6026C19.6211 39.6113 21.9348 34.1292 25.5151 29.7152C27.427 30.6463 29.5057 31.4466 31.7248 32.1054ZM34.3444 25.1991C33.956 25.984 33.5911 26.8011 33.249 27.647C31.741 27.2076 30.3074 26.7005 28.9704 26.1316C31.2392 24.1465 33.8205 22.5077 36.6306 21.3037C35.8135 22.4676 35.0487 23.7688 34.3444 25.1991ZM61.7032 25.1911C61.0009 23.7642 60.2368 22.4655 59.4211 21.3029C62.2426 22.5124 64.8327 24.1579 67.1089 26.155C65.7645 26.7245 64.3249 27.231 62.8109 27.6684C62.4681 26.8138 62.0963 25.986 61.7032 25.1911ZM50.2629 29.6079V19.3932C52.9072 20.4021 55.4698 23.1667 57.4932 27.2675C57.73 27.7485 57.954 28.2462 58.1734 28.7534C55.6431 29.2156 52.9823 29.5059 50.2629 29.6079ZM50.2629 45.6039V34.3079C53.5593 34.1972 56.7525 33.8383 59.7712 33.2453C60.8586 37.0072 61.5147 41.2114 61.6852 45.6054L50.2629 45.6039ZM50.2629 61.5846V50.2984H61.6852C61.5141 54.679 60.8607 58.8865 59.7733 62.6484C56.7566 62.0554 53.5614 61.6966 50.2629 61.5846ZM50.2629 66.2844C52.9845 66.387 55.6503 66.6788 58.1813 67.143C58.0217 67.5093 57.86 67.8702 57.6929 68.2211C55.6497 72.5331 52.9952 75.4715 50.2621 76.5118L50.2629 66.2844ZM45.567 66.2964V76.4241C42.9052 75.3085 40.3326 72.3964 38.3408 68.1843C38.1812 67.8455 38.0276 67.5041 37.8773 67.1553C40.3379 66.7004 42.922 66.4091 45.567 66.2964ZM45.567 50.2985V61.5946C42.347 61.7167 39.2297 62.0796 36.2828 62.6632C35.1954 58.8952 34.5394 54.6836 34.3649 50.2984L45.567 50.2985ZM45.567 34.2978V45.6033L34.3649 45.604C34.54 41.2033 35.1947 36.9938 36.2862 33.2298C39.2311 33.8114 42.3491 34.1737 45.567 34.2978ZM45.567 29.5959C42.9259 29.4812 40.3432 29.1921 37.8887 28.7372C38.1033 28.2375 38.3227 27.7478 38.5548 27.2742C40.5217 23.2848 43.0011 20.5579 45.5663 19.4804L45.567 29.5959ZM48.0255 14.2715C29.4543 14.2715 14.3453 29.3806 14.3453 47.9518C14.3453 66.523 29.4543 81.632 48.0255 81.632C66.5967 81.632 81.7058 66.5235 81.7058 47.9518C81.7058 29.38 66.5961 14.2715 48.0255 14.2715ZM82.2193 82.0991C81.5981 82.7197 80.773 83.0611 79.8942 83.0611C79.0174 83.0611 78.1923 82.7197 77.5705 82.0991C76.2892 80.8179 76.2892 78.7316 77.5705 77.4503C78.1917 76.8298 79.0168 76.487 79.8942 76.487C80.773 76.487 81.5975 76.8305 82.2193 77.4503C82.8398 78.0715 83.1813 78.8966 83.1813 79.774C83.1813 80.6528 82.8385 81.4773 82.2193 82.0991ZM23.5124 82.9632C38.2392 93.3114 57.8521 93.2994 72.5662 82.935C71.3131 80.0202 71.8725 76.507 74.2493 74.1297C75.7573 72.6237 77.7618 71.7906 79.8936 71.7906C80.9958 71.7906 82.0632 72.0139 83.0472 72.4366C93.3699 57.7232 93.3592 38.126 83.0177 23.4257C82.0443 23.8389 80.9857 24.0563 79.8942 24.0563C77.7623 24.0563 75.7578 23.2265 74.2498 21.7192C71.8851 19.3525 71.3197 15.8608 72.5493 12.9554C57.8433 2.61129 38.2422 2.59978 23.5281 12.9266C24.7739 15.8394 24.2117 19.3472 21.8396 21.7212C20.3336 23.2272 18.3272 24.0583 16.1974 24.0583C15.0891 24.0583 14.0179 23.8349 13.0323 23.4083C2.66995 38.1224 2.65861 57.7308 13.0041 72.4569C13.9977 72.0229 15.0776 71.7922 16.1973 71.7922C18.3272 71.7922 20.3337 72.624 21.8396 74.1313C24.2238 76.5162 24.7792 80.0441 23.512 82.9649L23.5124 82.9632ZM16.1976 83.0611C15.3188 83.0611 14.4923 82.7197 13.8725 82.0991C12.5912 80.8178 12.5912 78.7316 13.8725 77.4503C14.493 76.8298 15.3188 76.487 16.1976 76.487C17.073 76.487 17.8995 76.8305 18.5194 77.4503C19.8007 78.7316 19.8007 80.8178 18.5194 82.0991C17.8982 82.719 17.0731 83.0611 16.1976 83.0611ZM13.8725 13.7514C14.493 13.1309 15.3188 12.7894 16.1976 12.7894C17.073 12.7894 17.8995 13.1309 18.5194 13.7514C19.8007 15.0327 19.8007 17.1189 18.5194 18.4002C17.8982 19.0207 17.0731 19.3635 16.1976 19.3635C15.3188 19.3635 14.4923 19.0201 13.8725 18.4002C13.252 17.779 12.9092 16.9539 12.9092 16.0751C12.9085 15.197 13.2526 14.3725 13.8725 13.7514ZM79.8952 12.7901C80.774 12.7901 81.5985 13.1315 82.2203 13.7521C82.8409 14.3733 83.1823 15.1984 83.1823 16.0758C83.1823 16.9546 82.8409 17.779 82.2203 18.4009C81.5991 19.0221 80.774 19.3642 79.8952 19.3642C79.0185 19.3642 78.1933 19.0207 77.5715 18.4009C76.2902 17.1196 76.2902 15.0334 77.5715 13.7521C78.1927 13.1315 79.0172 12.7901 79.8952 12.7901ZM95.4451 47.9318C95.4411 38.0685 92.3198 28.3611 86.617 20.3824C87.4361 19.1092 87.8775 17.6252 87.8775 16.0736C87.8775 13.9417 87.0477 11.9373 85.5423 10.4293C84.0322 8.92326 82.0298 8.09216 79.8938 8.09216C78.3442 8.09216 76.8603 8.53356 75.5864 9.35264C67.6068 3.65197 57.8996 0.527799 48.037 0.524536H48.0196C38.1624 0.524536 28.4523 3.64063 20.4736 9.33598C19.2064 8.5263 17.7326 8.09226 16.1971 8.09226C14.0611 8.09226 12.0568 8.92207 10.5486 10.4294C9.04263 11.9374 8.21153 13.9418 8.21153 16.0737C8.21153 17.6106 8.64354 19.079 9.4472 20.3428C3.7297 28.3305 0.596943 38.0519 0.593509 47.9317C0.590154 57.8145 3.7175 67.5419 9.43312 75.5344C7.50181 78.6168 7.87411 82.7411 10.5507 85.4197C12.0587 86.9257 14.0632 87.7568 16.1992 87.7568C17.7206 87.7568 19.1784 87.3308 20.4362 86.5392C28.4231 92.2507 38.1453 95.3761 48.0217 95.3761H48.0391C57.9184 95.3721 67.6407 92.2392 75.6297 86.5198C76.8922 87.3235 78.3606 87.7555 79.8956 87.7555C82.0316 87.7555 84.034 86.9257 85.544 85.4184C87.048 83.9104 87.8792 81.9059 87.8792 79.772C87.8792 78.2331 87.4452 76.7606 86.6355 75.4934C92.3329 67.5099 95.4509 57.7963 95.4456 47.9303L95.4451 47.9318Z" fill="#918ACA" stroke="white" stroke-width="1.4" mask="url(#path-1-inside-1_9_2399)"/>
</svg>
