<svg width="84" height="85" viewBox="0 0 84 85" fill="none" xmlns="http://www.w3.org/2000/svg">
<path d="M81.8775 84.539C81.0636 84.539 80.4036 83.879 80.4036 83.065V32.9512C80.4036 32.1373 81.0636 31.4773 81.8775 31.4773C82.6914 31.4773 83.3514 32.1373 83.3514 32.9512V83.065C83.3514 83.4559 83.1961 83.831 82.9198 84.1073C82.6434 84.3837 82.2684 84.539 81.8775 84.539Z" fill="#918ACA"/>
<path d="M12.6025 42.4433C12.2768 42.442 11.961 42.3334 11.7037 42.1334L1.38616 34.1149V34.1155C1.02624 33.8359 0.815674 33.4062 0.815674 32.9508C0.815674 32.4955 1.02624 32.0658 1.38616 31.7862L11.7037 23.7676V23.7683C12.1301 23.4531 12.6927 23.3912 13.1776 23.6057C13.6837 23.8538 14.0041 24.369 14.0028 24.9323V40.9692C14.0041 41.5325 13.6837 42.0477 13.1776 42.2958C12.998 42.3833 12.8019 42.4333 12.6025 42.4432V42.4433ZM4.68742 32.9508L11.1286 37.9622V27.9395L4.68742 32.9508Z" fill="#918ACA"/>
<path d="M71.5599 42.4433C71.3355 42.4439 71.1138 42.3933 70.9111 42.2959C70.4051 42.0478 70.0846 41.5326 70.0859 40.9693V24.9324C70.0846 24.3691 70.4051 23.8539 70.9111 23.6059C71.396 23.3914 71.9586 23.4532 72.385 23.7684L82.7026 31.7869V31.7863C83.0625 32.0659 83.273 32.4956 83.273 32.951C83.273 33.4063 83.0625 33.836 82.7026 34.1156L72.385 42.1342V42.1335C72.1481 42.3184 71.8599 42.4263 71.5599 42.4434V42.4433ZM73.0338 27.9394V37.9622L79.475 32.9508L73.0338 27.9394Z" fill="#918ACA"/>
<path d="M42.0813 65.3777C41.7556 65.3764 41.4397 65.2678 41.1825 65.0685L11.7038 42.134V42.1334C11.3419 41.855 11.13 41.4254 11.1287 40.9693V1.99849C11.1287 1.18454 11.7886 0.524555 12.6026 0.524555H59.7685C60.16 0.522581 60.5371 0.675897 60.8148 0.952266L72.6062 12.7437C72.8826 13.0214 73.0359 13.3985 73.034 13.79V40.9693C73.0326 41.4253 72.8208 41.855 72.4588 42.1334L42.9801 65.0678V65.0685C42.7229 65.2678 42.407 65.3764 42.0813 65.3777ZM14.0765 40.3208L42.0813 62.0323L70.0861 40.3208V14.3947L59.1645 3.4731H14.0772L14.0765 40.3208Z" fill="#918ACA"/>
<path d="M2.28497 84.5389C2.0606 84.5395 1.83885 84.4895 1.63617 84.3915C1.13017 84.1434 0.809725 83.6289 0.811039 83.0649V32.9511C0.809723 32.3872 1.13017 31.8727 1.63617 31.6246C2.14087 31.3798 2.74097 31.4423 3.18381 31.7865L35.4032 56.8434H35.4039C35.7638 57.123 35.9737 57.5527 35.9737 58.008C35.9737 58.4634 35.7638 58.8931 35.4039 59.1727L3.18446 84.2296H3.18381C2.92653 84.429 2.61069 84.5376 2.28497 84.5389ZM3.75891 35.899V80.1171L32.1023 58.008L3.75891 35.899Z" fill="#918ACA"/>
<path d="M81.8774 84.5388H2.2849C1.65584 84.5369 1.09719 84.1362 0.894529 83.5406C0.69121 82.9451 0.888606 82.2865 1.38606 81.9002L33.6055 56.8433C34.1351 56.4354 34.8734 56.4354 35.4038 56.8433L42.0807 62.0318L48.7575 56.8433C49.2879 56.4354 50.0261 56.4354 50.5559 56.8433L82.7753 81.9002C83.2727 82.2865 83.4701 82.9451 83.2668 83.5406C83.0641 84.1362 82.5055 84.5369 81.8764 84.5388H81.8774ZM6.58879 81.591H77.5735L49.658 59.8795L42.9812 65.0679H42.9805C42.4508 65.4759 41.7126 65.4759 41.1828 65.0679L34.506 59.8795L6.58879 81.591Z" fill="#918ACA"/>
<path d="M81.8774 84.5389C81.5517 84.5375 81.2359 84.429 80.9786 84.2296L48.7592 59.1727H48.7586C48.3986 58.893 48.1887 58.4634 48.1887 58.008C48.1887 57.5527 48.3986 57.123 48.7586 56.8433L80.9779 31.7864H80.9786C81.2846 31.5186 81.6873 31.389 82.092 31.4285C82.4966 31.468 82.8678 31.6726 83.1158 31.995C83.3645 32.3168 83.4692 32.7267 83.4047 33.1288C83.3402 33.5302 83.1132 33.8874 82.7763 34.1158L52.0594 58.0087L82.7763 81.9016C83.2737 82.2879 83.4711 82.9465 83.2678 83.542C83.0651 84.1375 82.5065 84.5383 81.8774 84.5402V84.5389Z" fill="#918ACA"/>
<path d="M71.5599 15.264H59.7684C58.9544 15.264 58.2944 14.604 58.2944 13.79V1.99856C58.2977 1.40373 58.6576 0.868767 59.2084 0.642405C59.7572 0.411443 60.3908 0.533834 60.8146 0.952319L72.6061 12.7438C73.0246 13.1676 73.147 13.8012 72.916 14.35C72.6896 14.9008 72.1547 15.2607 71.5599 15.264ZM61.2423 12.3161H68.0079L61.2423 5.55049V12.3161Z" fill="#918ACA"/>
<path d="M37.6595 35.899H33.2377C31.1314 35.899 29.185 34.7751 28.1316 32.9512C27.0788 31.1272 27.0788 28.8794 28.1316 27.0554C29.1851 25.2314 31.1316 24.1075 33.2377 24.1075H37.6595C38.0504 24.1075 38.4254 24.2628 38.7018 24.5392C38.9781 24.8156 39.1334 25.1906 39.1334 25.5815V34.4251C39.1334 34.8159 38.9782 35.191 38.7018 35.4674C38.4254 35.7437 38.0504 35.899 37.6595 35.899ZM33.2377 27.0554C32.1842 27.0554 31.2111 27.6173 30.6847 28.5294C30.1583 29.4414 30.1583 30.5652 30.6847 31.4772C31.2111 32.3892 32.1843 32.9512 33.2377 32.9512H36.1856V27.0554H33.2377Z" fill="#918ACA"/>
<path d="M46.5031 40.3208C46.2721 40.3195 46.0451 40.2635 45.8398 40.1589L36.9962 35.7371C36.5007 35.4871 36.1875 34.9797 36.1855 34.425V25.5814C36.1875 25.0267 36.5007 24.5194 36.9962 24.2693L45.8398 19.8475C46.2958 19.6179 46.8387 19.6409 47.2743 19.9081C47.7092 20.1752 47.9757 20.649 47.977 21.1596V38.8468C47.9783 39.3561 47.7158 39.8299 47.2841 40.0997C47.0499 40.2451 46.7788 40.3214 46.5031 40.3208ZM39.1334 33.511L45.0292 36.4589V23.5476L39.1334 26.4954V33.511Z" fill="#918ACA"/>
<path d="M55.3466 31.4772H52.3987C51.5848 31.4772 50.9248 30.8172 50.9248 30.0032C50.9248 29.1893 51.5848 28.5293 52.3987 28.5293H55.3466C56.1606 28.5293 56.8205 29.1893 56.8205 30.0032C56.8205 30.8172 56.1606 31.4772 55.3466 31.4772Z" fill="#918ACA"/>
<path d="M52.3987 25.5814C51.844 25.5795 51.3367 25.2662 51.0867 24.7708C50.7228 24.0463 51.013 23.1633 51.7355 22.7954L54.6833 21.3214C55.0347 21.1102 55.4578 21.0549 55.8513 21.1681C56.2448 21.2819 56.5738 21.5537 56.7587 21.9195C56.9436 22.2854 56.9679 22.7111 56.8258 23.0954C56.6837 23.4797 56.3882 23.7876 56.0099 23.9456L53.062 25.4195C52.858 25.5281 52.6297 25.5841 52.3987 25.5814Z" fill="#918ACA"/>
<path d="M55.3467 38.8469C55.1157 38.8495 54.8874 38.7936 54.6834 38.685L51.7355 37.2111C51.3572 37.0531 51.0617 36.7452 50.9196 36.3609C50.7775 35.9766 50.8018 35.5509 50.9867 35.185C51.1716 34.8192 51.5006 34.5474 51.8941 34.4336C52.2876 34.3204 52.7107 34.3757 53.0621 34.5869L56.0099 36.0609C56.7324 36.4287 57.0226 37.3117 56.6587 38.0363C56.4087 38.5318 55.9014 38.8449 55.3467 38.8469Z" fill="#918ACA"/>
<path d="M33.2376 41.7948C32.4237 41.7948 31.7637 41.1348 31.7637 40.3208V34.4251C31.7637 33.6112 32.4237 32.9512 33.2376 32.9512C34.0516 32.9512 34.7115 33.6112 34.7115 34.4251V40.3208C34.7115 40.7117 34.5563 41.0868 34.2799 41.3631C34.0035 41.6395 33.6285 41.7948 33.2376 41.7948Z" fill="#918ACA"/>
</svg>
