<svg width="91" height="91" viewBox="0 0 91 91" fill="none" xmlns="http://www.w3.org/2000/svg">
<path fill-rule="evenodd" clip-rule="evenodd" d="M0.319336 76.7818V14.8569C0.319336 11.1628 1.78729 7.61805 4.40037 5.00482C7.0136 2.39159 10.5584 0.92379 14.2524 0.92379H76.1774C79.8715 0.92379 83.4162 2.39175 86.0294 5.00482C88.6427 7.61805 90.1105 11.1628 90.1105 14.8569V76.7818C90.1105 80.4759 88.6425 84.0207 86.0294 86.6339C83.4162 89.2471 79.8715 90.7149 76.1774 90.7149H14.2524C10.5584 90.7149 7.0136 89.247 4.40037 86.6339C1.78713 84.0207 0.319336 80.4759 0.319336 76.7818ZM87.0142 19.5013H3.41558V76.7818C3.41558 79.6548 4.55801 82.411 6.58932 84.4449C8.62329 86.4761 11.3795 87.6187 14.2524 87.6187H76.1774C79.0503 87.6187 81.8065 86.4763 83.8405 84.4449C85.8716 82.411 87.0142 79.6548 87.0142 76.7818V19.5013ZM14.1562 64.7914H76.4118C77.266 64.7914 77.9599 64.0975 77.9599 63.2433C77.9599 62.389 77.266 61.6951 76.4118 61.6951H14.1562C13.302 61.6951 12.6081 62.389 12.6081 63.2433C12.6081 64.0975 13.302 64.7914 14.1562 64.7914ZM14.1562 58.5989H76.4118C77.266 58.5989 77.9599 57.905 77.9599 57.0508C77.9599 56.1965 77.266 55.5026 76.4118 55.5026H14.1562C13.302 55.5026 12.6081 56.1965 12.6081 57.0508C12.6081 57.905 13.302 58.5989 14.1562 58.5989ZM78.598 32.2419C78.598 29.6785 76.517 27.5975 73.9537 27.5975H17.2524C14.6891 27.5975 12.6081 29.6785 12.6081 32.2419V45.2919C12.6081 47.8553 14.6891 49.9363 17.2524 49.9363H73.9537C76.517 49.9363 78.598 47.8553 78.598 45.2919V32.2419ZM75.5018 32.2419C75.5018 31.3877 74.8079 30.6938 73.9537 30.6938H17.2524C16.3982 30.6938 15.7043 31.3877 15.7043 32.2419V45.2919C15.7043 46.1462 16.3982 46.8401 17.2524 46.8401H73.9537C74.8079 46.8401 75.5018 46.1462 75.5018 45.2919V32.2419ZM87.0142 16.405V14.8569C87.0142 11.9839 85.8718 9.22775 83.8405 7.19378C81.8065 5.16264 79.0503 4.02004 76.1774 4.02004H14.2524C11.3795 4.02004 8.62329 5.16246 6.58932 7.19378C4.55819 9.22775 3.41558 11.9839 3.41558 14.8569V16.405H87.0142ZM15.8006 7.11628C14.0914 7.11628 12.7043 8.50337 12.7043 10.2125C12.7043 11.9217 14.0914 13.3088 15.8006 13.3088C17.5097 13.3088 18.8968 11.9217 18.8968 10.2125C18.8968 8.50337 17.5097 7.11628 15.8006 7.11628ZM25.0893 7.11628C23.3801 7.11628 21.9931 8.50337 21.9931 10.2125C21.9931 11.9217 23.3801 13.3088 25.0893 13.3088C26.7985 13.3088 28.1856 11.9217 28.1856 10.2125C28.1856 8.50337 26.7985 7.11628 25.0893 7.11628ZM34.378 7.11628C32.6689 7.11628 31.2818 8.50337 31.2818 10.2125C31.2818 11.9217 32.6689 13.3088 34.378 13.3088C36.0872 13.3088 37.4743 11.9217 37.4743 10.2125C37.4743 8.50337 36.0872 7.11628 34.378 7.11628Z" fill="#918ACA"/>
<path d="M76.4119 77.2781H14.1563C13.302 77.2781 12.6082 76.5842 12.6082 75.73C12.6082 74.8758 13.302 74.1819 14.1563 74.1819H76.4119C77.2661 74.1819 77.96 74.8758 77.96 75.73C77.96 76.5842 77.2661 77.2781 76.4119 77.2781Z" fill="#918ACA"/>
<path d="M76.4119 71.0856H14.1563C13.302 71.0856 12.6082 70.3917 12.6082 69.5375C12.6082 68.6833 13.302 67.9894 14.1563 67.9894H76.4119C77.2661 67.9894 77.96 68.6833 77.96 69.5375C77.96 70.3917 77.2661 71.0856 76.4119 71.0856Z" fill="#918ACA"/>
</svg>
