<svg width="21" height="26" viewBox="0 0 21 26" fill="none" xmlns="http://www.w3.org/2000/svg">
<path d="M1.8703 25.7556C1.48688 25.2866 1.23326 24.7252 1.13481 24.1275C0.365992 20.3668 0.437396 16.6465 1.55611 12.9619C1.6775 12.562 1.77033 12.1526 1.86316 11.7456C1.87744 11.6813 1.82983 11.6027 1.80365 11.5075C1.5321 11.401 1.26669 11.2794 1.00865 11.1434C0.737333 10.9991 0.508862 10.7858 0.346297 10.525C0.183732 10.2643 0.0928207 9.96523 0.0827409 9.6581C0.0398967 8.36563 0.020858 7.07079 0.0637022 5.77832C0.0970254 4.76672 0.737307 4.11216 1.74415 3.90508C2.03691 3.84796 2.33682 3.83605 2.71528 3.7932C2.71366 3.56401 2.69856 3.33511 2.67005 3.10769C2.58198 2.63165 2.45584 2.15561 2.37015 1.65814C2.34085 1.5561 2.33549 1.44868 2.35447 1.34423C2.37346 1.23977 2.41628 1.1411 2.47961 1.05589C2.54294 0.970686 2.62506 0.901248 2.71961 0.852954C2.81415 0.80466 2.91856 0.778822 3.02471 0.777453C3.66737 0.720327 4.31717 0.701281 4.96222 0.698901C8.04462 0.698901 11.1246 0.698901 14.207 0.698901C15.083 0.698901 15.9565 0.677482 16.8253 0.672722C17.1667 0.658378 17.5087 0.667921 17.8488 0.701284C17.9544 0.705664 18.0578 0.73266 18.152 0.78046C18.2462 0.82826 18.3291 0.895745 18.395 0.978343C18.4609 1.06094 18.5083 1.15673 18.534 1.25922C18.5596 1.36172 18.563 1.46853 18.5438 1.57244C18.5257 1.72324 18.4979 1.87271 18.4605 2.01993C18.1675 3.43702 18.0492 4.88466 18.1082 6.33052C18.1264 6.49467 18.1542 6.65761 18.1916 6.81848C18.4677 6.84705 18.7223 6.88988 18.9794 6.8994C19.2817 6.9113 19.5887 6.8637 19.8887 6.8994C20.4028 6.94939 20.6337 7.18504 20.6551 7.71345C20.6932 8.58938 20.7194 9.46292 20.7051 10.3317C20.6932 11.1576 20.5147 11.3195 19.7101 11.3838C19.5245 11.398 19.3388 11.4076 19.1127 11.4218C19.0294 11.8503 19.215 12.193 19.3126 12.5406C19.7072 13.8901 20.0086 15.2651 20.2147 16.656C20.4121 18.1275 20.4433 19.6166 20.3076 21.0951C20.2171 22.1543 20.041 23.2088 19.8529 24.2537C19.6411 25.4152 19.4293 25.5723 18.2677 25.5842C17.3537 25.5842 16.4397 25.5842 15.5281 25.5842C15.2305 25.5842 14.9116 25.5223 14.6593 25.7604H11.9268C11.6458 25.6006 11.4214 25.3574 11.2849 25.0643C11.1484 24.7713 11.1066 24.4431 11.1651 24.1251C11.1961 23.7473 11.1961 23.3676 11.1651 22.9898C11.1398 22.7755 11.1 22.5632 11.0461 22.3542H9.97975C9.84926 22.9224 9.82264 23.5095 9.9012 24.0871C9.9449 24.4035 9.90151 24.7258 9.77569 25.0194C9.64987 25.3129 9.44639 25.5667 9.18713 25.7532L1.8703 25.7556ZM2.43441 15.6372C2.87475 15.8753 3.26988 16.0776 3.67214 16.2775C5.40662 17.1452 6.99445 18.2792 8.37785 19.6384C8.77773 20.0288 9.02765 20.6452 9.62509 20.75C10.1905 20.8088 10.76 20.8175 11.327 20.7762C11.4031 20.7672 11.478 20.7505 11.5507 20.7262C12.2648 20.043 12.9289 19.3195 13.6786 18.6839C14.4054 18.0769 15.1729 17.5202 15.9756 17.0178C16.8015 16.4965 17.6846 16.0657 18.5938 15.5658L18.2939 14.4566C18.0368 14.4328 17.8488 14.3995 17.6631 14.3995C12.8789 14.4138 8.0954 14.4313 3.31272 14.4519C3.0819 14.4736 2.85337 14.515 2.62959 14.5757C2.56533 14.9351 2.50582 15.2635 2.43679 15.6372H2.43441ZM2.63912 24.0014C2.76338 24.0499 2.89273 24.0843 3.02471 24.1037C4.73054 24.0894 6.43717 24.0688 8.14459 24.0418C8.20885 24.0418 8.27312 23.9704 8.38261 23.9062C8.51114 23.5372 8.41832 23.1159 8.46354 22.716C8.49033 22.4537 8.45687 22.1886 8.36571 21.9411C8.27455 21.6936 8.12809 21.4702 7.93751 21.2879C6.44635 19.6596 4.64817 18.3419 2.64626 17.4105C2.48561 17.367 2.31998 17.3446 2.15355 17.3439C1.9483 19.5748 2.11317 21.8242 2.64149 24.0014H2.63912ZM18.7176 17.3367C18.6438 17.3367 18.5581 17.2986 18.4986 17.3367C16.3435 18.2965 14.4282 19.7224 12.8908 21.5117C12.7682 21.6533 12.6795 21.821 12.6313 22.002C12.5361 22.3662 12.648 23.5182 12.7884 23.9918C13.8809 24.1466 17.3823 24.1013 18.3272 23.9204C18.9556 22.2971 19.1674 18.7672 18.72 17.3272L18.7176 17.3367ZM19.2127 8.42037C18.5724 8.38467 18.5724 8.38467 18.2249 8.6584C17.7298 9.03924 17.5441 9.09636 17.149 8.68934C17.0302 8.56999 16.8856 8.47956 16.7263 8.42508C16.5669 8.3706 16.3972 8.35352 16.2302 8.37515C15.897 8.37515 15.5971 8.37515 15.3019 8.65601C14.8687 9.08446 14.6402 9.08923 14.2332 8.69411C14.1136 8.57639 13.9694 8.48654 13.811 8.43099C13.6525 8.37545 13.4838 8.35556 13.3168 8.37277C12.9788 8.37277 12.6813 8.37278 12.3862 8.66555C11.9577 9.08447 11.703 9.09397 11.3174 8.69648C11.2002 8.57659 11.0571 8.4851 10.8991 8.42899C10.7411 8.37288 10.5724 8.35365 10.4058 8.37277C10.0678 8.37277 9.77267 8.37277 9.4799 8.6703C9.02766 9.12016 8.84438 9.11064 8.33739 8.62269C8.03272 8.32992 7.72091 8.38467 7.3853 8.38467C7.23803 8.36569 7.08836 8.38142 6.94825 8.4306C6.80815 8.47978 6.68149 8.56105 6.5784 8.66791C6.09045 9.14396 5.99524 9.1154 5.43112 8.66791C5.18627 8.47187 4.88195 8.36507 4.56829 8.36507C4.25462 8.36507 3.95031 8.47187 3.70545 8.66791C3.27225 9.05589 2.94378 9.14397 2.46774 8.60366C2.19639 8.29185 1.88696 8.35135 1.58943 8.4775C1.56246 8.57269 1.54257 8.66976 1.52993 8.76789C1.51802 9.93897 1.55611 9.98657 2.73194 9.98657C6.49271 9.98657 10.2543 9.98181 14.0166 9.97229C15.4971 9.97229 16.9784 9.96435 18.4605 9.94848C18.6819 9.94848 18.9009 9.91041 19.1746 9.88422C19.2682 9.40174 19.281 8.90707 19.2127 8.42037ZM3.09136 12.9428C3.44125 12.9595 3.62929 12.9738 3.80543 12.9738C8.40721 12.9627 13.0145 12.9476 17.6274 12.9285C17.6655 12.9255 17.7019 12.9114 17.7322 12.8881C17.7801 12.8403 17.8239 12.7886 17.8631 12.7334C17.675 12.3478 17.7155 11.8289 17.3608 11.4337C17.2477 11.4111 17.1332 11.396 17.0181 11.3885C13.051 11.3885 9.09034 11.3885 5.13598 11.3885C4.58453 11.3533 4.03086 11.3958 3.49124 11.5147C3.37698 11.9479 3.25321 12.3763 3.09136 12.9428ZM4.21245 3.7932C4.52664 3.81939 4.75038 3.85509 4.97174 3.85509C8.6976 3.85509 12.4219 3.84637 16.1446 3.82891C16.3379 3.81338 16.5298 3.78233 16.7182 3.73608C16.7729 3.22909 16.8253 2.75304 16.8848 2.19844C16.4349 2.18178 16.0612 2.1556 15.6947 2.1556C15.0092 2.1556 14.3261 2.17941 13.6429 2.17941H5.08599C4.75276 2.17941 4.42191 2.2175 4.06011 2.23892C4.11248 2.77685 4.1577 3.22671 4.21245 3.7932ZM4.35764 5.45936C4.28624 5.95921 4.22197 6.41146 4.45761 6.8875C4.83131 6.90179 5.20262 6.93273 5.57632 6.93035C7.17346 6.93035 8.77059 6.89703 10.3677 6.88989C12.1172 6.88989 13.8667 6.88989 15.6161 6.88989C15.9446 6.88989 16.3064 6.99224 16.6468 6.65186C16.6468 6.27341 16.7801 5.83068 16.5373 5.41652C15.4567 5.24039 5.7477 5.26895 4.35764 5.46413V5.45936ZM2.76527 5.37843C2.28922 5.37843 1.88458 5.21658 1.62513 5.59504C1.51482 5.7496 1.45552 5.93475 1.45552 6.12464C1.45552 6.31453 1.51482 6.49969 1.62513 6.65425C1.90838 7.04698 2.32254 6.96129 2.76527 6.85656V5.37843Z" fill="#0094FF"/>
</svg>
