<svg width="27" height="27" viewBox="0 0 27 27" fill="none" xmlns="http://www.w3.org/2000/svg">
<path d="M12.6962 20.553C12.8648 19.9904 12.7855 19.4749 12.7954 18.9693C12.8053 18.4637 12.7755 18.0176 12.7954 17.5442C12.7931 17.4451 12.8106 17.3466 12.8469 17.2543C12.8832 17.1621 12.9376 17.0781 13.0069 17.0072C13.0762 16.9363 13.1589 16.88 13.2503 16.8415C13.3417 16.8031 13.4398 16.7833 13.5389 16.7833C14.0494 16.7338 14.5674 16.7263 15.0804 16.7263C17.021 16.7263 18.9616 16.7263 20.8997 16.7263H21.1476C22.1687 16.761 22.3645 16.9742 22.3868 18.0151C22.3868 18.8379 22.4017 19.6632 22.4091 20.5356C22.6548 20.5829 22.9031 20.616 23.1526 20.6348C23.8961 20.6348 24.657 20.6075 25.408 20.6348C25.9755 20.662 26.2184 20.8826 26.2357 21.4452C26.2729 22.7117 26.2704 23.9781 26.2357 25.2421C26.2357 25.718 25.9507 25.9336 25.46 25.9856C25.1452 26.0104 24.828 26.0005 24.5108 26.0005C18.3346 26.0104 12.1584 26.022 5.98224 26.0352C4.67612 26.0352 3.36999 26.065 2.06387 26.0798C1.78682 26.0893 1.50944 26.0802 1.23361 26.0525C0.700755 25.9906 0.490112 25.7502 0.450458 25.195C0.428152 24.7613 0.450458 24.3251 0.450458 23.8889C0.450458 22.0673 0.43309 20.2457 0.430611 18.4364C0.423973 18.1197 0.43473 17.8028 0.462832 17.4872C0.476101 17.3273 0.544335 17.177 0.655942 17.0618C0.76755 16.9466 0.91563 16.8736 1.07499 16.8552C1.23029 16.8259 1.38786 16.8101 1.54589 16.8081L4.87192 16.7759H4.99088C5.65757 16.8502 5.8955 17.0882 5.92276 17.7673C5.94259 18.2828 5.92276 18.7983 5.92276 19.3113V20.4737C6.03526 20.5572 6.15977 20.6232 6.29204 20.6695C7.09256 20.7463 11.7445 20.6744 12.6962 20.553ZM2.01183 24.5482C3.20147 24.5482 4.2647 24.5754 5.32298 24.5482C6.38125 24.5209 7.42714 24.6523 8.5449 24.4143C8.5449 24.0153 8.5449 23.6708 8.5449 23.3189C8.5449 22.9669 8.50031 22.6324 8.47305 22.2482C7.70474 22.1218 7.00087 22.1937 6.29948 22.1813C5.59809 22.1689 4.88182 22.1813 4.17299 22.1813C3.46417 22.1813 2.77022 22.1069 2.03413 22.2556C1.9377 23.0163 1.93023 23.7857 2.01183 24.5482ZM16.5947 22.1515H14.3642C13.6554 22.1515 12.9465 22.1515 12.2377 22.1515C11.5289 22.1515 10.835 22.0846 10.1658 22.2086C9.97742 23.4255 9.98485 23.6733 10.2178 24.454C11.6355 24.5977 15.71 24.5581 16.6146 24.3796C16.6863 23.6383 16.6796 22.8915 16.5947 22.1515ZM24.7264 22.3052C24.5926 22.2333 24.5257 22.1664 24.4587 22.1664C22.5636 22.1664 20.6684 22.1664 18.7733 22.1664C18.6065 22.1796 18.4409 22.2045 18.2776 22.2408C18.1348 22.9715 18.1424 23.7238 18.2999 24.4515C19.9406 24.6176 23.9209 24.5581 24.7685 24.3375C24.7685 23.8939 24.7685 23.4254 24.7685 22.957C24.7685 22.7191 24.7413 22.4911 24.7264 22.3052ZM14.332 20.5902C14.7806 20.6174 15.0904 20.6521 15.4002 20.6496C17.135 20.6397 18.8699 20.6232 20.6048 20.6001C20.6717 20.6001 20.7362 20.5208 20.8527 20.4415C20.8527 20.1341 20.8948 19.7872 20.8923 19.4501C20.8898 19.113 20.8502 18.7636 20.8304 18.4315C20.7028 18.3742 20.5689 18.3326 20.4313 18.3075C18.5362 18.3075 16.6418 18.3075 14.7483 18.3075C14.5987 18.3325 14.454 18.381 14.3196 18.4513L14.332 20.5902ZM1.93995 20.6125C2.78756 20.6918 3.57323 20.7736 4.40102 20.5703C4.48528 19.8095 4.55222 19.1155 4.3242 18.3869C3.54852 18.2468 2.75294 18.2594 1.98209 18.424C1.96474 18.7165 1.94491 18.9495 1.94243 19.1676C1.92756 19.6112 1.93254 20.0325 1.93254 20.6125H1.93995Z" fill="#0094FF"/>
<path d="M15.7423 6.69128L16.6643 5.63548C16.5577 5.48182 16.4536 5.32817 16.3471 5.17946C15.8985 4.56234 15.8787 4.34919 16.3694 3.8436C17.445 2.73328 18.5347 1.63865 19.6384 0.559718C20.1341 0.0863429 20.4786 0.0912997 20.9767 0.559718C21.6137 1.15453 22.2308 1.77165 22.833 2.40117C23.299 2.89685 23.3089 3.26366 22.833 3.74199C21.7607 4.85562 20.6727 5.95189 19.569 7.03082C19.0584 7.5265 18.8577 7.52651 18.2356 7.07297C18.1117 6.98374 17.9878 6.88708 17.8242 6.76069C17.4017 7.00663 17.0579 7.36765 16.8328 7.80162C17.3731 8.34191 17.9035 8.87228 18.4314 9.40514C18.6792 9.65298 18.9494 9.90081 19.1749 10.1734C20.0498 11.2491 19.7301 12.6518 18.476 13.2491C18.259 13.343 18.0373 13.4257 17.8118 13.497C15.2343 14.3966 12.6617 15.3013 10.0792 16.186C9.67367 16.3351 9.24702 16.4188 8.81522 16.4339C8.5372 16.4322 8.263 16.3689 8.01237 16.2485C7.76175 16.1282 7.54093 15.9538 7.36578 15.7379C7.19064 15.522 7.06551 15.2699 6.99944 14.9999C6.93337 14.7298 6.92799 14.4484 6.98368 14.1761C7.04651 13.9043 7.12935 13.6376 7.23152 13.378C8.10722 10.8352 8.9854 8.29233 9.86606 5.74949C9.96061 5.44706 10.0757 5.15144 10.2106 4.8647C10.3331 4.59186 10.5182 4.35169 10.7507 4.16363C10.9833 3.97556 11.2569 3.84488 11.5493 3.78214C11.8418 3.7194 12.1449 3.72638 12.4342 3.8025C12.7234 3.87862 12.9907 4.02176 13.2144 4.22032C13.7299 4.64909 14.1834 5.1522 14.6642 5.62309L15.7423 6.69128ZM15.7052 8.81528C15.1128 9.3977 14.6122 9.89587 14.1066 10.3891C13.915 10.5883 13.7096 10.7738 13.492 10.9442C13.3609 11.0352 13.203 11.0793 13.0438 11.0694C12.8846 11.0595 12.7334 10.9962 12.6146 10.8897C12.4774 10.7734 12.3888 10.6098 12.3663 10.4313C12.3438 10.2528 12.3891 10.0723 12.4932 9.92559C12.6629 9.70741 12.8485 9.50198 13.0483 9.31096C13.544 8.81528 14.0397 8.30472 14.5725 7.77434C13.8416 6.91841 13.0471 6.11892 12.1957 5.38269C12.1214 5.31578 11.9801 5.32073 11.7992 5.27364C11.6505 5.49249 11.5212 5.72385 11.4126 5.96511C10.4972 8.57735 9.58848 11.1921 8.68634 13.8093C8.61697 13.9939 8.56552 14.1848 8.53268 14.3793C8.50425 14.5057 8.52645 14.6383 8.59455 14.7485C8.66265 14.8588 8.77122 14.938 8.897 14.9692C8.99365 14.9419 9.14483 14.9121 9.29105 14.8601C11.9743 13.9282 14.6593 12.993 17.3459 12.0545C17.5327 11.9914 17.7149 11.9152 17.8911 11.8265C17.9917 11.7623 18.0631 11.6613 18.0904 11.5452C18.1177 11.429 18.0987 11.3068 18.0373 11.2045C17.9734 11.1048 17.8986 11.0125 17.8143 10.9294C17.155 10.2577 16.4834 9.59101 15.7101 8.81528H15.7052ZM20.3893 2.12359C19.4407 2.81338 18.6132 3.65593 17.9407 4.61686L18.88 5.53387C19.7712 4.77695 20.5893 3.93805 21.3237 3.02821L20.3893 2.12359Z" fill="#0094FF"/>
</svg>
