<svg width="26" height="26" viewBox="0 0 26 26" fill="none" xmlns="http://www.w3.org/2000/svg">
<path d="M7.3963 25.6227H2.17486C1.91037 25.6322 1.64557 25.6274 1.38159 25.6085C0.884306 25.5587 0.652258 25.3172 0.597794 24.8057C0.579654 24.5797 0.573312 24.3528 0.578831 24.1261C0.578831 21.6658 0.578831 19.2054 0.578831 16.7474C0.578831 15.3835 0.690148 15.2745 2.08016 15.2745C5.67478 15.2745 9.26938 15.2745 12.864 15.2745C14.2848 15.2745 15.5659 15.5871 16.6528 16.5414C16.9174 16.7568 17.241 16.8872 17.5811 16.9156C19.5891 17.2258 21.1331 18.3364 22.4875 19.7572C22.9611 20.2592 22.9612 20.6286 22.471 21.1424C21.1473 22.5466 19.6152 23.6217 17.6687 23.9651C17.2235 24.0319 16.8047 24.2176 16.4563 24.5026C15.4967 25.2598 14.3014 25.6554 13.0795 25.6203L7.3963 25.6227ZM2.14407 24.1024C2.4898 24.1261 2.78817 24.1616 3.09127 24.1616C6.3449 24.1616 9.59776 24.1616 12.8498 24.1616C13.3026 24.1516 13.7543 24.112 14.2019 24.0432C14.4127 24.0172 14.6424 23.9674 14.6755 23.7046C14.2256 23.3423 13.7615 23.0202 13.3589 22.6319C12.985 22.2515 12.725 21.7742 12.6083 21.2537C12.4613 20.7019 12.4687 20.1203 12.6296 19.5724C12.7597 19.0553 13.0301 18.5841 13.411 18.2108C13.8183 17.8343 14.2682 17.5004 14.73 17.1334C14.2398 16.7001 13.6668 16.7593 13.1221 16.7569C9.72011 16.7569 6.31648 16.7569 2.9113 16.7569C2.65793 16.7569 2.40221 16.7877 2.16778 16.8019C2.00675 17.7609 1.97831 22.8213 2.14407 24.1024ZM21.0454 20.5125C20.1882 19.4612 18.8148 18.5755 17.7018 18.3956C16.7973 18.2487 15.8856 18.244 15.0544 18.72C14.3866 19.0988 13.9533 19.6672 13.9604 20.4533C13.9623 20.8163 14.0684 21.171 14.2662 21.4754C14.4639 21.7797 14.7449 22.0209 15.0757 22.1701C15.7462 22.5311 16.5146 22.6681 17.2685 22.5609C18.7556 22.3501 19.9372 21.5829 21.0454 20.5125Z" fill="#0094FF"/>
<path d="M17.8439 7.35604C18.4548 7.96462 18.9758 8.51163 19.5275 9.01364C19.7548 9.21006 20.0112 9.36985 20.2877 9.48724C21.5711 10.0698 22.8735 10.5339 24.3346 10.2687C24.9692 10.1526 25.3481 10.5813 25.2297 11.2159C25.0165 12.3583 24.4574 13.4076 23.6281 14.2216C22.7988 15.0357 21.7393 15.5752 20.5931 15.7672C20.4899 15.7857 20.3839 15.7812 20.2826 15.7539C20.1814 15.7266 20.0874 15.6772 20.0075 15.6093C19.9276 15.5414 19.8637 15.4566 19.8204 15.3611C19.7772 15.2655 19.7556 15.1616 19.7572 15.0568C19.7557 14.8677 19.766 14.6786 19.788 14.4908C19.9135 13.0842 19.4849 11.8055 18.8716 10.5694C18.8258 10.4653 18.7669 10.3674 18.6964 10.2781C18.1006 9.59516 17.4607 8.95205 16.7807 8.35296C16.5012 8.61344 16.2858 8.82657 16.0703 9.02548C15.5233 9.49908 15.2746 9.49908 14.711 8.98523C14.6258 8.90945 14.5476 8.82657 14.4742 8.74843C13.43 7.70651 12.3762 6.67642 11.3532 5.61556C11.0247 5.30477 10.7607 4.93219 10.5765 4.51918C10.1432 3.38017 10.5954 2.4756 11.4408 1.67758C12.2341 0.936401 13.1126 0.656975 14.1356 1.08321C14.4451 1.2239 14.7255 1.42151 14.962 1.66574C16.1247 2.80238 17.2661 3.96033 18.4146 5.11118C18.5236 5.21582 18.6249 5.3282 18.7177 5.44744C18.8307 5.5781 18.8906 5.74632 18.8858 5.91899C18.881 6.09165 18.8117 6.25627 18.6916 6.38043C18.578 6.52961 18.4311 6.65512 18.3056 6.79483C18.1801 6.93454 18.0381 7.11924 17.8439 7.35604ZM17.1003 5.92339C16.0726 4.82701 15.0023 3.81825 13.977 2.76686C13.6502 2.43297 13.2666 2.29326 12.8474 2.48507C12.5996 2.58073 12.3797 2.7371 12.208 2.93983C12.0363 3.14256 11.9183 3.38517 11.8647 3.64539C11.8564 3.86804 11.9185 4.08764 12.0423 4.27291C12.1719 4.45888 12.3247 4.62757 12.497 4.77492C13.2942 5.58004 14.0953 6.38279 14.9005 7.18317C15.0442 7.3169 15.1952 7.4426 15.3528 7.55969L17.1003 5.92339ZM20.8536 11.3982C21.0904 12.3099 21.1354 13.1576 21.3698 13.9841C22.317 13.5436 22.7362 13.2097 23.205 12.4662C23.2961 12.2798 23.3653 12.0836 23.4111 11.8813L20.8536 11.3982Z" fill="#0094FF"/>
<path d="M8.11613 20.418C8.11613 20.8347 8.13271 21.2515 8.11613 21.6683C8.10368 21.8925 8.0549 22.1132 7.97169 22.3218C7.92656 22.4273 7.85167 22.5172 7.75619 22.5807C7.66072 22.6442 7.54881 22.6785 7.43415 22.6794C7.30133 22.6951 7.16698 22.6682 7.05039 22.6027C6.93381 22.5371 6.841 22.4363 6.78532 22.3147C6.71158 22.1835 6.67017 22.0366 6.66455 21.8861C6.66455 20.9389 6.66455 19.9917 6.66455 19.0445C6.66509 18.9305 6.68264 18.8172 6.71664 18.7083C6.76704 18.565 6.85822 18.4396 6.97896 18.3475C7.09971 18.2553 7.24475 18.2005 7.39625 18.1897C7.54769 18.199 7.69252 18.255 7.81083 18.35C7.92914 18.445 8.01513 18.5743 8.05693 18.7201C8.10399 18.9796 8.12854 19.2426 8.13033 19.5063C8.13033 19.8094 8.13033 20.1125 8.13033 20.4156L8.11613 20.418Z" fill="#0094FF"/>
<path d="M10.9506 20.489C10.9739 21.0169 10.97 21.5457 10.9388 22.0732C10.9303 22.1965 10.8873 22.3149 10.8147 22.4149C10.7421 22.515 10.6428 22.5925 10.5281 22.6387C10.4135 22.6849 10.2881 22.6979 10.1664 22.6762C10.0448 22.6545 9.93164 22.599 9.84004 22.516C9.70058 22.3943 9.61047 22.2259 9.58667 22.0424C9.56299 20.9863 9.55589 19.9278 9.58667 18.8693C9.59345 18.697 9.66414 18.5334 9.78497 18.4104C9.90579 18.2873 10.0681 18.2137 10.2402 18.2039C10.3351 18.2013 10.4295 18.2178 10.5179 18.2524C10.6063 18.287 10.6869 18.3389 10.7549 18.4051C10.8228 18.4713 10.8769 18.5505 10.9138 18.638C10.9506 18.7254 10.9696 18.8194 10.9696 18.9143C10.998 19.44 10.9696 19.9704 10.9696 20.5008L10.9506 20.489Z" fill="#0094FF"/>
</svg>
