<svg width="112" height="105" viewBox="0 0 112 105" fill="none" xmlns="http://www.w3.org/2000/svg">
<path d="M28.4476 11.5583C28.4476 10.7398 29.1119 10.0763 29.9305 10.0763H80.3037C81.1231 10.0763 81.7866 10.7397 81.7866 11.5583C81.7866 12.3778 81.1231 13.0413 80.3037 13.0413H29.9305C29.1119 13.0413 28.4476 12.3778 28.4476 11.5583ZM11.3091 13.0404L11.6477 13.0413C12.4671 13.0413 13.1306 12.3778 13.1306 11.5583C13.1306 10.7398 12.4672 10.0763 11.6477 10.0763H11.3168C10.4983 10.0763 9.83475 10.7397 9.83475 11.5583C9.83475 12.3778 10.4982 13.0413 11.3168 13.0413L11.3091 13.0404ZM17.3165 13.0404H17.6474C18.4668 13.0404 19.1303 12.3778 19.1303 11.5583C19.1303 10.7398 18.4669 10.0763 17.6474 10.0763H17.3182C16.4997 10.0763 15.8353 10.7397 15.8353 11.5583C15.8353 12.3778 16.4996 13.0413 17.3182 13.0413L17.3165 13.0404ZM23.324 13.0404H23.654C24.4726 13.0404 25.1361 12.3778 25.1361 11.5583C25.1361 10.7398 24.4726 10.0763 23.654 10.0763H23.324C22.5054 10.0763 21.841 10.7397 21.841 11.5583C21.841 12.3778 22.5054 13.0404 23.324 13.0404ZM89.6037 69.1224C91.5123 69.1232 93.3433 69.8815 94.6926 71.2317C96.0428 72.582 96.8002 74.4122 96.8002 76.3216C96.8002 78.2301 96.042 80.0612 94.6917 81.4105C93.3415 82.7607 91.5113 83.519 89.6019 83.5181C87.6934 83.5181 85.8623 82.7599 84.513 81.4105C83.1628 80.0603 82.4045 78.2292 82.4045 76.3207C82.4071 74.4121 83.1662 72.5819 84.5156 71.2326C85.865 69.8832 87.6952 69.125 89.6037 69.1224ZM89.6037 72.0804C88.4792 72.0796 87.4004 72.5268 86.605 73.3221C85.8097 74.1166 85.3634 75.1954 85.3625 76.3199C85.3625 77.4444 85.8088 78.5223 86.6042 79.3177C87.3995 80.113 88.4774 80.5602 89.6019 80.5602C90.7264 80.5602 91.8052 80.1138 92.5997 79.3185C93.395 78.5232 93.8422 77.4453 93.8422 76.3207C93.8388 75.198 93.3916 74.1218 92.5971 73.3291C91.8027 72.5355 90.7264 72.0892 89.6038 72.0875L89.6037 72.0804ZM98.0687 102.689C97.9903 102.73 97.9076 102.767 97.8223 102.793C92.5489 104.904 86.6654 104.904 81.393 102.793C81.3077 102.766 81.2249 102.73 81.1457 102.688C78.5235 101.601 76.1359 100.018 74.1118 98.0274C74.0153 97.9533 73.9291 97.8671 73.8542 97.7706C71.1831 95.0598 69.2563 91.7054 68.2618 88.0322H7.83211C5.89682 88.0305 4.04155 87.261 2.67237 85.8927C1.30319 84.5243 0.532854 82.6692 0.530273 80.7338V8.0615C0.532858 6.12534 1.30233 4.27006 2.67151 2.90087C4.04069 1.53255 5.89671 0.763079 7.83213 0.760498H83.789C85.7243 0.763083 87.5804 1.53255 88.9487 2.90087C90.3179 4.27006 91.0874 6.12607 91.0891 8.0615V60.2281C96.746 60.6063 102.04 63.1449 105.877 67.3179C109.714 71.491 111.799 76.979 111.702 82.6469C111.604 88.3149 109.331 93.7288 105.353 97.7675C105.277 97.8631 105.191 97.9493 105.095 98.0243C103.074 100.016 100.689 101.6 98.0694 102.693L98.0687 102.689ZM89.6037 63.1334C84.9559 63.1317 80.4656 64.8214 76.9724 67.8882C73.4783 70.9539 71.2209 75.1874 70.6202 79.7963C70.0205 84.4055 71.1182 89.0756 73.7093 92.9349C74.1195 90.8282 75.2482 88.9291 76.9034 87.5625C78.5587 86.1968 80.637 85.448 82.7834 85.4454H96.4227C98.5682 85.448 100.647 86.1968 102.303 87.5625C103.958 88.9291 105.087 90.8283 105.497 92.9349C108.088 89.0756 109.186 84.4062 108.585 79.797C107.985 75.1872 105.728 70.9546 102.234 67.888C98.7413 64.8214 94.2517 63.1319 89.6037 63.1334ZM73.9058 46.225H67.3873V75.3403H68.6229C69.6983 72.1021 71.5051 69.157 73.9058 66.7339L73.9058 46.225ZM3.49456 8.06132V18.1644H88.1249V8.06132C88.1231 6.91101 87.6665 5.80803 86.8539 4.99473C86.0405 4.18045 84.9384 3.72205 83.7889 3.71947H7.83202C6.68171 3.72206 5.57961 4.18045 4.76631 4.99387C3.95376 5.80814 3.49542 6.91105 3.49456 8.06132ZM67.6765 85.0704C67.3904 82.8171 67.4516 80.5329 67.8591 78.2986H32.305C31.3985 78.9293 30.1706 78.8216 29.3882 78.0426L28.3369 76.9914C28.0896 77.1026 27.8432 77.2051 27.5899 77.3016V78.7837C27.5881 80.0426 26.5679 81.0619 25.309 81.0645H20.2829C19.0249 81.062 18.0056 80.0426 18.0038 78.7837V77.3016C17.7565 77.2051 17.5015 77.1026 17.2551 76.9914L16.2038 78.0426C15.3137 78.9319 13.8705 78.9319 12.9804 78.0426L9.42255 74.4892C8.53332 73.5982 8.53332 72.1558 9.42255 71.2649L10.4738 70.2137C10.3626 69.9664 10.2592 69.7173 10.1636 69.4649H8.68151C7.42262 69.4632 6.40329 68.4438 6.40064 67.1849V62.1597C6.40323 60.9008 7.42258 59.8815 8.68151 59.8797H10.1636C10.2592 59.6281 10.3626 59.3782 10.4738 59.1327L9.42255 58.0797C8.53332 57.1887 8.53332 55.7464 9.42255 54.8554L12.9751 51.302C13.8669 50.4136 15.3085 50.4136 16.2003 51.302L17.2515 52.3541C17.4988 52.2429 17.7478 52.1395 18.0003 52.043V50.5609C18.0012 49.302 19.0205 48.2818 20.2794 48.28H25.3055C26.5644 48.2818 27.5837 49.302 27.5863 50.5609V52.043C27.8336 52.1395 28.087 52.2429 28.3334 52.3541L29.3846 51.302C30.1472 50.5411 31.3372 50.417 32.2401 51.0038V48.2767C32.2401 47.4581 32.9045 46.7938 33.7231 46.7938H43.2006C44.0192 46.7938 44.6826 47.4581 44.6826 48.2767V75.3405H48.3336V54.0281C48.3336 53.2095 48.9979 52.5451 49.8165 52.5451H59.294C60.1126 52.5451 60.7761 53.2095 60.7761 54.0281V75.3405H64.4312V44.7473C64.4312 43.9287 65.0947 43.2652 65.9133 43.2652H75.3864C76.205 43.2652 76.8685 43.9287 76.8685 44.7473V64.2253C80.179 61.8799 84.0737 60.497 88.1228 60.229V21.1234H3.49251V80.7347C3.49337 81.8859 3.95177 82.9898 4.76519 83.804C5.57946 84.6174 6.68325 85.0758 7.83443 85.0766L67.6765 85.0704ZM57.8138 75.3405V55.5075H51.2988V75.3405H57.8138ZM41.7231 75.3405V49.7568H35.2046V53.8928L36.167 54.8562C37.0572 55.7472 37.0563 57.1904 36.1662 58.0814L35.1167 59.1326C35.2278 59.3799 35.3312 59.6289 35.4269 59.8797H36.9089C38.1696 59.8788 39.1916 60.8999 39.1931 62.1605V67.1857C39.1914 68.4446 38.1712 69.4648 36.9123 69.4657H35.4302C35.3354 69.7173 35.232 69.9672 35.12 70.2145L36.1712 71.2657C37.0604 72.1567 37.0604 73.5991 36.1712 74.49L35.3216 75.3414L41.7231 75.3405ZM20.963 76.2358V78.1099H24.6303V76.2358C24.6312 75.5757 25.0689 74.9967 25.7022 74.814C26.4708 74.5934 27.2119 74.2858 27.9116 73.8972C28.4889 73.5775 29.2076 73.6784 29.6754 74.1445L31.0007 75.4698L33.5952 72.8752L32.276 71.5517C31.809 71.0838 31.7082 70.3643 32.0287 69.7861C32.4165 69.0873 32.7232 68.3472 32.9438 67.5785C33.1265 66.9443 33.7064 66.5075 34.3673 66.5066H36.2285V62.8393H34.3604C33.7003 62.8385 33.1196 62.4007 32.9377 61.7657C32.7172 60.9971 32.4104 60.2569 32.0227 59.5581C31.703 58.9808 31.8038 58.2613 32.2691 57.7942L33.5943 56.4673L30.9998 53.8727L29.6814 55.1997C29.2136 55.6659 28.4941 55.7667 27.9159 55.447C27.2179 55.0592 26.4778 54.7516 25.71 54.5319C25.075 54.3492 24.6372 53.7693 24.6364 53.1084V51.236H20.9632V53.1084C20.9623 53.7685 20.5254 54.3492 19.8904 54.5319C19.1226 54.7516 18.3816 55.0584 17.6828 55.447C17.1054 55.7667 16.386 55.6659 15.9181 55.1997L14.5928 53.8745L11.9983 56.469L13.3235 57.796C13.7897 58.2638 13.8905 58.9816 13.5708 59.5589C13.1822 60.2577 12.8755 60.9988 12.6557 61.7666C12.4731 62.4016 11.8932 62.8393 11.2323 62.8402H9.35987V66.5075H11.2323C11.8923 66.5083 12.4731 66.9452 12.6557 67.5802C12.8755 68.348 13.1831 69.089 13.5708 69.7879C13.8905 70.3652 13.7906 71.0847 13.3235 71.5526L11.9983 72.8778L14.5928 75.4723L15.9181 74.1471C16.386 73.6801 17.1054 73.5793 17.6828 73.8998C18.3816 74.2884 19.1217 74.596 19.8904 74.8166C20.5237 74.9984 20.9605 75.5766 20.963 76.2358ZM89.603 101.42C91.7486 101.422 93.8787 101.06 95.9028 100.352V95.5341C95.9028 94.7155 96.5671 94.052 97.3857 94.052C98.2043 94.052 98.8678 94.7155 98.8678 95.5341V99.0187C100.258 98.2466 101.548 97.304 102.707 96.2139V94.6931C102.706 93.0266 102.043 91.4291 100.865 90.2511C99.6863 89.0723 98.0896 88.4097 96.4231 88.408H82.7829C81.1164 88.4097 79.5198 89.0723 78.3409 90.2511C77.1631 91.429 76.5004 93.0265 76.4987 94.6931V96.2225C77.6576 97.3125 78.9476 98.2552 80.3382 99.0273V96.8809C80.3382 96.0623 81.0017 95.3979 81.8203 95.3979C82.6389 95.3979 83.3032 96.0623 83.3032 96.8809V100.352C85.3282 101.06 87.4574 101.422 89.603 101.42ZM22.9329 44.1029C23.2086 44.1029 23.4792 44.0245 23.7136 43.878L30.8094 39.4586L36.4679 43.1715C36.9125 43.461 37.4778 43.4903 37.95 43.249L50.6586 36.702L58.2585 42.1141C58.8048 42.501 59.5415 42.4751 60.0577 42.0495L70.4683 33.462L70.0977 36.7975C70.0081 37.6092 70.5923 38.3408 71.404 38.433C71.4592 38.439 71.5152 38.4416 71.5703 38.4416C72.3226 38.4399 72.955 37.8755 73.0403 37.1284L73.821 30.1601V30.0756V30.0024V29.9283V29.8602C73.821 29.8378 73.8133 29.8025 73.8098 29.7741C73.8064 29.7456 73.8098 29.737 73.8012 29.7198C73.7926 29.7026 73.7866 29.6517 73.7779 29.6181L73.7685 29.5802C73.759 29.5466 73.7461 29.5121 73.734 29.4785L73.7219 29.444L73.7211 29.4449C73.709 29.4147 73.6952 29.3846 73.6806 29.3562C73.6745 29.3415 73.6685 29.3269 73.6608 29.3114C73.653 29.2967 73.6332 29.2648 73.6203 29.2407C73.6065 29.2174 73.5979 29.2028 73.5858 29.1838C73.5737 29.1649 73.5582 29.1468 73.5453 29.1278C73.5315 29.1089 73.5194 29.0899 73.5048 29.0709L73.497 29.0623L73.4893 29.0529C73.4772 29.0382 73.4634 29.0253 73.4514 29.0106C73.4393 28.996 73.4169 28.971 73.398 28.9529C73.379 28.9339 73.3583 28.9158 73.3385 28.8969L73.292 28.8547L73.2911 28.8555C73.2678 28.8357 73.2429 28.8176 73.217 28.8004L73.1765 28.7694C73.1489 28.7521 73.1222 28.7349 73.0938 28.7185L73.0533 28.6953C73.0257 28.6806 72.9964 28.6668 72.968 28.653L72.9223 28.6324L72.843 28.6048C72.8241 28.5988 72.8069 28.591 72.7888 28.5858C72.7698 28.5807 72.7353 28.5712 72.7095 28.5634L72.6474 28.5488L72.5699 28.5367L72.5165 28.5281L65.549 27.7405C65.1449 27.6682 64.7296 27.7664 64.4013 28.012C64.073 28.2567 63.861 28.6272 63.8145 29.0339C63.7688 29.4415 63.8946 29.8499 64.16 30.1618C64.4263 30.4729 64.8097 30.6607 65.219 30.6806L68.7173 31.0752L59.0571 39.043L51.645 33.7661C51.1935 33.4447 50.6015 33.4025 50.1086 33.6558L37.368 40.2165L31.6413 36.458C31.1579 36.1417 30.5358 36.134 30.0464 36.439L22.1467 41.3643C21.5892 41.7158 21.3307 42.3922 21.5125 43.0256C21.6935 43.6589 22.2708 44.0966 22.93 44.1001L22.9329 44.1029ZM22.7967 71.5924C20.9623 71.5924 19.2027 70.8643 17.905 69.5666C16.6082 68.269 15.8792 66.5095 15.8792 64.6749C15.8792 62.8403 16.6082 61.0809 17.905 59.7841C19.2027 58.4864 20.9621 57.7574 22.7967 57.7574C24.6312 57.7574 26.3908 58.4864 27.6885 59.7841C28.9853 61.0809 29.7143 62.8403 29.7143 64.6749C29.7117 66.5094 28.9818 68.2672 27.685 69.564C26.3891 70.8608 24.6303 71.5898 22.7967 71.5924ZM22.7967 68.6275C23.848 68.6275 24.8553 68.2105 25.598 67.4677C26.3407 66.7241 26.7578 65.7159 26.7569 64.6656C26.756 63.6144 26.3381 62.6071 25.5945 61.8652C24.8509 61.1225 23.8428 60.7063 22.7915 60.708C21.7412 60.7089 20.7339 61.1277 19.9921 61.8721C19.2502 62.6158 18.8348 63.6248 18.8366 64.6751C18.84 65.7238 19.2579 66.7285 20.0007 67.4695C20.7426 68.2106 21.748 68.6258 22.7967 68.6275Z" fill="#918ACA"/>
</svg>
