<svg width="37" height="20" viewBox="0 0 37 20" fill="none" xmlns="http://www.w3.org/2000/svg">
<path fill-rule="evenodd" clip-rule="evenodd" d="M26.6486 0.625488C31.9161 0.625488 36.187 4.89642 36.187 10.1639C36.187 15.4314 31.9161 19.7025 26.6247 19.6786H21.1199C18.9845 19.6787 17.0862 18.8244 15.6864 17.4246C14.2865 16.0247 13.4323 14.1264 13.4323 11.991C13.4323 10.8047 14.4052 9.8318 15.5915 9.8318C16.7779 9.8318 17.7508 10.8047 17.7508 11.991C17.7271 13.8654 19.2457 15.384 21.1201 15.3603L26.6486 15.384C29.5434 15.384 31.8687 13.0588 31.8686 10.164C31.8686 7.2692 29.5433 4.94396 26.6486 4.94396C25.4622 4.94396 24.4894 3.97109 24.4894 2.78472C24.4894 1.59835 25.4622 0.625488 26.6486 0.625488ZM5.30121 10.2984C5.30125 13.1931 7.6265 15.5184 10.5212 15.5184C11.7076 15.5184 12.6807 16.4913 12.6806 17.6775C12.6806 18.8639 11.7077 19.8368 10.5213 19.8368C7.88754 19.813 5.5148 18.769 3.78274 17.0369C2.05064 15.3048 0.98291 12.9085 0.98291 10.2984C0.98291 5.03088 5.25384 0.759953 10.5213 0.759953L16.0498 0.783639C20.2733 0.783639 23.7375 4.24784 23.7375 8.47131C23.7375 9.65768 22.7647 10.6305 21.5783 10.6305C20.3919 10.6305 19.4191 9.65768 19.4191 8.47131C19.4191 6.62058 17.9005 5.10202 16.0498 5.10202L10.5212 5.07834C7.62645 5.07838 5.30117 7.40358 5.30121 10.2984Z" fill="#00C2FF"/>
</svg>
