<svg width="29" height="26" viewBox="0 0 29 26" fill="none" xmlns="http://www.w3.org/2000/svg">
<path d="M14.2429 14.3663C14.5496 14.4916 14.8615 14.6036 15.1602 14.7396C17.2588 15.6889 18.4001 17.3261 18.5227 19.6114C18.6001 21.0993 18.5387 22.5926 18.5387 24.0832C18.5405 24.2539 18.5263 24.4244 18.4961 24.5925C18.4732 24.7628 18.3922 24.92 18.2669 25.0375C18.1416 25.1551 17.9795 25.2258 17.8081 25.2378C17.5114 25.2689 17.2131 25.2814 16.9148 25.2751C12.0581 25.2947 7.20144 25.3107 2.34476 25.3231C1.96191 25.3275 1.57911 25.3106 1.19814 25.2725C1.02536 25.2627 0.861644 25.192 0.736144 25.0728C0.610644 24.9537 0.531512 24.7939 0.512838 24.6218C0.469242 24.3279 0.449623 24.0309 0.454174 23.7338C0.443508 22.4895 0.435509 21.2539 0.430176 20.0273C0.430176 17.5368 1.70745 15.6329 4.04068 14.6756C4.26734 14.5849 4.48334 14.4702 4.74999 14.3449C4.566 14.0783 4.41668 13.8783 4.27002 13.673C3.51664 12.6282 3.11337 11.3718 3.11806 10.0838C3.11806 8.29452 3.16339 6.50526 3.11806 4.716C3.10868 4.20494 3.20231 3.69722 3.39333 3.22311C3.58435 2.749 3.86887 2.31821 4.22993 1.9564C4.59099 1.5946 5.0212 1.30918 5.49491 1.11718C5.96863 0.92518 6.47614 0.830523 6.98722 0.838841C8.69114 0.886839 10.3977 0.894839 12.099 0.838841C13.8003 0.782844 15.8615 2.36678 15.8322 4.59068C15.8082 6.20928 15.8322 7.82786 15.8668 9.44646C15.9015 11.1664 15.4882 12.7343 14.3816 14.0863C14.324 14.1735 14.2774 14.2676 14.2429 14.3663ZM4.74999 9.2998C4.62466 11.593 5.43529 13.225 7.3392 14.1956C9.14179 15.1155 10.8991 14.8729 12.4857 13.6303C13.8189 12.5797 14.4296 10.8571 14.0376 9.40113C13.9656 9.44113 13.8589 9.4598 13.8296 9.51846C13.4349 10.2518 12.8243 10.4411 12.019 10.4144C10.5284 10.3638 9.03514 10.4144 7.54453 10.4144C5.9286 10.4224 5.92861 10.4251 4.74999 9.30247V9.2998ZM14.1336 5.48931C14.1656 5.18265 14.1762 5.05465 14.1949 4.92932C14.2338 4.60058 14.1993 4.2673 14.0939 3.9535C13.9884 3.63971 13.8146 3.35322 13.585 3.11472C13.3555 2.87622 13.0758 2.69163 12.7663 2.57428C12.4567 2.45693 12.125 2.40974 11.795 2.4361C11.4537 2.45744 11.1124 2.4361 10.7711 2.4361C9.53644 2.4361 8.30184 2.41744 7.06723 2.4361C5.92861 2.4601 5.09398 3.04674 4.81399 3.98537C4.66176 4.48659 4.67108 5.02301 4.84065 5.51864C7.88851 5.53997 10.9764 5.55862 14.1336 5.49196V5.48931ZM13.6243 23.5098C13.6993 22.5998 13.6885 21.6847 13.5923 20.7766C13.4057 20.7297 13.2158 20.6967 13.0243 20.678C10.6422 20.678 8.26095 20.6886 5.88061 20.71C5.71024 20.7375 5.54432 20.7877 5.38729 20.8593C5.30729 21.8086 5.20064 22.7259 5.46463 23.6059C7.12855 23.7605 12.5603 23.7045 13.6243 23.5125V23.5098ZM13.6243 16.0435C12.8349 15.8938 12.0231 15.9102 11.2404 16.0915C10.0811 16.4008 8.8611 16.4008 7.70187 16.0915C6.94463 15.9188 6.15935 15.9088 5.39796 16.0622C5.24624 17.0225 5.25796 18.0016 5.43263 18.958C5.5326 18.9962 5.63626 19.0239 5.74194 19.0407C8.21472 19.0407 10.6875 19.0407 13.1603 19.0407C13.322 19.0135 13.4785 18.9613 13.6243 18.8861V16.0435ZM16.8615 23.6219C16.9534 22.2243 16.9534 20.8222 16.8615 19.4247C16.8103 18.5656 16.4438 17.7556 15.8322 17.1501C15.7114 17.0558 15.5787 16.9778 15.4375 16.9181C15.3575 17.0488 15.2802 17.1128 15.2802 17.1848C15.2802 19.182 15.2669 21.1846 15.2802 23.1739C15.3074 23.3319 15.3586 23.4847 15.4322 23.6272L16.8615 23.6219ZM6.60857 8.74783C8.5221 8.85793 10.4408 8.84279 12.3523 8.7025C12.6377 8.27585 13.091 7.92386 13.1523 7.23323C10.9017 7.1159 8.70448 7.23322 6.50724 7.21456C6.239 7.23007 5.97189 7.26124 5.70728 7.3079C5.90894 7.84428 6.21738 8.33414 6.61391 8.74783H6.60857ZM3.67536 16.9955C3.49137 16.9821 3.44337 16.9608 3.40871 16.9768C3.2983 17.0364 3.19536 17.1089 3.10206 17.1928C2.44409 17.872 2.08007 18.7831 2.08877 19.7287C2.08877 20.7953 2.09854 21.8548 2.1181 22.9072C2.13979 23.1532 2.179 23.3974 2.23543 23.6379C2.75007 23.6752 3.2034 23.7632 3.67004 23.5472L3.67536 16.9955Z" fill="#0094FF"/>
<path d="M21.7466 21.8056C21.7466 21.0803 21.7466 20.355 21.7466 19.6324C21.759 19.4415 21.7277 19.2503 21.6552 19.0734C21.5827 18.8964 21.4707 18.7383 21.328 18.6111C20.8416 18.1318 20.4823 17.5388 20.2827 16.8858C19.7894 15.4885 20.3013 13.6033 21.6559 12.5287C21.7891 12.4247 21.933 12.3353 22.0853 12.262C22.2026 12.1837 22.3386 12.1379 22.4793 12.1291C22.6201 12.1203 22.7607 12.1489 22.8869 12.212C23.013 12.2751 23.1203 12.3704 23.1977 12.4883C23.2752 12.6062 23.3201 12.7425 23.3279 12.8833C23.3666 13.2651 23.3826 13.6489 23.3759 14.0326C23.3863 14.182 23.44 14.3251 23.5305 14.4444C23.6209 14.5638 23.7442 14.6542 23.8852 14.7046C24.0179 14.7719 24.1697 14.7917 24.3153 14.7607C24.4609 14.7296 24.5914 14.6496 24.6851 14.5339C24.8268 14.3825 24.9197 14.1921 24.9518 13.9873C24.9998 13.6113 24.9518 13.2193 25.0078 12.8433C25.0214 12.7149 25.0658 12.5918 25.1374 12.4843C25.2089 12.3768 25.3054 12.2883 25.4185 12.2262C25.5317 12.1641 25.6583 12.1303 25.7873 12.1277C25.9164 12.1251 26.0442 12.1538 26.1597 12.2113C26.3518 12.3011 26.5311 12.4158 26.6931 12.5527C27.1187 12.876 27.4741 13.2824 27.7378 13.7473C28.0015 14.2122 28.168 14.7258 28.2271 15.257C28.2862 15.7882 28.2367 16.3259 28.0816 16.8374C27.9266 17.3489 27.6691 17.8235 27.325 18.2324C27.0626 18.5307 26.8638 18.8795 26.7409 19.2573C26.618 19.6351 26.5736 20.0341 26.6104 20.4297C26.6504 21.4963 26.6531 22.5629 26.6611 23.6295C26.6697 23.9273 26.6527 24.2253 26.6104 24.5202C26.6007 24.7159 26.5145 24.8999 26.3703 25.0326C26.2261 25.1653 26.0356 25.236 25.8398 25.2295C24.7731 25.2614 23.7065 25.2748 22.6399 25.2535C22.0452 25.2535 21.8159 24.9868 21.7626 24.3708C21.7306 23.9895 21.7439 23.6055 21.7413 23.2215C21.7413 22.7522 21.7413 22.2856 21.7413 21.8163L21.7466 21.8056ZM26.4611 15.4406C26.2264 15.5605 26.0371 15.6379 25.8638 15.7445C25.5411 15.9472 25.2185 16.1525 24.9118 16.3792C24.7197 16.5495 24.4735 16.6465 24.2168 16.6528C23.9601 16.6591 23.7095 16.5745 23.5092 16.4138C23.1972 16.1952 22.8772 15.9819 22.5546 15.7792C22.3519 15.6539 22.1333 15.5499 21.8853 15.4192C21.8159 15.6192 21.7306 15.7392 21.7439 15.8459C21.7628 16.2076 21.8627 16.5606 22.0362 16.8786C22.2097 17.1966 22.4525 17.4715 22.7466 17.6831C22.9764 17.8355 23.1597 18.0482 23.2764 18.2981C23.3931 18.5479 23.4386 18.825 23.4079 19.0991C23.3865 20.3283 23.4079 21.5603 23.4079 22.7922C23.4314 23.082 23.475 23.3698 23.5385 23.6535C23.9145 23.6535 24.2105 23.6535 24.5065 23.6535C24.6513 23.633 24.794 23.6 24.9331 23.5549C24.9571 23.3122 24.9998 23.0669 24.9998 22.8242C24.9998 21.8483 25.0478 20.8696 24.9998 19.891C24.9358 18.8697 25.0185 18.0058 25.9731 17.3338C26.5011 16.9471 26.6984 16.2432 26.4611 15.4406Z" fill="#0094FF"/>
</svg>
