<svg width="25" height="25" viewBox="0 0 25 25" fill="none" xmlns="http://www.w3.org/2000/svg">
<path d="M12.379 0.378906C12.6221 0.700471 12.8459 1.03617 13.0492 1.38423C13.6636 2.57339 14.2477 3.77884 14.8551 4.97266C14.9831 5.22631 15.1553 5.45903 15.367 5.79413C15.886 4.88888 16.3444 4.08602 16.8075 3.28316C16.9676 2.98913 17.1424 2.70331 17.3311 2.42678C17.4327 2.29269 17.5793 2.19979 17.7439 2.16516C17.9085 2.13052 18.0801 2.15649 18.2271 2.23828C18.3743 2.32188 18.4849 2.45762 18.537 2.61872C18.5892 2.77983 18.579 2.95462 18.5087 3.10863C18.3829 3.37873 18.2431 3.64206 18.0898 3.89752C17.4894 4.968 16.8843 6.03615 16.2467 7.1555C16.868 7.69074 17.5801 8.06774 18.2457 8.58668L20.9522 7.02518C21.243 6.85763 21.527 6.67844 21.8295 6.53649C21.912 6.49382 22.0021 6.46805 22.0947 6.46066C22.1872 6.45327 22.2803 6.46442 22.3685 6.49346C22.4567 6.5225 22.5383 6.56884 22.6083 6.62978C22.6784 6.69071 22.7356 6.76501 22.7766 6.84832C22.8507 7.00127 22.8648 7.17644 22.8162 7.33928C22.7675 7.50212 22.6595 7.6408 22.5136 7.72798C22.2809 7.90251 22.011 8.04446 21.755 8.1934L19.2999 9.63622C19.7025 10.5438 20.3331 11.2838 20.6357 12.1751C21.2803 12.3473 21.876 12.2519 22.4648 12.2775C22.8371 12.2915 23.2118 12.2775 23.5795 12.3194C23.7483 12.3309 23.9072 12.4033 24.0266 12.5232C24.146 12.643 24.2178 12.8022 24.2287 12.971C24.2302 13.1605 24.1584 13.3433 24.0283 13.4812C23.8982 13.6191 23.7199 13.7014 23.5306 13.711C23.3087 13.7328 23.0856 13.7405 22.8627 13.7343H21.4036C21.298 14.13 21.1675 14.5187 21.0127 14.8979C20.8209 15.2346 20.6055 15.5573 20.368 15.8636C20.4774 16.1243 20.5752 16.4012 20.7032 16.6595C21.7302 18.726 22.7611 20.7901 23.7959 22.852C23.9378 23.1128 24.0644 23.3817 24.1752 23.6572C24.2228 23.7604 24.2444 23.8737 24.2382 23.9872C24.232 24.1007 24.1982 24.211 24.1398 24.3084C24.0813 24.4059 23.9999 24.4876 23.9026 24.5465C23.8054 24.6053 23.6953 24.6396 23.5818 24.6462C23.2863 24.6831 22.9881 24.6956 22.6905 24.6834C20.6426 24.6834 18.5955 24.6834 16.5492 24.6834C11.5971 24.6834 6.64575 24.6834 1.69517 24.6834C1.32418 24.6956 0.952817 24.6761 0.585126 24.6252C0.492346 24.6088 0.404167 24.5727 0.326478 24.5194C0.248788 24.4661 0.183377 24.3968 0.134671 24.3161C0.0859659 24.2354 0.0550922 24.1453 0.0440805 24.0517C0.0330689 23.9581 0.0421887 23.8633 0.0708402 23.7735C0.161567 23.4914 0.277618 23.218 0.41758 22.9567C1.41359 20.9585 2.41115 18.961 3.41026 16.9643C3.57549 16.6339 3.72675 16.2965 3.89895 15.9334C3.65608 15.6046 3.43381 15.2611 3.2334 14.9048C3.09201 14.5478 2.97766 14.1806 2.89132 13.8064C2.37004 13.6691 1.77198 13.7762 1.18321 13.7343C0.926381 13.7252 0.671963 13.6814 0.426898 13.604C0.302919 13.5568 0.198577 13.469 0.13095 13.3548C0.0633234 13.2407 0.036385 13.1071 0.0545344 12.9756C0.0475304 12.8436 0.0863245 12.7131 0.164329 12.6063C0.242333 12.4994 0.354794 12.4228 0.482746 12.3892C0.771274 12.3226 1.06628 12.2883 1.36238 12.2868C2.06052 12.2729 2.77262 12.2868 3.48938 12.2868C3.99436 11.4165 4.47143 10.588 4.98107 9.70836C4.79025 9.57339 4.62504 9.43609 4.44119 9.32671C3.74305 8.91016 3.02628 8.50524 2.32348 8.08868C2.09616 7.96233 1.87909 7.81839 1.67423 7.65816C1.55883 7.56153 1.4793 7.42886 1.44848 7.28153C1.41766 7.1342 1.43736 6.98078 1.50436 6.84599C1.58018 6.69535 1.70794 6.57725 1.86408 6.51351C2.02022 6.44977 2.19416 6.44471 2.35374 6.49925C2.65547 6.63926 2.94986 6.79461 3.23573 6.96468C4.16658 7.50224 5.09742 8.04446 6.0143 8.59367L8.01566 7.21601C7.8481 6.89254 7.70848 6.59467 7.55023 6.30843C7.05921 5.4311 6.56353 4.55843 6.07018 3.68343C5.95302 3.49285 5.84882 3.2946 5.75833 3.09001C5.69698 2.93299 5.69453 2.75907 5.75142 2.60037C5.80831 2.44168 5.92072 2.30893 6.06785 2.22665C6.21898 2.15339 6.39092 2.13516 6.55404 2.17509C6.71717 2.21502 6.86126 2.31062 6.96146 2.4454C7.09135 2.62647 7.20876 2.81618 7.31286 3.01321C7.68055 3.66016 8.04125 4.31175 8.41359 4.95637C8.5602 5.2077 8.73241 5.44506 8.94185 5.76155C9.13035 5.44506 9.29323 5.20304 9.42355 4.94473C10.0286 3.74859 10.629 2.55244 11.2155 1.34932C11.3813 0.978996 11.624 0.648201 11.9275 0.378906H12.379ZM19.2185 17.1203C14.506 20.4993 9.77031 20.5295 5.04624 17.1505C4.4249 17.9976 2.27462 22.3447 2.0931 23.108C3.02395 23.2941 16.7796 23.3802 21.6759 23.2266C21.8491 23.2109 22.0209 23.1829 22.1902 23.1429C21.9691 22.2725 19.8235 17.9417 19.2185 17.1203ZM4.64132 14.3277C7.94352 19.5544 16.4701 19.4311 19.6373 14.2742C19.1865 13.641 18.6195 13.0992 17.9665 12.6778C17.7663 12.5428 17.5848 12.3101 17.2311 12.4451C17.1892 12.6312 17.138 12.843 17.0938 13.0548C16.8838 14.1628 16.2681 15.1528 15.367 15.831C12.4256 18.079 8.18552 16.7363 7.24071 13.1548C7.1802 12.9221 7.0848 12.6894 6.99172 12.4264C6.09785 12.918 5.29878 13.565 4.632 14.337L4.64132 14.3277ZM5.75367 11.3024C5.91424 11.3024 5.95845 11.3164 5.98638 11.3024C6.18419 11.2 6.37734 11.0907 6.57282 10.986C8.45237 9.97754 10.5693 9.49515 12.7002 9.58968C14.455 9.6342 16.1771 10.0741 17.7384 10.8766C17.9013 10.9627 18.0758 11.207 18.3015 10.9627C15.7603 6.72033 8.32514 6.66448 5.75367 11.3141V11.3024ZM8.54622 11.6189C8.44848 13.1572 9.04191 14.237 10.2427 14.97C11.5761 15.7822 12.9445 15.703 14.2314 14.8746C14.7758 14.5567 15.2096 14.0795 15.4743 13.5073C15.739 12.9351 15.8217 12.2955 15.7115 11.6748C15.0389 11.3094 15.0389 11.3071 14.4478 11.4421C14.4292 11.6911 14.4292 11.9494 14.392 12.2007C14.3194 12.7483 14.0514 13.2513 13.6372 13.6168C13.2231 13.9824 12.6907 14.1859 12.1384 14.1898C11.586 14.1938 11.0508 13.998 10.6314 13.6384C10.212 13.2788 9.9368 12.7798 9.85639 12.2333C9.82614 11.9494 9.79591 11.6655 9.75634 11.3024L8.54622 11.6189ZM10.4079 6.34566C11.1922 6.44805 13.3843 6.42013 13.9289 6.28981C13.4262 5.28915 12.9352 4.29779 12.4302 3.31109C12.3213 3.15007 12.1974 2.99969 12.0602 2.86195C11.4994 3.98363 10.9827 5.00756 10.4754 6.03383C10.4381 6.13492 10.4146 6.2406 10.4056 6.34799L10.4079 6.34566ZM12.0974 12.7266C12.3204 12.7351 12.5383 12.659 12.7074 12.5135C12.8766 12.3681 12.9846 12.1641 13.0097 11.9424C13.0141 11.823 12.9941 11.7039 12.9508 11.5926C12.9075 11.4812 12.8419 11.3799 12.758 11.2948C12.674 11.2098 12.5736 11.1429 12.4628 11.0982C12.352 11.0534 12.2332 11.0319 12.1137 11.0348C11.8968 11.0439 11.6917 11.136 11.5406 11.2919C11.3896 11.4479 11.3042 11.6559 11.3022 11.873C11.3001 12.0901 11.3814 12.2997 11.5294 12.4586C11.6774 12.6174 11.8807 12.7134 12.0974 12.7266Z" fill="#0094FF"/>
</svg>
