<svg width="22" height="29" viewBox="0 0 22 29" fill="none" xmlns="http://www.w3.org/2000/svg">
<path d="M5.60515 15.097C5.38901 14.8489 5.22623 14.6567 5.05545 14.47C3.96845 13.3005 3.33697 11.78 3.27565 10.1845C3.23028 8.94904 3.24363 7.70824 3.31034 6.47544C3.47578 3.46282 6.28826 0.0179143 10.6031 0.218044C11.1989 0.247002 11.7891 0.346422 12.3615 0.514233C12.9729 0.699705 13.6093 0.789711 14.2481 0.781073C14.8885 0.781073 15.5289 0.76239 16.1667 0.810421C18.0345 0.943841 19.3687 1.87779 20.1986 3.53753C20.707 4.57715 20.9803 5.71593 20.9991 6.87303C21.0472 8.83431 21.0445 10.7982 21.0312 12.7595C21.0312 13.56 20.7109 13.8749 19.9291 13.8269C19.2107 13.7567 18.4976 13.6399 17.7944 13.4773C17.4068 13.3753 17.0247 13.2532 16.6497 13.1118L15.0326 15.1317C15.3795 15.2385 15.6597 15.3319 15.9399 15.3986C18.5682 16.1591 20.3134 18.2884 20.4174 21.0022C20.4895 22.9208 20.4548 24.842 20.4601 26.7633C20.4653 26.9764 20.4365 27.189 20.3747 27.393C20.3361 27.5387 20.2551 27.6697 20.1421 27.7694C20.029 27.8691 19.889 27.9331 19.7397 27.9534C19.4428 27.985 19.1442 27.9966 18.8457 27.9881C13.0856 28.0023 7.32449 28.013 1.56252 28.0201C1.43444 28.0201 1.2957 28.0201 1.17829 28.0201C0.572562 27.9774 0.321731 27.7533 0.276368 27.1662C0.239011 26.6539 0.241678 26.1415 0.241678 25.6292C0.241678 24.2203 0.273698 22.8114 0.241678 21.4051C0.20679 20.0287 0.645395 18.6821 1.48418 17.5902C2.32297 16.4984 3.51109 15.7276 4.84998 15.4066C5.10919 15.3227 5.36166 15.2192 5.60515 15.097ZM13.8132 19.8601C13.8132 19.0596 13.8132 18.2884 13.8132 17.5226C13.8132 17.3545 13.8132 17.181 13.4849 17.1704C13.3595 17.3785 13.2021 17.624 13.058 17.8802L11.4196 20.7727C11.2825 21.0372 11.1236 21.2898 10.9446 21.5279C10.8735 21.6218 10.7815 21.6981 10.6759 21.7505C10.5704 21.803 10.4541 21.8303 10.3362 21.8303C10.2183 21.8303 10.1021 21.803 9.99651 21.7505C9.89096 21.6981 9.79898 21.6218 9.72782 21.5279C9.52874 21.2533 9.35036 20.9643 9.19414 20.6633C8.64178 19.7027 8.09478 18.7394 7.54508 17.7761C7.44369 17.6 7.35563 17.3758 7.0461 17.5093V20.658C7.2142 20.7781 7.3476 20.8875 7.4917 20.9755C8.6311 21.6853 8.84192 22.7713 8.70049 23.9881C8.68951 24.183 8.60374 24.3662 8.46108 24.4994C8.31841 24.6326 8.12984 24.7056 7.93466 24.7033C7.74021 24.7182 7.54762 24.6565 7.39805 24.5313C7.24847 24.4062 7.15377 24.2275 7.13414 24.0335C7.0781 23.7 7.09679 23.3531 7.04342 23.0168C7.03173 22.8227 6.94503 22.6407 6.80163 22.5092C6.65824 22.3778 6.46938 22.3072 6.27492 22.3124C6.07947 22.3107 5.89014 22.3806 5.74268 22.5089C5.59521 22.6372 5.49981 22.815 5.4744 23.0088C5.42371 23.3451 5.45039 23.6919 5.40769 24.0282C5.37964 24.216 5.28418 24.3872 5.13916 24.5097C4.99414 24.6323 4.80947 24.6979 4.61962 24.6944C4.42976 24.6908 4.24771 24.6182 4.10744 24.4902C3.96716 24.3622 3.87826 24.1875 3.85734 23.9988C3.73459 22.7954 3.87336 21.6853 5.03945 20.9835C5.18622 20.8955 5.33831 20.8127 5.37033 20.7941C5.37033 19.4919 5.37033 18.3925 5.37033 17.2744C5.37033 17.2051 5.30361 17.1357 5.25825 17.0476C5.13901 17.0276 5.01726 17.0276 4.89802 17.0476C4.01715 17.3312 3.24903 17.8871 2.70428 18.6352C2.15953 19.3833 1.86626 20.2849 1.86672 21.2103C1.82937 22.7447 1.86672 24.2817 1.86672 25.816C1.88439 25.9907 1.91925 26.1632 1.9708 26.331C2.52676 26.4091 3.08967 26.4252 3.6492 26.379C8.29933 26.379 12.9495 26.3675 17.5996 26.3443C17.9705 26.3443 18.3708 26.4457 18.6963 26.1656C18.7365 26.0874 18.7653 26.0038 18.7817 25.9174C18.7817 24.1696 18.8271 22.4191 18.7417 20.674C18.6616 19.0036 17.4075 17.544 15.7611 17.053C15.6917 17.0316 15.601 17.0823 15.4729 17.1117V19.8708C15.7623 20.0741 16.0402 20.2933 16.3054 20.5272C16.6555 20.8592 16.8985 21.288 17.0033 21.7589C17.1081 22.2298 17.07 22.7212 16.8938 23.1703C16.7176 23.6194 16.4114 24.0056 16.0143 24.2796C15.6173 24.5536 15.1475 24.7028 14.6651 24.7081C14.1827 24.7135 13.7098 24.5747 13.3067 24.3096C12.9037 24.0445 12.589 23.6651 12.4029 23.22C12.2168 22.775 12.1678 22.2845 12.2622 21.8114C12.3565 21.3383 12.59 20.9042 12.9326 20.5646C13.2139 20.3149 13.5078 20.0797 13.8132 19.8601ZM5.05545 8.86632C4.44438 10.7182 5.60515 13.1998 7.33427 14.3018C8.27038 14.9018 9.36629 15.204 10.4776 15.1688C11.5889 15.1335 12.6634 14.7624 13.5596 14.1044C15.2701 12.8236 16.0733 10.7022 15.5236 8.80228C14.9611 8.88801 14.386 8.82748 13.8537 8.62651C13.3214 8.42555 12.8498 8.09094 12.4843 7.65487C12.2788 7.76161 12.1214 7.82832 11.98 7.92171C10.9514 8.5351 9.76955 8.84328 8.57241 8.81029C7.6785 8.79695 6.78458 8.81029 5.90401 8.81029C5.60248 8.80762 5.31428 8.84497 5.05545 8.86632ZM4.91405 7.1879C6.22156 7.21992 7.45169 7.21192 8.68183 7.1879C9.30261 7.19224 9.91792 7.07188 10.4913 6.83399C11.0647 6.5961 11.5846 6.24552 12.02 5.803C12.1907 5.61085 12.3763 5.4324 12.575 5.26932C12.6719 5.20254 12.7827 5.15857 12.899 5.14072C13.0153 5.12288 13.1342 5.13161 13.2467 5.16628C13.3591 5.20094 13.4623 5.26063 13.5484 5.34087C13.6345 5.4211 13.7013 5.5198 13.7438 5.62955C13.8065 5.87634 13.8475 6.12812 13.8665 6.38204C13.8893 6.57522 13.976 6.75525 14.1128 6.89352C14.2496 7.03179 14.4287 7.12036 14.6217 7.1452C14.9633 7.16631 15.3062 7.15738 15.6463 7.11852C15.7557 5.66424 15.1927 4.54618 14.3121 3.57488C13.808 3.02365 13.1957 2.58216 12.5134 2.27789C11.8312 1.97363 11.0935 1.81311 10.3465 1.80635C9.59955 1.79959 8.85918 1.94674 8.17153 2.23861C7.48388 2.53048 6.86368 2.96083 6.34961 3.50284C5.86969 3.98473 5.49447 4.56053 5.24743 5.19418C5.0004 5.82783 4.88692 6.50567 4.91405 7.18523V7.1879ZM17.3168 11.4947C17.9223 11.8885 18.6367 12.0809 19.3581 12.0444C19.3996 11.7908 19.4272 11.5352 19.4408 11.2786C19.4408 10.2592 19.4728 9.23723 19.4408 8.2179C19.4143 7.41444 19.3466 6.61287 19.238 5.81634C19.1374 5.01078 18.8264 4.24595 18.3361 3.5989C18.0523 3.18889 17.6558 2.86989 17.1946 2.68047C16.7333 2.49104 16.2271 2.43931 15.7371 2.53154C15.7371 2.57424 15.721 2.62494 15.7371 2.65697C15.8189 2.80361 15.9079 2.94609 16.0039 3.0839C16.9333 4.3692 17.4126 5.92528 17.3674 7.51077C17.3541 8.78626 17.3381 10.0484 17.3168 11.4947ZM9.04472 16.8555C9.59975 18.2911 9.89595 18.7474 10.483 19.1076C10.7952 18.5579 11.1207 18.0136 11.4116 17.4532C11.4783 17.2604 11.5178 17.0592 11.529 16.8555H9.04472ZM14.6323 23.0809C14.8433 23.0739 15.0429 22.9839 15.1878 22.8305C15.3327 22.6771 15.4112 22.4727 15.4062 22.2617C15.4069 22.0712 15.3331 21.888 15.2004 21.7514C15.0677 21.6147 14.8868 21.5354 14.6964 21.5305C14.5919 21.517 14.4858 21.5257 14.3849 21.5559C14.2841 21.5861 14.1907 21.6373 14.1109 21.706C14.0311 21.7747 13.9666 21.8595 13.9218 21.9548C13.8769 22.0501 13.8526 22.1537 13.8505 22.259C13.8509 22.4696 13.9318 22.6721 14.0767 22.8249C14.2216 22.9777 14.4194 23.0693 14.6297 23.0809H14.6323Z" fill="#0094FF"/>
</svg>
