<svg width="24" height="27" viewBox="0 0 24 27" fill="none" xmlns="http://www.w3.org/2000/svg">
<path d="M16.9476 14.1541C17.3733 13.8776 17.7086 13.442 18.0976 13.07C18.5503 12.6394 18.9908 12.194 19.4386 11.756C20.229 10.9803 21.7951 10.9729 22.6393 11.8318C23.0557 12.2534 23.2989 12.8156 23.3211 13.4077C23.3433 13.9997 23.1428 14.5786 22.7592 15.0301C22.6331 15.1798 22.4992 15.3228 22.3579 15.4583C20.7551 17.0636 19.1376 18.6541 17.552 20.2789C17.1922 20.6657 16.7526 20.9697 16.2638 21.17C15.775 21.3703 15.2485 21.462 14.7207 21.4388C13.1963 21.407 11.6693 21.456 10.1448 21.4217C9.87447 21.4072 9.60437 21.4546 9.35505 21.5602C9.10573 21.6658 8.88378 21.8268 8.70602 22.031C7.53879 23.2545 6.33729 24.4217 5.1407 25.6037C4.26712 26.4675 4.10316 26.465 3.23447 25.6037C2.4245 24.8084 1.62676 24.0033 0.826581 23.1982C0.659045 23.034 0.505217 22.8565 0.366571 22.6672C0.281878 22.5568 0.237191 22.4209 0.239859 22.2817C0.242526 22.1426 0.292404 22.0084 0.381267 21.9013C0.57596 21.6573 0.785971 21.426 1.01011 21.2088C2.36331 19.8507 3.70186 18.4804 5.08443 17.1492C5.54085 16.7257 5.86687 16.1807 6.0241 15.5782C6.16432 15.0042 6.44499 14.4739 6.84095 14.0353C7.23691 13.5966 7.73567 13.2632 8.29243 13.0651C8.84185 12.8644 9.42053 12.7553 10.0053 12.7421C11.4124 12.6956 12.8219 12.7299 14.2289 12.725C15.2322 12.725 16.074 13.026 16.6245 13.9192C16.6679 13.9837 16.7198 14.0421 16.7787 14.0929C16.8323 14.1201 16.889 14.1407 16.9476 14.1541ZM7.44577 21.1403C7.63624 20.9915 7.81466 20.8279 7.97927 20.6509C8.43441 20.0758 9.00944 19.9168 9.73376 19.9364C11.3757 19.9804 13.0201 19.9241 14.662 19.9608C15.0122 19.9759 15.3614 19.9138 15.6849 19.7789C16.0084 19.644 16.2983 19.4396 16.534 19.1802C18.0952 17.5872 19.6833 16.0211 21.2568 14.4428C21.4271 14.2825 21.579 14.1035 21.7094 13.9094C21.7985 13.7558 21.8357 13.5776 21.8154 13.4013C21.7951 13.225 21.7185 13.0599 21.5969 12.9306C21.4664 12.7822 21.2853 12.6878 21.089 12.6656C20.8927 12.6435 20.6951 12.6951 20.5349 12.8106C20.3164 12.9756 20.1126 13.159 19.9256 13.3588C18.981 14.296 18.0169 15.2136 17.109 16.1851C16.3089 17.0391 15.3962 17.4918 14.202 17.4086C13.4679 17.3646 12.7166 17.4086 11.9728 17.4086C11.7381 17.411 11.5036 17.3988 11.2705 17.3719C11.1143 17.3528 10.9696 17.2798 10.8614 17.1654C10.7533 17.0511 10.6885 16.9025 10.6783 16.7455C10.6685 16.5685 10.7231 16.394 10.8319 16.2541C10.9408 16.1142 11.0965 16.0184 11.2705 15.9844C11.5035 15.9566 11.7382 15.946 11.9728 15.9526C12.6775 15.9526 13.3798 15.9526 14.0846 15.9526C14.3188 15.9606 14.5532 15.9451 14.7844 15.9061C14.9742 15.8557 15.1408 15.7411 15.2559 15.5819C15.3709 15.4227 15.4274 15.2286 15.4157 15.0325C15.4041 14.8553 15.3339 14.6869 15.216 14.554C15.0982 14.4211 14.9394 14.3312 14.7648 14.2984C14.6495 14.2767 14.5323 14.2661 14.4149 14.2666C12.8129 14.2666 11.2093 14.2666 9.60406 14.2666C9.09113 14.2764 8.5988 14.4701 8.21662 14.8123C7.98358 14.993 7.78919 15.2187 7.64501 15.4759C7.50083 15.7332 7.40976 16.0168 7.37725 16.3099C7.32012 16.8581 7.0483 17.3613 6.62116 17.7096C6.16357 18.128 5.74022 18.5856 5.2606 19.0701L7.44577 21.1403ZM2.0281 22.3246C2.72795 23.0098 3.30541 23.5824 3.89025 24.1477C3.99938 24.229 4.11573 24.3003 4.23777 24.3606C4.56811 24.0425 4.90825 23.7341 5.21657 23.4062C5.60228 23.0664 5.95088 22.6866 6.25656 22.2733C5.90174 21.9062 5.5934 21.5636 5.2606 21.248C4.92781 20.9323 4.62193 20.4771 4.09337 20.2447L2.0281 22.3246Z" fill="#0094FF"/>
<path d="M14.4272 2.76557C16.3848 2.76557 18.1442 2.79494 19.9036 2.75089C20.2327 2.72006 20.5644 2.77093 20.8691 2.89898C21.1739 3.02704 21.4424 3.22833 21.6507 3.485C22.0496 3.9744 22.5415 4.36348 22.9648 4.82107C23.4249 5.31048 23.4346 5.67508 22.9893 6.14735C22.4289 6.74442 21.8465 7.32437 21.2495 7.88963C20.8212 8.29828 20.6132 8.31051 20.0969 8.05357C19.8522 7.93367 19.6075 7.80887 19.4118 7.68897C18.1882 8.30072 18.1882 8.30072 16.9647 7.68897C16.282 8.20529 15.4476 8.31541 14.5715 8.23955C14.2779 8.5234 14.0136 8.81216 13.7151 9.05931C12.2322 10.2828 10.5706 10.6058 8.78677 9.87172C6.9515 9.11314 5.93844 7.6694 5.85035 5.71179C5.7647 3.6979 6.70439 2.14648 8.51518 1.25332C10.326 0.360159 12.0903 0.644011 13.6539 1.90912C13.9372 2.17043 14.1961 2.45711 14.4272 2.76557ZM20.2584 4.23378H16.2477C15.5846 4.23378 14.919 4.23378 14.2559 4.23378C14.0805 4.24887 13.9043 4.21638 13.7458 4.13972C13.5873 4.06307 13.4524 3.94509 13.3554 3.79822C13.2241 3.60337 13.0785 3.41853 12.9198 3.2452C12.4094 2.72677 11.7415 2.39222 11.0206 2.29392C10.2998 2.19562 9.56665 2.33912 8.93606 2.70196C7.82267 3.41159 7.23784 4.43445 7.35285 5.75829C7.38051 6.39014 7.60301 6.99795 7.98987 7.49829C8.37674 7.99863 8.90897 8.36698 9.51352 8.55277C10.0845 8.77087 10.7071 8.81616 11.3036 8.68301C11.9002 8.54987 12.4444 8.24417 12.8684 7.80399C13.0561 7.6057 13.2279 7.39296 13.3823 7.16775C13.4718 7.03972 13.5925 6.93659 13.7329 6.86809C13.8733 6.79959 14.0289 6.76798 14.1849 6.77624C14.459 6.77624 14.7331 6.77624 15.0071 6.77624C15.1629 6.79712 15.3212 6.7862 15.4726 6.74414C15.624 6.70208 15.7653 6.62976 15.888 6.53154C16.6539 5.81945 17.4125 5.89531 18.1393 6.54622L19.402 5.92712L20.5985 6.48749L21.5382 5.50869L20.2584 4.23378Z" fill="#0094FF"/>
<path d="M10.502 5.54538C10.4949 5.73488 10.4128 5.91379 10.2738 6.04274C10.1347 6.17169 9.95009 6.24013 9.76058 6.23299C9.57108 6.22585 9.39219 6.14373 9.26323 6.00469C9.13428 5.86564 9.06588 5.68106 9.07302 5.49155C9.07738 5.29822 9.15613 5.11403 9.29287 4.97729C9.4296 4.84055 9.6138 4.76181 9.80712 4.75745C10.002 4.77428 10.1829 4.86553 10.3124 5.01225C10.4418 5.15897 10.5097 5.34989 10.502 5.54538Z" fill="#0094FF"/>
</svg>
