<svg width="1575" height="556" viewBox="0 0 1575 556" fill="none" xmlns="http://www.w3.org/2000/svg">
<path d="M825.9 73.2999C814.8 77.4999 809.6 87.0999 812.5 98.1999C815.5 109.9 829.9 116.4 841.8 111.5C856.7 105.2 858.5 84.1999 844.8 75.6999C839.4 72.2999 831.3 71.2999 825.9 73.2999Z" fill="black"/>
<path d="M615.4 125.9C608.2 129.2 604.3 136.6 605.4 144.7C606.5 152.6 632.1 240.4 634.9 245.4C638.2 251.6 643.6 255.6 650.7 257.1C663.9 259.8 675.9 254.9 681.1 244.8C682.2 242.7 686.9 224.7 691.6 204.8C696.3 184.8 700.3 168.4 700.5 168.2C701 167.7 701.3 168.9 710 205.5C718.5 241.2 721 248.4 726.4 252.5C735.7 259.6 754.8 259.2 762.8 251.7C767.8 247.1 770.2 240.2 783.4 194.3C797.7 144.6 798.6 140.1 795.3 133.3C792.1 126.5 782.2 122.6 772.5 124.4C767.4 125.4 761.5 131.1 759.6 136.8C758.8 139.4 754.7 157.9 750.5 178C742.7 215.5 742.2 217.6 741.5 216.9C741.3 216.7 737.3 199 732.6 177.7C727.9 156.4 723.2 137.3 722.1 135.2C718.1 127.5 711.8 124 701.5 124C691.3 124 684.9 127.5 681 135C680 137 675.5 155.2 671.1 175.5C666.6 195.9 662.6 213.6 662.1 215C661.4 217.3 661.3 217.4 660.7 215.5C660.4 214.4 656.5 196.2 652 175.1C647.5 154 643.3 135.5 642.5 134.1C640.7 130.6 636.1 126.4 632.7 125.1C628.4 123.4 620 123.8 615.4 125.9Z" fill="black"/>
<path d="M823.5 125.4C819.4 127.2 814.3 133.1 813.1 137.7C811.5 143.2 811.6 237.6 813.2 243.7C817.9 262.4 848.1 262.4 852.8 243.7C853.6 240.5 854 224 854 190.2C854 148.7 853.8 140.6 852.5 136.9C850.6 131.7 846.7 127.3 842.3 125.4C838.2 123.6 827.5 123.7 823.5 125.4Z" fill="black"/>
<path d="M883.9 126.3C880.7 128 878.9 130 877 133.5L874.5 138.4V190.5C874.5 241.6 874.5 242.6 876.6 247.1C880.6 255.6 891.6 259.7 902.2 256.6C907.5 255.1 912.7 250.9 914.6 246.5C915.1 245.4 915.7 228.7 916 209.5C916.5 175.9 916.6 174.3 918.7 170.4C923.4 161.7 931.3 157.3 940.8 158.3C948 159.1 953.1 162.5 956.1 168.7C958.5 173.4 958.5 174.1 959 209.5C959.5 244.8 959.5 245.6 961.8 249.2C966.9 257.4 981.8 260.2 991.2 254.7C994.4 252.9 996.5 250.7 997.9 247.7C999.9 243.5 1000 241.9 1000 202.6C1000 159.1 999.6 155.1 994.8 145.6C987.7 131.7 973.9 124 956 124C938.6 124 926.8 130.6 919.2 144.7L916.1 150.5L916 146C916 139.2 914.2 134.3 910.3 129.9C904.5 123.5 892.4 121.9 883.9 126.3Z" fill="black"/>
<path d="M392.2 172.9C381 176.8 373.3 188.5 374.3 200.2C375.5 214.4 387 225 401.1 225C409.8 225 421.2 227.8 430 232.1C445 239.5 458.4 255.3 463.6 271.7C466.1 279.6 466.6 295.4 464.6 304.4C458.6 331.1 436 351.8 409.3 354.8C405 355.3 370.5 355.1 361 355.1C351.5 355.1 329.5 357.5 313.7 351.2C310.616 349.217 298.1 339.9 294.1 331.8C291.6 326.8 290.8 323.4 290.1 315.7C289 303.9 286.7 298.6 280.3 293C267.1 281.4 247 285.5 238.8 301.4C232.7 313.2 237.5 341.1 249.1 361.6C254.5 371.2 268.6 386.3 278.1 392.5C286.8 398.4 297.4 403.2 307.5 406.1C315.2 408.3 317.3 408.4 363.2 408.7C402.9 409.1 412.4 408.9 419.8 407.6C445 403.2 465.8 392.9 483.6 375.8C508.2 352.2 521.1 319.9 519.7 285.5C518 246.7 499 212.8 466.8 191.3C451.3 181 433.3 174.4 414 172C402.4 170.6 398.4 170.8 392.2 172.9Z" fill="#FF00C7"/>
<path d="M182.5 174.1C145.4 179.6 111.2 203.9 94.3 236.5C79 266.1 76.4 300.4 87.2 330.8C99.7 366.3 127.6 393.7 162.8 405C182.3 411.3 203 412.6 211.6 408.2C227.3 400.1 231 379.3 219.2 365.8C214.6 360.6 207.4 357.9 195.5 356.9C177.5 355.4 165.9 350 153.5 337.6C140.5 324.5 134.7 310.4 134.7 292C134.7 273.6 140.5 259.4 153.5 246.5C162.7 237.2 171.7 232 183.6 229C190.7 227.2 194.8 227 231.6 227C257.3 227 273.8 227.4 277.2 228.1C296.6 232.2 311 250.5 311 271.4C311 279.6 317.4 288.9 326.3 293.7C331.2 296.4 344.2 296.1 349.6 293.3C353.6 291.1 359.8 285 361.9 281.1C365.7 274.1 365 256.4 360.3 241.6C349.9 208.6 324.6 184.8 290.5 175.8C283 173.8 279.7 173.6 235.5 173.4C209.7 173.3 185.8 173.6 182.5 174.1Z" fill="#0094FF"/>
<path d="M1045.8 251.4C1039.9 253.5 1037.2 255.7 1034.8 260.3L1032.5 264.5L1032.2 334.9C1032 385.2 1032.3 407 1033.1 410.9C1035.2 421 1043.8 426.8 1055.5 425.8C1062.4 425.2 1067.7 422.4 1070.8 417.7L1073.5 413.6L1073.8 340.6C1074 288 1073.8 266.3 1072.9 263.3C1070.2 253.2 1056.9 247.4 1045.8 251.4Z" fill="black"/>
<path d="M1480.8 251C1475.5 252.6 1471.1 256.1 1469.1 260.4C1467.1 264.3 1467 266.4 1467 290.8C1467 305.2 1466.6 317 1466.2 317C1465.7 317 1464.6 315.4 1463.7 313.4C1459.5 304.8 1448.6 296.5 1437.9 294.1C1426.9 291.5 1411.2 293.8 1401.9 299.2C1383.2 310.2 1373.1 337.9 1376.1 369.7C1378.3 393.7 1388.4 412 1403.5 419.8C1418.6 427.4 1439.1 426.7 1452.3 417.9C1457.4 414.5 1463.7 407.1 1464.6 403.3C1465.7 399.2 1467 400.8 1467 406.2C1467.1 417.5 1473.6 424.7 1484.8 425.7C1494.8 426.6 1502.8 422.8 1506.1 415.6C1507.9 411.7 1508 407.5 1508 338.2C1508 278.9 1507.7 264.3 1506.6 261.7C1503 253 1490.9 247.9 1480.8 251ZM1453.5 328.4C1461.9 333.4 1466.3 343.5 1466.3 358.5C1466.5 380.5 1458.1 392.3 1442.3 392.2C1427 392.2 1418.5 380.1 1418.6 358.5C1418.7 343.6 1422.4 334.6 1431.2 328.8C1434.7 326.4 1436.3 326 1442.3 326C1447.9 326 1450.1 326.5 1453.5 328.4Z" fill="black"/>
<path d="M617.5 293.2C609.9 295.9 605.1 302.5 605 310.3C605 315 631.3 406.7 634.5 413C639.3 422.5 648.1 426.7 660.6 425.7C668.9 425.1 675.7 421.7 679.3 416.4C682.2 412.3 683.2 408.3 695.5 356.7C698.1 345.8 700.6 337.2 701 337.7C701.4 338.1 705.2 353.3 709.5 371.5C713.8 389.6 718.1 406.9 719.2 409.8C723 420.1 729.7 425 741.1 425.8C754.7 426.7 764.3 421.7 768.8 411.2C772.1 403.5 796.1 319 796.7 312.8C797.4 305.8 796.7 303 793.3 298.9C786.5 290.8 772.4 289.8 764.7 296.8C760.7 300.4 758.7 307.2 751 344.3C742.8 383.3 742.3 385.6 741.5 384.9C741.3 384.6 737.2 366.9 732.4 345.5C727.7 324 722.9 304.8 721.9 302.8C718.5 296.1 710.7 292 701.5 292C691.9 292 684 296.4 680.8 303.6C679.8 306 675.1 325.4 670.4 346.7C665.8 368 661.8 385.6 661.6 385.8C661.1 386.2 660.9 385.5 652.5 345.5C643.9 304.7 643.7 303.7 640.2 299.1C635.7 293 625.5 290.4 617.5 293.2Z" fill="black"/>
<path d="M824.6 293.5C819.1 295.4 815.2 299.6 813.5 305.4C811.2 312.9 811.3 406.8 813.5 413.1C816.4 421.3 823.3 425.9 832.8 426C842.7 426 850 421.1 852.5 412.6C854.7 405.2 854.7 312.7 852.5 305.3C849.3 294.5 836.7 289.2 824.6 293.5Z" fill="black"/>
<path d="M885.5 293.9C880 296.4 876.4 300.9 875.1 307C873.7 313.6 873.6 402.6 875 410C877 420.7 883.2 425.4 895 425.5C904.2 425.5 909.1 423.4 912.8 417.7L915.5 413.7L916 378.1L916.5 342.5L919 338C926.2 325.2 943.6 322.2 952.6 332.2C958.5 338.6 958.5 338.6 959 377.5C959.4 409.2 959.7 413.9 961.2 416.7C968.2 429.5 992.1 428.8 998.1 415.7C999.8 411.8 1000 408.6 1000 371.3C1000 345.7 999.6 329.2 998.9 325.8C994 302.5 973.3 289 948.3 292.8C934.6 294.9 925.6 301.2 919.1 313L916 318.5V314C916 307 914.1 301.9 910.1 297.9C904.2 292 893.5 290.2 885.5 293.9Z" fill="black"/>
<path d="M1139 292.7C1114 296.9 1098.6 309.2 1098.6 325.2C1098.6 333 1104 338.6 1112.5 339.6C1120.3 340.6 1125.2 338.7 1132.7 331.9C1141.8 323.6 1145.3 322 1154 322C1161.7 322 1165 323.2 1169 327.5C1171.1 329.7 1171.5 331.3 1171.8 337.5L1172.2 344.8L1160.4 345.5C1124.5 347.5 1112.6 350.5 1101.6 360.1C1086.5 373.5 1086.8 399.6 1102.2 413.5C1111.1 421.5 1120.7 425 1133.5 425C1147.7 425 1158.9 420.3 1167.6 410.6L1173 404.7V408.3C1173 412.8 1174.5 416.8 1177.3 419.9C1184.1 427.2 1199.1 428 1206.9 421.4C1213 416.3 1213.1 415 1212.8 367.5L1212.5 324.5L1209.2 317.8C1203.4 305.9 1191 297.3 1174.3 293.6C1167.6 292.1 1145.9 291.5 1139 292.7ZM1172 375.2C1172 380.6 1171.5 383.3 1170.1 385.6C1167.8 389.4 1162.7 393.3 1158.1 394.9C1153.3 396.5 1142.5 396.3 1139 394.5C1131.8 390.8 1129.6 382 1134.5 376.1C1138.1 371.9 1143.8 370.1 1157.5 369.1C1164.1 368.7 1170.1 368.2 1170.8 368.1C1171.6 368 1172 370 1172 375.2Z" fill="black"/>
<path d="M1245 293.6C1240.4 295.6 1238.2 297.7 1235.6 302.5C1233.5 306.4 1233.5 307.3 1233.5 358C1233.5 405.6 1233.6 409.9 1235.3 414.3C1239.9 426 1256.7 429.8 1268.3 421.8C1274.3 417.5 1274.5 416.8 1275 378.5C1275.5 344.3 1275.6 343.4 1277.8 338.7C1285.9 322.5 1308.5 322 1315.9 338C1317.2 340.9 1317.6 347.2 1318 377.6L1318.5 413.7L1321.2 417.7C1324.3 422.4 1329.6 425.2 1336.5 425.8C1346.2 426.6 1353.2 423.2 1357.3 415.7C1359.5 411.6 1359.5 410.9 1359.5 371C1359.5 335.7 1359.3 329.7 1357.8 324.3C1355.4 315.5 1352.6 310.5 1346.9 304.4C1335.1 292 1311.6 288.5 1294.5 296.5C1288.3 299.5 1281.3 306.7 1277.8 313.8L1275.5 318.5L1274.9 312C1274.3 304.5 1272.4 300.3 1268 296.7C1262.5 292 1251.9 290.6 1245 293.6Z" fill="black"/>
</svg>
