<svg id="Icons" xmlns="http://www.w3.org/2000/svg" viewBox="0 0 215 215"><defs><style>.cls-1{fill:#fff;fill-rule:evenodd;}</style></defs><g id="Messenger"><path id="Background" d="M1385,103.2c0-48.65,0-73,15.11-88.09S1439.55,0,1488.2,0h8.6c48.65,0,73,0,88.09,15.11S1600,54.55,1600,103.2v8.6c0,48.65,0,73-15.11,88.09S1545.45,215,1496.8,215h-8.6c-48.65,0-73,0-88.09-15.11S1385,160.45,1385,111.8Z" transform="translate(-1385)"/><path id="Messenger-2" data-name="Messenger" class="cls-1" d="M1428.34,134.31,1460,84.13a16.16,16.16,0,0,1,23.36-4.31l25.15,18.87a6.47,6.47,0,0,0,7.78,0l34-25.79a5.12,5.12,0,0,1,7.42,6.81L1526,129.87a16.15,16.15,0,0,1-23.35,4.31l-25.16-18.87a6.47,6.47,0,0,0-7.78,0l-34,25.79A5.12,5.12,0,0,1,1428.34,134.31Z" transform="translate(-1385)"/></g></svg>