<svg id="Icons" xmlns="http://www.w3.org/2000/svg" viewBox="0 0 215 215"><defs><style>.cls-1{fill:#fff;}</style></defs><g id="Pinterest"><path id="Background" d="M0,657.2c0-48.65,0-73,15.11-88.09S54.55,554,103.2,554h8.6c48.65,0,73,0,88.09,15.11S215,608.55,215,657.2v8.6c0,48.65,0,73-15.11,88.09S160.45,769,111.8,769h-8.6c-48.65,0-73,0-88.09-15.11S0,714.45,0,665.8Z" transform="translate(0 -554)"/><path id="Pinterest-2" data-name="Pinterest" class="cls-1" d="M109.31,607.06c-32.86,0-49.95,21.91-49.95,46,0,11.17,5.7,25,15.34,29.35,1.31.88,2.19.44,2.19-.87l2.19-8.33c.22-1.09.22-1.75-.44-2.19-3.51-4.38-5.7-10.95-5.7-17.52,0-16.87,12.71-32.87,34.18-32.87,18.84,0,32,12.49,32,30.68,0,20.59-10.51,35-24.09,35a11.66,11.66,0,0,1-11.62-14c2.2-9,6.58-18.41,6.58-25,0-6.13-3.07-11-9.64-11-7.45,0-14,7.88-14,18.4a27.54,27.54,0,0,0,2.19,11.39l-8.77,37.68c-1.31,6.8-.65,16.65,0,22.57.1,1,.62,2.84,1.93,3.08A2.92,2.92,0,0,0,84.45,728c3.28-5.27,8-13.9,9.74-20.4l5.26-18.19c2.41,4.82,9.64,8.77,17.09,8.77,23.22,0,39.43-21,39.43-47.32C156,625.9,135.6,607.06,109.31,607.06Z" transform="translate(0 -554)"/></g></svg>