<svg id="Icons" xmlns="http://www.w3.org/2000/svg" viewBox="0 0 215 215"><defs><style>.cls-1{fill:#fff;}</style></defs><g id="Spotify"><path id="Background" d="M554,934.2c0-48.65,0-73,15.11-88.09S608.55,831,657.2,831h8.6c48.65,0,73,0,88.09,15.11S769,885.55,769,934.2v8.6c0,48.65,0,73-15.11,88.09S714.45,1046,665.8,1046h-8.6c-48.65,0-73,0-88.09-15.11S554,991.45,554,942.8Z" transform="translate(-554 -831)"/><g id="Spotify-2" data-name="Spotify"><path id="Spotify-3" data-name="Spotify" class="cls-1" d="M705.91,974.72c-26.45-16.16-59.24-19.93-97.46-11.18a6.25,6.25,0,0,0,2.78,12.18c34.94-8,64.58-4.72,88.15,9.68h0a6.26,6.26,0,0,0,6.51-10.69Z" transform="translate(-554 -831)"/><path id="Spotify-4" data-name="Spotify" class="cls-1" d="M717.68,945.24c-31-19-76.27-24.39-112.72-13.33a7.84,7.84,0,0,0,4.55,15c31.9-9.68,73-4.88,100,11.7A7.83,7.83,0,0,0,720.25,956h0A7.82,7.82,0,0,0,717.68,945.24Z" transform="translate(-554 -831)"/><path id="Spotify-5" data-name="Spotify" class="cls-1" d="M599.29,898l-.25.07a9.38,9.38,0,1,0,5.7,17.88c30.87-9.38,84.23-7.61,116.59,11.6h0a9.39,9.39,0,0,0,9.57-16.15C693.65,889.32,634.73,887.23,599.29,898Z" transform="translate(-554 -831)"/></g></g></svg>