<svg id="Icons" xmlns="http://www.w3.org/2000/svg" viewBox="0 0 215 215"><defs><style>.cls-1{fill:#fff;}</style></defs><g id="Twitter"><path id="Background" d="M554,657.2c0-48.65,0-73,15.11-88.09S608.55,554,657.2,554h8.6c48.65,0,73,0,88.09,15.11S769,608.55,769,657.2v8.6c0,48.65,0,73-15.11,88.09S714.45,769,665.8,769h-8.6c-48.65,0-73,0-88.09-15.11S554,714.45,554,665.8Z" transform="translate(-554 -554)"/><path id="Twitter-2" data-name="Twitter" class="cls-1" d="M641,713c45.37,0,70.19-37.59,70.19-70.2,0-1.06,0-2.13-.07-3.18a50.32,50.32,0,0,0,12.31-12.77,49.45,49.45,0,0,1-14.17,3.88,24.78,24.78,0,0,0,10.84-13.65,49.3,49.3,0,0,1-15.66,6,24.69,24.69,0,0,0-42,22.5,70,70,0,0,1-50.85-25.78,24.7,24.7,0,0,0,7.64,32.94,24.56,24.56,0,0,1-11.2-3.09V650a24.68,24.68,0,0,0,19.79,24.19,24.67,24.67,0,0,1-11.14.42,24.71,24.71,0,0,0,23,17.13A49.39,49.39,0,0,1,609,702.31a50.12,50.12,0,0,1-5.87-.35A69.82,69.82,0,0,0,641,713" transform="translate(-554 -554)"/></g></svg>