<svg width="20" height="20" viewBox="0 0 20 20" fill="none" xmlns="http://www.w3.org/2000/svg">
<path d="M2.48438 5.23996H9.85914C10.0814 6.25167 10.9849 7.0112 12.0624 7.0112C13.1399 7.0112 14.0433 6.2517 14.2656 5.23996H17.0156C17.2831 5.23996 17.5 5.02308 17.5 4.75558C17.5 4.48809 17.2831 4.27121 17.0156 4.27121H14.2654C14.0427 3.26001 13.138 2.5 12.0624 2.5C10.9862 2.5 10.0819 3.25989 9.85932 4.27121H2.48438C2.21688 4.27121 2 4.48809 2 4.75558C2 5.02308 2.21688 5.23996 2.48438 5.23996ZM10.7756 4.75685L10.7756 4.75165C10.7777 4.04425 11.3549 3.46878 12.0624 3.46878C12.7688 3.46878 13.3461 4.04346 13.3491 4.75053L13.3492 4.75764C13.3481 5.46625 12.7713 6.04248 12.0624 6.04248C11.3538 6.04248 10.7771 5.46683 10.7755 4.75864L10.7756 4.75685ZM17.0156 15.275H14.2654C14.0427 14.2639 13.138 13.5038 12.0624 13.5038C10.9862 13.5038 10.0819 14.2637 9.85932 15.275H2.48438C2.21688 15.275 2 15.4919 2 15.7594C2 16.0269 2.21688 16.2438 2.48438 16.2438H9.85914C10.0814 17.2555 10.9849 18.015 12.0624 18.015C13.1399 18.015 14.0433 17.2555 14.2656 16.2438H17.0156C17.2831 16.2438 17.5 16.0269 17.5 15.7594C17.5 15.4919 17.2831 15.275 17.0156 15.275ZM12.0624 17.0463C11.3538 17.0463 10.7771 16.4706 10.7755 15.7624L10.7756 15.7607L10.7756 15.7555C10.7777 15.0481 11.3549 14.4726 12.0624 14.4726C12.7688 14.4726 13.3461 15.0473 13.3491 15.7543L13.3492 15.7614C13.3482 16.4701 12.7713 17.0463 12.0624 17.0463ZM17.0156 9.77313H9.64086C9.4186 8.76143 8.51512 8.00193 7.43762 8.00193C6.36013 8.00193 5.45665 8.76143 5.23438 9.77313H2.48438C2.21688 9.77313 2 9.99001 2 10.2575C2 10.525 2.21688 10.7419 2.48438 10.7419H5.23463C5.45735 11.753 6.36204 12.5131 7.43762 12.5131C8.51378 12.5131 9.41808 11.7532 9.64068 10.7419H17.0156C17.2831 10.7419 17.5 10.525 17.5 10.2575C17.5 9.99001 17.2831 9.77313 17.0156 9.77313ZM8.72443 10.2562L8.7244 10.2614C8.72228 10.9688 8.14505 11.5443 7.43762 11.5443C6.73119 11.5443 6.15394 10.9696 6.15088 10.2626L6.15079 10.2555C6.15185 9.54681 6.72871 8.97068 7.43762 8.97068C8.1462 8.97068 8.72285 9.54629 8.72446 10.2545L8.72443 10.2562Z" fill="url(#paint0_linear_47_213)"/>
<defs>
<linearGradient id="paint0_linear_47_213" x1="2" y1="10.2575" x2="17.5" y2="10.2575" gradientUnits="userSpaceOnUse">
<stop stop-color="#E427CC"/>
<stop offset="1" stop-color="#2B73FF"/>
</linearGradient>
</defs>
</svg>
