<svg width="72" height="39" viewBox="0 0 72 39" fill="none" xmlns="http://www.w3.org/2000/svg">
<path fill-rule="evenodd" clip-rule="evenodd" d="M52.263 0.476562C62.798 0.476562 71.3398 9.01842 71.3398 19.5534C71.3399 30.0884 62.798 38.6305 52.2153 38.5828H41.2056C36.9348 38.5829 33.1383 36.8745 30.3386 34.0747C27.5388 31.275 25.8304 27.4784 25.8304 23.2077C25.8304 20.8349 27.7762 18.8892 30.1489 18.8892C32.5217 18.8892 34.4674 20.8349 34.4674 23.2077C34.4201 26.9564 37.4572 29.9935 41.206 29.9462L52.263 29.9936C58.0526 29.9935 62.7031 25.3431 62.7031 19.5536C62.703 13.764 58.0525 9.1135 52.263 9.1135C49.8903 9.1135 47.9445 7.16777 47.9445 4.79503C47.9445 2.42229 49.8903 0.476562 52.263 0.476562ZM9.56824 19.8223C9.56833 25.6119 14.2188 30.2624 20.0083 30.2624C22.381 30.2624 24.3273 32.2083 24.3269 34.5807C24.3269 36.9534 22.3812 38.8991 20.0085 38.8991C14.7409 38.8516 9.99541 36.7636 6.5313 33.2995C3.0671 29.8353 0.931641 25.0425 0.931641 19.8223C0.931641 9.28735 9.4735 0.745491 20.0085 0.745492L31.0655 0.792864C39.5125 0.792865 46.4408 7.72126 46.4408 16.1682C46.4408 18.5409 44.4951 20.4867 42.1224 20.4867C39.7496 20.4867 37.8039 18.5409 37.8039 16.1682C37.8039 12.4667 34.7668 9.42963 31.0653 9.42963L20.0083 9.38226C14.2187 9.38234 9.56816 14.0327 9.56824 19.8223Z" fill="white"/>
</svg>
