<svg width="101" height="89" viewBox="0 0 101 89" fill="none" xmlns="http://www.w3.org/2000/svg">
<path fill-rule="evenodd" clip-rule="evenodd" d="M59.6783 26.3952C62.4577 23.6697 64.2023 19.7401 64.2023 15.3714C64.2023 7.14198 58.0116 0.470703 50.3751 0.470703C42.7386 0.470703 36.5479 7.14198 36.5479 15.3714C36.5479 19.7172 38.2743 23.6285 41.0283 26.3523C39.0966 27.0601 37.2426 27.9905 35.5053 29.132C33.1925 30.6516 31.1407 32.5098 29.4118 34.6325C28.6931 35.515 28.0301 36.4432 27.4274 37.4117C27.2512 37.6949 27.0801 37.9816 26.9143 38.2716C26.0355 39.8084 26.8138 41.7018 28.4441 42.3919C29.8355 42.9809 31.395 42.4989 32.4035 41.4105C32.5766 41.2237 32.7335 41.019 32.8705 40.7989C33.3517 40.0256 33.8832 39.2862 34.4613 38.5852C35.7621 37.0077 37.2983 35.6248 39.0257 34.4899C42.418 32.261 46.3951 31.0881 50.454 31.1195C54.5129 31.1509 58.4713 32.3852 61.8287 34.6663C63.5384 35.8279 65.053 37.2343 66.3293 38.8318C66.8964 39.5416 67.4164 40.2892 67.8856 41.0698C68.0192 41.2921 68.1728 41.4992 68.343 41.6886C69.3347 42.7925 70.8864 43.2985 72.2868 42.7311C73.9276 42.0663 74.7351 40.1852 73.8802 38.635C73.7189 38.3425 73.5523 38.0532 73.3805 37.7673C72.7928 36.7895 72.1443 35.8512 71.4393 34.9577C69.7434 32.8085 67.7207 30.9188 65.4316 29.3635C63.6307 28.1399 61.6979 27.1458 59.6783 26.3952ZM57.5627 15.1609C57.5627 19.7025 54.3499 23.3842 50.3867 23.3842C46.4234 23.3842 43.2106 19.7025 43.2106 15.1609C43.2106 10.6193 46.4234 6.93766 50.3867 6.93766C54.3499 6.93766 57.5627 10.6193 57.5627 15.1609ZM37.977 61.3966C37.977 65.7653 36.2324 69.6948 33.453 72.4203C35.4726 73.171 37.4054 74.1651 39.2063 75.3887C41.4954 76.9439 43.5181 78.8337 45.214 80.9829C45.919 81.8764 46.5675 82.8147 47.1552 83.7925C47.327 84.0784 47.4936 84.3676 47.6549 84.6601C48.5098 86.2104 47.7023 88.0915 46.0615 88.7563C44.6611 89.3237 43.1094 88.8176 42.1177 87.7138C41.9475 87.5243 41.7939 87.3172 41.6603 87.0949C41.1911 86.3144 40.6711 85.5668 40.104 84.8569C38.8277 83.2595 37.3131 81.853 35.6034 80.6915C32.246 78.4103 28.2876 77.176 24.2287 77.1446C20.1698 77.1132 16.1927 78.2861 12.8004 80.515C11.073 81.65 9.53677 83.0328 8.23597 84.6103C7.65793 85.3113 7.12639 86.0508 6.64523 86.824C6.50822 87.0442 6.35134 87.2489 6.17823 87.4357C5.16966 88.5241 3.61023 89.006 2.21877 88.417C0.588485 87.7269 -0.189833 85.8335 0.68897 84.2967C0.854788 84.0067 1.02587 83.7201 1.2021 83.4369C1.80481 82.4683 2.46776 81.5401 3.18652 80.6577C4.91542 78.535 6.96719 76.6768 9.28005 75.1571C11.0173 74.0157 12.8713 73.0853 14.803 72.3774C12.049 69.6537 10.3226 65.7424 10.3226 61.3966C10.3226 53.1671 16.5133 46.4958 24.1498 46.4958C31.7863 46.4958 37.977 53.1671 37.977 61.3966ZM24.1613 69.4092C28.1245 69.4092 31.3373 65.7276 31.3373 61.186C31.3373 56.6444 28.1245 52.9627 24.1613 52.9627C20.198 52.9627 16.9852 56.6444 16.9852 61.186C16.9852 65.7276 20.198 69.4092 24.1613 69.4092ZM90.4275 61.3967C90.4275 65.7654 88.6829 69.6949 85.9035 72.4204C87.9231 73.1711 89.8558 74.1652 91.6568 75.3888C93.9459 76.944 95.9686 78.8338 97.6645 80.983C98.3695 81.8765 99.018 82.8148 99.6056 83.7926C99.7775 84.0785 99.9441 84.3677 100.105 84.6602C100.96 86.2105 100.153 88.0916 98.512 88.7564C97.1116 89.3238 95.5598 88.8177 94.5682 87.7139C94.398 87.5244 94.2443 87.3173 94.1107 87.095C93.6416 86.3145 93.1216 85.5669 92.5545 84.857C91.2782 83.2596 89.7635 81.8531 88.0539 80.6916C84.6965 78.4104 80.7381 77.1761 76.6792 77.1447C72.6203 77.1133 68.6432 78.2862 65.2509 80.5151C63.5235 81.6501 61.9873 83.0329 60.6865 84.6104C60.1084 85.3114 59.5769 86.0509 59.0957 86.8241C58.9587 87.0443 58.8018 87.249 58.6287 87.4358C57.6201 88.5242 56.0607 89.0061 54.6693 88.4171C53.039 87.727 52.2607 85.8336 53.1395 84.2968C53.3053 84.0069 53.4764 83.7202 53.6526 83.437C54.2553 82.4684 54.9182 81.5402 55.637 80.6578C57.3659 78.5351 59.4177 76.6769 61.7305 75.1572C63.4677 74.0158 65.3218 73.0854 67.2535 72.3775C64.4995 69.6538 62.7731 65.7425 62.7731 61.3967C62.7731 53.1672 68.9637 46.496 76.6003 46.496C84.2368 46.496 90.4275 53.1672 90.4275 61.3967ZM76.6118 69.4093C80.5751 69.4093 83.7879 65.7276 83.7879 61.186C83.7879 56.6444 80.5751 52.9628 76.6118 52.9628C72.6486 52.9628 69.4358 56.6444 69.4358 61.186C69.4358 65.7276 72.6486 69.4093 76.6118 69.4093Z" fill="url(#paint0_linear_410_121)"/>
<defs>
<linearGradient id="paint0_linear_410_121" x1="0.322752" y1="51.7194" x2="100.458" y2="51.6088" gradientUnits="userSpaceOnUse">
<stop stop-color="#0094FF"/>
<stop offset="1" stop-color="#FF00C7"/>
</linearGradient>
</defs>
</svg>
