<svg width="29" height="29" viewBox="0 0 29 29" fill="none" xmlns="http://www.w3.org/2000/svg">
<path d="M14.9465 0.444824C11.2335 0.444824 7.67258 1.91981 5.0471 4.54539C2.42152 7.17078 0.946533 10.7319 0.946533 14.4448C0.946533 18.1578 2.42152 21.7188 5.0471 24.3443C7.67248 26.9698 11.2336 28.4448 14.9465 28.4448C18.6595 28.4448 22.2205 26.9698 24.846 24.3443C27.4715 21.7189 28.9465 18.1578 28.9465 14.4448C28.9465 10.7319 27.4715 7.17088 24.846 4.54539C22.2206 1.91981 18.6595 0.444824 14.9465 0.444824ZM17.3545 21.6662C17.2932 21.7437 17.2205 21.8117 17.1389 21.8677C16.0137 22.6716 14.6688 23.1105 13.2862 23.125C12.0206 23.125 11.3262 22.2429 11.6061 21.0109C11.9588 19.5326 12.3256 18.0598 12.684 16.5842H12.6842C12.7856 16.3215 12.7786 16.0295 12.6645 15.7721C12.5561 15.5973 12.3911 15.4649 12.1969 15.3969C12.0889 15.367 11.9782 15.3473 11.8664 15.3381C11.7321 15.3073 11.5332 15.285 11.4352 15.1366L11.4043 15.0889H11.4045C11.3342 14.9868 11.3086 14.8604 11.3334 14.7389C11.3582 14.6174 11.4315 14.5114 11.5362 14.445L11.7911 14.277L12.169 14.0671C12.3938 13.9495 12.6258 13.8456 12.8633 13.7561C13.3485 13.5643 13.851 13.42 14.3641 13.3251C14.6741 13.2698 14.9876 13.2352 15.3022 13.2214C15.5563 13.2204 15.81 13.2475 16.0581 13.3026C16.968 13.521 17.4244 14.3302 17.1779 15.3159C16.8281 16.8053 16.4557 18.2893 16.0916 19.7649C15.918 20.4705 16.0916 20.7785 16.8028 20.9688C16.9092 20.9967 17.0184 21.0164 17.1276 21.0416C17.4945 21.1369 17.5813 21.3666 17.3545 21.6662ZM16.1588 10.5448C15.5239 10.5416 14.9159 10.2862 14.4696 9.83441C14.0231 9.38265 13.7747 8.77171 13.7791 8.13677C13.7836 7.50162 14.0407 6.89438 14.4934 6.44888C14.9461 6.00357 15.5576 5.75649 16.1928 5.76254C16.8277 5.7684 17.4344 6.02679 17.8789 6.48068C18.3232 6.93439 18.5688 7.54647 18.5613 8.18147C18.5525 8.81231 18.2953 9.41426 17.8455 9.85666C17.3957 10.299 16.7897 10.5463 16.1588 10.5448Z" fill="white"/>
</svg>
