<svg width="228" height="58" viewBox="0 0 228 58" fill="none" xmlns="http://www.w3.org/2000/svg">
<path d="M91.9664 57.6715C93.3294 57.6715 94.3832 57.3623 95.1278 56.744C95.885 56.1129 96.4087 55.1033 96.699 53.7151L98.9517 43.5873H99.1031L101.375 53.6583C101.69 55.0591 102.227 56.0814 102.984 56.725C103.741 57.356 104.814 57.6715 106.202 57.6715C107.527 57.6715 108.556 57.356 109.288 56.725C110.032 56.0814 110.6 55.0718 110.991 53.6962L114.512 41.4103C114.651 40.8929 114.752 40.4638 114.815 40.1231C114.891 39.7823 114.929 39.4289 114.929 39.0629C114.929 38.1669 114.607 37.4286 113.964 36.8481C113.32 36.2676 112.5 35.9773 111.503 35.9773C110.594 35.9773 109.843 36.2549 109.25 36.8102C108.657 37.3529 108.272 38.1038 108.095 39.0629L105.767 50.7241H105.615L103.268 39.3848C102.826 37.1131 101.469 35.9773 99.1978 35.9773C96.9135 35.9773 95.5442 37.1068 95.0899 39.3658L92.7615 50.7241H92.6289L90.3194 39.1387C90.1301 38.1543 89.7326 37.3845 89.1268 36.8292C88.521 36.2613 87.7575 35.9773 86.8362 35.9773C85.814 35.9773 84.9684 36.2739 84.2996 36.867C83.6433 37.4476 83.3152 38.1922 83.3152 39.1008C83.3152 39.4668 83.3467 39.8328 83.4098 40.1988C83.4856 40.5521 83.5991 40.9875 83.7506 41.505L87.2527 53.7151C87.6439 55.0907 88.1992 56.094 88.9186 56.725C89.6506 57.356 90.6665 57.6715 91.9664 57.6715Z" fill="black"/>
<path d="M120.229 57.6715C121.391 57.6715 122.293 57.3434 122.937 56.6872C123.58 56.0183 123.902 55.0844 123.902 53.8855V39.7823C123.902 38.5834 123.58 37.6495 122.937 36.9806C122.293 36.3117 121.391 35.9773 120.229 35.9773C119.068 35.9773 118.166 36.3117 117.522 36.9806C116.879 37.6369 116.557 38.5645 116.557 39.7634V53.8855C116.557 55.0844 116.879 56.0183 117.522 56.6872C118.166 57.3434 119.068 57.6715 120.229 57.6715Z" fill="black"/>
<path d="M130.168 57.6715C131.241 57.6715 132.118 57.3623 132.799 56.744C133.493 56.1256 133.84 55.1727 133.84 53.8855V45.5371C133.84 44.843 133.967 44.231 134.219 43.7009C134.484 43.1582 134.85 42.7354 135.317 42.4326C135.784 42.1297 136.346 41.9782 137.002 41.9782C138.024 41.9782 138.794 42.2937 139.311 42.9248C139.829 43.5431 140.087 44.4013 140.087 45.4993V53.8855C140.087 55.1727 140.428 56.1256 141.11 56.744C141.791 57.3623 142.668 57.6715 143.741 57.6715C144.826 57.6715 145.71 57.3623 146.391 56.744C147.073 56.1256 147.414 55.1727 147.414 53.8855V43.8902C147.414 42.2243 147.136 40.8109 146.581 39.6498C146.025 38.4761 145.211 37.5801 144.139 36.9617C143.066 36.3307 141.753 36.0152 140.201 36.0152C138.611 36.0152 137.305 36.3685 136.282 37.0753C135.273 37.782 134.497 38.8484 133.954 40.2745H133.822V39.6687C133.822 38.495 133.474 37.5864 132.78 36.9427C132.099 36.2991 131.19 35.9773 130.054 35.9773C128.919 35.9773 128.041 36.2991 127.423 36.9427C126.805 37.5864 126.495 38.495 126.495 39.6687V53.8855C126.495 55.1727 126.836 56.1256 127.518 56.744C128.212 57.3623 129.095 57.6715 130.168 57.6715Z" fill="black"/>
<path d="M91.9664 31.0712C90.6665 31.0712 89.6506 30.7557 88.9186 30.1247C88.1992 29.4936 87.6439 28.4903 87.2527 27.1147L83.7506 14.9046C83.5991 14.3872 83.4856 13.9518 83.4098 13.5984C83.3467 13.2324 83.3152 12.8664 83.3152 12.5004C83.3152 11.5918 83.6433 10.8472 84.2996 10.2667C84.9684 9.67351 85.814 9.37693 86.8362 9.37693C87.7575 9.37693 88.521 9.66089 89.1268 10.2288C89.7326 10.7841 90.1301 11.5539 90.3194 12.5383L92.6289 24.1237H92.7615L95.0899 12.7655C95.5442 10.5064 96.9135 9.37693 99.1978 9.37693C101.469 9.37693 102.826 10.5128 103.268 12.7844L105.615 24.1237H105.767L108.095 12.4626C108.272 11.5034 108.657 10.7525 109.25 10.2099C109.843 9.65458 110.594 9.37693 111.503 9.37693C112.5 9.37693 113.32 9.6672 113.964 10.2477C114.607 10.8283 114.929 11.5665 114.929 12.4626C114.929 12.8286 114.891 13.1819 114.815 13.5227C114.752 13.8634 114.651 14.2925 114.512 14.81L110.991 27.0958C110.6 28.4714 110.032 29.481 109.288 30.1247C108.556 30.7557 107.527 31.0712 106.202 31.0712C104.814 31.0712 103.741 30.7557 102.984 30.1247C102.227 29.481 101.69 28.4588 101.375 27.0579L99.1031 16.987H98.9517L96.699 27.1147C96.4087 28.5029 95.885 29.5126 95.1278 30.1436C94.3832 30.762 93.3294 31.0712 91.9664 31.0712Z" fill="black"/>
<path d="M120.229 7.95715C119.182 7.95715 118.305 7.62271 117.598 6.95384C116.891 6.27234 116.538 5.4331 116.538 4.43609C116.538 3.43909 116.891 2.60616 117.598 1.93728C118.305 1.25579 119.182 0.915039 120.229 0.915039C121.277 0.915039 122.154 1.25579 122.861 1.93728C123.568 2.60616 123.921 3.43909 123.921 4.43609C123.921 5.4331 123.568 6.27234 122.861 6.95384C122.154 7.62271 121.277 7.95715 120.229 7.95715ZM120.229 31.0712C119.068 31.0712 118.166 30.743 117.522 30.0868C116.879 29.4179 116.557 28.484 116.557 27.2851V13.163C116.557 11.9641 116.879 11.0365 117.522 10.3802C118.166 9.71137 119.068 9.37693 120.229 9.37693C121.391 9.37693 122.293 9.71137 122.937 10.3802C123.58 11.0491 123.902 11.983 123.902 13.1819V27.2851C123.902 28.484 123.58 29.4179 122.937 30.0868C122.293 30.743 121.391 31.0712 120.229 31.0712Z" fill="black"/>
<path d="M130.168 31.0712C129.095 31.0712 128.212 30.762 127.518 30.1436C126.836 29.5252 126.495 28.5724 126.495 27.2851V13.0684C126.495 11.8947 126.805 10.986 127.423 10.3424C128.041 9.69875 128.919 9.37693 130.054 9.37693C131.19 9.37693 132.099 9.69875 132.78 10.3424C133.474 10.986 133.822 11.8947 133.822 13.0684V13.6741H133.954C134.497 12.248 135.273 11.1816 136.282 10.4749C137.305 9.76816 138.611 9.41479 140.201 9.41479C141.753 9.41479 143.066 9.7303 144.139 10.3613C145.211 10.9797 146.025 11.8757 146.581 13.0494C147.136 14.2105 147.414 15.624 147.414 17.2898V27.2851C147.414 28.5724 147.073 29.5252 146.391 30.1436C145.71 30.762 144.826 31.0712 143.741 31.0712C142.668 31.0712 141.791 30.762 141.11 30.1436C140.428 29.5252 140.087 28.5724 140.087 27.2851V18.8989C140.087 17.801 139.829 16.9428 139.311 16.3244C138.794 15.6934 138.024 15.3779 137.002 15.3779C136.346 15.3779 135.784 15.5293 135.317 15.8322C134.85 16.1351 134.484 16.5579 134.219 17.1005C133.967 17.6306 133.84 18.2427 133.84 18.9368V27.2851C133.84 28.5724 133.493 29.5252 132.799 30.1436C132.118 30.762 131.241 31.0712 130.168 31.0712Z" fill="black"/>
<path d="M154.119 57.6715C153.046 57.6715 152.163 57.3623 151.469 56.7439C150.787 56.1255 150.446 55.1727 150.446 53.8854V33.2324C150.446 31.9451 150.787 30.9923 151.469 30.3739C152.163 29.7555 153.046 29.4463 154.119 29.4463C155.192 29.4463 156.069 29.7555 156.75 30.3739C157.432 30.9923 157.772 31.9514 157.772 33.2513V53.8854C157.772 55.1727 157.432 56.1255 156.75 56.7439C156.069 57.3623 155.192 57.6715 154.119 57.6715Z" fill="black"/>
<path d="M166.708 57.5201C165.445 57.5201 164.278 57.2551 163.205 56.725C162.145 56.1823 161.3 55.4377 160.669 54.4912C160.038 53.5321 159.722 52.4341 159.722 51.1973C159.722 49.2159 160.454 47.6826 161.918 46.5972C163.395 45.5119 165.502 44.8872 168.241 44.7231L172.917 44.4392V43.3601C172.917 42.6029 172.664 42.0287 172.159 41.6375C171.667 41.2462 171.024 41.0506 170.229 41.0506C169.585 41.0506 169.036 41.1642 168.582 41.3914C168.14 41.6185 167.591 42.0603 166.935 42.7165C166.076 43.5116 165.111 43.9091 164.038 43.9091C163.168 43.9091 162.454 43.6693 161.899 43.1898C161.344 42.6976 161.066 42.0666 161.066 41.2967C161.066 40.8676 161.123 40.4764 161.237 40.123C161.653 38.7979 162.694 37.7694 164.36 37.0374C166.026 36.2928 168.115 35.9205 170.626 35.9205C172.519 35.9205 174.172 36.2171 175.586 36.8102C177.012 37.4034 178.116 38.23 178.899 39.2901C179.694 40.3502 180.091 41.5807 180.091 42.9815V53.9801C180.091 55.2421 179.751 56.176 179.069 56.7818C178.388 57.375 177.517 57.6715 176.457 57.6715C175.498 57.6715 174.696 57.4254 174.053 56.9332C173.421 56.4284 173.049 55.6334 172.936 54.548C172.936 54.5228 172.936 54.4975 172.936 54.4723C172.936 54.4344 172.936 54.3966 172.936 54.3587H172.803C172.424 55.0528 171.913 55.6334 171.27 56.1003C170.626 56.5673 169.907 56.9206 169.112 57.1604C168.329 57.4002 167.528 57.5201 166.708 57.5201ZM169.396 52.5603C170.027 52.5603 170.607 52.4467 171.137 52.2196C171.667 51.9924 172.096 51.6769 172.424 51.273C172.753 50.8566 172.917 50.377 172.917 49.8343V48.4335L169.433 48.6796C168.651 48.7301 168.039 48.932 167.597 49.2854C167.168 49.6261 166.954 50.0804 166.954 50.6483C166.954 51.2415 167.181 51.7084 167.635 52.0492C168.089 52.3899 168.676 52.5603 169.396 52.5603Z" fill="black"/>
<path d="M186.282 57.6715C185.209 57.6715 184.325 57.3623 183.631 56.7439C182.95 56.1255 182.609 55.1727 182.609 53.8854V39.6687C182.609 38.495 182.918 37.5864 183.537 36.9427C184.155 36.2991 185.032 35.9773 186.168 35.9773C187.304 35.9773 188.212 36.2991 188.894 36.9427C189.588 37.5864 189.935 38.495 189.935 39.6687V40.2745H190.068C190.61 38.8484 191.386 37.782 192.396 37.0752C193.418 36.3685 194.725 36.0151 196.315 36.0151C197.867 36.0151 199.179 36.3306 200.252 36.9617C201.325 37.5801 202.139 38.4761 202.694 39.6498C203.249 40.8108 203.527 42.2243 203.527 43.8902V53.8854C203.527 55.1727 203.186 56.1255 202.505 56.7439C201.823 57.3623 200.94 57.6715 199.855 57.6715C198.782 57.6715 197.905 57.3623 197.223 56.7439C196.542 56.1255 196.201 55.1727 196.201 53.8854V45.4993C196.201 44.4013 195.942 43.5431 195.425 42.9247C194.908 42.2937 194.138 41.9782 193.115 41.9782C192.459 41.9782 191.898 42.1297 191.431 42.4325C190.964 42.7354 190.598 43.1582 190.333 43.7009C190.08 44.2309 189.954 44.843 189.954 45.5371V53.8854C189.954 55.1727 189.607 56.1255 188.913 56.7439C188.231 57.3623 187.354 57.6715 186.282 57.6715Z" fill="black"/>
<path d="M213.617 57.5201C211.901 57.5201 210.43 57.091 209.206 56.2328C207.995 55.3746 207.061 54.1505 206.405 52.5603C205.761 50.9575 205.439 49.0266 205.439 46.7676C205.439 44.5464 205.767 42.6471 206.423 41.0696C207.092 39.4794 208.045 38.2615 209.282 37.416C210.519 36.5578 212.002 36.1287 213.731 36.1287C214.74 36.1287 215.655 36.3054 216.476 36.6588C217.296 36.9995 217.996 37.4728 218.577 38.0786C219.157 38.6843 219.586 39.3721 219.864 40.142H220.016V33.2324C220.016 31.9451 220.356 30.9923 221.038 30.3739C221.732 29.7555 222.615 29.4463 223.688 29.4463C224.761 29.4463 225.638 29.7555 226.319 30.3739C227.013 30.9923 227.361 31.9514 227.361 33.2513V53.8854C227.361 55.1853 227.013 56.1445 226.319 56.7629C225.638 57.3686 224.761 57.6715 223.688 57.6715C222.615 57.6715 221.732 57.3686 221.038 56.7629C220.356 56.1445 220.016 55.1853 220.016 53.8854V53.6015H219.864C219.637 54.3461 219.227 55.015 218.634 55.6081C218.04 56.2013 217.315 56.6682 216.457 57.009C215.611 57.3497 214.665 57.5201 213.617 57.5201ZM216.494 51.841C217.239 51.841 217.876 51.6453 218.406 51.2541C218.936 50.8503 219.34 50.276 219.618 49.5315C219.908 48.7742 220.053 47.8782 220.053 46.8433C220.053 45.7959 219.908 44.8998 219.618 44.1552C219.34 43.4106 218.936 42.8364 218.406 42.4325C217.876 42.0161 217.239 41.8078 216.494 41.8078C215.762 41.8078 215.131 42.0161 214.601 42.4325C214.071 42.8364 213.661 43.4106 213.371 44.1552C213.093 44.8998 212.954 45.7895 212.954 46.8244C212.954 47.8719 213.093 48.7679 213.371 49.5125C213.661 50.2571 214.071 50.8313 214.601 51.2352C215.131 51.639 215.762 51.841 216.494 51.841Z" fill="black"/>
<path fill-rule="evenodd" clip-rule="evenodd" d="M51.93 15.593C62.465 15.593 71.0068 24.1349 71.0068 34.6698C71.0069 45.2048 62.465 53.747 51.8823 53.6993H40.8726C36.6018 53.6994 32.8053 51.9909 30.0056 49.1912C27.2058 46.3914 25.4974 42.5949 25.4974 38.3241C25.4974 35.9514 27.4432 34.0056 29.8159 34.0056C32.1886 34.0056 34.1344 35.9514 34.1344 38.3241C34.0871 42.0729 37.1242 45.11 40.8729 45.0627L51.93 45.1101C57.7196 45.11 62.3701 40.4596 62.37 34.67C62.37 28.8804 57.7195 24.23 51.93 24.23C49.5573 24.23 47.6115 22.2842 47.6115 19.9115C47.6115 17.5387 49.5573 15.593 51.93 15.593ZM9.23523 34.9388C9.23532 40.7283 13.8858 45.3788 19.6753 45.3788C22.048 45.3788 23.9943 47.3247 23.9939 49.6971C23.9939 52.0699 22.0482 54.0156 19.6755 54.0156C14.4079 53.968 9.66241 51.88 6.19829 48.4159C2.73409 44.9517 0.598633 40.159 0.598633 34.9388C0.598633 24.4038 9.14049 15.8619 19.6754 15.8619L30.7325 15.9093C39.1794 15.9093 46.1078 22.8377 46.1078 31.2847C46.1078 33.6574 44.1621 35.6031 41.7894 35.6031C39.4166 35.6031 37.4709 33.6574 37.4709 31.2847C37.4709 27.5832 34.4338 24.5461 30.7323 24.5461L19.6753 24.4987C13.8857 24.4988 9.23515 29.1492 9.23523 34.9388Z" fill="url(#paint0_linear_9_531)"/>
<defs>
<linearGradient id="paint0_linear_9_531" x1="0.598632" y1="34.8043" x2="71.0068" y2="38.6654" gradientUnits="userSpaceOnUse">
<stop stop-color="#00C2FF"/>
<stop offset="1" stop-color="#EC00B8"/>
</linearGradient>
</defs>
</svg>
