<svg width="90" height="94" viewBox="0 0 90 94" fill="none" xmlns="http://www.w3.org/2000/svg">
<path d="M42.7767 53.1623L19.6271 60.3066H9.74528C5.77957 60.3066 2.55371 63.5324 2.55371 67.4981V76.1282C2.55371 76.924 3.19834 77.5666 3.99216 77.5666H5.43061V86.1967C5.43061 90.1624 8.65647 93.3883 12.6222 93.3883H16.9375C17.7313 93.3883 18.3759 92.7456 18.3759 91.9498V77.5673H19.6297L42.7777 84.7116C42.8986 84.7432 43.0201 84.759 43.143 84.759C43.4585 84.759 43.7673 84.6571 44.0203 84.46C44.3738 84.1886 44.5815 83.7687 44.5815 83.3212V54.5532C44.5815 54.1077 44.3738 53.6858 44.0203 53.4138C43.6681 53.1424 43.2085 53.0499 42.7767 53.1623ZM5.42899 67.4988C5.42899 65.1199 7.36491 63.1835 9.74427 63.1835H18.3743V74.6904H5.42899V67.4988ZM15.4975 90.5118H12.6206C10.2417 90.5118 8.30529 88.5759 8.30529 86.1966V77.5665H15.4969L15.4975 90.5118ZM41.7021 81.454L21.2491 75.0187L21.2498 62.8535L41.7028 56.4182L41.7021 81.454Z" fill="#918ACA"/>
<path d="M89.6095 64.167L86.6222 60.5818L87.4179 55.9819C87.5362 55.2971 87.1479 54.6256 86.496 54.387L82.1149 52.7803L80.5083 48.3979C80.2684 47.7448 79.5909 47.3564 78.9134 47.476L74.3135 48.2718L70.7283 45.2845C70.1947 44.8402 69.4206 44.8402 68.8878 45.2845L65.3026 48.2718L60.7027 47.476C60.0193 47.3564 59.3464 47.7448 59.1078 48.3979L57.5012 52.779L53.1188 54.3857C52.4656 54.6255 52.0772 55.2965 52.1968 55.9805L52.9926 60.5804L50.0053 64.1656C49.5624 64.6992 49.5624 65.4733 50.0053 66.0062L52.9926 69.5934L52.1968 74.1919C52.0772 74.8767 52.4669 75.5482 53.1188 75.7868L57.4998 77.3935L59.1065 81.7745C59.3463 82.4277 60.0186 82.8115 60.7013 82.6978L65.3012 81.902L68.8864 84.888C69.1526 85.1133 69.4798 85.2237 69.8064 85.2237C70.1323 85.2237 70.4609 85.1134 70.7271 84.8919L74.3122 81.9059L78.9122 82.7017C79.591 82.8154 80.2685 82.4316 80.507 81.7784L82.1137 77.3974L86.4961 75.7907C87.1493 75.5515 87.5376 74.8799 87.418 74.1959L86.6222 69.5973L89.6096 66.0101C90.0525 65.4745 90.0524 64.7005 89.6095 64.167ZM83.9858 68.2641C83.7157 68.5887 83.602 69.0132 83.6736 69.4311L84.3787 73.5026L80.4964 74.9247C80.0995 75.0699 79.7854 75.382 79.6402 75.7809L78.2182 79.66L74.1467 78.9568C73.7327 78.8852 73.3056 78.9995 72.9796 79.269L69.8037 81.914L66.6278 79.269C66.3676 79.0534 66.041 78.9351 65.7072 78.9351C65.625 78.9351 65.5436 78.9424 65.4627 78.9568L61.3912 79.66L59.9692 75.7809C59.824 75.384 59.5099 75.0699 59.113 74.9247L55.2321 73.5026L55.9371 69.4311C56.0088 69.0138 55.8951 68.59 55.625 68.2641L52.9782 65.0882L55.6232 61.9123C55.8932 61.5876 56.0069 61.1631 55.9353 60.7452L55.2302 56.6737L59.1125 55.2517C59.5094 55.1064 59.8235 54.7923 59.9687 54.3954L61.3907 50.5145L65.4622 51.2196C65.8775 51.2912 66.3034 51.1776 66.6293 50.9075L69.8052 48.2625L72.9811 50.9075C73.3057 51.1776 73.7315 51.2912 74.1481 51.2196L78.2197 50.5145L79.6417 54.3968C79.7869 54.7937 80.101 55.1078 80.4979 55.253L84.3788 56.675L83.6737 60.7466C83.6021 61.1619 83.7158 61.5877 83.9859 61.9136L86.6334 65.0882L83.9858 68.2641Z" fill="#918ACA"/>
<path d="M61.5481 71.3166L75.9326 55.4956L78.0609 57.4309L63.6771 73.2518L61.5481 71.3166Z" fill="#918ACA"/>
<path d="M64.7713 63.6506C66.7538 63.6506 68.3671 62.0366 68.3671 60.0548C68.3671 58.0723 66.7532 56.459 64.7713 56.459C62.7888 56.459 61.1755 58.0729 61.1755 60.0548C61.1755 62.0366 62.7888 63.6506 64.7713 63.6506ZM64.7713 59.3353C65.1682 59.3353 65.4902 59.6579 65.4902 60.0542C65.4902 60.4511 65.1676 60.7731 64.7713 60.7731C64.3744 60.7731 64.0524 60.4504 64.0524 60.0542C64.0518 59.6573 64.3744 59.3353 64.7713 59.3353Z" fill="#918ACA"/>
<path d="M74.8394 65.0872C72.8569 65.0872 71.2437 66.7011 71.2437 68.6829C71.2437 70.6661 72.8576 72.2787 74.8394 72.2787C76.822 72.2787 78.4352 70.6662 78.4352 68.6829C78.4352 66.7011 76.8213 65.0872 74.8394 65.0872ZM74.8394 69.4024C74.4425 69.4024 74.1205 69.0798 74.1205 68.6835C74.1205 68.2866 74.4432 67.9647 74.8394 67.9647C75.2364 67.9647 75.5583 68.2873 75.5583 68.6835C75.5583 69.0798 75.2363 69.4024 74.8394 69.4024Z" fill="#918ACA"/>
<path d="M6.36056 18.5699L5.11794 25.8134C5.02594 26.3529 5.2474 26.8977 5.69095 27.2204C6.13516 27.543 6.72197 27.5844 7.20562 27.3294L13.7098 23.9111L20.214 27.3294C20.4243 27.4398 20.6537 27.495 20.883 27.495C21.1807 27.495 21.4784 27.403 21.7287 27.2204C22.1716 26.8977 22.3931 26.353 22.3017 25.8135L21.0591 18.5699L26.322 13.4404C26.713 13.058 26.8556 12.4869 26.686 11.9658C26.5165 11.4454 26.0664 11.0656 25.5236 10.9867L18.2518 9.93138L14.999 3.34104C14.514 2.35865 12.9034 2.35865 12.4184 3.34104L9.16699 9.93206L1.89652 10.9874C1.35373 11.0662 0.903614 11.4467 0.734061 11.9672C0.564525 12.4876 0.705146 13.0586 1.09811 13.4417L6.36056 18.5699ZM10.329 12.6703C10.7975 12.6006 11.2016 12.3076 11.4119 11.8817L13.7085 7.22732L16.0051 11.8817C16.2154 12.3062 16.6188 12.6006 17.088 12.6683L22.2241 13.4148L18.5073 17.0382C18.1696 17.3687 18.0145 17.8451 18.0934 18.311L18.9706 23.4274L14.3761 21.0125C14.1658 20.9021 13.9365 20.8469 13.7071 20.8469C13.4771 20.8469 13.2465 20.9015 13.0382 21.0125L8.44363 23.4274L9.32088 18.311C9.39974 17.8451 9.24663 17.3687 8.9069 17.0382L5.19016 13.4148L10.329 12.6703Z" fill="#918ACA"/>
<path d="M67.7168 10.6057L67.038 14.5669C66.946 15.1063 67.1655 15.6511 67.6091 15.9738C68.0533 16.2964 68.6401 16.3378 69.1237 16.0828L72.682 14.2127L76.2403 16.0828C76.4519 16.1932 76.6799 16.2484 76.9092 16.2484C77.2069 16.2484 77.5046 16.1564 77.7549 15.9738C78.1978 15.6511 78.4193 15.1064 78.326 14.5669L77.6472 10.6057L80.5253 7.80106C80.9183 7.41862 81.0589 6.84757 80.8894 6.32648C80.7198 5.80603 80.2697 5.42621 79.7282 5.34736L75.7494 4.76975L73.9713 1.16538C73.4863 0.18299 71.8757 0.18299 71.3907 1.16538L69.6126 4.76975L65.6349 5.34736C65.0941 5.42622 64.642 5.8067 64.4738 6.32648C64.3043 6.84693 64.4449 7.41928 64.8379 7.80106L67.7168 10.6057ZM70.7765 7.50666C71.245 7.43898 71.6498 7.1446 71.8594 6.72008L72.6822 5.05164L73.5049 6.72008C73.7152 7.14458 74.1186 7.43897 74.5878 7.50666L76.4297 7.77411L75.0977 9.07259C74.758 9.40312 74.6029 9.87955 74.6837 10.3454L74.9991 12.1794L73.3511 11.314C73.1421 11.2049 72.9121 11.1504 72.6821 11.1504C72.4521 11.1504 72.2215 11.2049 72.0131 11.316L70.3657 12.1814L70.6811 10.3474C70.7613 9.88152 70.6069 9.40509 70.2672 9.07456L68.9352 7.77542L70.7765 7.50666Z" fill="#918ACA"/>
<path d="M41.5694 23.3598L41.1147 26.0093C41.0227 26.5488 41.2441 27.0936 41.6877 27.4162C42.1319 27.7389 42.7174 27.7803 43.2023 27.5253L45.5812 26.2735L47.96 27.5253C48.1703 27.6357 48.3997 27.6909 48.629 27.6909C48.9267 27.6909 49.2244 27.5989 49.4747 27.4162C49.9176 27.0936 50.1391 26.5488 50.0477 26.0093L49.593 23.3598L51.5176 21.4844C51.9106 21.102 52.0512 20.5309 51.8817 20.0098C51.7122 19.4894 51.262 19.1096 50.7192 19.0307L48.0593 18.6437L46.8699 16.2347C46.3849 15.2523 44.7743 15.2523 44.2893 16.2347L43.0999 18.6437L40.44 19.0307C39.8978 19.1096 39.4471 19.4901 39.2775 20.0098C39.108 20.5303 39.2486 21.1013 39.6416 21.4844L41.5694 23.3598ZM44.2637 21.3818C44.7322 21.3141 45.137 21.0197 45.3466 20.5952L45.5812 20.1208L45.8158 20.5952C46.0261 21.0197 46.4295 21.3141 46.8987 21.3818L47.4218 21.458L47.042 21.828C46.7022 22.1585 46.5491 22.6349 46.628 23.1008L46.7174 23.6226L46.2488 23.3769C46.0385 23.2665 45.8092 23.2113 45.5799 23.2113C45.3512 23.2113 45.1192 23.2658 44.9109 23.3769L44.4424 23.6233L44.5317 23.1015C44.6106 22.6356 44.4575 22.1592 44.1178 21.8287L43.7379 21.4587L44.2637 21.3818Z" fill="#918ACA"/>
<path d="M25.2156 21.9365C25.2153 22.7315 25.8636 23.3653 26.6499 23.4826C33.5955 24.5192 39.1033 32.9983 39.5672 43.5114C39.6023 44.305 40.2429 44.9508 41.0374 44.9508C41.8318 44.9508 42.479 44.3055 42.4463 43.5118C41.9466 31.3715 35.166 21.58 26.6524 20.5817C25.8632 20.4891 25.2159 21.1418 25.2156 21.9365Z" fill="#918ACA"/>
<path d="M12.2703 27.6911C12.2703 27.6911 12.2704 27.6912 12.2704 27.6912V29.4691C12.2704 30.076 12.7645 30.5624 13.3684 30.6219C20.423 31.3174 26.0727 38.6568 26.6121 47.827C26.6587 48.6201 27.2983 49.2661 28.0927 49.2661C28.8872 49.2661 29.5352 48.6202 29.4932 47.8269C28.8988 36.5989 21.4018 27.6917 12.2703 27.6914C12.2702 27.6914 12.2701 27.6912 12.2703 27.6911Z" fill="#918ACA"/>
<path d="M62.6271 12.0473C63.3969 11.8507 64.051 11.2251 64.051 10.4307C64.051 9.63622 63.4021 8.97962 62.6186 9.11098C59.0046 9.7169 56.1456 12.5758 55.5397 16.1898C55.4083 16.9734 56.0649 17.6222 56.8594 17.6222C57.6538 17.6222 58.2795 16.9682 58.4761 16.1984C58.9947 14.1678 60.5963 12.5661 62.6271 12.0473Z" fill="#918ACA"/>
<path d="M56.8593 42.074C56.8595 42.0741 56.8597 42.0742 56.8599 42.0742H57.7365C58.8411 42.0742 59.7243 41.1747 59.8505 40.0774C60.6865 32.8082 66.0243 27.0603 72.6843 26.3308C73.4741 26.2443 74.1203 25.6085 74.1203 24.814C74.1203 24.0196 73.474 23.3688 72.6827 23.4397C63.8351 24.233 56.8591 32.2861 56.8589 42.0732C56.8589 42.0735 56.859 42.0738 56.8593 42.074Z" fill="#918ACA"/>
<path d="M51.5838 45.389C52.365 45.5331 53.125 45.0155 53.1728 44.2224C53.4349 39.8705 51.2097 35.9534 47.7191 34.5783C46.98 34.2871 46.2211 34.8163 46.077 35.5976C45.9328 36.3789 46.4675 37.112 47.1686 37.4858C49.1369 38.5352 50.3752 40.9586 50.3163 43.6985C50.2992 44.4928 50.8025 45.2449 51.5838 45.389Z" fill="#918ACA"/>
</svg>
