<svg width="200" height="200" viewBox="0 0 200 200" fill="none" xmlns="http://www.w3.org/2000/svg">
<circle cx="104.379" cy="100" r="64.543" fill="url(#paint0_linear_1831_1578)"/>
<path d="M67.0777 54.2864C67.0777 54.2864 82.1295 42.8556 88.4777 32.8863C88.6592 32.6012 88.7461 32.4676 88.938 32.1534C89.1298 31.8393 101.17 41.5535 104.037 43.7374C106.903 45.9214 120.815 53.6335 127.412 57.2166C130.446 58.82 138.154 62.4822 144.711 64.3035C151.267 66.1248 157.68 64.9224 158.48 66.419C159.281 67.9157 159.281 71.8163 159.281 71.8163C159.281 71.8163 159.663 81.3561 155.934 88.0013C153.205 92.863 152.681 94.1083 149.51 98.2784C149.51 98.2784 143.546 109.609 139.495 116.742C135.046 124.577 125.87 132.597 123.763 134.772C121.656 136.947 115.658 142.339 101.455 153.774C87.2518 165.209 81.2107 161.513 79.9655 158.236C66.7603 140.888 35.8885 101.64 35.8885 101.64C35.8885 101.64 32.1438 97.3015 31.7905 93.8994C31.5293 91.3841 31.715 91.1113 32.9292 87.5249C34.1434 83.9385 40.1931 77.5029 45.678 71.8163C53.1777 64.0407 67.0777 54.2864 67.0777 54.2864Z" fill="white"/>
<path d="M79.9655 158.236C66.7603 140.888 35.8885 101.64 35.8885 101.64C35.8885 101.64 32.1438 97.3015 31.7905 93.8994C31.5293 91.3841 31.715 91.1113 32.9292 87.5249C34.1434 83.9385 40.1931 77.5029 45.678 71.8163C53.1777 64.0407 67.0777 54.2864 67.0777 54.2864C67.0777 54.2864 82.1295 42.8556 88.4777 32.8863C88.6592 32.6012 88.7461 32.4676 88.938 32.1534C89.1298 31.8393 101.17 41.5535 104.037 43.7374C106.903 45.9214 120.815 53.6335 127.412 57.2166C130.446 58.82 138.154 62.4822 144.711 64.3035C151.267 66.1248 157.68 64.9224 158.48 66.419C159.281 67.9157 159.281 71.8163 159.281 71.8163C159.281 71.8163 159.663 81.3561 155.934 88.0013C153.205 92.863 152.681 94.1083 149.51 98.2784M79.9655 158.236C80.9887 159.58 83.2148 159.667 84.1526 158.327C85.4843 156.425 86.7309 155.496 88.4777 153.774C93.1562 149.164 101.455 143.074 101.455 143.074C101.455 143.074 113.757 133.495 121.261 126.91C130.809 118.533 136.828 114.208 144.711 104.372C146.826 101.732 148.346 99.8083 149.51 98.2784M79.9655 158.236C81.2107 161.513 87.2518 165.209 101.455 153.774C115.658 142.339 121.656 136.947 123.763 134.772C125.87 132.597 135.046 124.577 139.495 116.742C143.546 109.609 149.51 98.2784 149.51 98.2784" stroke="#4D468B" stroke-width="3.68519"/>
<path d="M104.652 142.836C100.079 146.474 96.9327 148.39 92.6611 152.379C92.6611 152.379 88.0018 156.606 87.3598 157.355C86.7178 158.104 84.8674 159.784 85.5202 159.735C86.6756 159.65 86.9901 159.701 88.844 159.167C93.8954 157.71 94.7456 156.553 98.8993 153.468C107.009 147.444 111.493 143.467 119.039 136.75C124.875 131.555 127.629 129.061 132.705 123.12C135.765 119.538 139.583 114.73 139.583 114.73C139.583 114.73 143.764 108.989 138.452 114.049C133.141 119.108 133.379 118.886 128.545 122.994C123.99 126.865 121.937 128.756 117.382 132.591C112.546 136.662 109.586 138.911 104.652 142.836Z" fill="#3F1D6E"/>
<path d="M104.383 74.0454L112.827 61.0488L115.323 62.8845L108.935 71.6957L119.582 65.3076L122.666 67.2901L115.764 76.6888L127.071 70.3006L130.229 72.1363L113.634 80.5804L111.138 78.7447L118.407 68.6852L106.732 75.7342L104.383 74.0454Z" fill="#4D468B" stroke="#4D468B" stroke-width="0.921296" stroke-linejoin="round"/>
<path d="M101.884 68.9789L99.902 70.7411L91.5312 64.4998L102.472 54.6606L111.283 60.0942L109.227 61.783L102.912 57.9648L100.563 60.0942L106.07 63.9858L104.234 65.5278L98.5068 61.783L95.5701 64.4998L101.884 68.9789Z" fill="#4D468B" stroke="#4D468B" stroke-width="0.921296" stroke-linejoin="round"/>
<path d="M91.753 47.7585L81.1797 57.0837L83.0157 58.5523L90.5787 51.9439L87.0542 61.2691L89.257 62.8845L100.124 53.2656L98.2151 51.9439L90.5787 58.5523L93.8095 49.2271L91.753 47.7585Z" fill="#4D468B" stroke="#4D468B" stroke-width="0.921296" stroke-linejoin="round"/>
<path d="M122.981 81.1788L125.077 82.4758C125.437 82.6986 125.598 83.1379 125.469 83.5408L125.084 84.7401C124.882 85.5288 125.423 86.9073 127.404 87.7233C129.882 88.7434 131.617 88.8332 132.121 87.7233C132.648 86.566 131.384 84.2128 129.61 82.6515C127.493 80.7889 126.622 79.8832 127.026 78.1884C127.43 76.4936 128.338 75.4891 130.305 75.0605C130.78 74.9571 133.408 74.5056 137.133 75.9384C140.825 77.3585 141.65 79.3486 141.845 80.6601C142.039 81.9715 141.505 85.3716 140.533 84.7401C139.907 84.3328 138.606 83.5403 137.702 82.9939C137.362 82.7889 137.191 82.3904 137.277 82.0033L137.368 81.5937C137.514 81.1242 137.859 80.5896 136.939 79.3992C135.637 77.712 131.965 76.5214 131.163 78.7936C130.406 80.9377 135.373 83.9396 135.989 86.5763C136.787 89.9905 135.35 90.8438 133.912 91.5249C133.073 91.9223 130.455 91.6852 128.154 90.8899C126.103 90.181 124.366 88.9793 123.401 88.1609C122.043 87.0095 121.148 85.4454 121.148 83.9396C121.149 82.8195 121.724 81.8233 122.135 81.2901C122.342 81.0202 122.692 80.9995 122.981 81.1788Z" fill="#4D468B"/>
<path d="M123.401 88.1609C122.043 87.0095 121.148 85.4454 121.148 83.9396C121.149 82.8195 121.724 81.8233 122.135 81.2901C122.342 81.0202 122.692 80.9995 122.981 81.1788L125.077 82.4758C125.437 82.6986 125.598 83.1379 125.469 83.5408L125.084 84.7401C124.882 85.5288 125.423 86.9073 127.404 87.7233C129.882 88.7434 131.617 88.8332 132.121 87.7233C132.648 86.566 131.384 84.2128 129.61 82.6515C127.493 80.7889 126.622 79.8832 127.026 78.1884C127.43 76.4936 128.338 75.4891 130.305 75.0605C130.78 74.9571 133.408 74.5056 137.133 75.9384C140.825 77.3585 141.65 79.3486 141.845 80.6601C142.039 81.9715 141.505 85.3716 140.533 84.7401C139.907 84.3328 138.606 83.5403 137.702 82.9939C137.362 82.7889 137.191 82.3904 137.277 82.0033L137.368 81.5937C137.514 81.1242 137.859 80.5896 136.939 79.3992C135.637 77.712 131.965 76.5214 131.163 78.7936C130.406 80.9377 135.373 83.9396 135.989 86.5763C136.787 89.9905 135.35 90.8438 133.912 91.5249C133.073 91.9223 130.455 91.6852 128.154 90.8899M123.401 88.1609C124.366 88.9793 126.103 90.181 128.154 90.8899M123.401 88.1609L128.154 90.8899" stroke="#4D468B" stroke-width="0.921296" stroke-linecap="square" stroke-linejoin="round"/>
<path d="M73.5078 58.7869L130.647 103.094" stroke="#4D468B" stroke-width="1.84259" stroke-linecap="round"/>
<path d="M44.6755 83.9548C42.9762 83.4225 38.9979 88.4368 40.0606 91.0329C40.1087 91.1506 40.1817 91.2558 40.2625 91.354L83.2152 143.604C83.8855 144.419 85.1024 144.506 85.8815 143.794L91.0324 139.087C91.7394 138.441 91.8421 137.371 91.2513 136.617C76.8532 118.25 47.236 86.5731 45.0036 84.1897C44.9056 84.0851 44.8123 83.9976 44.6755 83.9548Z" fill="#4D468B"/>
<path d="M121.252 108.811L97.9169 88.9691C97.2145 88.3718 96.1787 88.3856 95.4925 89.0015L91.265 92.7957C90.4482 93.5287 90.4493 94.8088 91.2673 95.5404L113.872 115.757C114.556 116.369 115.585 116.384 116.287 115.794L121.244 111.625C122.116 110.892 122.12 109.55 121.252 108.811Z" fill="#4D468B"/>
<path d="M80.9522 101.844L77.1109 105.579C76.3933 106.277 76.364 107.42 77.0448 108.153L97.6185 130.322C98.2942 131.05 99.4253 131.112 100.176 130.461L105.345 125.982C106.159 125.276 106.197 124.026 105.427 123.272L83.5252 101.848C82.8106 101.148 81.6689 101.147 80.9522 101.844Z" fill="#4D468B"/>
<path d="M66.6936 64.6183C59.6359 69.0151 55.8573 72.4784 51.0341 79.0233C50.5073 79.7381 50.5793 80.729 51.1949 81.369L69.3025 100.196C69.9884 100.909 71.1151 100.953 71.8546 100.296L89.5306 84.5836C90.3955 83.8148 90.349 82.4499 89.4385 81.7355C82.4627 76.2619 72.094 67.5284 68.842 64.7782C68.2358 64.2654 67.3675 64.1984 66.6936 64.6183Z" fill="url(#paint1_linear_1831_1578)" fill-opacity="0.2"/>
<path d="M58.909 78.6352C59.1281 78.4227 59.4781 78.4281 59.6906 78.6473L61.5292 80.5434C61.7417 80.7626 61.7363 81.1125 61.5171 81.325L56.4597 86.2289L53.8516 83.5391L58.909 78.6352Z" fill="url(#paint2_linear_1831_1578)"/>
<path d="M66.4737 80.199C66.6928 79.9865 67.0428 79.9919 67.2553 80.2111L69.2158 82.2329C69.4283 82.452 69.4229 82.802 69.2037 83.0145L61.0319 90.9383L58.3019 88.1228L66.4737 80.199Z" fill="url(#paint3_linear_1831_1578)"/>
<path d="M74.2079 82.6508C74.9385 81.9424 76.105 81.9604 76.8134 82.691L76.8487 82.7273C77.5571 83.4579 77.5391 84.6245 76.8085 85.3329L65.77 96.0363L63.1694 93.3542L74.2079 82.6508Z" fill="url(#paint4_linear_1831_1578)"/>
<path d="M78.8964 86.6497L72.6785 81.1608C72.3436 80.8651 72.4796 80.3149 72.9136 80.2093L80.168 78.4435C80.5481 78.3511 80.9013 78.6717 80.846 79.0588L79.8094 86.3135C79.7472 86.7489 79.2261 86.9408 78.8964 86.6497Z" fill="url(#paint5_linear_1831_1578)"/>
<path fill-rule="evenodd" clip-rule="evenodd" d="M63.0525 73.8997C62.9831 73.8287 62.9824 73.7155 63.051 73.6437L63.5975 73.071C63.6666 72.9986 63.6653 72.8842 63.5945 72.8134L63.1206 72.34C63.0507 72.2702 63.0483 72.1576 63.1152 72.0849L63.5986 71.5592C63.6669 71.4849 63.7823 71.4794 63.8573 71.5468L64.3256 71.9671C64.4009 72.0347 64.5166 72.0289 64.5848 71.9542L67.0032 69.3045C67.0694 69.232 67.1795 69.2231 67.255 69.2858C67.7665 69.7109 69.5844 71.2331 69.8449 71.6078C70.1485 72.0447 69.8788 72.7528 69.6449 73.1036C69.4228 73.4368 69.0299 73.8886 68.5639 73.9996C68.2239 74.0805 67.5334 73.9482 67.1213 73.643C66.8361 73.4317 66.4559 73.0612 66.136 72.7494C66.0231 72.6394 65.9178 72.5368 65.8267 72.4509C65.7549 72.3833 65.6428 72.3877 65.5744 72.4586L65.3316 72.7102C65.2603 72.7841 65.2632 72.9019 65.3379 72.9723L66.7904 74.3399C66.8655 74.4105 66.8679 74.5291 66.7959 74.6028L66.3576 75.0513C66.2873 75.1232 66.1724 75.1255 66.0993 75.0565L64.737 73.7701C64.6628 73.7 64.5457 73.7036 64.4759 73.7782L63.8535 74.4438C63.7818 74.5205 63.6605 74.5218 63.5871 74.4467L63.0525 73.8997ZM66.5653 71.8049C66.4964 71.7353 66.4957 71.6244 66.5624 71.5527L67.2477 70.8161C67.313 70.746 67.4208 70.7374 67.4956 70.7974C67.7542 71.005 68.3253 71.4715 68.5988 71.7575C68.8702 72.0414 68.8704 72.3992 68.5988 72.6828C68.3595 72.9328 68.0112 73.0819 67.7338 72.8751C67.3607 72.597 66.808 72.0502 66.5653 71.8049Z" fill="url(#paint6_linear_1831_1578)"/>
<path d="M66.6411 97.3946L52.7298 82.9512C52.659 82.8778 52.6614 82.7608 52.7351 82.6903L53.2009 82.2444C53.274 82.1744 53.3899 82.1765 53.4605 82.2491L67.4566 96.6514C67.5299 96.7268 67.5253 96.8481 67.4465 96.9178L66.8959 97.4048C66.8219 97.4702 66.7096 97.4657 66.6411 97.3946Z" fill="#257FF6"/>
<defs>
<linearGradient id="paint0_linear_1831_1578" x1="104.379" y1="35.457" x2="104.379" y2="164.543" gradientUnits="userSpaceOnUse">
<stop stop-color="#FF00A2"/>
<stop offset="1" stop-color="#8C43E0"/>
</linearGradient>
<linearGradient id="paint1_linear_1831_1578" x1="61.9902" y1="80.9089" x2="89.7457" y2="84.4881" gradientUnits="userSpaceOnUse">
<stop stop-color="#E477E4"/>
<stop offset="1" stop-color="white"/>
</linearGradient>
<linearGradient id="paint2_linear_1831_1578" x1="76.0017" y1="76.3712" x2="60.3636" y2="90.7145" gradientUnits="userSpaceOnUse">
<stop stop-color="#F805BF"/>
<stop offset="1" stop-color="#1687FA"/>
</linearGradient>
<linearGradient id="paint3_linear_1831_1578" x1="76.0017" y1="76.3712" x2="60.3636" y2="90.7145" gradientUnits="userSpaceOnUse">
<stop stop-color="#F805BF"/>
<stop offset="1" stop-color="#1687FA"/>
</linearGradient>
<linearGradient id="paint4_linear_1831_1578" x1="76.0017" y1="76.3712" x2="60.3636" y2="90.7145" gradientUnits="userSpaceOnUse">
<stop stop-color="#F805BF"/>
<stop offset="1" stop-color="#1687FA"/>
</linearGradient>
<linearGradient id="paint5_linear_1831_1578" x1="76.0017" y1="76.3712" x2="60.3636" y2="90.7145" gradientUnits="userSpaceOnUse">
<stop stop-color="#F805BF"/>
<stop offset="1" stop-color="#1687FA"/>
</linearGradient>
<linearGradient id="paint6_linear_1831_1578" x1="68.7263" y1="68.5593" x2="63.7874" y2="72.0766" gradientUnits="userSpaceOnUse">
<stop stop-color="#F805BF"/>
<stop offset="1" stop-color="#1687FA"/>
</linearGradient>
</defs>
</svg>
