<svg width="28" height="28" viewBox="0 0 28 28" fill="none" xmlns="http://www.w3.org/2000/svg">
<g clip-path="url(#clip0_49_1052)">
<path d="M20.1227 0.233398H7.8774C6.96367 0.241798 6.95993 1.62593 7.8774 1.6334H20.1227C23.9158 1.6334 26.3667 4.2234 26.3667 8.23207V19.7681C26.3667 23.7814 23.9158 26.3667 20.1227 26.3667H7.8774C4.08433 26.3667 1.6334 23.7767 1.6334 19.7681V8.23207C1.6362 7.32113 0.233398 7.3146 0.233398 8.23207V19.7681C0.233398 24.5523 3.305 27.7667 7.8774 27.7667H20.1227C24.6961 27.7667 27.7667 24.5523 27.7667 19.7681V8.23207C27.7667 3.4478 24.6951 0.233398 20.1227 0.233398Z" fill="url(#paint0_linear_49_1052)"/>
<path d="M14.058 8.20791C13.9928 8.1403 13.9146 8.0865 13.8282 8.04969C13.7418 8.01288 13.6488 7.99383 13.5549 7.99365C13.4609 7.99348 13.3679 8.01219 13.2814 8.04868C13.1948 8.08516 13.1164 8.13868 13.051 8.20605L7.73096 13.5008C7.45656 13.764 7.46963 14.2419 7.74123 14.5014L13.051 19.7943C13.7006 20.456 14.7067 19.4555 14.0394 18.8031L9.92429 14.6992H19.7728C19.9585 14.6992 20.1365 14.6255 20.2678 14.4942C20.3991 14.3629 20.4728 14.1849 20.4728 13.9992C20.4728 13.8136 20.3991 13.6355 20.2678 13.5043C20.1365 13.373 19.9585 13.2992 19.7728 13.2992H9.91963L14.0394 9.19725C14.173 9.06849 14.25 8.89195 14.2535 8.70644C14.257 8.52093 14.1867 8.34162 14.058 8.20791Z" fill="url(#paint1_linear_49_1052)"/>
</g>
<defs>
<linearGradient id="paint0_linear_49_1052" x1="0.233398" y1="14.0001" x2="27.7667" y2="14.0001" gradientUnits="userSpaceOnUse">
<stop stop-color="#E427CC"/>
<stop offset="1" stop-color="#2B73FF"/>
</linearGradient>
<linearGradient id="paint1_linear_49_1052" x1="7.53125" y1="14.0026" x2="20.4728" y2="14.0026" gradientUnits="userSpaceOnUse">
<stop stop-color="#E427CC"/>
<stop offset="1" stop-color="#2B73FF"/>
</linearGradient>
<clipPath id="clip0_49_1052">
<rect width="28" height="28" fill="white"/>
</clipPath>
</defs>
</svg>
