<svg width="93" height="93" viewBox="0 0 93 93" fill="none" xmlns="http://www.w3.org/2000/svg">
<rect x="0.75" y="0.75" width="91.5" height="91.5" rx="4.75" stroke="url(#paint0_linear_47_311)" stroke-width="1.5"/>
<path d="M59.922 47.6916C66.27 50.2056 70.5 54.5148 70.5 59.7C70.5 64.068 67.5516 67.0296 62.5164 68.6676C58.5888 69.9456 53.2728 70.5 46.5 70.5C39.7272 70.5 34.4112 69.9456 30.4836 68.6676C25.4484 67.0296 22.5 64.068 22.5 59.7C22.5 54.5148 26.73 50.2056 33.078 47.6916C36.5424 51.6 41.5296 53.7 46.5 53.7C51.4704 53.7 56.3748 51.6 59.922 47.6916ZM46.5 22.5C53.79 22.5 59.7 28.41 59.7 35.7C59.7 42.99 53.79 48.9 46.5 48.9C39.21 48.9 33.3 42.99 33.3 35.7C33.3 28.41 39.21 22.5 46.5 22.5Z" fill="url(#paint1_linear_47_311)"/>
<path d="M69.9998 20V30M75 25.0002L64.9951 25.0047" stroke="url(#paint2_linear_47_311)" stroke-linecap="round"/>
<defs>
<linearGradient id="paint0_linear_47_311" x1="1.5" y1="46.5" x2="91.5" y2="46.5" gradientUnits="userSpaceOnUse">
<stop stop-color="#E427CC"/>
<stop offset="1" stop-color="#2B73FF"/>
</linearGradient>
<linearGradient id="paint1_linear_47_311" x1="22.5" y1="46.5" x2="92.5" y2="86.5" gradientUnits="userSpaceOnUse">
<stop stop-color="#E427CC"/>
<stop offset="1" stop-color="#2B73FF"/>
</linearGradient>
<linearGradient id="paint2_linear_47_311" x1="64.5" y1="24" x2="80" y2="32" gradientUnits="userSpaceOnUse">
<stop stop-color="#E427CC"/>
<stop offset="1" stop-color="#2B73FF"/>
</linearGradient>
</defs>
</svg>
