<svg width="117" height="73" viewBox="0 0 117 73" fill="none" xmlns="http://www.w3.org/2000/svg">
<path d="M27.418 30.3134C29.0243 29.8057 30.4975 28.8974 31.6747 27.6587C33.5856 25.6463 34.5597 23.0088 34.4152 20.2311C34.1434 15.0162 29.8411 10.8481 24.6203 10.7438C19.5412 10.6351 15.1974 14.3482 14.4977 19.3673C14.4333 19.8265 14.4019 20.2941 14.4019 20.7605C14.4019 22.4196 15.7464 23.7641 17.4055 23.7641C19.0647 23.7641 20.4092 22.4196 20.4092 20.7605C20.4092 20.5717 20.4221 20.3814 20.4478 20.1969C20.7282 18.1901 22.4689 16.7269 24.4998 16.7498C26.5881 16.7913 28.3087 18.4576 28.4174 20.5429C28.4761 21.6585 28.0856 22.717 27.3203 23.5237C26.5551 24.329 25.5239 24.7724 24.4168 24.7724C22.7576 24.7724 21.4131 26.1169 21.4131 27.7761V33.6903C21.4131 35.3495 22.7576 36.694 24.4168 36.694C26.0759 36.694 27.4205 35.3495 27.4205 33.6903V30.3147L27.418 30.3134Z" fill="#00B6EF" fill-opacity="0.25"/>
<path d="M24.4116 38.0505C22.7525 38.0505 21.408 39.3951 21.408 41.0542V42.3058C21.408 43.9649 22.7525 45.3095 24.4116 45.3095C26.0708 45.3095 27.4153 43.9649 27.4153 42.3058V41.0542C27.4153 39.3951 26.0708 38.0505 24.4116 38.0505Z" fill="#00B6EF" fill-opacity="0.25"/>
<path d="M64.5872 13.6273H45.5393C43.8802 13.6273 42.5356 14.9718 42.5356 16.631C42.5356 18.2902 43.8802 19.6347 45.5393 19.6347H64.5872C66.2464 19.6347 67.5909 18.2902 67.5909 16.631C67.5909 14.9718 66.2464 13.6273 64.5872 13.6273Z" fill="#00B6EF" fill-opacity="0.25"/>
<path d="M64.5872 25.0005H45.5393C43.8802 25.0005 42.5356 26.345 42.5356 28.0042C42.5356 29.6633 43.8802 31.0079 45.5393 31.0079H64.5872C66.2464 31.0079 67.5909 29.6633 67.5909 28.0042C67.5909 26.345 66.2464 25.0005 64.5872 25.0005Z" fill="#00B6EF" fill-opacity="0.25"/>
<path d="M64.5872 36.3772H45.5393C43.8802 36.3772 42.5356 37.7217 42.5356 39.3809C42.5356 41.0401 43.8802 42.3846 45.5393 42.3846H64.5872C66.2464 42.3846 67.5909 41.0401 67.5909 39.3809C67.5909 37.7217 66.2464 36.3772 64.5872 36.3772Z" fill="#00B6EF" fill-opacity="0.25"/>
<path d="M78.5308 19.6327H97.5787C99.2378 19.6327 100.582 18.2882 100.582 16.6291C100.582 14.9699 99.2378 13.6254 97.5787 13.6254H78.5308C76.8716 13.6254 75.5271 14.9699 75.5271 16.6291C75.5271 18.2882 76.8716 19.6327 78.5308 19.6327Z" fill="#00B6EF" fill-opacity="0.25"/>
<path d="M78.5308 31.0093H97.5787C99.2378 31.0093 100.582 29.6648 100.582 28.0056C100.582 26.3465 99.2378 25.002 97.5787 25.002H78.5308C76.8716 25.002 75.5271 26.3465 75.5271 28.0056C75.5271 29.6648 76.8716 31.0093 78.5308 31.0093Z" fill="#00B6EF" fill-opacity="0.25"/>
<path d="M78.5308 42.386H97.5787C99.2378 42.386 100.582 41.0415 100.582 39.3823C100.582 37.7232 99.2378 36.3787 97.5787 36.3787H78.5308C76.8716 36.3787 75.5271 37.7232 75.5271 39.3823C75.5271 41.0415 76.8716 42.386 78.5308 42.386Z" fill="#00B6EF" fill-opacity="0.25"/>
<path d="M109.801 0.584472H7.18356C3.32455 0.584472 0.185059 3.72404 0.185059 7.58297V50.6C0.185059 54.459 3.32463 57.5985 7.18356 57.5985H24.0099C24.0428 57.5985 24.0729 57.6156 24.0886 57.6442L31.1874 69.9378C32.2902 71.8473 34.264 72.9873 36.4682 72.9873C38.6724 72.9873 40.6476 71.8473 41.7505 69.9378L48.8479 57.6442C48.8636 57.6156 48.8951 57.5985 48.9266 57.5985H60.4091C62.0683 57.5985 63.4128 56.2539 63.4128 54.5948C63.4128 52.9356 62.0683 51.5911 60.4091 51.5911H48.9266C46.7553 51.5911 44.7314 52.7597 43.6443 54.6406L36.5454 66.9342C36.5268 66.9656 36.5197 66.9799 36.4668 66.9799C36.4138 66.9799 36.4067 66.9656 36.3881 66.9342L29.2893 54.6391C28.2037 52.7582 26.1797 51.5896 24.0084 51.5896H7.1821C6.6357 51.5896 6.19089 51.1448 6.19089 50.5984V7.58144C6.19089 7.03505 6.6357 6.59024 7.1821 6.59024H109.8C110.346 6.59024 110.791 7.03505 110.791 7.58144V50.5984C110.791 51.1448 110.346 51.5896 109.8 51.5896H72.0225C70.3633 51.5896 69.0188 52.9342 69.0188 54.5933C69.0188 56.2525 70.3633 57.597 72.0225 57.597H109.8C113.659 57.597 116.798 54.4574 116.798 50.5985V7.58151C116.798 3.7225 113.659 0.583008 109.8 0.583008L109.801 0.584472Z" fill="#00B6EF" fill-opacity="0.25"/>
</svg>
