<svg width="86" height="86" viewBox="0 0 86 86" fill="none" xmlns="http://www.w3.org/2000/svg">
<path fill-rule="evenodd" clip-rule="evenodd" d="M1.71381 44.6279L6.37403 44.6279C7.10932 44.6279 7.70553 44.0317 7.70553 43.2964C7.70553 42.5611 7.10932 41.9649 6.37403 41.9649L1.71381 41.9649C0.978526 41.9649 0.382322 42.5611 0.382322 43.2964C0.382322 44.0317 0.978526 44.6279 1.71381 44.6279ZM41.6584 79.9116L41.6584 84.5718C41.6584 85.3071 42.2547 85.9033 42.9899 85.9033C43.7252 85.9033 44.3214 85.3071 44.3214 84.5718L44.3214 79.9116C44.3214 79.1763 43.7252 78.5801 42.9899 78.5801C42.2546 78.5801 41.6584 79.1763 41.6584 79.9116ZM44.3214 6.68023L44.3214 2.02C44.3214 1.28472 43.7252 0.688513 42.9899 0.688513C42.2546 0.688513 41.6584 1.28472 41.6584 2.02L41.6584 6.68023C41.6584 7.41551 42.2546 8.01172 42.9899 8.01172C43.7252 8.01172 44.3214 7.41551 44.3214 6.68023ZM79.6069 44.6279C78.8716 44.6279 78.2754 44.0317 78.2754 43.2964C78.2754 42.5611 78.8716 41.9649 79.6069 41.9649L84.2671 41.9649C85.0024 41.9649 85.5986 42.5611 85.5986 43.2964C85.5986 44.0317 85.0024 44.6279 84.2671 44.6279L79.6069 44.6279ZM13.697 73.9205C13.3439 73.9205 13.0051 73.7802 12.7554 73.5306C12.5058 73.2809 12.3655 72.9421 12.3655 72.589C12.3655 72.2359 12.5058 71.8971 12.7554 71.6475L12.756 71.6475L16.1573 68.2461C16.407 67.9959 16.7458 67.855 17.0989 67.855C17.452 67.855 17.7914 67.9953 18.041 68.245C18.2907 68.4946 18.431 68.834 18.431 69.1871C18.431 69.5402 18.2901 69.879 18.0398 70.1287L18.0398 70.1293L14.6385 73.5306C14.3889 73.7802 14.0501 73.9205 13.697 73.9205ZM73.2249 13.0614C72.9752 12.8117 72.6364 12.6714 72.2833 12.6714C71.9302 12.6714 71.5914 12.8117 71.3418 13.0614L68.0345 16.3686L68.0333 16.3704L67.9406 16.4626L67.9406 16.4631C67.6909 16.7128 67.55 17.0516 67.55 17.4047C67.5495 17.7578 67.6897 18.0972 67.94 18.3468C68.1896 18.5965 68.5285 18.7368 68.8821 18.7368C69.2352 18.7368 69.574 18.5959 69.8237 18.3457L73.225 14.9443C73.4746 14.6947 73.6149 14.3559 73.6149 14.0028C73.6149 13.6497 73.4747 13.3109 73.225 13.0612L73.2249 13.0614ZM68.0339 70.2228L68.0327 70.221L67.9399 70.1282C67.6902 69.8785 67.5493 69.5397 67.5493 69.1866C67.5487 68.8335 67.689 68.4941 67.9393 68.2445C68.1889 67.9948 68.5277 67.8545 68.8814 67.8545C69.2345 67.8545 69.5733 67.9954 69.823 68.2456L73.2243 71.647C73.4739 71.8966 73.6148 72.2354 73.6148 72.5885C73.6148 72.9422 73.4745 73.281 73.2249 73.5307C72.9752 73.7803 72.6364 73.9206 72.2827 73.9206C71.9296 73.9206 71.5908 73.7797 71.3412 73.5301L68.0339 70.2228ZM12.8619 15.051L16.1573 18.3464C16.6774 18.8653 17.5191 18.8647 18.0386 18.3452C18.558 17.8257 18.5587 16.984 18.0397 16.4639L14.6384 13.0626L14.6384 13.062C14.1183 12.5431 13.276 12.5431 12.7559 13.0626C12.2364 13.5827 12.2364 14.425 12.7553 14.9451L12.8619 15.051ZM5.19176 58.047L9.47627 56.243C10.1539 55.9577 10.9344 56.2751 11.2203 56.9527C11.5056 57.6304 11.1876 58.4114 10.5099 58.6968L10.5105 58.6968L6.22602 60.5007C5.90029 60.6386 5.53293 60.6416 5.20542 60.5085C4.8779 60.3753 4.61695 60.1179 4.47964 59.7916C4.34233 59.4659 4.33995 59.0991 4.4737 58.7716C4.60745 58.4441 4.86602 58.1837 5.19176 58.047ZM76.0917 29.6386C76.2284 29.9644 76.4894 30.2217 76.8163 30.3555C77.1432 30.4886 77.51 30.4863 77.8357 30.3489L82.1209 28.545C82.4466 28.4082 82.7046 28.1473 82.8383 27.8204C82.9721 27.4929 82.9697 27.1261 82.8324 26.8004C82.6957 26.4746 82.4341 26.2166 82.1066 26.0835C81.7791 25.9503 81.4123 25.9527 81.0866 26.0906L76.8021 27.8942C76.1244 28.1801 75.8064 28.9605 76.0917 29.6388L76.0917 29.6386ZM25.785 80.7265L27.589 76.442C27.8743 75.7644 28.6548 75.4463 29.333 75.7317C30.0106 76.017 30.3286 76.7981 30.0433 77.4757L30.0427 77.4757L28.2387 81.7602C28.102 82.0859 27.8417 82.3439 27.5142 82.4777C27.1872 82.6114 26.8199 82.609 26.4941 82.4717C26.1684 82.335 25.9104 82.0734 25.7773 81.7459C25.6447 81.4184 25.6471 81.0517 25.785 80.7259L25.785 80.7265ZM57.1631 10.9657C57.6993 10.9657 58.1831 10.6447 58.3912 10.1501L60.1952 5.86501L60.1946 5.86561C60.3325 5.53987 60.3349 5.17311 60.2023 4.84559C60.0692 4.51807 59.8112 4.25652 59.4855 4.11982C59.1597 3.9825 58.7924 3.98012 58.4654 4.11387C58.1379 4.24762 57.8776 4.50559 57.7408 4.83132L55.9369 9.11645C55.7639 9.52778 55.8079 9.99797 56.0546 10.3701C56.3012 10.7416 56.7173 10.9651 57.1631 10.9657ZM8.80974 30.3487L4.52523 28.5447C4.19948 28.408 3.94093 28.1476 3.80719 27.8201C3.67345 27.4926 3.67582 27.1258 3.81313 26.8001C3.95044 26.4737 4.2114 26.2164 4.53891 26.0832C4.86643 25.9501 5.23378 25.953 5.55952 26.0909L5.55892 26.0909L9.84343 27.8949C10.5211 28.1803 10.8391 28.9613 10.5538 29.6389C10.2678 30.3166 9.48737 30.634 8.80974 30.3487ZM76.1357 58.6976L80.4208 60.5016C81.0985 60.7857 81.8783 60.4677 82.1636 59.7901C82.4484 59.1131 82.1309 58.3326 81.4539 58.0467L77.1688 56.2427C76.4911 55.9586 75.7113 56.2766 75.426 56.9542C75.1412 57.6313 75.4587 58.4117 76.1357 58.6976ZM29.9248 11.0336C29.6782 11.4052 29.2627 11.6287 28.8168 11.6298C28.2807 11.6298 27.7968 11.3082 27.5888 10.8143L27.5894 10.8149L25.7854 6.53097C25.5007 5.85336 25.8193 5.07349 26.4963 4.78817C27.1733 4.50344 27.9532 4.82026 28.2391 5.4967L30.0431 9.78061C30.2155 10.192 30.1709 10.6621 29.9248 11.0336ZM56.6473 76.3975C56.3221 76.5348 56.0642 76.7952 55.931 77.1221C55.7979 77.4496 55.8002 77.8158 55.937 78.1415L57.7409 82.4261L57.7415 82.4261C58.0275 83.1025 58.8073 83.4193 59.4843 83.1346C60.1614 82.8493 60.48 82.0694 60.1953 81.3918L58.3913 77.1073L58.3913 77.1079C58.2546 76.7821 57.9942 76.5242 57.6667 76.3904C57.3398 76.2573 56.973 76.2602 56.6473 76.3975ZM50.4391 49.9537C51.4722 49.9537 52.3104 49.1317 52.3104 48.117C52.3104 47.103 51.4722 46.2803 50.4391 46.2803C49.4054 46.2803 48.5679 47.1029 48.5679 48.117C48.5679 49.1316 49.4054 49.9537 50.4391 49.9537ZM70.5983 53.3453C71.1183 51.9174 70.0409 50.5828 68.9985 49.2916L68.9975 49.2903C68.5654 48.7993 68.1861 48.2637 67.8657 47.6931C68.3496 47.2847 68.8727 46.9251 69.4273 46.6196L69.4297 46.6181C70.8728 45.7472 72.3637 44.8473 72.3637 43.2962C72.3637 41.7442 70.8712 40.8437 69.4273 39.9728C68.8727 39.6673 68.3496 39.3076 67.8657 38.8993C68.1861 38.3286 68.5654 37.7931 68.9975 37.3015L68.9979 37.301C70.0404 36.0101 71.1184 34.6752 70.5983 33.2469C70.0711 31.7995 68.3693 31.4673 66.7233 31.1462C66.0891 31.0487 65.4667 30.887 64.8658 30.6647C64.9716 30.0245 65.1434 29.398 65.3781 28.7935L65.3795 28.7896C65.9176 27.2126 66.4734 25.5838 65.4911 24.4151L65.4911 24.4145C64.9032 23.807 64.0776 23.4884 63.2335 23.5448C62.5344 23.5668 61.8384 23.6411 61.1506 23.7677C60.599 23.8694 60.0408 23.933 59.4802 23.958C59.3946 23.9591 59.309 23.9544 59.224 23.9449C59.1093 23.3124 59.0582 22.6705 59.0724 22.0278C59.0421 20.3552 59.0106 18.6255 57.6815 17.8568C57.3308 17.6571 56.9331 17.5543 56.5295 17.5596C55.5167 17.5596 54.4896 18.1253 53.4021 18.7243L53.3982 18.7265C52.8412 19.0641 52.2503 19.3429 51.6357 19.5575C51.3147 19.007 51.049 18.4257 50.8428 17.823L50.8424 17.822C50.2368 16.2532 49.6108 14.6315 48.0877 14.3647L48.0883 14.3647C47.9671 14.3433 47.844 14.3326 47.721 14.3332C46.3996 14.3332 45.3783 15.5053 44.3904 16.6394L44.3898 16.6389C43.9761 17.1578 43.5071 17.6303 42.9906 18.047C42.474 17.6303 42.005 17.1584 41.5913 16.6389L41.5907 16.6381C40.603 15.5048 39.5813 14.3326 38.2602 14.3326L38.2602 14.3332C38.1371 14.3326 38.0141 14.3433 37.8922 14.3647C36.3699 14.6309 35.7439 16.2519 35.1383 17.82L35.1376 17.8218L35.1382 17.8224C34.9319 18.4257 34.6662 19.0071 34.3453 19.5575C33.7306 19.3423 33.1398 19.0635 32.5828 18.7259C31.4939 18.1255 30.4655 17.559 29.4521 17.559L29.4515 17.559C29.0485 17.5537 28.6508 17.6559 28.3001 17.855C26.971 18.6242 26.9395 20.354 26.9092 22.0273C26.9234 22.6698 26.8723 23.3118 26.7576 23.9437C26.6726 23.9538 26.587 23.9586 26.5014 23.9574C25.9409 23.9324 25.3827 23.8688 24.8306 23.7672C24.1434 23.6405 23.4474 23.5662 22.7483 23.5443C21.9042 23.4878 21.0785 23.8058 20.4907 24.4139C19.5077 25.5834 20.0648 27.2146 20.6032 28.7912L20.6036 28.7923L20.6036 28.7929C20.8384 29.3974 21.0096 30.0245 21.1154 30.6647C20.5139 30.887 19.8915 31.0487 19.2572 31.1462C17.6114 31.4672 15.9095 31.8001 15.3828 33.2469C14.8631 34.6743 15.9395 36.0078 16.9815 37.2988L16.9837 37.3015C17.4158 37.7931 17.795 38.3287 18.1154 38.8993C17.6316 39.3077 17.1085 39.6673 16.5539 39.9728L16.5528 39.9734C15.1099 40.8441 13.6174 41.7446 13.6174 43.2962C13.6174 44.8482 15.11 45.7487 16.5539 46.6196C17.1084 46.9251 17.6315 47.2848 18.1154 47.6931C17.795 48.2638 17.4158 48.7993 16.9837 49.2909L16.9833 49.2914C15.9408 50.5823 14.8628 51.9172 15.3828 53.3455C15.9095 54.7929 17.6118 55.1251 19.2579 55.4462C19.8915 55.5437 20.5139 55.7054 21.1154 55.9277C21.009 56.5679 20.8378 57.1944 20.603 57.7989L20.6029 57.7993C20.0644 59.3761 19.507 61.0083 20.4901 62.1773L20.4901 62.1779C21.0785 62.7854 21.9042 63.104 22.7483 63.0476C23.4467 63.0256 24.1434 62.9513 24.8306 62.8247C25.3822 62.723 25.9404 62.6594 26.501 62.6344C26.5866 62.6333 26.6721 62.638 26.7572 62.6475C26.8719 63.28 26.923 63.922 26.9087 64.5646C26.939 66.2372 26.9705 67.9669 28.2997 68.7356C28.6504 68.9353 29.0486 69.0381 29.4522 69.0328C30.4645 69.0328 31.4915 68.4671 32.579 67.8681L32.583 67.8659C33.14 67.5283 33.7308 67.2495 34.3454 67.0349C34.6664 67.5854 34.9321 68.1667 35.1384 68.7694L35.1387 68.7703C35.7443 70.3392 36.3703 71.9609 37.8934 72.2277L37.8928 72.2277C38.0141 72.2491 38.1371 72.2598 38.2602 72.2593C39.5816 72.2593 40.6028 71.0871 41.5907 69.953L41.5913 69.9536C42.005 69.4346 42.474 68.9621 42.9906 68.5454C43.5071 68.9621 43.9761 69.434 44.3898 69.9536L44.3905 69.9543C45.3782 71.0876 46.3998 72.2598 47.721 72.2598L47.7216 72.2598L47.7216 72.2593C47.8446 72.2598 47.9677 72.2491 48.0889 72.2277C49.6113 71.9616 50.2373 70.3405 50.8428 68.7724L50.8435 68.7706L50.8429 68.77C51.0492 68.1667 51.3149 67.5853 51.6359 67.0349C52.2505 67.2501 52.8414 67.5289 53.3983 67.8665L53.4005 67.8677L53.4005 67.8677C54.4887 68.4671 55.5169 69.0334 56.5297 69.0334C56.9327 69.0387 57.3304 68.9365 57.6811 68.7374C59.0102 67.9682 59.0417 66.2384 59.072 64.5651C59.0577 63.9226 59.1088 63.2806 59.2236 62.6487C59.3086 62.6386 59.3942 62.6338 59.4798 62.635C60.0403 62.66 60.5985 62.7236 61.1506 62.8252C61.8377 62.9519 62.5338 63.0262 63.2329 63.0481C64.077 63.1046 64.9027 62.7866 65.4905 62.1785C66.4734 61.009 65.9164 59.3778 65.3779 57.8013L65.3776 57.8001L65.3776 57.7995C65.1428 57.195 64.9716 56.5679 64.8658 55.9277C65.4673 55.7054 66.0897 55.5437 66.7239 55.4462C68.3698 55.1252 70.0711 54.7922 70.5983 53.3453ZM31.0066 38.4754C30.9971 37.2705 31.4679 36.112 32.3143 35.2549C33.1602 34.3977 34.3134 33.9127 35.5177 33.9061C36.7226 33.9002 37.8798 34.3733 38.7347 35.2221C39.5901 36.0704 40.0722 37.2241 40.0751 38.429C40.0787 39.6333 39.602 40.7901 38.7514 41.6424C37.9008 42.4954 36.7458 42.9751 35.5409 42.9751C34.3431 42.9792 33.1923 42.5078 32.3418 41.6644C31.4918 40.8203 31.0114 39.6731 31.0066 38.4754ZM38.6014 52.698C38.2014 53.315 37.3769 53.4909 36.7599 53.0909C36.1423 52.6909 35.9663 51.8664 36.3664 51.2493L48.0258 33.2521C48.4259 32.6345 49.2503 32.4586 49.8679 32.8586C50.4849 33.2587 50.6608 34.0831 50.2614 34.7002L38.6014 52.698ZM50.4392 52.6166C49.2474 52.6076 48.1086 52.1262 47.2717 51.2785C46.4347 50.4303 45.9681 49.2854 45.9741 48.0936C45.98 46.9024 46.4585 45.7623 47.3044 44.923C48.1496 44.0837 49.2938 43.6141 50.485 43.617C51.6768 43.62 52.8181 44.0955 53.6598 44.939C54.5009 45.7825 54.9734 46.9256 54.9734 48.1168C54.9687 49.3151 54.4884 50.4618 53.6384 51.3058C52.7878 52.1499 51.637 52.6213 50.4392 52.6166ZM35.5402 40.3121C36.5739 40.3121 37.4114 39.4895 37.4114 38.4754C37.4114 37.4608 36.5739 36.6387 35.5402 36.6387C34.5071 36.6387 33.6689 37.4607 33.6689 38.4754C33.6689 39.4894 34.5071 40.3121 35.5402 40.3121Z" fill="white"/>
</svg>
