<svg width="64" height="60" viewBox="0 0 64 60" fill="none" xmlns="http://www.w3.org/2000/svg">
<path fill-rule="evenodd" clip-rule="evenodd" d="M18.7805 1.61031C10.0712 1.61031 0.815427 4.27419 0.815428 9.21091C0.815428 14.1476 10.0712 16.8115 18.7805 16.8115C27.4898 16.8115 36.7455 14.1476 36.7455 9.21091C36.7455 4.27419 27.4898 1.61031 18.7805 1.61031ZM18.7805 14.0476C9.50119 14.0476 3.57928 11.1832 3.57928 9.21091C3.57928 7.23862 9.50119 4.37416 18.7805 4.37416C28.0598 4.37416 33.9817 7.23862 33.9817 9.21091C33.9817 11.1832 28.0598 14.0477 18.7805 14.0476ZM25.6644 54.9448C23.3892 55.3198 21.0868 55.5074 18.7807 55.5055C10.1194 55.5055 0.921488 52.8701 0.820312 47.9858C4.59795 51.2364 11.7105 52.7417 18.7806 52.7417C20.6247 52.7429 22.4668 52.6374 24.2985 52.424C24.6798 53.3025 25.1369 54.1458 25.6644 54.9448ZM27.0767 34.8574L27.089 34.8674L27.0782 34.879L27.0767 34.8574ZM62.997 34.8574C62.9365 37.7193 59.7555 39.8088 55.3864 41.0483C55.1354 40.2236 54.8197 39.4205 54.4429 38.6452C57.9167 37.871 60.9471 36.6211 62.997 34.8574ZM54.4429 38.6452L54.4426 38.6453L54.4426 38.6447L54.4429 38.6452ZM62.9961 29.331C60.2613 31.6834 55.7804 33.1208 50.8326 33.736C51.605 34.4578 52.3071 35.2518 52.9295 36.1062C58.5109 35.0075 62.9244 32.7064 62.996 29.3312L62.9961 29.331ZM18.7805 49.9777C20.3216 49.9771 21.8609 49.8938 23.3933 49.7285C23.1799 48.8425 23.0398 47.9406 22.9757 47.0312C21.5931 47.1522 20.1866 47.2138 18.7806 47.2138C11.7105 47.2138 4.59795 45.7085 0.820312 42.458C0.921488 47.3422 10.1193 49.9777 18.7805 49.9777ZM23.5193 41.4531C23.2676 42.3661 23.0955 43.2982 23.0042 44.2409C21.6099 44.3785 20.1885 44.4489 18.7806 44.4489C10.1193 44.4489 0.921488 41.8134 0.820312 36.9292C4.59795 40.1797 11.7105 41.685 18.7806 41.685C20.371 41.685 21.9628 41.6085 23.5193 41.4531ZM18.7806 36.1577C11.7105 36.1577 4.59795 34.6524 0.820311 31.4018C0.921487 36.2861 10.1193 38.9216 18.7806 38.9215C20.7376 38.9222 22.6914 38.7877 24.6297 38.5199C25.1578 37.4526 25.7994 36.4445 26.5434 35.5136C23.9789 35.9498 21.3815 36.1651 18.7806 36.1577ZM39.5095 25.7936C39.5125 24.9557 39.3601 24.1253 39.0591 23.3431C41.042 23.596 43.0384 23.7219 45.0372 23.7207C52.1075 23.7207 59.2194 22.2154 62.9975 18.9648C62.8964 23.8489 53.6983 26.4845 45.0372 26.4845C43.1839 26.4845 41.3319 26.3642 39.494 26.1249C39.4957 26.0912 39.4978 26.0576 39.4999 26.0241C39.5047 25.9478 39.5095 25.8716 39.5095 25.7936ZM39.0591 28.18C39.3601 28.9622 39.5125 29.7926 39.5095 30.6305C39.5095 30.7085 39.5047 30.7847 39.4999 30.861L39.4999 30.8617C39.4978 30.895 39.4957 30.9283 39.494 30.9618C41.3319 31.2011 43.1839 31.3215 45.0372 31.3215C53.6983 31.3215 62.8964 28.6858 62.9975 23.8017C59.2194 27.0523 52.1075 28.5576 45.0372 28.5576C43.0384 28.5588 41.042 28.4329 39.0591 28.18ZM18.7806 30.6313C25.8509 30.6313 32.9628 29.1261 36.7409 25.8754C36.6399 30.7596 27.4419 33.3952 18.7806 33.3952C10.1193 33.3952 0.921487 30.7597 0.820311 25.8754C4.59795 29.126 11.7104 30.6313 18.7806 30.6313ZM39.0591 17.8157C39.3601 18.598 39.5125 19.4284 39.5095 20.2662C39.5095 20.3442 39.5047 20.4205 39.4999 20.4968C39.4978 20.5303 39.4957 20.5638 39.494 20.5975C41.3319 20.8369 43.1839 20.9572 45.0372 20.9572C53.6983 20.9572 62.8964 18.3216 62.9975 13.4375C59.2194 16.6881 52.1075 18.1933 45.0372 18.1933C43.0384 18.1946 41.042 18.0687 39.0591 17.8157ZM33.9409 1.78121C37.5432 0.719481 41.2819 0.196318 45.0371 0.228399C53.7464 0.228399 63.0022 2.8922 63.0022 7.82892C63.0022 12.7656 53.7465 15.4295 45.0372 15.4295C43.1838 15.4264 41.3325 15.303 39.4946 15.0593C39.4962 15.0241 39.4984 14.9891 39.5006 14.954L39.5006 14.9538L39.5006 14.9536L39.5006 14.9533C39.505 14.8824 39.5094 14.8115 39.5094 14.7386C39.5131 13.8792 39.3527 13.0266 39.0375 12.2277C41.0233 12.5244 43.0289 12.6707 45.0371 12.6657C54.3164 12.6657 60.2383 9.80126 60.2383 7.82898C60.2383 5.85669 54.3164 2.99223 45.0371 2.99224C42.3274 2.97434 39.624 3.25011 36.9737 3.81399C36.0607 3.00089 35.0403 2.3167 33.9409 1.78121ZM18.7806 25.1035C11.7105 25.1035 4.59795 23.5982 0.820311 20.3476C0.921487 25.2319 10.1193 27.8674 18.7806 27.8674C27.4419 27.8674 36.6399 25.2317 36.7409 20.3476C32.9628 23.5982 25.8509 25.1035 18.7806 25.1035ZM0.820311 14.8198C4.59795 18.0704 11.7105 19.5757 18.7806 19.5757C25.8509 19.5757 32.9628 18.0704 36.7409 14.8198C36.6399 19.7039 27.4419 22.3395 18.7806 22.3395C10.1193 22.3395 0.921487 19.7041 0.820311 14.8198ZM30.6454 38.4146C32.9231 36.1369 36.0118 34.8574 39.2328 34.8574C42.4527 34.8611 45.5399 36.1416 47.8164 38.4183C50.093 40.695 51.3736 43.782 51.3774 47.0019C51.3774 50.2229 50.0978 53.3117 47.8202 55.5893C45.5426 57.867 42.4538 59.1465 39.2328 59.1465C36.0118 59.1465 32.9231 57.8669 30.6454 55.5893C28.3678 53.3117 27.0883 50.2229 27.0883 47.0019C27.0883 43.7809 28.3678 40.6922 30.6454 38.4146ZM32.363 53.8717C34.1847 55.694 36.6559 56.7176 39.2328 56.7176C41.8087 56.7149 44.2783 55.6902 46.0994 53.8685C47.9211 52.0474 48.9457 49.5778 48.9485 47.0019C48.9485 44.4251 47.9248 41.9538 46.1026 40.1321C44.2809 38.3099 41.8097 37.2863 39.2328 37.2863C36.6559 37.2863 34.1847 38.3099 32.363 40.1321C30.5408 41.9538 29.5172 44.4251 29.5172 47.0019C29.5172 49.5788 30.5408 52.05 32.363 53.8717Z" fill="white"/>
</svg>
