<svg width="1715" height="1712" viewBox="0 0 1715 1712" fill="none" xmlns="http://www.w3.org/2000/svg">
<path d="M1488 856.5C1488 1204.72 1205.72 1487 857.5 1487C509.284 1487 227 1204.72 227 856.5C227 508.284 509.284 226 857.5 226C1205.72 226 1488 508.284 1488 856.5ZM359.722 856.5C359.722 1131.42 582.585 1354.28 857.5 1354.28C1132.42 1354.28 1355.28 1131.42 1355.28 856.5C1355.28 581.585 1132.42 358.722 857.5 358.722C582.585 358.722 359.722 581.585 359.722 856.5Z" fill="#827FE8"/>
<path d="M1244 856.5C1244 1069.96 1070.96 1243 857.5 1243C644.042 1243 471 1069.96 471 856.5C471 643.042 644.042 470 857.5 470C1070.96 470 1244 643.042 1244 856.5ZM592.339 856.5C592.339 1002.94 711.056 1121.66 857.5 1121.66C1003.94 1121.66 1122.66 1002.94 1122.66 856.5C1122.66 710.056 1003.94 591.339 857.5 591.339C711.056 591.339 592.339 710.056 592.339 856.5Z" fill="#827FE8"/>
<circle cx="857.5" cy="856.5" r="143.5" fill="#827FE8"/>
<path d="M1084.28 1555.99C1091.68 1553.26 1099.55 1552.06 1107.42 1552.44C1115.3 1552.83 1123.02 1554.8 1130.11 1558.24C1137.21 1561.68 1143.54 1566.52 1148.72 1572.46C1153.91 1578.4 1157.84 1585.33 1160.29 1592.82C1162.73 1600.32 1163.64 1608.23 1162.96 1616.09C1162.28 1623.95 1160.02 1631.58 1156.32 1638.55C1152.62 1645.51 1147.55 1651.65 1141.42 1656.61C1135.28 1661.57 1128.22 1665.24 1120.63 1667.41L1120.59 1667.42L1120.54 1667.44C1035.36 1695.42 946.248 1709.62 856.585 1709.5H856.581C841.029 1709.5 826.113 1703.32 815.116 1692.32C804.119 1681.33 797.94 1666.41 797.94 1650.86C797.94 1635.3 804.119 1620.39 815.116 1609.39C826.113 1598.39 841.029 1592.21 856.581 1592.21V1592.21C933.888 1592.27 1010.71 1580.06 1084.19 1556.02L1084.23 1556L1084.28 1555.99ZM382.782 1441.72C390.41 1440.52 398.2 1440.84 405.704 1442.66C413.208 1444.48 420.279 1447.77 426.511 1452.33L426.515 1452.33C488.235 1497.29 556.519 1532.47 628.959 1556.62L628.97 1556.63C642.162 1560.96 653.39 1569.83 660.652 1581.67C667.915 1593.5 670.742 1607.53 668.631 1621.26C666.519 1634.98 659.606 1647.51 649.122 1656.62C638.638 1665.72 625.263 1670.81 611.378 1670.98L611.32 1670.98L611.264 1670.98C605.994 1671.29 600.711 1670.7 595.636 1669.25C510.465 1641.41 430.236 1600.27 357.929 1547.34L357.916 1547.33L357.903 1547.32L357.315 1546.9C351.274 1542.48 346.133 1536.94 342.172 1530.58C338.083 1524.02 335.333 1516.71 334.079 1509.08C332.826 1501.45 333.094 1493.65 334.868 1486.12C336.642 1478.59 339.886 1471.49 344.414 1465.23C348.947 1458.98 354.67 1453.68 361.254 1449.65C367.838 1445.61 375.154 1442.92 382.782 1441.72ZM855.979 2.50586C1036.6 1.85941 1212.76 58.5326 1359.12 164.37C1505.49 270.208 1614.5 419.752 1670.48 591.483C1726.46 763.215 1726.51 948.278 1670.63 1120.04C1614.75 1291.81 1505.83 1441.41 1359.52 1547.33C1349.63 1554.5 1337.74 1558.39 1325.52 1558.48C1316.23 1558.43 1307.07 1556.18 1298.82 1551.9C1290.56 1547.61 1283.44 1541.43 1278.04 1533.85L1278.03 1533.84C1269.01 1521.29 1265.3 1505.69 1267.72 1490.43C1270.14 1475.16 1278.48 1461.47 1290.94 1452.32L1290.95 1452.32L1290.96 1452.31C1369.8 1393.08 1435.94 1318.61 1485.45 1233.32C1534.96 1148.04 1566.83 1053.67 1579.18 955.833C1591.52 857.993 1584.08 758.67 1557.3 663.761C1530.52 568.851 1484.95 480.289 1423.29 403.331C1361.62 326.373 1285.13 262.589 1198.34 215.764C1111.55 168.938 1016.25 140.026 918.071 130.744C819.897 121.462 720.858 132 626.834 161.73C532.81 191.461 445.718 239.78 370.726 303.817L365.571 308.219H489.127C504.679 308.219 519.595 314.397 530.592 325.395C541.589 336.392 547.768 351.308 547.768 366.861C547.768 382.414 541.589 397.331 530.592 408.328C519.595 419.326 504.679 425.504 489.127 425.504H244.565C229.013 425.504 214.097 419.326 203.1 408.328C192.102 397.331 185.925 382.414 185.925 366.861V122.291C185.925 106.738 192.103 91.8218 203.1 80.8242C214.097 69.8266 229.013 63.6484 244.565 63.6484C260.118 63.6485 275.033 69.8267 286.03 80.8242C297.027 91.8218 303.205 106.738 303.205 122.291V207.776L307.32 204.297C460.75 74.5411 655.04 3.0829 855.977 2.50586H855.979ZM82.0938 1047.31C96.8687 1042.5 112.949 1043.75 126.803 1050.79C140.656 1057.83 151.15 1070.07 155.98 1084.84C179.988 1158.22 215.39 1227.37 260.888 1289.75L260.89 1289.76C265.449 1295.99 268.732 1303.06 270.552 1310.56C272.371 1318.07 272.691 1325.86 271.492 1333.49C270.294 1341.11 267.6 1348.43 263.566 1355.02C259.533 1361.6 254.239 1367.32 247.988 1371.86C238.09 1379.02 226.2 1382.92 213.98 1383C204.731 1383.02 195.607 1380.85 187.354 1376.68C179.356 1372.63 172.396 1366.8 167.006 1359.65L166.489 1358.95C114.444 1287.72 73.7616 1208.86 45.8838 1125.18L44.5654 1121.19C39.7573 1106.42 41.0089 1090.34 48.0449 1076.49C55.0811 1062.64 67.3272 1052.14 82.0938 1047.31ZM94.7197 553.947C102.429 553.338 110.183 554.254 117.538 556.642C124.894 559.029 131.707 562.842 137.589 567.863C143.471 572.884 148.306 579.015 151.818 585.904C155.331 592.794 157.453 600.308 158.062 608.018C158.67 615.725 157.756 623.478 155.369 630.832C131.907 702.575 119.899 777.561 119.78 853.028L119.784 856.622C119.782 872.172 113.604 887.084 102.608 898.08C91.6112 909.078 76.696 915.256 61.1436 915.256C53.3932 915.256 45.7194 913.721 38.5664 910.737C31.4133 907.754 24.9227 903.381 19.4697 897.873C14.0169 892.365 9.70909 885.832 6.79688 878.649C3.88463 871.467 2.42543 863.778 2.50293 856.027V856.005C2.59161 767.246 16.3674 679.032 43.3447 594.473C45.7324 587.117 49.5457 580.303 54.5664 574.421C59.5871 568.539 65.7171 563.703 72.6064 560.19C79.4959 556.677 87.0104 554.556 94.7197 553.947Z" fill="#827FE8" stroke="white" stroke-width="5"/>
</svg>
