<svg width="36" height="20" viewBox="0 0 36 20" fill="none" xmlns="http://www.w3.org/2000/svg">
<path fill-rule="evenodd" clip-rule="evenodd" d="M25.7548 0.625488C31.0223 0.625488 35.2932 4.89642 35.2932 10.1639C35.2932 15.4314 31.0223 19.7025 25.7309 19.6786H20.2261C18.0907 19.6787 16.1924 18.8244 14.7926 17.4246C13.3927 16.0247 12.5385 14.1264 12.5385 11.991C12.5385 10.8047 13.5114 9.8318 14.6978 9.8318C15.8841 9.8318 16.857 10.8047 16.857 11.991C16.8333 13.8654 18.3519 15.384 20.2263 15.3603L25.7548 15.384C28.6496 15.384 30.9749 13.0588 30.9748 10.164C30.9748 7.2692 28.6495 4.94396 25.7548 4.94396C24.5684 4.94396 23.5956 3.97109 23.5956 2.78472C23.5956 1.59835 24.5684 0.625488 25.7548 0.625488ZM4.40741 10.2984C4.40746 13.1931 6.7327 15.5184 9.62744 15.5184C10.8138 15.5184 11.7869 16.4913 11.7868 17.6775C11.7868 18.8639 10.8139 19.8368 9.62752 19.8368C6.99374 19.813 4.621 18.769 2.88894 17.0369C1.15684 15.3048 0.0891113 12.9085 0.0891113 10.2984C0.0891113 5.03088 4.36004 0.759953 9.62752 0.759953L15.156 0.783639C19.3795 0.783639 22.8437 4.24784 22.8437 8.47131C22.8437 9.65768 21.8709 10.6305 20.6845 10.6305C19.4981 10.6305 18.5253 9.65768 18.5253 8.47131C18.5253 6.62058 17.0067 5.10202 15.156 5.10202L9.62744 5.07834C6.73265 5.07838 4.40737 7.40358 4.40741 10.2984Z" fill="#EC00B8"/>
</svg>
