<svg width="24" height="24" viewBox="0 0 24 24" fill="none" xmlns="http://www.w3.org/2000/svg">
<path d="M23.0112 12.5008C23.0081 9.717 21.9008 7.04807 19.9324 5.07961C17.9639 3.11114 15.295 2.00391 12.5112 2.00083C4.5289 1.90033 -0.676474 10.9588 3.44815 17.7906C3.29324 18.2039 3.24093 18.6486 3.29571 19.0866C3.3505 19.5245 3.51075 19.9426 3.7627 20.305C4.01465 20.6674 4.35078 20.9633 4.74223 21.1672C5.13369 21.3711 5.56878 21.477 6.01015 21.4757C9.6829 21.3313 9.60565 16.0495 5.94265 16.0078C3.25353 11.1958 6.99115 4.95395 12.5112 5.0507C18.03 4.95508 21.7695 11.1951 19.0797 16.0075C18.4946 15.9927 17.9203 16.166 17.4411 16.5019C16.9619 16.8378 16.6031 17.3186 16.4174 17.8736C16.2318 18.4285 16.2291 19.0284 16.4097 19.5851C16.5903 20.1417 16.9447 20.6257 17.4209 20.9659C17.897 21.3062 18.4697 21.4847 19.0549 21.4752C19.64 21.4658 20.2067 21.2688 20.6716 20.9134C21.1365 20.558 21.4751 20.0628 21.6376 19.5006C21.8001 18.9384 21.778 18.3389 21.5745 17.7902C22.5147 16.186 23.0105 14.3603 23.0112 12.5008ZM7.99615 18.7397C7.91253 21.3636 4.1074 21.3632 4.0249 18.7397C4.10778 16.1151 7.9129 16.1162 7.99615 18.7397ZM20.7113 12.5008C20.2609 1.6217 4.75953 1.62545 4.31103 12.5008C4.3106 13.7632 4.60233 15.0086 5.1634 16.1395C4.65815 16.3051 4.21193 16.614 3.87903 17.0286C0.439151 10.6843 5.28753 2.66158 12.5112 2.75083C19.7337 2.66158 24.5835 10.6847 21.1429 17.029C20.8101 16.6142 20.3639 16.3051 19.8585 16.1395C20.4196 15.0086 20.7117 13.7632 20.7113 12.5008ZM19.0122 20.7253C16.3872 20.6417 16.3883 16.837 19.0122 16.7541C21.636 16.8373 21.6357 20.6421 19.0122 20.7253Z" fill="url(#paint0_linear_1081_457)"/>
<defs>
<linearGradient id="paint0_linear_1081_457" x1="12.3465" y1="21.6535" x2="12.6503" y2="1.46468" gradientUnits="userSpaceOnUse">
<stop stop-color="#006DF0"/>
<stop offset="1" stop-color="#00E7F0"/>
</linearGradient>
</defs>
</svg>
