<svg width="24" height="24" viewBox="0 0 24 24" fill="none" xmlns="http://www.w3.org/2000/svg">
<path d="M23.3568 4.08025C23.3121 4.0454 23.2603 4.02103 23.205 4.00896C23.1496 3.99688 23.0923 3.99741 23.0372 4.0105L19.2014 4.9375C14.6321 6.03531 9.86786 6.03531 5.29863 4.9375L1.46312 4.0105C1.40797 3.99717 1.35051 3.99652 1.29507 4.00862C1.23963 4.02071 1.18766 4.04523 1.14307 4.08032C1.09849 4.11541 1.06244 4.16017 1.03766 4.21121C1.01288 4.26226 1 4.31826 1 4.375V20.125C1 20.1817 1.01288 20.2377 1.03766 20.2888C1.06244 20.3398 1.09849 20.3846 1.14307 20.4197C1.18766 20.4548 1.23963 20.4793 1.29507 20.4914C1.35051 20.5035 1.40797 20.5028 1.46312 20.4895L5.29863 19.5625C9.86788 18.4649 14.6321 18.4649 19.2014 19.5625L23.0372 20.4884C23.0659 20.4958 23.0954 20.4997 23.125 20.5C23.2245 20.5 23.3198 20.4605 23.3902 20.3902C23.4605 20.3198 23.5 20.2245 23.5 20.125V4.375C23.5 4.31823 23.4871 4.26221 23.4623 4.21115C23.4375 4.16009 23.4014 4.11533 23.3568 4.08025ZM5.12275 5.66538C9.80762 6.79074 14.6924 6.79074 19.3773 5.66538L22.75 4.85125V15.7401L19.3274 11.5548C19.151 11.3402 18.9292 11.1674 18.678 11.0488C18.4269 10.9301 18.1526 10.8686 17.8748 10.8686C17.597 10.8686 17.3227 10.9301 17.0716 11.0488C16.8204 11.1674 16.5987 11.3402 16.4222 11.5548L13.6994 14.8851L9.55563 9.98725C9.37993 9.7791 9.16093 9.61181 8.9139 9.49705C8.66686 9.38229 8.39776 9.32284 8.12537 9.32284C7.85299 9.32284 7.58389 9.38229 7.33685 9.49705C7.08982 9.61181 6.87082 9.7791 6.69513 9.98725L1.75 15.8279V4.85125L5.12275 5.66538ZM5.12275 18.8346L1.75 19.6488V16.9885L7.26813 10.4699C7.37345 10.3451 7.50472 10.2449 7.65278 10.1761C7.80084 10.1074 7.96213 10.0718 8.12537 10.0718C8.28862 10.0718 8.44991 10.1074 8.59797 10.1761C8.74603 10.2449 8.8773 10.3451 8.98263 10.4699L15.4922 18.1656C12.0229 17.7941 8.51558 18.0204 5.12275 18.8346ZM19.3773 18.8346C18.457 18.6124 17.5277 18.4346 16.5895 18.3014L14.1921 15.4679L17.0027 12.0303C17.1088 11.9016 17.242 11.7981 17.3927 11.727C17.5435 11.6559 17.7081 11.619 17.8748 11.619C18.0415 11.619 18.2061 11.6559 18.3569 11.727C18.5077 11.7981 18.6408 11.9016 18.7469 12.0303L22.75 16.9251V19.6488L19.3773 18.8346Z" fill="url(#paint0_linear_1081_453)"/>
<path d="M13.75 11.125C14.1208 11.125 14.4834 11.015 14.7917 10.809C15.1 10.603 15.3404 10.3101 15.4823 9.96753C15.6242 9.62492 15.6613 9.24792 15.589 8.88421C15.5166 8.52049 15.338 8.1864 15.0758 7.92418C14.8136 7.66195 14.4795 7.48338 14.1158 7.41103C13.7521 7.33868 13.3751 7.37581 13.0325 7.51773C12.6899 7.65964 12.397 7.89996 12.191 8.20831C11.985 8.51665 11.875 8.87916 11.875 9.25C11.8756 9.7471 12.0733 10.2237 12.4248 10.5752C12.7763 10.9267 13.2529 11.1244 13.75 11.125ZM13.75 8.125C13.9725 8.125 14.19 8.19098 14.375 8.3146C14.56 8.43821 14.7042 8.61392 14.7894 8.81948C14.8745 9.02505 14.8968 9.25125 14.8534 9.46948C14.81 9.68771 14.7028 9.88816 14.5455 10.0455C14.3882 10.2028 14.1877 10.31 13.9695 10.3534C13.7512 10.3968 13.525 10.3745 13.3195 10.2894C13.1139 10.2042 12.9382 10.06 12.8146 9.87502C12.691 9.69001 12.625 9.47251 12.625 9.25C12.625 8.95163 12.7435 8.66548 12.9545 8.45451C13.1655 8.24353 13.4516 8.125 13.75 8.125Z" fill="url(#paint1_linear_1081_453)"/>
<defs>
<linearGradient id="paint0_linear_1081_453" x1="12.25" y1="21.5133" x2="12.25" y2="4.71775" gradientUnits="userSpaceOnUse">
<stop stop-color="#006DF0"/>
<stop offset="1" stop-color="#00E7F0"/>
</linearGradient>
<linearGradient id="paint1_linear_1081_453" x1="13.75" y1="21.5133" x2="13.75" y2="4.71775" gradientUnits="userSpaceOnUse">
<stop stop-color="#006DF0"/>
<stop offset="1" stop-color="#00E7F0"/>
</linearGradient>
</defs>
</svg>
