<svg width="24" height="24" viewBox="0 0 24 24" fill="none" xmlns="http://www.w3.org/2000/svg">
<path fill-rule="evenodd" clip-rule="evenodd" d="M15.9953 13.1856H7.93533V16.4658C7.93533 16.7246 7.72553 16.9344 7.46673 16.9344H5.21743C4.95863 16.9344 4.74882 16.7246 4.74882 16.4658V15.4349H2.96813C2.70933 15.4349 2.49953 15.2251 2.49953 14.9663V13.1856H1.4686C1.20979 13.1856 1 12.9758 1 12.717V11.2174C1 10.9586 1.20979 10.7488 1.4686 10.7488H2.49953V8.96813C2.49953 8.70933 2.70933 8.49953 2.96813 8.49953H4.74882V7.46861C4.74882 7.2098 4.95863 7 5.21743 7H7.46673C7.72553 7 7.93533 7.2098 7.93533 7.46861V10.7488H15.9953V7.46861C15.9953 7.2098 16.2051 7 16.4639 7H18.7132C18.972 7 19.1818 7.2098 19.1818 7.46861V8.49953H20.9625C21.2213 8.49953 21.4311 8.70933 21.4311 8.96813V10.7488H22.462C22.7208 10.7488 22.9306 10.9586 22.9306 11.2174V12.717C22.9306 12.9758 22.7208 13.1856 22.462 13.1856H21.4311V14.9663C21.4311 15.2251 21.2213 15.4349 20.9625 15.4349H19.1818V16.4658C19.1818 16.7246 18.972 16.9344 18.7132 16.9344H16.4639C16.2051 16.9344 15.9953 16.7246 15.9953 16.4658V13.1856ZM15.9953 11.686H7.93533V12.2484H15.9953V11.686ZM18.2446 8.96813V7.9372H16.9325V15.9972H18.2446V14.9663V8.96813ZM19.1818 14.4977H20.4939V9.43674H19.1818V14.4977ZM21.4311 12.2484H21.9934V11.686H21.4311V12.2484ZM6.99816 11.2174V7.9372H5.68606V15.9972H6.99816V11.2174ZM4.74886 9.43674H3.43676V14.4977H4.74886V9.43674ZM2.49956 11.686H1.93724V12.2484H2.49956V11.686Z" fill="url(#paint0_linear_1081_394)" stroke="white" stroke-width="0.2"/>
<defs>
<linearGradient id="paint0_linear_1081_394" x1="11.7993" y1="17.0251" x2="11.875" y2="6.72516" gradientUnits="userSpaceOnUse">
<stop stop-color="#006DF0"/>
<stop offset="1" stop-color="#00E7F0"/>
</linearGradient>
</defs>
</svg>
