<svg width="24" height="24" viewBox="0 0 24 24" fill="none" xmlns="http://www.w3.org/2000/svg">
<path fill-rule="evenodd" clip-rule="evenodd" d="M11.6405 17.4936C13.0005 16.4656 13.9091 15.2744 14.3641 14.5908L14.8307 14.8601C14.4262 16.1315 14.3612 16.7659 14.609 17.4936H11.6405ZM17.142 19.8318C17.1265 19.8396 17.1112 19.8474 17.097 19.8578C16.8217 20.0177 16.5293 20.1463 16.2254 20.241H10.1927C9.63056 19.6817 9.36824 18.8893 9.48013 18.1073H18.7617C18.3907 18.8297 17.8303 19.4227 17.142 19.8318ZM12.3969 22.6051C15.4198 22.5741 15.8939 22.3462 16.6496 20.7459C16.555 20.7796 16.4587 20.8132 16.3611 20.8417C16.3321 20.8521 16.302 20.8547 16.2717 20.8547H10.07C9.9935 20.8547 9.91976 20.8261 9.86336 20.7744C9.49655 20.4413 9.21433 20.0257 9.04007 19.5619C8.86581 19.0981 8.80452 18.5995 8.86127 18.1073H2.61474V22.6051H12.3969ZM16.1055 11.6052L16.5081 11.8382L15.0873 14.2982L14.6844 14.0677L16.1055 11.6052ZM16.5806 9.71748L15.9516 10.8077L17.4035 11.6441L18.0322 10.5565L16.5806 9.71748ZM19.036 4.31849C19.2235 3.99482 19.528 3.76173 19.8936 3.66338C20.2584 3.56498 20.6388 3.61418 20.9633 3.80321C21.6373 4.19162 21.8688 5.05649 21.4801 5.72973L18.836 10.3105L16.3919 8.89922L19.036 4.31849ZM15.4817 14.8446L17.0405 12.1438L17.3624 12.3302C17.4095 12.3587 17.4623 12.3716 17.5162 12.3716C17.5426 12.3716 17.5695 12.369 17.5957 12.3613C17.6346 12.3509 17.6711 12.333 17.7031 12.3086C17.7351 12.2842 17.7619 12.2537 17.7821 12.2189L18.5647 10.862L18.7946 10.9966C18.8415 11.0226 18.8948 11.0355 18.9482 11.0355C18.9749 11.0355 19.0017 11.0329 19.0277 11.0251C19.1063 11.0041 19.1735 10.9529 19.2146 10.8827L22.0123 6.0378C22.5708 5.06935 22.238 3.82898 21.2707 3.26969C20.804 3.00041 20.2582 2.93047 19.7341 3.07029C19.2105 3.21012 18.7731 3.54415 18.5036 4.01287L15.706 8.8577C15.6858 8.89263 15.6727 8.9312 15.6674 8.9712C15.6622 9.0112 15.6649 9.05184 15.6753 9.0908C15.6858 9.12976 15.7038 9.16627 15.7284 9.19825C15.753 9.23024 15.7837 9.25705 15.8186 9.27717L16.0486 9.40922L15.2658 10.7661C15.1811 10.9111 15.2316 11.1001 15.3782 11.1856L15.5732 11.2969L14.0013 14.021C13.5884 14.6813 12.4365 16.3205 10.5579 17.4934H2.30739C2.26696 17.4934 2.22693 17.5014 2.18958 17.5169C2.15224 17.5324 2.11832 17.5551 2.08976 17.5837C2.06121 17.6124 2.03858 17.6463 2.02318 17.6837C2.00778 17.7211 1.9999 17.7612 2 17.8016V22.9106C2 23.0814 2.13776 23.2187 2.30739 23.2187H12.3997C16.083 23.1825 16.4463 22.7267 17.5144 20.3238C18.4207 19.7696 19.1269 18.9306 19.523 17.913C19.56 17.8172 19.5476 17.711 19.4904 17.6282C19.4334 17.5427 19.3381 17.4935 19.2366 17.4935H15.2649C14.9954 16.8566 14.9772 16.3827 15.4817 14.8446Z" fill="url(#paint0_linear_1081_392)"/>
<defs>
<linearGradient id="paint0_linear_1081_392" x1="11.988" y1="23.4033" x2="12.3272" y2="2.44499" gradientUnits="userSpaceOnUse">
<stop stop-color="#006DF0"/>
<stop offset="1" stop-color="#00E7F0"/>
</linearGradient>
</defs>
</svg>
