<svg width="24" height="24" viewBox="0 0 24 24" fill="none" xmlns="http://www.w3.org/2000/svg">
<g clip-path="url(#clip0_1081_396)">
<mask id="mask0_1081_396" style="mask-type:luminance" maskUnits="userSpaceOnUse" x="0" y="0" width="24" height="24">
<path d="M24 0H0V24H24V0Z" fill="white"/>
</mask>
<g mask="url(#mask0_1081_396)">
<path d="M19.1365 6.40219C19.5403 3.61478 17.8107 0.961538 15.0977 0.206075C12.3845 -0.549388 9.53242 0.82817 8.43759 3.42288C7.15981 2.54884 5.46648 2.58888 4.23164 3.52245C2.99654 4.45602 2.49607 6.07417 2.98854 7.54176C0.86352 8.40854 -0.350979 10.6576 0.0899124 12.9098C0.530603 15.1619 2.50356 16.7873 4.7985 16.7887H6.3981C6.50416 16.7887 6.60588 16.7465 6.68087 16.6715C6.75587 16.5965 6.798 16.4948 6.798 16.3888C6.798 16.2827 6.75587 16.181 6.68087 16.106C6.60588 16.031 6.50416 15.9889 6.3981 15.9889H4.7985C2.81719 15.9881 1.13495 14.5373 0.843026 12.5776C0.550948 10.6179 1.73715 8.73971 3.63198 8.16135C3.68715 8.14438 3.73799 8.11568 3.78104 8.07722C3.82408 8.03877 3.85831 7.99147 3.88137 7.93856C3.90445 7.88564 3.91577 7.82835 3.91457 7.77063C3.91336 7.71291 3.89964 7.65615 3.87437 7.60424C3.69135 7.22617 3.59709 6.81128 3.59879 6.39124C3.59959 5.26792 4.27148 4.25372 5.30542 3.81473C6.33951 3.37584 7.53572 3.59683 8.34452 4.37654C8.39394 4.42407 8.45478 4.45808 8.52116 4.47528C8.58754 4.49248 8.65723 4.49231 8.72352 4.47477C8.78982 4.45729 8.85051 4.42305 8.89975 4.37533C8.94899 4.32762 8.98514 4.26805 9.0047 4.20233C9.75552 1.7188 12.3443 0.281806 14.849 0.958039C17.3538 1.63442 18.8675 4.17894 18.2665 6.70291C18.2519 6.76432 18.252 6.8283 18.2669 6.88964C18.2818 6.95098 18.3109 7.00792 18.352 7.05582C18.3931 7.10372 18.445 7.14121 18.5034 7.16522C18.5617 7.18924 18.6249 7.1991 18.6879 7.19399C18.7239 7.19104 18.7572 7.19104 18.795 7.19104C21.2245 7.19104 23.1939 9.1605 23.1939 11.59C23.1939 14.0195 21.2245 15.9889 18.795 15.9889H17.9952C17.8892 15.9889 17.7874 16.031 17.7125 16.106C17.6375 16.181 17.5953 16.2827 17.5953 16.3888C17.5953 16.4948 17.6375 16.5965 17.7125 16.6715C17.7874 16.7465 17.8892 16.7887 17.9952 16.7887H18.795C21.6023 16.7924 23.9055 14.5666 23.9976 11.7608C24.0898 8.95506 21.9379 6.58299 19.1365 6.40219Z" fill="url(#paint0_linear_1081_396)"/>
<path d="M17.3414 17.4739L13.8087 13.9412L16.9679 10.7818L17.251 11.0649C17.2881 11.102 17.3322 11.1315 17.3807 11.1515C17.4292 11.1715 17.4812 11.1818 17.5337 11.1817H17.5669C17.6248 11.1768 17.6808 11.1594 17.7312 11.1307C17.7817 11.102 17.8252 11.0626 17.8589 11.0153L19.2738 9.03438C19.3288 8.95739 19.3547 8.86338 19.3469 8.76908C19.3392 8.67477 19.2982 8.58627 19.2314 8.51931L18.6659 7.9538C18.599 7.88661 18.5104 7.84539 18.4159 7.83749C18.3214 7.82959 18.2272 7.85552 18.15 7.91066L16.17 9.32416C16.1228 9.35795 16.0836 9.4016 16.0549 9.45207C16.0263 9.50255 16.0089 9.55865 16.0041 9.61649C15.9993 9.67431 16.0072 9.73249 16.0271 9.78697C16.0471 9.84145 16.0786 9.89094 16.1196 9.93201L16.4028 10.2151L13.2436 13.3745L10.5107 10.6416C10.6605 10.0788 10.6539 9.48571 10.4915 8.92636C10.3291 8.36701 10.0171 7.86262 9.58908 7.46757C9.16114 7.0725 8.63347 6.80177 8.06297 6.68457C7.49247 6.56737 6.9008 6.60816 6.35178 6.80253C6.2882 6.82509 6.23138 6.86339 6.18662 6.91385C6.14185 6.96431 6.1106 7.0253 6.09579 7.09111C6.08088 7.15694 6.08289 7.22547 6.10163 7.29032C6.12037 7.35516 6.15523 7.4142 6.20297 7.46192L8.12009 9.38139L7.93344 10.3252L6.98952 10.512L5.07005 8.59484C5.02233 8.5471 4.96329 8.51224 4.89845 8.4935C4.8336 8.47476 4.76507 8.47275 4.69924 8.48766C4.63343 8.50247 4.57245 8.53371 4.52199 8.57847C4.47152 8.62322 4.43322 8.68004 4.41066 8.7436C4.21607 9.29285 4.17521 9.88483 4.2925 10.4556C4.40978 11.0264 4.68075 11.5543 5.07615 11.9823C5.47149 12.4103 5.97621 12.7222 6.53584 12.8844C7.09547 13.0466 7.68877 13.0529 8.25171 12.9026L10.9846 15.6355L10.6327 15.9873L10.35 15.7046C10.1938 15.5486 9.94054 15.5486 9.78453 15.7046L9.21612 16.2713L8.93354 15.9885C8.77733 15.8325 8.52414 15.8325 8.36808 15.9885L3.8436 20.5126C3.06255 21.2936 3.06255 22.5597 3.8436 23.3408C4.62446 24.1217 5.89074 24.1217 6.6716 23.3408L11.1957 18.8163C11.2328 18.7792 11.2623 18.7351 11.2824 18.6866C11.3025 18.6381 11.3128 18.5861 11.3128 18.5336C11.3128 18.4811 11.3025 18.4291 11.2824 18.3806C11.2623 18.332 11.2328 18.288 11.1957 18.2508L10.9129 17.9681L11.4784 17.4022C11.5156 17.3651 11.5451 17.321 11.5652 17.2725C11.5853 17.224 11.5956 17.172 11.5956 17.1195C11.5956 17.067 11.5853 17.015 11.5652 16.9665C11.5451 16.9179 11.5156 16.8739 11.4784 16.8367L11.1957 16.554L11.5476 16.2021L15.0802 19.7349C14.9277 20.298 14.9325 20.8922 15.094 21.4529C15.2555 22.0135 15.5676 22.5192 15.9963 22.9149C16.425 23.3107 16.954 23.5814 17.5257 23.6975C18.0975 23.8137 18.6902 23.771 19.2394 23.574C19.3029 23.5514 19.3598 23.513 19.4045 23.4625C19.4493 23.412 19.4805 23.351 19.4954 23.2852C19.5102 23.2194 19.5081 23.1509 19.4894 23.0861C19.4706 23.0213 19.4357 22.9623 19.388 22.9146L17.4709 20.9949L17.6578 20.0511L18.6015 19.8645L20.5209 21.7816C20.5687 21.8292 20.6277 21.864 20.6925 21.8828C20.7574 21.9015 20.8259 21.9036 20.8917 21.8888C20.9575 21.8739 21.0185 21.8426 21.069 21.7979C21.1194 21.7531 21.1578 21.6963 21.1805 21.6328C21.3748 21.0837 21.4156 20.492 21.2984 19.9215C21.1812 19.351 20.9105 18.8233 20.5154 18.3953C20.1204 17.9673 19.616 17.6553 19.0567 17.4929C18.4973 17.3305 17.9043 17.324 17.3414 17.4739ZM18.3386 8.7589L18.4255 8.84558L17.483 10.1651L17.019 9.70141L18.3386 8.7589ZM6.10574 22.7753C5.63736 23.2439 4.87755 23.2439 4.40891 22.7753C3.94048 22.3067 3.94048 21.5471 4.40891 21.0785L8.65086 16.8367L10.3474 18.5336L6.10574 22.7753ZM9.78158 16.8368L10.0647 16.554L10.6302 17.1195L10.3475 17.4026L9.78158 16.8368ZM8.64321 12.1668C8.58947 12.1131 8.52154 12.0757 8.44736 12.0592C8.37319 12.0427 8.29583 12.0476 8.22437 12.0735C7.85199 12.2053 7.45286 12.2432 7.06233 12.1838C6.6718 12.1245 6.30194 11.9697 5.98554 11.7333C5.66913 11.4968 5.41594 11.1859 5.24842 10.8282C5.0809 10.4704 5.00421 10.0769 5.02516 9.68247L6.57438 11.2297C6.62096 11.2759 6.67812 11.3099 6.74087 11.329C6.80362 11.348 6.87007 11.3514 6.93444 11.3389L8.35008 11.0591C8.42792 11.0437 8.49943 11.0055 8.55552 10.9494C8.61161 10.8933 8.64973 10.8217 8.66506 10.7439L8.94509 9.32826C8.95781 9.26391 8.9545 9.19743 8.93547 9.13466C8.91643 9.0719 8.88224 9.01478 8.83591 8.96835L7.28945 7.41873C7.68391 7.39777 8.07745 7.47445 8.43518 7.64197C8.79292 7.80949 9.1038 8.06267 9.34028 8.37908C9.57676 8.69549 9.73152 9.06536 9.79086 9.45589C9.8502 9.84642 9.81228 10.2456 9.68045 10.6179C9.65463 10.6894 9.64968 10.7667 9.66617 10.8408C9.68266 10.915 9.71992 10.9829 9.77358 11.0366L12.6781 13.9412L11.5475 15.0712L8.64321 12.1668ZM20.5658 20.695L19.0162 19.1479C18.9697 19.1017 18.9126 19.0676 18.8498 19.0485C18.7871 19.0295 18.7207 19.026 18.6563 19.0385L17.2407 19.3186C17.1628 19.3339 17.0912 19.372 17.0351 19.4281C16.979 19.4843 16.9408 19.5558 16.9255 19.6337L16.6455 21.0493C16.6328 21.1137 16.6361 21.1802 16.6552 21.2429C16.6742 21.3057 16.7084 21.3628 16.7546 21.4093L18.3011 22.9589C17.9067 22.9798 17.5132 22.9031 17.1554 22.7356C16.7977 22.568 16.4869 22.3148 16.2505 21.9984C16.0139 21.682 15.8591 21.3122 15.7998 20.9217C15.7404 20.5311 15.7783 20.132 15.9101 19.7597C15.936 19.6882 15.9409 19.6109 15.9244 19.5368C15.908 19.4627 15.8707 19.3947 15.817 19.341L12.113 15.6366L13.2433 14.5065L16.9473 18.2108C17.0011 18.2645 17.0691 18.3018 17.1432 18.3183C17.2174 18.3347 17.2948 18.3298 17.3662 18.304C17.7386 18.1722 18.1377 18.1344 18.5282 18.1937C18.9187 18.2531 19.2886 18.4079 19.6049 18.6443C19.9213 18.8808 20.1745 19.1917 20.3421 19.5493C20.5096 19.907 20.5867 20.3005 20.5658 20.695Z" fill="url(#paint1_linear_1081_396)"/>
<path d="M8.37116 18.2517L4.9775 21.6452C4.92645 21.6945 4.88945 21.7566 4.8703 21.8249C4.85115 21.8933 4.85054 21.9655 4.86853 22.0342C4.88649 22.1028 4.92241 22.1655 4.97259 22.2157C5.02278 22.2659 5.08543 22.3018 5.15409 22.3198C5.22276 22.3377 5.29498 22.3371 5.36332 22.3179C5.43166 22.2988 5.49366 22.2617 5.54296 22.2107L8.93662 18.8172C9.00981 18.7419 9.05041 18.6407 9.04965 18.5357C9.04888 18.4306 9.00682 18.3301 8.93254 18.2558C8.85827 18.1815 8.75774 18.1395 8.6527 18.1387C8.54765 18.1379 8.44652 18.1785 8.37116 18.2517Z" fill="url(#paint2_linear_1081_396)"/>
</g>
</g>
<defs>
<linearGradient id="paint0_linear_1081_396" x1="0.547949" y1="8.39085" x2="23.8402" y2="8.39085" gradientUnits="userSpaceOnUse">
<stop stop-color="#006DF0"/>
<stop offset="1" stop-color="#00E7F0"/>
</linearGradient>
<linearGradient id="paint1_linear_1081_396" x1="0.546769" y1="15.2692" x2="23.839" y2="15.2692" gradientUnits="userSpaceOnUse">
<stop stop-color="#006DF0"/>
<stop offset="1" stop-color="#00E7F0"/>
</linearGradient>
<linearGradient id="paint2_linear_1081_396" x1="0.549844" y1="20.2312" x2="23.8421" y2="20.2312" gradientUnits="userSpaceOnUse">
<stop stop-color="#006DF0"/>
<stop offset="1" stop-color="#00E7F0"/>
</linearGradient>
<clipPath id="clip0_1081_396">
<rect width="24" height="24" fill="white"/>
</clipPath>
</defs>
</svg>
