<svg width="24" height="24" viewBox="0 0 24 24" fill="none" xmlns="http://www.w3.org/2000/svg">
<g clip-path="url(#clip0_1081_471)">
<mask id="path-1-outside-1_1081_471" maskUnits="userSpaceOnUse" x="-0.75" y="-0.97168" width="25" height="26" fill="black">
<rect fill="white" x="-0.75" y="-0.97168" width="25" height="26"/>
<path d="M23.5782 15.708L22.7391 15.2908L23.5173 13.7299C24.0751 12.6143 23.6204 11.2549 22.5048 10.7018C21.3891 10.1439 20.0298 10.5986 19.4766 11.7143L18.6985 13.2752L18.2063 13.0314V7.44394L19.3173 8.55488C19.4204 8.65801 19.5891 8.65801 19.6923 8.55488C19.6923 8.55019 22.6923 5.55488 22.6923 5.55488C22.786 5.46113 22.7954 5.30644 22.711 5.20332L20.2782 2.21738C19.1438 0.825195 17.4657 0.0283203 15.6751 0.0283203H7.3454C5.55009 0.0283203 3.86727 0.825195 2.73759 2.21738L0.309462 5.19863C0.225087 5.30176 0.229774 5.45645 0.328212 5.5502L3.32821 8.55019C3.42665 8.65332 3.60009 8.65332 3.70321 8.55019L4.81415 7.43926V18.708C4.81415 18.8533 4.93134 18.9705 5.07665 18.9705H12.8579C12.7595 19.8752 13.261 20.7846 14.0813 21.1783L19.1954 23.7283C19.8141 24.0377 20.5313 24.0424 21.1548 23.7424C21.7782 23.4424 22.2235 22.8799 22.3688 22.2049C22.5329 21.4643 23.5876 16.6033 23.7235 15.9893C23.7423 15.8814 23.686 15.7596 23.5782 15.708ZM19.9454 11.9486C21.0423 9.93769 23.9954 11.4096 23.0438 13.4955L22.2657 15.0518L19.1673 13.5049L19.9454 11.9486ZM12.9048 0.55332C12.6095 2.08145 10.4016 2.08145 10.1063 0.55332H12.9048ZM9.57665 0.55332C9.91884 2.78457 13.097 2.78457 13.4391 0.55332H14.1516C13.7485 3.72676 9.26727 3.72207 8.86415 0.55332H9.57665ZM5.33446 18.4502V6.91894L6.0704 6.18301C6.17352 6.07988 6.17352 5.91113 6.0704 5.80801C5.96727 5.70488 5.79852 5.70488 5.6954 5.80801L3.50634 7.99707L0.862586 5.34863L3.14071 2.5502C4.17196 1.27988 5.70009 0.55332 7.34071 0.55332H8.32977C8.76102 4.42519 14.2407 4.42051 14.672 0.55332H15.661C17.297 0.55332 18.8251 1.27988 19.8563 2.54551L22.1391 5.34863L19.5001 7.99238L17.311 5.80332C17.0673 5.55957 16.697 5.92988 16.936 6.17832L17.672 6.91426V12.8299C17.6204 12.8439 17.5688 12.8721 17.5313 12.9143L15.2813 15.5252L13.3782 17.733C13.2001 17.9393 13.0548 18.1877 12.9657 18.4502H5.33446ZM21.8485 22.1018C21.647 23.1611 20.3766 23.7705 19.4251 23.2643L14.311 20.7143C13.3313 20.2596 13.0595 18.8768 13.7813 18.0799L15.4876 16.0971L17.1095 14.2174L22.9313 17.1189L21.8485 22.1018ZM23.0485 16.5893L17.4657 13.8049L17.7985 13.4158C17.8126 13.4205 23.1376 16.0783 23.1563 16.0877L23.0485 16.5893ZM16.8938 16.683C16.8235 16.7533 16.8001 16.8611 16.8329 16.9549L17.2688 18.2064L16.486 19.2752C16.4251 19.3549 16.4204 19.4627 16.4626 19.5518C16.5095 19.6408 16.6032 19.6971 16.7016 19.6924L18.0235 19.6643L18.797 20.7377C18.8532 20.8174 18.9563 20.8596 19.0548 20.8455C19.1532 20.8268 19.2329 20.7564 19.2657 20.6627L19.6501 19.3971L20.911 18.9939C21.0048 18.9611 21.0751 18.8814 21.0938 18.783C21.1079 18.6846 21.0657 18.5861 20.9813 18.5252L19.8938 17.7658L19.8985 16.4439C19.8985 16.3455 19.8423 16.2518 19.7532 16.2049C19.6641 16.158 19.5563 16.1721 19.4766 16.233L18.422 17.0346L17.1657 16.6221C17.0673 16.5893 16.9641 16.6127 16.8938 16.683ZM18.3891 17.5783C18.4688 17.6064 18.5626 17.5924 18.6329 17.5361L19.3735 16.9736L19.3688 17.9018C19.3688 17.9908 19.411 18.0705 19.4813 18.1174L20.2454 18.6471L19.3595 18.9283C19.2751 18.9564 19.2141 19.0221 19.186 19.1018L18.9188 19.9924L18.3751 19.2471C18.3235 19.1768 18.2438 19.1393 18.1595 19.1393C18.1501 19.1393 17.236 19.158 17.2266 19.158L17.7751 18.408C17.8266 18.3377 17.8407 18.2486 17.8126 18.1643L17.5079 17.2877L18.3891 17.5783ZM13.5095 11.3158L13.2001 9.51113L14.5126 8.23144C14.5829 8.16113 14.611 8.05801 14.5782 7.95957C14.5454 7.86582 14.4657 7.79551 14.3673 7.78144L12.5532 7.51894L11.7423 5.87832C11.7001 5.78926 11.6063 5.73301 11.5079 5.73301C11.4095 5.73301 11.3157 5.78926 11.2735 5.87832L10.4626 7.51894L8.64852 7.78144C8.55009 7.79551 8.46571 7.86582 8.43759 7.95957C8.40477 8.05332 8.4329 8.16113 8.50321 8.23144L9.81571 9.51113L9.50634 11.3158C9.48759 11.4143 9.52977 11.5127 9.60946 11.5736C9.68915 11.6346 9.79696 11.6393 9.88602 11.5924L11.5079 10.7393L13.1298 11.5924C13.2188 11.6393 13.3266 11.6299 13.4063 11.5736C13.486 11.5127 13.5282 11.4143 13.5095 11.3158ZM12.6563 9.46426L12.9001 10.8799L11.6298 10.2143C11.5548 10.1721 11.461 10.1721 11.386 10.2143L10.111 10.8752L10.3548 9.45957C10.3688 9.37519 10.3407 9.28613 10.2798 9.22519L9.25321 8.22207L10.6735 8.01582C10.7579 8.00176 10.8329 7.95019 10.8704 7.87051L11.5079 6.58144L12.1407 7.87519C12.1782 7.95488 12.2532 8.00644 12.3376 8.02051L13.7579 8.22676L12.7313 9.22988C12.6704 9.29082 12.6423 9.37519 12.6563 9.46426Z"/>
</mask>
<path d="M23.5782 15.708L22.7391 15.2908L23.5173 13.7299C24.0751 12.6143 23.6204 11.2549 22.5048 10.7018C21.3891 10.1439 20.0298 10.5986 19.4766 11.7143L18.6985 13.2752L18.2063 13.0314V7.44394L19.3173 8.55488C19.4204 8.65801 19.5891 8.65801 19.6923 8.55488C19.6923 8.55019 22.6923 5.55488 22.6923 5.55488C22.786 5.46113 22.7954 5.30644 22.711 5.20332L20.2782 2.21738C19.1438 0.825195 17.4657 0.0283203 15.6751 0.0283203H7.3454C5.55009 0.0283203 3.86727 0.825195 2.73759 2.21738L0.309462 5.19863C0.225087 5.30176 0.229774 5.45645 0.328212 5.5502L3.32821 8.55019C3.42665 8.65332 3.60009 8.65332 3.70321 8.55019L4.81415 7.43926V18.708C4.81415 18.8533 4.93134 18.9705 5.07665 18.9705H12.8579C12.7595 19.8752 13.261 20.7846 14.0813 21.1783L19.1954 23.7283C19.8141 24.0377 20.5313 24.0424 21.1548 23.7424C21.7782 23.4424 22.2235 22.8799 22.3688 22.2049C22.5329 21.4643 23.5876 16.6033 23.7235 15.9893C23.7423 15.8814 23.686 15.7596 23.5782 15.708ZM19.9454 11.9486C21.0423 9.93769 23.9954 11.4096 23.0438 13.4955L22.2657 15.0518L19.1673 13.5049L19.9454 11.9486ZM12.9048 0.55332C12.6095 2.08145 10.4016 2.08145 10.1063 0.55332H12.9048ZM9.57665 0.55332C9.91884 2.78457 13.097 2.78457 13.4391 0.55332H14.1516C13.7485 3.72676 9.26727 3.72207 8.86415 0.55332H9.57665ZM5.33446 18.4502V6.91894L6.0704 6.18301C6.17352 6.07988 6.17352 5.91113 6.0704 5.80801C5.96727 5.70488 5.79852 5.70488 5.6954 5.80801L3.50634 7.99707L0.862586 5.34863L3.14071 2.5502C4.17196 1.27988 5.70009 0.55332 7.34071 0.55332H8.32977C8.76102 4.42519 14.2407 4.42051 14.672 0.55332H15.661C17.297 0.55332 18.8251 1.27988 19.8563 2.54551L22.1391 5.34863L19.5001 7.99238L17.311 5.80332C17.0673 5.55957 16.697 5.92988 16.936 6.17832L17.672 6.91426V12.8299C17.6204 12.8439 17.5688 12.8721 17.5313 12.9143L15.2813 15.5252L13.3782 17.733C13.2001 17.9393 13.0548 18.1877 12.9657 18.4502H5.33446ZM21.8485 22.1018C21.647 23.1611 20.3766 23.7705 19.4251 23.2643L14.311 20.7143C13.3313 20.2596 13.0595 18.8768 13.7813 18.0799L15.4876 16.0971L17.1095 14.2174L22.9313 17.1189L21.8485 22.1018ZM23.0485 16.5893L17.4657 13.8049L17.7985 13.4158C17.8126 13.4205 23.1376 16.0783 23.1563 16.0877L23.0485 16.5893ZM16.8938 16.683C16.8235 16.7533 16.8001 16.8611 16.8329 16.9549L17.2688 18.2064L16.486 19.2752C16.4251 19.3549 16.4204 19.4627 16.4626 19.5518C16.5095 19.6408 16.6032 19.6971 16.7016 19.6924L18.0235 19.6643L18.797 20.7377C18.8532 20.8174 18.9563 20.8596 19.0548 20.8455C19.1532 20.8268 19.2329 20.7564 19.2657 20.6627L19.6501 19.3971L20.911 18.9939C21.0048 18.9611 21.0751 18.8814 21.0938 18.783C21.1079 18.6846 21.0657 18.5861 20.9813 18.5252L19.8938 17.7658L19.8985 16.4439C19.8985 16.3455 19.8423 16.2518 19.7532 16.2049C19.6641 16.158 19.5563 16.1721 19.4766 16.233L18.422 17.0346L17.1657 16.6221C17.0673 16.5893 16.9641 16.6127 16.8938 16.683ZM18.3891 17.5783C18.4688 17.6064 18.5626 17.5924 18.6329 17.5361L19.3735 16.9736L19.3688 17.9018C19.3688 17.9908 19.411 18.0705 19.4813 18.1174L20.2454 18.6471L19.3595 18.9283C19.2751 18.9564 19.2141 19.0221 19.186 19.1018L18.9188 19.9924L18.3751 19.2471C18.3235 19.1768 18.2438 19.1393 18.1595 19.1393C18.1501 19.1393 17.236 19.158 17.2266 19.158L17.7751 18.408C17.8266 18.3377 17.8407 18.2486 17.8126 18.1643L17.5079 17.2877L18.3891 17.5783ZM13.5095 11.3158L13.2001 9.51113L14.5126 8.23144C14.5829 8.16113 14.611 8.05801 14.5782 7.95957C14.5454 7.86582 14.4657 7.79551 14.3673 7.78144L12.5532 7.51894L11.7423 5.87832C11.7001 5.78926 11.6063 5.73301 11.5079 5.73301C11.4095 5.73301 11.3157 5.78926 11.2735 5.87832L10.4626 7.51894L8.64852 7.78144C8.55009 7.79551 8.46571 7.86582 8.43759 7.95957C8.40477 8.05332 8.4329 8.16113 8.50321 8.23144L9.81571 9.51113L9.50634 11.3158C9.48759 11.4143 9.52977 11.5127 9.60946 11.5736C9.68915 11.6346 9.79696 11.6393 9.88602 11.5924L11.5079 10.7393L13.1298 11.5924C13.2188 11.6393 13.3266 11.6299 13.4063 11.5736C13.486 11.5127 13.5282 11.4143 13.5095 11.3158ZM12.6563 9.46426L12.9001 10.8799L11.6298 10.2143C11.5548 10.1721 11.461 10.1721 11.386 10.2143L10.111 10.8752L10.3548 9.45957C10.3688 9.37519 10.3407 9.28613 10.2798 9.22519L9.25321 8.22207L10.6735 8.01582C10.7579 8.00176 10.8329 7.95019 10.8704 7.87051L11.5079 6.58144L12.1407 7.87519C12.1782 7.95488 12.2532 8.00644 12.3376 8.02051L13.7579 8.22676L12.7313 9.22988C12.6704 9.29082 12.6423 9.37519 12.6563 9.46426Z" fill="url(#paint0_linear_1081_471)"/>
<path d="M23.5782 15.708L22.7391 15.2908L23.5173 13.7299C24.0751 12.6143 23.6204 11.2549 22.5048 10.7018C21.3891 10.1439 20.0298 10.5986 19.4766 11.7143L18.6985 13.2752L18.2063 13.0314V7.44394L19.3173 8.55488C19.4204 8.65801 19.5891 8.65801 19.6923 8.55488C19.6923 8.55019 22.6923 5.55488 22.6923 5.55488C22.786 5.46113 22.7954 5.30644 22.711 5.20332L20.2782 2.21738C19.1438 0.825195 17.4657 0.0283203 15.6751 0.0283203H7.3454C5.55009 0.0283203 3.86727 0.825195 2.73759 2.21738L0.309462 5.19863C0.225087 5.30176 0.229774 5.45645 0.328212 5.5502L3.32821 8.55019C3.42665 8.65332 3.60009 8.65332 3.70321 8.55019L4.81415 7.43926V18.708C4.81415 18.8533 4.93134 18.9705 5.07665 18.9705H12.8579C12.7595 19.8752 13.261 20.7846 14.0813 21.1783L19.1954 23.7283C19.8141 24.0377 20.5313 24.0424 21.1548 23.7424C21.7782 23.4424 22.2235 22.8799 22.3688 22.2049C22.5329 21.4643 23.5876 16.6033 23.7235 15.9893C23.7423 15.8814 23.686 15.7596 23.5782 15.708ZM19.9454 11.9486C21.0423 9.93769 23.9954 11.4096 23.0438 13.4955L22.2657 15.0518L19.1673 13.5049L19.9454 11.9486ZM12.9048 0.55332C12.6095 2.08145 10.4016 2.08145 10.1063 0.55332H12.9048ZM9.57665 0.55332C9.91884 2.78457 13.097 2.78457 13.4391 0.55332H14.1516C13.7485 3.72676 9.26727 3.72207 8.86415 0.55332H9.57665ZM5.33446 18.4502V6.91894L6.0704 6.18301C6.17352 6.07988 6.17352 5.91113 6.0704 5.80801C5.96727 5.70488 5.79852 5.70488 5.6954 5.80801L3.50634 7.99707L0.862586 5.34863L3.14071 2.5502C4.17196 1.27988 5.70009 0.55332 7.34071 0.55332H8.32977C8.76102 4.42519 14.2407 4.42051 14.672 0.55332H15.661C17.297 0.55332 18.8251 1.27988 19.8563 2.54551L22.1391 5.34863L19.5001 7.99238L17.311 5.80332C17.0673 5.55957 16.697 5.92988 16.936 6.17832L17.672 6.91426V12.8299C17.6204 12.8439 17.5688 12.8721 17.5313 12.9143L15.2813 15.5252L13.3782 17.733C13.2001 17.9393 13.0548 18.1877 12.9657 18.4502H5.33446ZM21.8485 22.1018C21.647 23.1611 20.3766 23.7705 19.4251 23.2643L14.311 20.7143C13.3313 20.2596 13.0595 18.8768 13.7813 18.0799L15.4876 16.0971L17.1095 14.2174L22.9313 17.1189L21.8485 22.1018ZM23.0485 16.5893L17.4657 13.8049L17.7985 13.4158C17.8126 13.4205 23.1376 16.0783 23.1563 16.0877L23.0485 16.5893ZM16.8938 16.683C16.8235 16.7533 16.8001 16.8611 16.8329 16.9549L17.2688 18.2064L16.486 19.2752C16.4251 19.3549 16.4204 19.4627 16.4626 19.5518C16.5095 19.6408 16.6032 19.6971 16.7016 19.6924L18.0235 19.6643L18.797 20.7377C18.8532 20.8174 18.9563 20.8596 19.0548 20.8455C19.1532 20.8268 19.2329 20.7564 19.2657 20.6627L19.6501 19.3971L20.911 18.9939C21.0048 18.9611 21.0751 18.8814 21.0938 18.783C21.1079 18.6846 21.0657 18.5861 20.9813 18.5252L19.8938 17.7658L19.8985 16.4439C19.8985 16.3455 19.8423 16.2518 19.7532 16.2049C19.6641 16.158 19.5563 16.1721 19.4766 16.233L18.422 17.0346L17.1657 16.6221C17.0673 16.5893 16.9641 16.6127 16.8938 16.683ZM18.3891 17.5783C18.4688 17.6064 18.5626 17.5924 18.6329 17.5361L19.3735 16.9736L19.3688 17.9018C19.3688 17.9908 19.411 18.0705 19.4813 18.1174L20.2454 18.6471L19.3595 18.9283C19.2751 18.9564 19.2141 19.0221 19.186 19.1018L18.9188 19.9924L18.3751 19.2471C18.3235 19.1768 18.2438 19.1393 18.1595 19.1393C18.1501 19.1393 17.236 19.158 17.2266 19.158L17.7751 18.408C17.8266 18.3377 17.8407 18.2486 17.8126 18.1643L17.5079 17.2877L18.3891 17.5783ZM13.5095 11.3158L13.2001 9.51113L14.5126 8.23144C14.5829 8.16113 14.611 8.05801 14.5782 7.95957C14.5454 7.86582 14.4657 7.79551 14.3673 7.78144L12.5532 7.51894L11.7423 5.87832C11.7001 5.78926 11.6063 5.73301 11.5079 5.73301C11.4095 5.73301 11.3157 5.78926 11.2735 5.87832L10.4626 7.51894L8.64852 7.78144C8.55009 7.79551 8.46571 7.86582 8.43759 7.95957C8.40477 8.05332 8.4329 8.16113 8.50321 8.23144L9.81571 9.51113L9.50634 11.3158C9.48759 11.4143 9.52977 11.5127 9.60946 11.5736C9.68915 11.6346 9.79696 11.6393 9.88602 11.5924L11.5079 10.7393L13.1298 11.5924C13.2188 11.6393 13.3266 11.6299 13.4063 11.5736C13.486 11.5127 13.5282 11.4143 13.5095 11.3158ZM12.6563 9.46426L12.9001 10.8799L11.6298 10.2143C11.5548 10.1721 11.461 10.1721 11.386 10.2143L10.111 10.8752L10.3548 9.45957C10.3688 9.37519 10.3407 9.28613 10.2798 9.22519L9.25321 8.22207L10.6735 8.01582C10.7579 8.00176 10.8329 7.95019 10.8704 7.87051L11.5079 6.58144L12.1407 7.87519C12.1782 7.95488 12.2532 8.00644 12.3376 8.02051L13.7579 8.22676L12.7313 9.22988C12.6704 9.29082 12.6423 9.37519 12.6563 9.46426Z" stroke="url(#paint1_linear_1081_471)" stroke-width="0.2" mask="url(#path-1-outside-1_1081_471)"/>
</g>
<defs>
<linearGradient id="paint0_linear_1081_471" x1="11.8249" y1="24.1824" x2="12.235" y2="-0.628431" gradientUnits="userSpaceOnUse">
<stop stop-color="#006DF0"/>
<stop offset="1" stop-color="#00E7F0"/>
</linearGradient>
<linearGradient id="paint1_linear_1081_471" x1="12.0028" y1="0.0283203" x2="12.0028" y2="23.9639" gradientUnits="userSpaceOnUse">
<stop stop-color="#00E7F0"/>
<stop offset="1" stop-color="#006DF0"/>
</linearGradient>
<clipPath id="clip0_1081_471">
<rect width="24" height="24" fill="white"/>
</clipPath>
</defs>
</svg>
