<svg width="24" height="24" viewBox="0 0 24 24" fill="none" xmlns="http://www.w3.org/2000/svg">
<path d="M22.8 14.6007H22.784C22.6323 10.166 19.7713 6.28026 15.5816 4.81871C15.492 4.23481 14.9908 3.80296 14.4 3.80071H13.1264C12.9097 3.17861 12.2296 2.85001 11.6076 3.06671C11.4379 3.12585 11.2837 3.22258 11.1566 3.34968C11.0295 3.47679 10.9327 3.63097 10.8736 3.80071H9.6C9.00925 3.80291 8.508 4.23481 8.4184 4.81871C4.2287 6.28026 1.36765 10.166 1.216 14.6007H1.2C0.53725 14.6007 0 15.138 0 15.8007C0 16.4635 0.53725 17.0007 1.2 17.0007V17.5019C1.20174 17.9058 1.32493 18.2998 1.55356 18.6327C1.78219 18.9656 2.10569 19.2221 2.482 19.3687L3.242 19.6603C6.03649 20.7367 9.00536 21.2891 12 21.2899C14.9953 21.2892 17.9648 20.7368 20.76 19.6603L21.52 19.3687C21.8959 19.2218 22.219 18.9652 22.4473 18.6323C22.6755 18.2994 22.7984 17.9055 22.8 17.5019V17.0007C23.4628 17.0007 24 16.4635 24 15.8007C24 15.138 23.4628 14.6007 22.8 14.6007ZM8.4 5.67751V10.6007C8.4 10.7068 8.44214 10.8085 8.51716 10.8836C8.59217 10.9586 8.69391 11.0007 8.8 11.0007C8.90609 11.0007 9.00783 10.9586 9.08284 10.8836C9.15786 10.8085 9.2 10.7068 9.2 10.6007V5.00071C9.2 4.89463 9.24214 4.79288 9.31716 4.71787C9.39217 4.64285 9.49391 4.60071 9.6 4.60071H10.8V12.2007C10.8 12.3068 10.8421 12.4085 10.9172 12.4836C10.9922 12.5586 11.0939 12.6007 11.2 12.6007C11.3061 12.6007 11.4078 12.5586 11.4828 12.4836C11.5579 12.4085 11.6 12.3068 11.6 12.2007V4.20071C11.6 4.09463 11.6421 3.99288 11.7172 3.91787C11.7922 3.84285 11.8939 3.80071 12 3.80071C12.1061 3.80071 12.2078 3.84285 12.2828 3.91787C12.3579 3.99288 12.4 4.09463 12.4 4.20071V12.2007C12.4 12.3068 12.4421 12.4085 12.5172 12.4836C12.5922 12.5586 12.6939 12.6007 12.8 12.6007C12.9061 12.6007 13.0078 12.5586 13.0828 12.4836C13.1579 12.4085 13.2 12.3068 13.2 12.2007V4.60071H14.4C14.5061 4.60071 14.6078 4.64285 14.6828 4.71787C14.7579 4.79288 14.8 4.89463 14.8 5.00071V10.6007C14.8 10.7068 14.8421 10.8085 14.9172 10.8836C14.9922 10.9586 15.0939 11.0007 15.2 11.0007C15.3061 11.0007 15.4078 10.9586 15.4828 10.8836C15.5579 10.8085 15.6 10.7068 15.6 10.6007V5.67751C19.3238 7.10401 21.8362 10.6158 21.984 14.6007H2.016C2.16375 10.6158 4.67625 7.10401 8.4 5.67751ZM22 17.5019C21.9989 17.7442 21.925 17.9806 21.7878 18.1803C21.6506 18.38 21.4565 18.5339 21.2308 18.6219L20.4708 18.9135C15.0183 21.0151 8.9793 21.0151 3.5268 18.9135L2.7668 18.6219C2.5415 18.5335 2.34794 18.3795 2.21122 18.1798C2.0745 17.9801 2.00091 17.7439 2 17.5019V17.0007H22V17.5019ZM22.8 16.2007H1.2C1.09391 16.2007 0.992172 16.1586 0.917157 16.0836C0.842143 16.0085 0.8 15.9068 0.8 15.8007C0.8 15.6946 0.842143 15.5929 0.917157 15.5179C0.992172 15.4429 1.09391 15.4007 1.2 15.4007H22.8C22.9061 15.4007 23.0078 15.4429 23.0828 15.5179C23.1579 15.5929 23.2 15.6946 23.2 15.8007C23.2 15.9068 23.1579 16.0085 23.0828 16.0836C23.0078 16.1586 22.9061 16.2007 22.8 16.2007Z" fill="url(#paint0_linear_1081_436)"/>
<defs>
<linearGradient id="paint0_linear_1081_436" x1="11.8183" y1="21.4569" x2="12.0528" y2="2.49588" gradientUnits="userSpaceOnUse">
<stop stop-color="#006DF0"/>
<stop offset="1" stop-color="#00E7F0"/>
</linearGradient>
</defs>
</svg>
