<svg width="25" height="24" viewBox="0 0 25 24" fill="none" xmlns="http://www.w3.org/2000/svg">
<path d="M1.08841 23.8732C0.553261 23.5271 0.496323 23.4428 0.653452 22.7733C0.862958 21.8624 1.08157 20.9697 1.36623 20.0907C1.69409 19.1166 2.35119 18.2872 3.22446 17.7452C4.09174 17.1627 5.12298 16.8737 6.16665 16.9208C6.6221 16.939 7.07754 16.9208 7.53299 16.9208L7.55121 16.8343C7.47778 16.8017 7.40156 16.7758 7.32349 16.7568C6.23952 16.5701 5.14645 16.4267 4.07387 16.1898C3.26317 16.0099 2.4798 15.7184 1.68049 15.4634C1.54768 15.4236 1.43221 15.3401 1.35284 15.2264C1.27347 15.1127 1.23486 14.9755 1.24326 14.8371C1.24326 12.988 1.60307 11.2209 2.58 9.62226C2.94358 9.01859 3.40538 8.47983 3.94634 8.02819C4.00278 7.97605 4.05602 7.92054 4.10575 7.86196C3.58426 7.14463 3.45218 6.30888 3.37931 5.46175C3.29733 4.48254 3.48406 3.5762 4.2401 2.87253C4.66796 2.49015 5.17846 2.21191 5.73169 2.05956C6.84593 1.75034 7.99581 1.58804 9.1521 1.57678H9.56201C9.57795 1.57678 9.5939 1.56312 9.644 1.54035C9.644 1.33084 9.644 1.1054 9.644 0.879949C9.644 0.69876 9.71597 0.524989 9.84409 0.39687C9.97221 0.26875 10.146 0.196777 10.3272 0.196777C10.5118 0.200191 10.688 0.27443 10.8194 0.404132C10.9508 0.533834 11.0273 0.709074 11.0331 0.893611C11.0331 1.12134 11.0331 1.33084 11.0331 1.56084C11.0781 1.57236 11.1237 1.58148 11.1697 1.58817C12.2355 1.69975 13.3103 1.75668 14.3579 1.93886C15.3302 2.10738 16.2184 2.51045 16.8014 3.38036C17.0572 3.75935 17.2045 4.20115 17.2272 4.65789C17.291 5.7373 17.1862 6.78483 16.6078 7.73444C16.5486 7.83236 16.4734 7.92572 16.4006 8.02819C16.7376 8.44493 17.0837 8.848 17.4048 9.27384C18.5917 10.8078 19.285 12.666 19.3928 14.6026C19.418 14.8153 19.3714 15.0303 19.2604 15.2135C19.1494 15.3966 18.9804 15.5375 18.7803 15.6137C17.7429 16.0807 16.644 16.3966 15.517 16.5519C14.72 16.6771 13.9229 16.7637 13.1054 16.9094C13.1619 16.9255 13.2199 16.9362 13.2785 16.9413H14.6175C16.4962 16.9413 17.9309 17.7611 18.9442 19.337C19.2595 19.8906 19.4818 20.4922 19.6024 21.1178C19.7322 21.6552 19.8597 22.1949 20.0031 22.73C20.1694 23.3495 20.0965 23.5567 19.5614 23.8823L1.08841 23.8732ZM13.2716 3.11847C13.6269 3.69789 13.8064 4.36789 13.7886 5.04729C13.7958 5.17226 13.7685 5.29681 13.7098 5.40734C13.651 5.51787 13.563 5.61013 13.4554 5.67405C13.3477 5.73797 13.2246 5.77109 13.0995 5.7698C12.9743 5.7685 12.8519 5.73283 12.7456 5.6667C12.6292 5.5995 12.5347 5.50018 12.4733 5.38063C12.4119 5.26109 12.3863 5.12638 12.3994 4.99264C12.4299 4.51509 12.2712 4.04474 11.9577 3.68323C11.6557 3.35246 11.2602 3.12132 10.8238 3.02046C10.3874 2.9196 9.93071 2.95378 9.51419 3.11847C8.7126 3.40768 8.28675 4.04531 8.24121 4.99492C8.23577 5.16561 8.18804 5.33228 8.1023 5.47997C8.02398 5.59771 7.90899 5.68631 7.77517 5.73201C7.64135 5.77772 7.49618 5.77797 7.3622 5.73274C7.21224 5.69045 7.08085 5.59897 6.98916 5.47299C6.89747 5.34702 6.8508 5.19388 6.85665 5.03819C6.85514 4.38035 7.02131 3.73298 7.33943 3.15719C6.61583 3.19044 5.91371 3.41348 5.30358 3.80392C5.03967 4.00214 4.86522 4.29699 4.81853 4.62373C4.73083 5.29407 4.801 5.97563 5.02347 6.61403C5.18971 7.11275 5.30585 7.1674 5.8205 7.1674C8.86973 7.1674 11.9212 7.1674 14.9704 7.1674C15.0923 7.17839 15.2144 7.14886 15.3177 7.08339C15.4211 7.01792 15.4999 6.92018 15.542 6.80532C15.8077 6.16469 15.9155 5.46958 15.8563 4.77858C15.8514 4.56341 15.792 4.353 15.6837 4.16702C15.5753 3.98103 15.4216 3.82556 15.2369 3.71511C14.6607 3.35759 13.9935 3.24144 13.2716 3.11847ZM6.40576 12.6943C6.8612 14.3065 8.53725 15.5362 10.3317 15.5362C12.1262 15.5362 13.7772 14.3179 14.2486 12.692C13.5176 12.3846 12.7797 12.1067 12.0715 11.7697C11.5353 11.4958 10.9418 11.353 10.3397 11.353C9.73759 11.353 9.14406 11.4958 8.60784 11.7697C7.89734 12.1022 7.1618 12.3777 6.40576 12.6943ZM6.18942 8.55424V11.2983C6.77467 11.0478 7.32804 10.8246 7.87002 10.5764C8.86062 10.121 9.87172 9.81355 10.983 9.99118C11.723 10.1343 12.439 10.3812 13.1099 10.7244C13.5495 10.9294 14.0049 11.0934 14.4763 11.2892V8.55651L6.18942 8.55424ZM14.4945 21.1041H6.18714V22.4545H14.4945V21.1041ZM6.25091 15.2402L6.29417 15.1696L6.15981 15.0125C5.43609 14.2128 4.98203 13.2059 4.8618 12.1341C4.78893 11.2846 4.80942 10.4261 4.78664 9.57216C4.78664 9.46741 4.78664 9.36266 4.78664 9.26018L4.68417 9.21008C4.38357 9.59721 4.04882 9.96157 3.77327 10.3738C3.03772 11.5283 2.75535 12.8241 2.66654 14.1722C2.66654 14.3293 2.70524 14.3999 2.8601 14.4341C3.31554 14.5548 3.77099 14.7142 4.22644 14.8212C4.88456 14.9715 5.56773 15.0967 6.25091 15.2402ZM14.2782 15.3222C14.3221 15.3257 14.3663 15.3257 14.4103 15.3222C15.3712 15.1218 16.3368 14.951 17.2887 14.7119C18.0197 14.5297 18.0607 14.3931 17.9126 13.6484C17.7027 12.5859 17.2898 11.5738 16.6966 10.6675C16.4689 10.31 16.2047 9.97068 15.9565 9.62226L15.8768 9.6587C15.8768 10.2736 15.8768 10.8907 15.8768 11.5078C15.8663 12.5513 15.5444 13.5679 14.9522 14.4272C14.7382 14.7164 14.5105 14.9965 14.2691 15.3154L14.2782 15.3222ZM18.5047 22.4704C18.4205 22.1175 18.3362 21.7873 18.2633 21.4548C18.1457 20.7075 17.8134 20.0105 17.3069 19.4485C16.9269 19.0266 16.4422 18.7124 15.9018 18.5376V22.4636L18.5047 22.4704ZM4.76614 22.4704V18.5399C3.98251 18.8151 3.32225 19.3599 2.90336 20.0771C2.56633 20.6327 2.47753 21.2658 2.31129 21.8761C2.25891 22.0651 2.22247 22.2564 2.17465 22.4704H4.76614ZM8.98815 16.7773C8.98815 17.4195 8.98815 18.0321 8.98815 18.6447C9.00266 18.7802 9.0521 18.9097 9.13162 19.0204C9.28721 19.2849 9.52482 19.4913 9.80841 19.6085C10.092 19.7256 10.406 19.747 10.7029 19.6694C10.9978 19.5832 11.2565 19.4032 11.4398 19.1566C11.6231 18.91 11.721 18.6103 11.7186 18.3031C11.7186 17.859 11.7186 17.4127 11.7186 16.9664C11.7119 16.8972 11.6997 16.8286 11.6821 16.7614C10.7964 16.9838 9.86963 16.9846 8.98359 16.7637L8.98815 16.7773ZM7.51477 18.36H6.19625V19.6877H7.84497L7.51477 18.36ZM14.5013 18.36H13.176L12.8207 19.6831H14.5013V18.36Z" fill="#0094FF"/>
<path d="M21.9638 23.8732C21.0529 23.5658 20.7682 22.787 20.5428 21.9808C19.9963 20.0497 19.9712 18.0777 20.2354 16.1056C20.3772 15.3483 20.5743 14.6024 20.8252 13.8739C20.8496 13.8234 20.857 13.7665 20.8463 13.7115C20.8356 13.6565 20.8074 13.6064 20.766 13.5687C20.0031 12.7694 19.8733 11.879 20.4039 10.8975C20.7614 10.2348 21.1463 9.58811 21.5425 8.94821C21.8682 8.41306 22.4534 8.39029 22.7699 8.91633C23.2254 9.63138 23.6421 10.3578 24.0201 11.107C24.4756 12.0316 24.2706 12.8696 23.5647 13.5983C23.5328 13.6302 23.5055 13.6644 23.4782 13.6962C24.2775 15.7298 24.3754 17.834 24.1613 19.9769C24.0934 20.8011 23.9251 21.614 23.6603 22.3976C23.4326 23.0489 23.0933 23.6136 22.3987 23.8709L21.9638 23.8732ZM22.1619 22.2905C23.1115 20.7944 23.0728 15.6023 22.1619 14.3453C21.2578 15.8642 21.2442 20.7056 22.1642 22.2997L22.1619 22.2905ZM22.1391 10.5081C21.9114 11.0205 21.6837 11.46 21.5015 11.9223C21.399 12.2024 21.5562 12.4483 21.793 12.6259C21.8885 12.703 22.0056 12.7483 22.128 12.7557C22.2505 12.763 22.3722 12.732 22.4762 12.6669C22.6044 12.6098 22.7099 12.5117 22.7763 12.388C22.8427 12.2644 22.8661 12.1222 22.8428 11.9838C22.7449 11.4759 22.4671 11.0273 22.1414 10.5081H22.1391Z" fill="#0094FF"/>
</svg>
