<svg width="24" height="24" viewBox="0 0 24 24" fill="none" xmlns="http://www.w3.org/2000/svg">
<mask id="path-1-outside-1_1081_467" maskUnits="userSpaceOnUse" x="3.26953" y="-0.623047" width="17" height="25" fill="black">
<rect fill="white" x="3.26953" y="-0.623047" width="17" height="25"/>
<path fill-rule="evenodd" clip-rule="evenodd" d="M11.9986 7.31974C10.95 8.04228 9.56906 8.23781 8.30798 7.71216C6.96083 7.1555 6.09546 5.92661 5.93871 4.57616C5.93223 4.52048 5.94008 4.46406 5.96151 4.41226C5.98294 4.36046 6.01724 4.31499 6.06115 4.28016C7.10092 3.45517 8.52953 3.19079 9.84737 3.69056C9.89212 2.27926 10.6875 1.0603 11.8512 0.417993C11.9003 0.390891 11.9555 0.376766 12.0115 0.376955C12.0676 0.377144 12.1227 0.391642 12.1716 0.419076C13.3235 1.06543 14.1117 2.28472 14.1503 3.69037C15.468 3.19089 16.8965 3.45526 17.9361 4.28016C17.98 4.31499 18.0143 4.36046 18.0357 4.41226C18.0571 4.46406 18.065 4.52048 18.0585 4.57616C17.9018 5.92661 17.0364 7.1555 15.6892 7.71216C14.4282 8.23781 13.0472 8.04228 11.9986 7.31974ZM10.5103 4.01616C10.9679 4.29766 11.3615 4.67184 11.6657 5.11461L11.6699 3.80717C11.6702 3.71982 11.7052 3.63616 11.7672 3.57458C11.8291 3.51301 11.913 3.47856 12.0004 3.47879C12.0877 3.47912 12.1714 3.51411 12.2329 3.57608C12.2945 3.63805 12.329 3.72193 12.3287 3.80929L12.3208 6.28759C13.0348 5.69851 13.4923 4.80971 13.493 3.81315V3.81206C13.4976 2.66872 12.9047 1.66284 12.009 1.08952C11.1068 1.6579 10.5089 2.65922 10.5043 3.80289C10.5039 3.87403 10.506 3.94515 10.5103 4.01616ZM11.5489 6.36778C11.2756 5.48308 10.6256 4.72298 9.7037 4.34218C8.64666 3.90557 7.49221 4.07126 6.61998 4.68468C6.8037 5.73206 7.50323 6.66694 8.55998 7.10345L8.56101 7.10388C9.48078 7.48741 10.4772 7.40792 11.2961 6.97616L9.00624 6.02811C8.92555 5.99465 8.86145 5.93053 8.82801 5.84984C8.79457 5.76915 8.79452 5.67848 8.82788 5.59776C8.86134 5.51706 8.92547 5.45295 9.00617 5.41951C9.08688 5.38606 9.17755 5.38603 9.25828 5.41941L11.5489 6.36778ZM14.1026 4.4283C14.0165 4.96191 13.8187 5.47133 13.5221 5.92322L14.7389 5.41941C14.8197 5.38603 14.9104 5.38606 14.9911 5.41951C15.0718 5.45295 15.1359 5.51706 15.1693 5.59776C15.2027 5.67848 15.2027 5.76915 15.1692 5.84984C15.1358 5.93053 15.0717 5.99465 14.991 6.02811L12.7012 6.97616C13.52 7.40797 14.5165 7.48741 15.4362 7.10388L15.4373 7.10345C16.494 6.66694 17.1935 5.73206 17.3773 4.68463C16.505 4.07126 15.3506 3.90557 14.2935 4.34218C14.229 4.36883 14.1653 4.39756 14.1026 4.4283ZM17.0868 21.1625C17.0875 21.1856 17.0878 21.2088 17.0878 21.2321C17.0878 22.5527 16.0167 23.624 14.6947 23.624C13.3741 23.624 12.3028 22.5228 12.3028 21.2321V10.8251C12.3028 9.57155 13.3742 8.43202 14.6947 8.43202C15.8589 8.43202 16.8283 9.26402 17.0434 10.3645C18.0529 10.6456 18.7941 11.5713 18.7941 12.6702C18.7941 12.8391 18.7765 13.004 18.7431 13.1631C19.3433 13.654 19.7277 14.4008 19.7277 15.2375C19.7277 15.9104 19.4794 16.5251 19.0698 16.9954C19.3446 17.4192 19.5041 17.9245 19.5041 18.467C19.5041 19.8652 18.4461 21.016 17.0868 21.1625ZM16.3408 10.2778C16.1115 9.58849 15.4613 9.09084 14.6947 9.09084C13.7378 9.09084 12.9617 9.91672 12.9617 10.8251V21.2321C12.9617 22.1673 13.7379 22.9652 14.6947 22.9652C15.6527 22.9652 16.429 22.1891 16.429 21.2321C16.429 21.206 16.4284 21.18 16.4273 21.1539C15.8256 21.073 15.2868 20.7951 14.8773 20.3868C14.8155 20.3251 14.7807 20.2414 14.7806 20.1541C14.7805 20.0667 14.815 19.9829 14.8767 19.921C14.9384 19.8592 15.0221 19.8244 15.1095 19.8242C15.1968 19.8241 15.2806 19.8587 15.3425 19.9203C15.7141 20.2908 16.2265 20.5195 16.7928 20.5195C17.9265 20.5195 18.8453 19.6007 18.8453 18.467C18.8453 17.3344 17.9265 16.4158 16.7928 16.4158C16.611 16.4158 16.4634 16.2682 16.4634 16.0864C16.4634 15.9045 16.611 15.757 16.7928 15.757C17.5062 15.757 18.1552 16.0324 18.6392 16.4826C18.9182 16.1276 19.0695 15.689 19.0689 15.2375C19.0689 14.6891 18.8498 14.192 18.4953 13.8282C18.3366 14.1142 18.1216 14.365 17.8632 14.5654C17.7942 14.619 17.7067 14.6429 17.6201 14.6319C17.5334 14.621 17.4546 14.5761 17.4011 14.5071C17.3475 14.4381 17.3236 14.3506 17.3346 14.2639C17.3455 14.1773 17.3904 14.0985 17.4594 14.0449C17.8695 13.7267 18.1353 13.229 18.1353 12.6702C18.1353 11.7121 17.3578 10.9359 16.3997 10.9359C15.9175 10.9359 15.4808 11.1332 15.1659 11.4512C15.1044 11.5133 15.0208 11.5484 14.9334 11.5488C14.8461 11.5492 14.7621 11.515 14.7 11.4535C14.638 11.392 14.6029 11.3084 14.6025 11.2211C14.6021 11.1337 14.6363 11.0497 14.6978 10.9876C15.1193 10.562 15.699 10.2933 16.3408 10.2778ZM4.92741 16.9954C4.51786 16.5251 4.26953 15.9104 4.26953 15.2375C4.26953 14.4008 4.65391 13.654 5.25414 13.163C5.22013 13.001 5.20303 12.8358 5.20313 12.6702C5.20313 11.5713 5.94435 10.6456 6.95381 10.3645C7.16892 9.26402 8.13833 8.43202 9.30252 8.43202C10.623 8.43202 11.6944 9.57155 11.6944 10.8251V21.2321C11.6944 22.5228 10.6231 23.624 9.30252 23.624C7.98054 23.624 6.90939 22.5527 6.90939 21.2321C6.90939 21.2088 6.90972 21.1856 6.91038 21.1625C5.55113 21.016 4.49311 19.8652 4.49311 18.467C4.49311 17.9245 4.65264 17.4192 4.92741 16.9954ZM5.5021 13.8281C5.14751 14.1919 4.92835 14.6891 4.92835 15.2375C4.92772 15.689 5.07906 16.1276 5.358 16.4826C5.84205 16.0324 6.49099 15.757 7.2044 15.757C7.38619 15.757 7.53381 15.9045 7.53381 16.0864C7.53381 16.2682 7.38619 16.4158 7.2044 16.4158C6.07075 16.4158 5.15193 17.3344 5.15193 18.467C5.15193 19.6007 6.07071 20.5195 7.2044 20.5195C7.77075 20.5195 8.28313 20.2908 8.65471 19.9203C8.71658 19.8587 8.80041 19.8241 8.88776 19.8242C8.97511 19.8244 9.05884 19.8592 9.12054 19.921C9.1822 19.9829 9.21677 20.0667 9.21665 20.1541C9.21652 20.2414 9.18172 20.3251 9.11988 20.3868C8.71047 20.7951 8.17165 21.073 7.56996 21.1539C7.56878 21.18 7.5682 21.206 7.56821 21.2321C7.56821 22.1891 8.34454 22.9652 9.30252 22.9652C10.2594 22.9652 11.0356 22.1673 11.0356 21.2321V10.8251C11.0356 9.91672 10.2594 9.09084 9.30252 9.09084C8.53593 9.09084 7.88572 9.58849 7.65645 10.2778C8.29819 10.2933 8.87796 10.562 9.29946 10.9876C9.3609 11.0497 9.39517 11.1337 9.39475 11.2211C9.39433 11.3084 9.35924 11.392 9.2972 11.4535C9.2351 11.515 9.15116 11.5492 9.06381 11.5488C8.97646 11.5484 8.89285 11.5133 8.83137 11.4512C8.5164 11.1332 8.0797 10.9359 7.59748 10.9359C6.63941 10.9359 5.86195 11.7121 5.86195 12.6702C5.86195 13.2289 6.1277 13.7266 6.53875 14.0447C6.60781 14.0982 6.6528 14.1769 6.66384 14.2635C6.67489 14.3502 6.65109 14.4377 6.59767 14.5068C6.54417 14.5758 6.46545 14.6208 6.37881 14.6319C6.29216 14.6429 6.20467 14.6191 6.13555 14.5657C5.87656 14.3653 5.66103 14.1144 5.5021 13.8281Z"/>
</mask>
<path fill-rule="evenodd" clip-rule="evenodd" d="M11.9986 7.31974C10.95 8.04228 9.56906 8.23781 8.30798 7.71216C6.96083 7.1555 6.09546 5.92661 5.93871 4.57616C5.93223 4.52048 5.94008 4.46406 5.96151 4.41226C5.98294 4.36046 6.01724 4.31499 6.06115 4.28016C7.10092 3.45517 8.52953 3.19079 9.84737 3.69056C9.89212 2.27926 10.6875 1.0603 11.8512 0.417993C11.9003 0.390891 11.9555 0.376766 12.0115 0.376955C12.0676 0.377144 12.1227 0.391642 12.1716 0.419076C13.3235 1.06543 14.1117 2.28472 14.1503 3.69037C15.468 3.19089 16.8965 3.45526 17.9361 4.28016C17.98 4.31499 18.0143 4.36046 18.0357 4.41226C18.0571 4.46406 18.065 4.52048 18.0585 4.57616C17.9018 5.92661 17.0364 7.1555 15.6892 7.71216C14.4282 8.23781 13.0472 8.04228 11.9986 7.31974ZM10.5103 4.01616C10.9679 4.29766 11.3615 4.67184 11.6657 5.11461L11.6699 3.80717C11.6702 3.71982 11.7052 3.63616 11.7672 3.57458C11.8291 3.51301 11.913 3.47856 12.0004 3.47879C12.0877 3.47912 12.1714 3.51411 12.2329 3.57608C12.2945 3.63805 12.329 3.72193 12.3287 3.80929L12.3208 6.28759C13.0348 5.69851 13.4923 4.80971 13.493 3.81315V3.81206C13.4976 2.66872 12.9047 1.66284 12.009 1.08952C11.1068 1.6579 10.5089 2.65922 10.5043 3.80289C10.5039 3.87403 10.506 3.94515 10.5103 4.01616ZM11.5489 6.36778C11.2756 5.48308 10.6256 4.72298 9.7037 4.34218C8.64666 3.90557 7.49221 4.07126 6.61998 4.68468C6.8037 5.73206 7.50323 6.66694 8.55998 7.10345L8.56101 7.10388C9.48078 7.48741 10.4772 7.40792 11.2961 6.97616L9.00624 6.02811C8.92555 5.99465 8.86145 5.93053 8.82801 5.84984C8.79457 5.76915 8.79452 5.67848 8.82788 5.59776C8.86134 5.51706 8.92547 5.45295 9.00617 5.41951C9.08688 5.38606 9.17755 5.38603 9.25828 5.41941L11.5489 6.36778ZM14.1026 4.4283C14.0165 4.96191 13.8187 5.47133 13.5221 5.92322L14.7389 5.41941C14.8197 5.38603 14.9104 5.38606 14.9911 5.41951C15.0718 5.45295 15.1359 5.51706 15.1693 5.59776C15.2027 5.67848 15.2027 5.76915 15.1692 5.84984C15.1358 5.93053 15.0717 5.99465 14.991 6.02811L12.7012 6.97616C13.52 7.40797 14.5165 7.48741 15.4362 7.10388L15.4373 7.10345C16.494 6.66694 17.1935 5.73206 17.3773 4.68463C16.505 4.07126 15.3506 3.90557 14.2935 4.34218C14.229 4.36883 14.1653 4.39756 14.1026 4.4283ZM17.0868 21.1625C17.0875 21.1856 17.0878 21.2088 17.0878 21.2321C17.0878 22.5527 16.0167 23.624 14.6947 23.624C13.3741 23.624 12.3028 22.5228 12.3028 21.2321V10.8251C12.3028 9.57155 13.3742 8.43202 14.6947 8.43202C15.8589 8.43202 16.8283 9.26402 17.0434 10.3645C18.0529 10.6456 18.7941 11.5713 18.7941 12.6702C18.7941 12.8391 18.7765 13.004 18.7431 13.1631C19.3433 13.654 19.7277 14.4008 19.7277 15.2375C19.7277 15.9104 19.4794 16.5251 19.0698 16.9954C19.3446 17.4192 19.5041 17.9245 19.5041 18.467C19.5041 19.8652 18.4461 21.016 17.0868 21.1625ZM16.3408 10.2778C16.1115 9.58849 15.4613 9.09084 14.6947 9.09084C13.7378 9.09084 12.9617 9.91672 12.9617 10.8251V21.2321C12.9617 22.1673 13.7379 22.9652 14.6947 22.9652C15.6527 22.9652 16.429 22.1891 16.429 21.2321C16.429 21.206 16.4284 21.18 16.4273 21.1539C15.8256 21.073 15.2868 20.7951 14.8773 20.3868C14.8155 20.3251 14.7807 20.2414 14.7806 20.1541C14.7805 20.0667 14.815 19.9829 14.8767 19.921C14.9384 19.8592 15.0221 19.8244 15.1095 19.8242C15.1968 19.8241 15.2806 19.8587 15.3425 19.9203C15.7141 20.2908 16.2265 20.5195 16.7928 20.5195C17.9265 20.5195 18.8453 19.6007 18.8453 18.467C18.8453 17.3344 17.9265 16.4158 16.7928 16.4158C16.611 16.4158 16.4634 16.2682 16.4634 16.0864C16.4634 15.9045 16.611 15.757 16.7928 15.757C17.5062 15.757 18.1552 16.0324 18.6392 16.4826C18.9182 16.1276 19.0695 15.689 19.0689 15.2375C19.0689 14.6891 18.8498 14.192 18.4953 13.8282C18.3366 14.1142 18.1216 14.365 17.8632 14.5654C17.7942 14.619 17.7067 14.6429 17.6201 14.6319C17.5334 14.621 17.4546 14.5761 17.4011 14.5071C17.3475 14.4381 17.3236 14.3506 17.3346 14.2639C17.3455 14.1773 17.3904 14.0985 17.4594 14.0449C17.8695 13.7267 18.1353 13.229 18.1353 12.6702C18.1353 11.7121 17.3578 10.9359 16.3997 10.9359C15.9175 10.9359 15.4808 11.1332 15.1659 11.4512C15.1044 11.5133 15.0208 11.5484 14.9334 11.5488C14.8461 11.5492 14.7621 11.515 14.7 11.4535C14.638 11.392 14.6029 11.3084 14.6025 11.2211C14.6021 11.1337 14.6363 11.0497 14.6978 10.9876C15.1193 10.562 15.699 10.2933 16.3408 10.2778ZM4.92741 16.9954C4.51786 16.5251 4.26953 15.9104 4.26953 15.2375C4.26953 14.4008 4.65391 13.654 5.25414 13.163C5.22013 13.001 5.20303 12.8358 5.20313 12.6702C5.20313 11.5713 5.94435 10.6456 6.95381 10.3645C7.16892 9.26402 8.13833 8.43202 9.30252 8.43202C10.623 8.43202 11.6944 9.57155 11.6944 10.8251V21.2321C11.6944 22.5228 10.6231 23.624 9.30252 23.624C7.98054 23.624 6.90939 22.5527 6.90939 21.2321C6.90939 21.2088 6.90972 21.1856 6.91038 21.1625C5.55113 21.016 4.49311 19.8652 4.49311 18.467C4.49311 17.9245 4.65264 17.4192 4.92741 16.9954ZM5.5021 13.8281C5.14751 14.1919 4.92835 14.6891 4.92835 15.2375C4.92772 15.689 5.07906 16.1276 5.358 16.4826C5.84205 16.0324 6.49099 15.757 7.2044 15.757C7.38619 15.757 7.53381 15.9045 7.53381 16.0864C7.53381 16.2682 7.38619 16.4158 7.2044 16.4158C6.07075 16.4158 5.15193 17.3344 5.15193 18.467C5.15193 19.6007 6.07071 20.5195 7.2044 20.5195C7.77075 20.5195 8.28313 20.2908 8.65471 19.9203C8.71658 19.8587 8.80041 19.8241 8.88776 19.8242C8.97511 19.8244 9.05884 19.8592 9.12054 19.921C9.1822 19.9829 9.21677 20.0667 9.21665 20.1541C9.21652 20.2414 9.18172 20.3251 9.11988 20.3868C8.71047 20.7951 8.17165 21.073 7.56996 21.1539C7.56878 21.18 7.5682 21.206 7.56821 21.2321C7.56821 22.1891 8.34454 22.9652 9.30252 22.9652C10.2594 22.9652 11.0356 22.1673 11.0356 21.2321V10.8251C11.0356 9.91672 10.2594 9.09084 9.30252 9.09084C8.53593 9.09084 7.88572 9.58849 7.65645 10.2778C8.29819 10.2933 8.87796 10.562 9.29946 10.9876C9.3609 11.0497 9.39517 11.1337 9.39475 11.2211C9.39433 11.3084 9.35924 11.392 9.2972 11.4535C9.2351 11.515 9.15116 11.5492 9.06381 11.5488C8.97646 11.5484 8.89285 11.5133 8.83137 11.4512C8.5164 11.1332 8.0797 10.9359 7.59748 10.9359C6.63941 10.9359 5.86195 11.7121 5.86195 12.6702C5.86195 13.2289 6.1277 13.7266 6.53875 14.0447C6.60781 14.0982 6.6528 14.1769 6.66384 14.2635C6.67489 14.3502 6.65109 14.4377 6.59767 14.5068C6.54417 14.5758 6.46545 14.6208 6.37881 14.6319C6.29216 14.6429 6.20467 14.6191 6.13555 14.5657C5.87656 14.3653 5.66103 14.1144 5.5021 13.8281Z" fill="url(#paint0_linear_1081_467)"/>
<path fill-rule="evenodd" clip-rule="evenodd" d="M11.9986 7.31974C10.95 8.04228 9.56906 8.23781 8.30798 7.71216C6.96083 7.1555 6.09546 5.92661 5.93871 4.57616C5.93223 4.52048 5.94008 4.46406 5.96151 4.41226C5.98294 4.36046 6.01724 4.31499 6.06115 4.28016C7.10092 3.45517 8.52953 3.19079 9.84737 3.69056C9.89212 2.27926 10.6875 1.0603 11.8512 0.417993C11.9003 0.390891 11.9555 0.376766 12.0115 0.376955C12.0676 0.377144 12.1227 0.391642 12.1716 0.419076C13.3235 1.06543 14.1117 2.28472 14.1503 3.69037C15.468 3.19089 16.8965 3.45526 17.9361 4.28016C17.98 4.31499 18.0143 4.36046 18.0357 4.41226C18.0571 4.46406 18.065 4.52048 18.0585 4.57616C17.9018 5.92661 17.0364 7.1555 15.6892 7.71216C14.4282 8.23781 13.0472 8.04228 11.9986 7.31974ZM10.5103 4.01616C10.9679 4.29766 11.3615 4.67184 11.6657 5.11461L11.6699 3.80717C11.6702 3.71982 11.7052 3.63616 11.7672 3.57458C11.8291 3.51301 11.913 3.47856 12.0004 3.47879C12.0877 3.47912 12.1714 3.51411 12.2329 3.57608C12.2945 3.63805 12.329 3.72193 12.3287 3.80929L12.3208 6.28759C13.0348 5.69851 13.4923 4.80971 13.493 3.81315V3.81206C13.4976 2.66872 12.9047 1.66284 12.009 1.08952C11.1068 1.6579 10.5089 2.65922 10.5043 3.80289C10.5039 3.87403 10.506 3.94515 10.5103 4.01616ZM11.5489 6.36778C11.2756 5.48308 10.6256 4.72298 9.7037 4.34218C8.64666 3.90557 7.49221 4.07126 6.61998 4.68468C6.8037 5.73206 7.50323 6.66694 8.55998 7.10345L8.56101 7.10388C9.48078 7.48741 10.4772 7.40792 11.2961 6.97616L9.00624 6.02811C8.92555 5.99465 8.86145 5.93053 8.82801 5.84984C8.79457 5.76915 8.79452 5.67848 8.82788 5.59776C8.86134 5.51706 8.92547 5.45295 9.00617 5.41951C9.08688 5.38606 9.17755 5.38603 9.25828 5.41941L11.5489 6.36778ZM14.1026 4.4283C14.0165 4.96191 13.8187 5.47133 13.5221 5.92322L14.7389 5.41941C14.8197 5.38603 14.9104 5.38606 14.9911 5.41951C15.0718 5.45295 15.1359 5.51706 15.1693 5.59776C15.2027 5.67848 15.2027 5.76915 15.1692 5.84984C15.1358 5.93053 15.0717 5.99465 14.991 6.02811L12.7012 6.97616C13.52 7.40797 14.5165 7.48741 15.4362 7.10388L15.4373 7.10345C16.494 6.66694 17.1935 5.73206 17.3773 4.68463C16.505 4.07126 15.3506 3.90557 14.2935 4.34218C14.229 4.36883 14.1653 4.39756 14.1026 4.4283ZM17.0868 21.1625C17.0875 21.1856 17.0878 21.2088 17.0878 21.2321C17.0878 22.5527 16.0167 23.624 14.6947 23.624C13.3741 23.624 12.3028 22.5228 12.3028 21.2321V10.8251C12.3028 9.57155 13.3742 8.43202 14.6947 8.43202C15.8589 8.43202 16.8283 9.26402 17.0434 10.3645C18.0529 10.6456 18.7941 11.5713 18.7941 12.6702C18.7941 12.8391 18.7765 13.004 18.7431 13.1631C19.3433 13.654 19.7277 14.4008 19.7277 15.2375C19.7277 15.9104 19.4794 16.5251 19.0698 16.9954C19.3446 17.4192 19.5041 17.9245 19.5041 18.467C19.5041 19.8652 18.4461 21.016 17.0868 21.1625ZM16.3408 10.2778C16.1115 9.58849 15.4613 9.09084 14.6947 9.09084C13.7378 9.09084 12.9617 9.91672 12.9617 10.8251V21.2321C12.9617 22.1673 13.7379 22.9652 14.6947 22.9652C15.6527 22.9652 16.429 22.1891 16.429 21.2321C16.429 21.206 16.4284 21.18 16.4273 21.1539C15.8256 21.073 15.2868 20.7951 14.8773 20.3868C14.8155 20.3251 14.7807 20.2414 14.7806 20.1541C14.7805 20.0667 14.815 19.9829 14.8767 19.921C14.9384 19.8592 15.0221 19.8244 15.1095 19.8242C15.1968 19.8241 15.2806 19.8587 15.3425 19.9203C15.7141 20.2908 16.2265 20.5195 16.7928 20.5195C17.9265 20.5195 18.8453 19.6007 18.8453 18.467C18.8453 17.3344 17.9265 16.4158 16.7928 16.4158C16.611 16.4158 16.4634 16.2682 16.4634 16.0864C16.4634 15.9045 16.611 15.757 16.7928 15.757C17.5062 15.757 18.1552 16.0324 18.6392 16.4826C18.9182 16.1276 19.0695 15.689 19.0689 15.2375C19.0689 14.6891 18.8498 14.192 18.4953 13.8282C18.3366 14.1142 18.1216 14.365 17.8632 14.5654C17.7942 14.619 17.7067 14.6429 17.6201 14.6319C17.5334 14.621 17.4546 14.5761 17.4011 14.5071C17.3475 14.4381 17.3236 14.3506 17.3346 14.2639C17.3455 14.1773 17.3904 14.0985 17.4594 14.0449C17.8695 13.7267 18.1353 13.229 18.1353 12.6702C18.1353 11.7121 17.3578 10.9359 16.3997 10.9359C15.9175 10.9359 15.4808 11.1332 15.1659 11.4512C15.1044 11.5133 15.0208 11.5484 14.9334 11.5488C14.8461 11.5492 14.7621 11.515 14.7 11.4535C14.638 11.392 14.6029 11.3084 14.6025 11.2211C14.6021 11.1337 14.6363 11.0497 14.6978 10.9876C15.1193 10.562 15.699 10.2933 16.3408 10.2778ZM4.92741 16.9954C4.51786 16.5251 4.26953 15.9104 4.26953 15.2375C4.26953 14.4008 4.65391 13.654 5.25414 13.163C5.22013 13.001 5.20303 12.8358 5.20313 12.6702C5.20313 11.5713 5.94435 10.6456 6.95381 10.3645C7.16892 9.26402 8.13833 8.43202 9.30252 8.43202C10.623 8.43202 11.6944 9.57155 11.6944 10.8251V21.2321C11.6944 22.5228 10.6231 23.624 9.30252 23.624C7.98054 23.624 6.90939 22.5527 6.90939 21.2321C6.90939 21.2088 6.90972 21.1856 6.91038 21.1625C5.55113 21.016 4.49311 19.8652 4.49311 18.467C4.49311 17.9245 4.65264 17.4192 4.92741 16.9954ZM5.5021 13.8281C5.14751 14.1919 4.92835 14.6891 4.92835 15.2375C4.92772 15.689 5.07906 16.1276 5.358 16.4826C5.84205 16.0324 6.49099 15.757 7.2044 15.757C7.38619 15.757 7.53381 15.9045 7.53381 16.0864C7.53381 16.2682 7.38619 16.4158 7.2044 16.4158C6.07075 16.4158 5.15193 17.3344 5.15193 18.467C5.15193 19.6007 6.07071 20.5195 7.2044 20.5195C7.77075 20.5195 8.28313 20.2908 8.65471 19.9203C8.71658 19.8587 8.80041 19.8241 8.88776 19.8242C8.97511 19.8244 9.05884 19.8592 9.12054 19.921C9.1822 19.9829 9.21677 20.0667 9.21665 20.1541C9.21652 20.2414 9.18172 20.3251 9.11988 20.3868C8.71047 20.7951 8.17165 21.073 7.56996 21.1539C7.56878 21.18 7.5682 21.206 7.56821 21.2321C7.56821 22.1891 8.34454 22.9652 9.30252 22.9652C10.2594 22.9652 11.0356 22.1673 11.0356 21.2321V10.8251C11.0356 9.91672 10.2594 9.09084 9.30252 9.09084C8.53593 9.09084 7.88572 9.58849 7.65645 10.2778C8.29819 10.2933 8.87796 10.562 9.29946 10.9876C9.3609 11.0497 9.39517 11.1337 9.39475 11.2211C9.39433 11.3084 9.35924 11.392 9.2972 11.4535C9.2351 11.515 9.15116 11.5492 9.06381 11.5488C8.97646 11.5484 8.89285 11.5133 8.83137 11.4512C8.5164 11.1332 8.0797 10.9359 7.59748 10.9359C6.63941 10.9359 5.86195 11.7121 5.86195 12.6702C5.86195 13.2289 6.1277 13.7266 6.53875 14.0447C6.60781 14.0982 6.6528 14.1769 6.66384 14.2635C6.67489 14.3502 6.65109 14.4377 6.59767 14.5068C6.54417 14.5758 6.46545 14.6208 6.37881 14.6319C6.29216 14.6429 6.20467 14.6191 6.13555 14.5657C5.87656 14.3653 5.66103 14.1144 5.5021 13.8281Z" stroke="url(#paint1_linear_1081_467)" stroke-width="0.2" mask="url(#path-1-outside-1_1081_467)"/>
<defs>
<linearGradient id="paint0_linear_1081_467" x1="11.8816" y1="23.8363" x2="12.4697" y2="-0.253134" gradientUnits="userSpaceOnUse">
<stop stop-color="#006DF0"/>
<stop offset="1" stop-color="#00E7F0"/>
</linearGradient>
<linearGradient id="paint1_linear_1081_467" x1="11.9986" y1="0.376953" x2="11.9986" y2="23.624" gradientUnits="userSpaceOnUse">
<stop stop-color="#00E7F0"/>
<stop offset="1" stop-color="#006DF0"/>
</linearGradient>
</defs>
</svg>
