<svg width="24" height="24" viewBox="0 0 24 24" fill="none" xmlns="http://www.w3.org/2000/svg">
<g clip-path="url(#clip0_1081_411)">
<mask id="mask0_1081_411" style="mask-type:luminance" maskUnits="userSpaceOnUse" x="0" y="0" width="24" height="24">
<path d="M24 0H0V24H24V0Z" fill="white"/>
</mask>
<g mask="url(#mask0_1081_411)">
<path d="M23.649 21.0298L18.9622 16.343L20.8715 14.9101C20.9341 14.8631 20.9817 14.7988 21.0084 14.7252C21.0351 14.6516 21.0398 14.5717 21.0219 14.4955C21.004 14.4192 20.9643 14.3498 20.9076 14.2958C20.8509 14.2417 20.7797 14.2053 20.7027 14.191L19.3185 13.9332C19.3236 13.8647 19.3301 13.7965 19.3301 13.7262V7.48584L22.8511 5.93322C22.996 5.8693 23.1189 5.76413 23.2045 5.63083C23.2901 5.49753 23.3345 5.34199 23.3323 5.18361C23.33 5.02526 23.2812 4.87107 23.1919 4.74025C23.1027 4.60944 22.9769 4.50779 22.8302 4.44797L12.1219 0.0896673C11.8296 -0.0298891 11.5022 -0.0298891 11.2099 0.0896673L0.502159 4.44797C0.355506 4.50778 0.229698 4.60942 0.140416 4.74024C0.0511345 4.87106 0.00232846 5.02526 8.12522e-05 5.18362C-0.00216596 5.34198 0.0422451 5.49751 0.127779 5.6308C0.213312 5.7641 0.336186 5.86928 0.481083 5.93322L2.05715 6.62828C1.7398 6.99662 1.56767 7.46804 1.573 7.9542L1.58188 14.5321C1.35943 14.6098 1.16473 14.7512 1.022 14.9387C0.879278 15.1262 0.794822 15.3515 0.779143 15.5866C0.763463 15.8217 0.817253 16.0562 0.93382 16.261C1.05039 16.4657 1.22459 16.6317 1.43475 16.7383L0.404493 19.1393C0.37823 19.2006 0.367574 19.2675 0.373478 19.334C0.379382 19.4005 0.401661 19.4644 0.438326 19.5202C0.475125 19.5759 0.52515 19.6216 0.583927 19.6532C0.642703 19.6848 0.708399 19.7014 0.775139 19.7014H3.19535C3.33109 19.7014 3.45754 19.6332 3.53217 19.5202C3.56889 19.4645 3.5912 19.4005 3.59711 19.334C3.60303 19.2675 3.59235 19.2006 3.56605 19.1393L2.53711 16.7384C2.74746 16.6318 2.92179 16.4657 3.03839 16.2607C3.15498 16.0558 3.20868 15.821 3.19278 15.5857C3.177 15.3505 3.09233 15.1251 2.94933 14.9376C2.80634 14.7501 2.61133 14.6089 2.38861 14.5314L2.37818 7.95012C2.3761 7.76242 2.41807 7.57686 2.50071 7.40832C2.58336 7.23979 2.70438 7.09299 2.85405 6.97971L4.00214 7.48589V13.7277C3.99619 15.0522 4.91779 16.2003 6.21215 16.4809L6.67754 16.5859C8.31346 16.9493 9.98421 17.1327 11.66 17.1329C12.1873 17.1329 12.7153 17.1098 13.2426 17.0732L13.9581 20.9361C13.9724 21.0132 14.0088 21.0844 14.0628 21.1411C14.1169 21.1978 14.1864 21.2375 14.2626 21.2554C14.4184 21.2918 14.5813 21.2327 14.6772 21.1047L16.1101 19.1948L20.7969 23.882C20.9542 24.0394 21.2097 24.0394 21.3672 23.882L23.649 21.6001C23.6865 21.5626 23.7162 21.5182 23.7365 21.4693C23.7567 21.4204 23.7672 21.3679 23.7672 21.315C23.7672 21.262 23.7567 21.2096 23.7365 21.1607C23.7162 21.1117 23.6865 21.0672 23.649 21.0298ZM2.38861 15.6676C2.38861 15.8906 2.20801 16.071 1.98525 16.071C1.76249 16.071 1.58188 15.8906 1.58188 15.6676C1.58188 15.5606 1.62437 15.458 1.70002 15.3824C1.77567 15.3068 1.87827 15.2643 1.98525 15.2643C2.09223 15.2643 2.19482 15.3068 2.27047 15.3824C2.34612 15.458 2.38861 15.5606 2.38861 15.6676ZM1.3871 18.8946L1.98525 17.4986L2.58339 18.8946H1.3871ZM11.5137 0.83716C11.6113 0.797573 11.7205 0.797573 11.8182 0.83716L22.526 5.19506L11.8274 9.91115C11.7763 9.93393 11.7209 9.94571 11.6649 9.94571C11.6089 9.94571 11.5536 9.93393 11.5024 9.91115L3.83842 6.53142L9.90096 4.06371L9.59687 3.31702L2.82743 6.07168C2.82234 6.07168 2.8174 6.07682 2.8123 6.07914L0.806249 5.1946L11.5137 0.83716ZM6.85386 15.7984L6.38882 15.6932C5.4637 15.4937 4.80469 14.6738 4.80883 13.7276V7.84232L11.178 10.6498C11.3319 10.7171 11.4981 10.7518 11.6661 10.7518C11.8341 10.7518 12.0003 10.7171 12.1542 10.6498L18.5234 7.84232V13.7276C18.5234 13.7477 18.5206 13.7678 18.5202 13.7869L13.0021 12.7635C12.9377 12.7516 12.8714 12.7555 12.8089 12.7749C12.7464 12.7943 12.6895 12.8285 12.6432 12.8748C12.5969 12.921 12.5626 12.9779 12.5432 13.0404C12.5238 13.1028 12.5198 13.1691 12.5318 13.2334L13.0964 16.2737C11.0035 16.411 8.9018 16.251 6.85386 15.7984ZM21.082 23.0264L16.3513 18.2956C16.2757 18.22 16.1731 18.1775 16.0661 18.1775H16.0374C15.9797 18.1818 15.9236 18.1984 15.8728 18.2262C15.8221 18.254 15.7779 18.2924 15.7433 18.3388L14.5836 19.8849L13.432 13.6649L19.653 14.817L18.1072 15.9767C18.061 16.0113 18.0228 16.0555 17.9951 16.1062C17.9675 16.1569 17.951 16.2129 17.9469 16.2705C17.9427 16.3281 17.951 16.3859 17.9711 16.44C17.9912 16.4941 18.0227 16.5433 18.0635 16.5842L22.7934 21.3148L21.082 23.0264Z" fill="url(#paint0_linear_1081_411)"/>
</g>
</g>
<defs>
<linearGradient id="paint0_linear_1081_411" x1="11.7036" y1="24.2191" x2="12.1114" y2="-0.658632" gradientUnits="userSpaceOnUse">
<stop stop-color="#006DF0"/>
<stop offset="1" stop-color="#00E7F0"/>
</linearGradient>
<clipPath id="clip0_1081_411">
<rect width="24" height="24" fill="white"/>
</clipPath>
</defs>
</svg>
