<svg width="30" height="21" viewBox="0 0 30 21" fill="none" xmlns="http://www.w3.org/2000/svg">
<path d="M25.7849 12.3792C26.2304 12.609 26.5582 12.7518 26.8607 12.9395C28.5724 14.0125 29.5473 15.5336 29.6033 17.5842C29.6229 18.3434 29.6285 19.1082 29.6033 19.8674C29.5809 20.4276 29.3231 20.6658 28.7629 20.7078C28.4071 20.7414 28.0457 20.7302 27.6899 20.7302C20.8358 20.747 13.9818 20.7629 7.12769 20.7778C5.47206 20.7778 3.81357 20.8086 2.15794 20.817C1.84513 20.8247 1.53225 20.8069 1.22232 20.7638C1.11945 20.7567 1.01898 20.7293 0.926794 20.6831C0.834606 20.6369 0.752534 20.5729 0.685297 20.4947C0.61806 20.4165 0.566988 20.3257 0.535105 20.2277C0.503221 20.1296 0.491137 20.0262 0.49954 19.9234C0.441129 18.9847 0.445823 18.0432 0.513561 17.1052C0.597311 16.2764 0.873384 15.4786 1.31985 14.7754C1.76632 14.0721 2.37083 13.4828 3.08522 13.0544C3.42419 12.8387 3.78557 12.6622 4.20578 12.4353C3.99568 12.0907 3.78559 11.7601 3.5951 11.4212C3.20407 10.7381 2.97368 9.975 2.92135 9.18968C2.86903 8.40435 2.99611 7.61742 3.29307 6.88853C3.59003 6.15963 4.04906 5.5079 4.63529 4.98272C5.22152 4.45755 5.91959 4.07272 6.67663 3.8574C7.15368 3.7414 7.64242 3.6803 8.13334 3.6753C8.53114 3.65289 8.93455 3.70331 9.40238 3.72292L9.99351 2.8825C10.5481 2.06199 11.2941 1.38884 12.1671 0.921162C13.0401 0.453481 14.0139 0.205328 15.0042 0.198158C15.9946 0.190988 16.9718 0.425015 17.8514 0.880007C18.7311 1.335 19.4868 1.99729 20.0533 2.80968C20.2354 3.0618 20.3979 3.32793 20.5968 3.63048C20.9161 3.59687 21.2187 3.55204 21.524 3.53523C23.5634 3.42878 25.2219 4.17114 26.3424 5.894C27.463 7.61686 27.463 9.43216 26.5301 11.2503C26.4264 11.4492 26.2836 11.6257 26.1632 11.8105C26.0427 11.9954 25.9446 12.1159 25.7849 12.3792ZM19.2857 6.01447C18.4453 5.83799 17.6048 6.09291 16.8709 5.6615C16.8087 5.64139 16.7428 5.63523 16.6779 5.64346C16.613 5.65169 16.5508 5.67411 16.4955 5.70911C16.0025 6.00606 15.459 5.93882 14.9295 5.94723C13.7698 5.96123 12.61 5.96124 11.4502 5.98645C11.207 6.00721 10.9661 6.0494 10.7302 6.11252C10.6752 6.70616 10.7463 7.30473 10.9389 7.86895C11.1316 8.43316 11.4414 8.95024 11.848 9.38624C12.2546 9.82224 12.7489 10.1673 13.2983 10.3988C13.8478 10.6302 14.44 10.7428 15.036 10.7292C17.5993 10.6984 19.5042 8.65338 19.2857 6.00887V6.01447ZM11.2317 12.6594C11.1553 13.3813 11.1329 14.108 11.1645 14.8333C11.1645 15.5056 11.1393 16.1779 11.1645 16.8503C11.1897 17.5226 11.128 18.251 11.2625 18.9345C12.764 19.1642 17.8402 19.125 18.8879 18.8701C18.8879 17.8672 18.9272 16.8419 18.8879 15.8194C18.8487 14.7969 19.0476 13.6903 18.7451 12.6538C18.2632 12.5557 17.843 12.3176 17.3444 12.6958C17.4004 13.3877 17.4368 14.0965 17.5292 14.808C17.5648 15.0288 17.547 15.2549 17.4773 15.4674C17.4076 15.6799 17.2881 15.8726 17.1287 16.0295C16.6608 16.5141 16.221 17.024 15.728 17.489C15.2349 17.954 14.8231 17.968 14.3273 17.5254C14.1592 17.3769 14.0303 17.1836 13.8538 17.0492C12.7332 16.1779 12.2318 15.0882 12.5652 13.6595C12.6464 13.3009 12.7836 12.8611 12.3886 12.4661L11.2317 12.6594ZM6.64018 14.0769C3.78556 13.5362 1.53324 16.0883 2.30923 18.9849C3.79397 19.1642 4.9818 19.1334 5.85304 18.8813C5.90346 18.0941 5.88941 17.2901 6.01828 16.5085C6.15554 15.6821 6.42727 14.8837 6.64018 14.0741V14.0769ZM23.3869 13.9985C23.6447 14.8921 23.908 15.6541 24.0789 16.4357C24.2498 17.2172 24.0396 18.1165 24.2217 18.9149C25.7233 19.1362 27.0231 19.1054 27.8636 18.8449C28.0569 17.3545 27.8384 15.9818 26.6618 14.9229C26.2365 14.5077 25.714 14.2053 25.1421 14.0434C24.5702 13.8814 23.9668 13.865 23.3869 13.9956V13.9985ZM25.3788 8.7122C23.8359 8.52289 22.2764 8.51255 20.7312 8.68139C20.5043 9.05398 20.283 9.44057 20.0337 9.80195C19.7843 10.1633 19.5322 10.4967 19.2885 10.8301C20.0617 11.2531 20.7565 11.6509 21.4708 12.0123C21.7018 12.1376 21.9616 12.2004 22.2244 12.1944C24.0649 12.0543 25.3395 10.6312 25.3788 8.70942V8.7122ZM4.64842 8.8831C4.7969 10.6928 5.72132 11.8666 7.2733 12.2448C7.46385 12.3116 7.66609 12.3386 7.8675 12.3241C8.06891 12.3097 8.26527 12.2541 8.44433 12.1607C9.20631 11.7097 9.9823 11.2783 10.7639 10.8301L9.30431 8.79905C7.75365 8.64197 6.18986 8.66925 4.64562 8.8803L4.64842 8.8831ZM11.1813 4.25519C12.6941 4.25519 13.9826 4.25519 15.2573 4.25519C15.5219 4.23433 15.7762 4.14344 15.9941 3.99186C16.2394 3.79519 16.5472 3.69322 16.8614 3.70454C17.1756 3.71585 17.4752 3.8397 17.7057 4.0535C17.8457 4.17856 18.0236 4.25313 18.211 4.26531C18.3983 4.2775 18.5844 4.2266 18.7395 4.12073C17.9495 2.62478 16.63 1.97206 15.0472 1.94965C13.4644 1.92723 12.1366 2.59676 11.1813 4.25519ZM22.3869 19.0101C22.527 17.559 22.4765 16.2928 21.8798 15.0882C21.6709 14.5689 21.2694 14.1504 20.7593 13.92C20.5379 15.2619 20.58 18.1641 20.8321 18.9989L22.3869 19.0101ZM9.37154 13.7631C7.77474 15.2199 7.29855 17.0548 7.87564 19.0354C8.37148 19.0354 8.8897 19.2034 9.37154 18.9037V13.7631ZM24.7428 6.81847C23.7091 5.37856 22.639 5.02277 21.1795 5.51021C21.1795 5.93882 21.0618 6.38986 21.3671 6.81847H24.7428ZM8.8365 5.47379C7.08282 5.26929 6.12755 5.6811 5.47482 6.83248C6.58677 7.03387 7.72627 7.02913 8.8365 6.81847V5.47379ZM15.078 15.6065C15.6831 15.2591 15.9017 14.8137 15.8092 14.2198C15.7336 13.7407 15.6635 13.2589 15.5795 12.7798C15.5795 12.7042 15.4786 12.6426 15.375 12.5137L14.5037 12.5753C14.4253 13.172 14.3664 13.6959 14.2796 14.2141C14.1563 14.8781 14.4141 15.3179 15.064 15.6065H15.078Z" fill="#0094FF"/>
</svg>
