<svg width="24" height="24" viewBox="0 0 24 24" fill="none" xmlns="http://www.w3.org/2000/svg">
<path d="M23.6 11.8H23.2V9.8C23.2 9.13725 22.6628 8.6 22 8.6H15.9448C15.8534 8.59991 15.7657 8.56355 15.7011 8.49891C15.6365 8.43427 15.6001 8.34662 15.6 8.2552V2.2C15.6 1.53725 15.0628 1 14.4 1H9.6C8.93725 1 8.4 1.53725 8.4 2.2V8.2552C8.39991 8.34662 8.36355 8.43427 8.29891 8.49891C8.23427 8.56355 8.14662 8.59991 8.0552 8.6H2C1.33725 8.6 0.8 9.13725 0.8 9.8V11.8H0.4C0.293913 11.8 0.192172 11.8421 0.117157 11.9172C0.0421427 11.9922 0 12.0939 0 12.2C0 12.3061 0.0421427 12.4078 0.117157 12.4828C0.192172 12.5579 0.293913 12.6 0.4 12.6H0.8V14.6C0.8 15.2628 1.33725 15.8 2 15.8H8.0552C8.14662 15.8001 8.23427 15.8365 8.29891 15.9011C8.36355 15.9657 8.39991 16.0534 8.4 16.1448V22.2C8.4 22.8628 8.93725 23.4 9.6 23.4H14.4C15.0628 23.4 15.6 22.8628 15.6 22.2V16.1448C15.6001 16.0534 15.6365 15.9657 15.7011 15.9011C15.7657 15.8365 15.8534 15.8001 15.9448 15.8H22C22.6628 15.8 23.2 15.2628 23.2 14.6V12.6H23.6C23.7061 12.6 23.8078 12.5579 23.8828 12.4828C23.9579 12.4078 24 12.3061 24 12.2C24 12.0939 23.9579 11.9922 23.8828 11.9172C23.8078 11.8421 23.7061 11.8 23.6 11.8ZM1.6 9.8C1.6 9.69391 1.64214 9.59217 1.71716 9.51716C1.79217 9.44214 1.89391 9.4 2 9.4H8.0552C8.6872 9.39935 9.19935 8.8872 9.2 8.2552V2.2C9.2 2.09391 9.24214 1.99217 9.31716 1.91716C9.39217 1.84214 9.49391 1.8 9.6 1.8H14.4C14.5061 1.8 14.6078 1.84214 14.6828 1.91716C14.7579 1.99217 14.8 2.09391 14.8 2.2V8.2552C14.8007 8.8872 15.3128 9.39935 15.9448 9.4H22C22.1061 9.4 22.2078 9.44214 22.2828 9.51716C22.3579 9.59217 22.4 9.69391 22.4 9.8V11.8H18.9544C18.8849 11.7999 18.8166 11.818 18.7562 11.8524C18.6958 11.8867 18.6454 11.9362 18.61 11.996L17.8612 13.2592L16.6324 10.4936C16.6015 10.4241 16.5514 10.3649 16.488 10.3229C16.4246 10.2809 16.3506 10.2579 16.2745 10.2564C16.1985 10.255 16.1236 10.2753 16.0587 10.3149C15.9938 10.3545 15.9415 10.4118 15.908 10.48L14.4332 13.4732L12.386 7.44C12.3592 7.36082 12.3082 7.29204 12.2402 7.24332C12.1723 7.19461 12.0908 7.16841 12.0072 7.1684C11.9235 7.1686 11.8419 7.19508 11.774 7.24409C11.7061 7.29311 11.6553 7.36219 11.6288 7.4416L10.1748 11.8H8.12C8.06694 11.8001 8.01444 11.8108 7.96554 11.8314C7.91665 11.852 7.87234 11.8821 7.8352 11.92L6.542 13.232L6.2296 10.2436C6.22211 10.1716 6.19522 10.103 6.1518 10.0451C6.10839 9.98718 6.05008 9.94213 5.98308 9.91475C5.91608 9.88737 5.84291 9.87868 5.77136 9.88961C5.69981 9.90053 5.63257 9.93067 5.5768 9.9768L3.372 11.8H1.6V9.8ZM22.4 14.6C22.4 14.7061 22.3579 14.8078 22.2828 14.8828C22.2078 14.9579 22.1061 15 22 15H15.9448C15.3128 15.0007 14.8007 15.5128 14.8 16.1448V22.2C14.8 22.3061 14.7579 22.4078 14.6828 22.4828C14.6078 22.5579 14.5061 22.6 14.4 22.6H9.6C9.49391 22.6 9.39217 22.5579 9.31716 22.4828C9.24214 22.4078 9.2 22.3061 9.2 22.2V16.1448C9.19935 15.5128 8.6872 15.0007 8.0552 15H2C1.89391 15 1.79217 14.9579 1.71716 14.8828C1.64214 14.8078 1.6 14.7061 1.6 14.6V12.6H3.516C3.6091 12.5999 3.69929 12.5675 3.7712 12.5084L5.5112 11.0684L5.834 14.1572C5.8418 14.2326 5.87087 14.3042 5.91781 14.3638C5.96476 14.4233 6.02765 14.4682 6.09917 14.4934C6.17068 14.5185 6.24787 14.5229 6.32174 14.5058C6.39561 14.4888 6.46312 14.4511 6.5164 14.3972L8.2872 12.6H10.4632C10.5471 12.5999 10.6289 12.5735 10.6969 12.5244C10.765 12.4753 10.8159 12.406 10.8424 12.3264L12.0104 8.8232L13.986 14.644C14.0114 14.719 14.0585 14.7847 14.1213 14.833C14.1841 14.8812 14.2598 14.9096 14.3388 14.9148H14.3648C14.4397 14.915 14.5131 14.8942 14.5768 14.8548C14.6404 14.8153 14.6917 14.7588 14.7248 14.6916L16.248 11.6L17.4448 14.2928C17.4747 14.3599 17.5225 14.4174 17.583 14.4591C17.6435 14.5008 17.7143 14.5251 17.7876 14.5292C17.8609 14.5334 17.934 14.5172 17.9988 14.4826C18.0636 14.4479 18.1175 14.3961 18.1548 14.3328L19.182 12.6H22.4V14.6Z" fill="url(#paint0_linear_1081_408)"/>
<defs>
<linearGradient id="paint0_linear_1081_408" x1="11.8183" y1="23.6045" x2="12.1701" y2="0.384369" gradientUnits="userSpaceOnUse">
<stop stop-color="#006DF0"/>
<stop offset="1" stop-color="#00E7F0"/>
</linearGradient>
</defs>
</svg>
