<svg width="24" height="24" viewBox="0 0 24 24" fill="none" xmlns="http://www.w3.org/2000/svg">
<g clip-path="url(#clip0_1081_418)">
<mask id="mask0_1081_418" style="mask-type:luminance" maskUnits="userSpaceOnUse" x="0" y="0" width="24" height="24">
<path d="M24 0H0V24H24V0Z" fill="white"/>
</mask>
<g mask="url(#mask0_1081_418)">
<path d="M23.4081 0H0.396748C0.291524 0 0.19061 0.0418002 0.116205 0.116205C0.0418002 0.19061 0 0.291524 0 0.396748V16.2667C0 16.3719 0.0418002 16.4728 0.116205 16.5472C0.19061 16.6216 0.291524 16.6634 0.396748 16.6634H7.57789L4.28488 19.9537C4.22934 20.0092 4.19154 20.08 4.17628 20.1571C4.16101 20.2341 4.16897 20.314 4.19914 20.3865C4.22931 20.4591 4.28033 20.521 4.34575 20.5645C4.41116 20.608 4.48801 20.6311 4.56657 20.6309H7.53822V23.6026C7.53823 23.681 7.56151 23.7577 7.60511 23.8229C7.6487 23.8882 7.71066 23.939 7.78315 23.969C7.85563 23.999 7.93539 24.0069 8.01234 23.9916C8.08929 23.9763 8.15998 23.9385 8.21547 23.8831L11.8656 20.233L11.9024 20.2342H11.9397L15.5898 23.8843C15.6454 23.9397 15.7162 23.9773 15.7932 23.9925C15.8702 24.0077 15.9499 23.9997 16.0224 23.9696C16.0948 23.9394 16.1567 23.8884 16.2002 23.8231C16.2437 23.7578 16.2668 23.681 16.2667 23.6026V20.6309H19.2383C19.3168 20.6309 19.3935 20.6076 19.4587 20.564C19.5239 20.5204 19.5748 20.4585 19.6048 20.386C19.6348 20.3135 19.6427 20.2337 19.6274 20.1568C19.6121 20.0798 19.5743 20.0091 19.5188 19.9537L16.227 16.6634H23.4081C23.5134 16.6634 23.6143 16.6216 23.6887 16.5472C23.7631 16.4728 23.8049 16.3719 23.8049 16.2667V0.396748C23.8049 0.291524 23.7631 0.19061 23.6887 0.116205C23.6143 0.0418002 23.5134 0 23.4081 0ZM15.0737 16.4381C15.0666 16.5432 15.0558 16.648 15.0411 16.7523C15.0268 16.8459 15.0058 16.9364 14.988 17.0169L14.9709 17.0796C14.9602 17.1193 14.9503 17.159 14.9312 17.2161C14.8991 17.3246 14.8593 17.4306 14.8122 17.5335C14.8007 17.5617 14.79 17.5898 14.7725 17.6255C14.7328 17.7049 14.6932 17.7874 14.6464 17.8636C14.6043 17.9372 14.5578 18.0083 14.5071 18.0763C14.4602 18.1466 14.4094 18.2141 14.3547 18.2786C14.3448 18.2901 14.3356 18.3021 14.327 18.3147C14.271 18.381 14.2111 18.4444 14.1472 18.5083C14.0834 18.5722 14.0207 18.6313 13.9552 18.6876C13.9422 18.6961 13.9297 18.7054 13.9179 18.7154C13.846 18.7754 13.7709 18.8316 13.693 18.8836C13.6325 18.928 13.5696 18.9689 13.5045 19.0062C13.4272 19.0519 13.3458 19.0939 13.2581 19.136C13.2296 19.1502 13.2014 19.161 13.1498 19.1828C13.0483 19.2289 12.9435 19.2676 12.8364 19.2986C12.7967 19.3129 12.757 19.3228 12.7174 19.3335L12.665 19.3478C12.5741 19.3685 12.4837 19.3875 12.392 19.4034C12.2876 19.4181 12.1827 19.429 12.0774 19.4359C12.0215 19.4407 11.9635 19.4407 11.9024 19.4407C11.8413 19.4407 11.7834 19.4407 11.7311 19.4379C11.626 19.4309 11.5211 19.42 11.4168 19.4054C11.3232 19.3911 11.2327 19.37 11.1522 19.3522L11.0895 19.3351C11.0498 19.3244 11.0102 19.3145 10.953 19.2955C10.8445 19.2635 10.7384 19.2237 10.6356 19.1764C10.6075 19.1649 10.5793 19.1542 10.5436 19.1368C10.4642 19.0971 10.3817 19.0574 10.3055 19.0118C10.2315 18.9691 10.16 18.9222 10.0913 18.8713C10.0213 18.8244 9.95387 18.7736 9.88935 18.7194C9.8777 18.7093 9.86551 18.6999 9.85285 18.6912C9.78659 18.6353 9.72311 18.5754 9.65923 18.5115C9.59536 18.4476 9.53624 18.3849 9.4799 18.3195C9.47148 18.3067 9.46234 18.2943 9.45253 18.2826C9.39206 18.2105 9.33564 18.1351 9.28351 18.0568C9.23693 17.9939 9.19515 17.9276 9.15854 17.8584C9.11148 17.7828 9.06908 17.7044 9.03158 17.6236C9.01729 17.595 9.00658 17.5668 8.98516 17.5152C8.93887 17.4137 8.90002 17.309 8.86891 17.2018C8.85463 17.1621 8.84471 17.1225 8.834 17.0828L8.81971 17.0304C8.79908 16.9396 8.77806 16.8491 8.76417 16.7575C8.74943 16.653 8.73858 16.5481 8.73164 16.4428C8.72846 16.3857 8.72846 16.3254 8.72846 16.2667C8.72846 14.5137 10.1495 13.0927 11.9024 13.0927C13.6554 13.0927 15.0764 14.5137 15.0764 16.2667C15.0764 16.3258 15.0764 16.3857 15.0737 16.4381ZM8.33171 22.6448V20.2342C8.33171 20.1289 8.28991 20.028 8.21551 19.9536C8.1411 19.8792 8.04019 19.8374 7.93497 19.8374H5.52432L8.06946 17.2923C8.07383 17.3081 8.07779 17.3224 8.08216 17.3375C8.08652 17.3526 8.08851 17.3621 8.09208 17.3736C8.09962 17.3998 8.10715 17.424 8.1143 17.4438C8.15294 17.5757 8.20107 17.7046 8.25832 17.8295C8.27776 17.8787 8.29799 17.9275 8.31902 17.9691C8.36579 18.0689 8.4188 18.1656 8.47772 18.2588C8.52516 18.3497 8.5801 18.4365 8.64197 18.5182C8.70214 18.6083 8.76689 18.6951 8.83598 18.7785C8.85463 18.8039 8.87566 18.8277 8.87566 18.8277C8.94667 18.9118 9.02166 18.9916 9.10061 19.0701C9.17956 19.1487 9.25931 19.2248 9.31922 19.2728C9.34208 19.2949 9.36648 19.3153 9.39222 19.3339C9.46832 19.3977 9.54778 19.4573 9.63027 19.5125C9.71733 19.5772 9.80807 19.6368 9.90204 19.691C9.99925 19.7485 10.1004 19.8017 10.1952 19.8465C10.2374 19.8677 10.2807 19.8867 10.325 19.9033C10.4495 19.961 10.5779 20.0096 10.7094 20.0489C10.7658 20.0687 10.8217 20.0842 10.8792 20.0997L8.33171 22.6448ZM15.8699 19.8374C15.7647 19.8374 15.6638 19.8792 15.5894 19.9536C15.515 20.028 15.4732 20.1289 15.4732 20.2342V22.6448L12.928 20.0997L12.9733 20.087C12.9856 20.0838 12.9979 20.0806 13.0094 20.0771C13.033 20.0704 13.0564 20.063 13.0796 20.0548C13.2114 20.016 13.3403 19.9679 13.4652 19.9108C13.5144 19.8914 13.5632 19.8711 13.6049 19.8501C13.7079 19.801 13.809 19.748 13.908 19.6914C13.9931 19.6427 14.0752 19.589 14.154 19.5307C14.2442 19.4706 14.331 19.4057 14.4143 19.3363C14.4315 19.3241 14.4479 19.3109 14.4635 19.2966C14.5476 19.2256 14.6273 19.1506 14.7059 19.0717C14.7844 18.9927 14.8606 18.913 14.9086 18.8531C14.9308 18.8301 14.9514 18.8056 14.9701 18.7797C15.0337 18.7037 15.0931 18.6242 15.1478 18.5416C15.2128 18.4545 15.2725 18.3636 15.3268 18.2695C15.3843 18.1723 15.4375 18.0711 15.4823 17.9763C15.5069 17.9275 15.5271 17.8787 15.5394 17.8465C15.597 17.722 15.6455 17.5935 15.6846 17.4621C15.7045 17.4057 15.72 17.3498 15.7354 17.2923L18.2806 19.8374H15.8699ZM23.0114 15.8699H15.8501V15.8664C15.8469 15.8338 15.8398 15.8025 15.8358 15.7703C15.8239 15.6743 15.8108 15.5783 15.7922 15.4847C15.7822 15.4351 15.768 15.3875 15.7565 15.3391C15.7382 15.2641 15.7212 15.1887 15.6989 15.1157C15.6827 15.0629 15.6632 15.0126 15.645 14.961C15.6216 14.8939 15.5986 14.8265 15.5716 14.7626C15.5502 14.7102 15.5252 14.6595 15.5017 14.6083C15.4728 14.5464 15.4446 14.4845 15.4129 14.4246C15.3859 14.3734 15.3565 14.3246 15.3276 14.275C15.2939 14.2175 15.2605 14.1599 15.224 14.1044C15.1923 14.056 15.1586 14.0092 15.1248 13.962C15.0852 13.9088 15.0479 13.8556 15.0058 13.8033C14.9638 13.7509 14.932 13.7136 14.8939 13.67C14.8511 13.6204 14.8074 13.572 14.7622 13.5248C14.717 13.4775 14.6829 13.4422 14.6388 13.4022C14.5948 13.3621 14.5428 13.3129 14.4932 13.27C14.4496 13.2304 14.4055 13.1951 14.3603 13.159C14.3087 13.1193 14.2556 13.0796 14.2016 13.0399C14.155 13.0064 14.1078 12.9737 14.06 12.9419C14.0036 12.906 13.9465 12.8713 13.8886 12.838C13.8394 12.8094 13.7902 12.7805 13.7394 12.7539C13.6791 12.7221 13.6172 12.6936 13.5549 12.665C13.5041 12.6412 13.4533 12.617 13.4014 12.5956C13.3359 12.5686 13.2685 12.5456 13.203 12.5222C13.1514 12.5043 13.1006 12.4849 13.0479 12.469C12.9764 12.4476 12.9026 12.4293 12.8296 12.4127C12.7793 12.4008 12.7297 12.3865 12.6785 12.3766C12.596 12.3599 12.5115 12.3492 12.4269 12.3369C12.3833 12.3309 12.3405 12.3222 12.2964 12.3178C12.1671 12.3051 12.0358 12.298 11.9032 12.298C11.7707 12.298 11.6394 12.3051 11.5101 12.3178C11.466 12.3222 11.4232 12.3309 11.3795 12.3369C11.295 12.348 11.2105 12.3587 11.128 12.3766C11.0768 12.3865 11.0272 12.4008 10.9768 12.4127C10.9038 12.4305 10.83 12.4476 10.7586 12.469C10.7059 12.4849 10.6551 12.5043 10.6035 12.5222C10.5364 12.5456 10.469 12.5686 10.4051 12.5956C10.3531 12.617 10.3024 12.6412 10.2516 12.665C10.1893 12.6936 10.1274 12.7221 10.0671 12.7539C10.0163 12.7805 9.96711 12.8094 9.91791 12.838C9.86 12.8713 9.80285 12.906 9.74652 12.9419C9.69868 12.9737 9.65146 13.0064 9.60488 13.0399C9.55092 13.0796 9.49776 13.1193 9.44618 13.159C9.40095 13.1951 9.35691 13.232 9.31327 13.27C9.26368 13.3129 9.21488 13.3569 9.16766 13.4022C9.12045 13.4474 9.08474 13.4815 9.04427 13.5248C9.00381 13.568 8.9554 13.6204 8.91255 13.67C8.87288 13.7136 8.83717 13.7576 8.80067 13.8033C8.76417 13.8489 8.72132 13.9076 8.68165 13.962C8.64792 14.0092 8.6142 14.056 8.58246 14.1044C8.54596 14.1599 8.51263 14.2175 8.47891 14.275C8.44994 14.3246 8.42059 14.3734 8.39361 14.4246C8.36187 14.4845 8.3337 14.5464 8.30474 14.6083C8.28133 14.6595 8.25633 14.7102 8.23491 14.7626C8.20793 14.8281 8.18492 14.8955 8.16151 14.961C8.14326 15.0126 8.12183 15.0629 8.10755 15.1157C8.08533 15.1887 8.06788 15.2641 8.05002 15.3391C8.03852 15.3875 8.02423 15.4351 8.01432 15.4847C7.99567 15.5783 7.98258 15.6743 7.97067 15.7703C7.96671 15.8025 7.95956 15.8338 7.95639 15.8664V15.8699H0.793497V0.793497H23.0114V15.8699Z" fill="url(#paint0_linear_1081_418)"/>
<path d="M11.904 13.8857C10.5843 13.8907 9.51849 14.9646 9.52345 16.2844L9.52355 16.2964V16.3837C9.5295 16.4729 9.53823 16.559 9.54854 16.6328C9.55589 16.6844 9.57334 16.7341 9.59989 16.779C9.62644 16.8238 9.66158 16.863 9.70329 16.8943C9.745 16.9256 9.79247 16.9484 9.84298 16.9613C9.89349 16.9742 9.94605 16.9771 9.99766 16.9697C10.1018 16.9548 10.1959 16.8992 10.259 16.8151C10.3222 16.7309 10.3493 16.6251 10.3345 16.5209C10.326 16.4605 10.3198 16.3997 10.3159 16.3388V16.2662C10.3159 15.3898 11.0264 14.6792 11.9029 14.6792C12.0081 14.6792 12.109 14.6374 12.1834 14.563C12.2578 14.4886 12.2996 14.3877 12.2996 14.2825C12.2996 14.1773 12.2578 14.0763 12.1834 14.0019C12.109 13.9275 12.0081 13.8857 11.9029 13.8857H11.904Z" fill="url(#paint1_linear_1081_418)"/>
<path d="M4.76003 4.76126H19.043C19.1482 4.76126 19.2492 4.71946 19.3236 4.64506C19.398 4.57065 19.4398 4.46974 19.4398 4.36451C19.4398 4.25929 19.398 4.15837 19.3236 4.08397C19.2492 4.00957 19.1482 3.96777 19.043 3.96777H4.76003C4.65481 3.96777 4.55389 4.00957 4.47949 4.08397C4.40508 4.15837 4.36328 4.25929 4.36328 4.36451C4.36328 4.46974 4.40508 4.57065 4.47949 4.64506C4.55389 4.71946 4.65481 4.76126 4.76003 4.76126Z" fill="url(#paint2_linear_1081_418)"/>
<path d="M4.76003 7.14116H19.043C19.1482 7.14116 19.2492 7.09936 19.3236 7.02496C19.398 6.95055 19.4398 6.84964 19.4398 6.74441C19.4398 6.63919 19.398 6.53827 19.3236 6.46387C19.2492 6.38946 19.1482 6.34766 19.043 6.34766H4.76003C4.65481 6.34766 4.55389 6.38946 4.47949 6.46387C4.40508 6.53827 4.36328 6.63919 4.36328 6.74441C4.36328 6.84964 4.40508 6.95055 4.47949 7.02496C4.55389 7.09936 4.65481 7.14116 4.76003 7.14116Z" fill="url(#paint3_linear_1081_418)"/>
<path d="M4.76003 9.52201H19.043C19.1482 9.52201 19.2492 9.48021 19.3236 9.40581C19.398 9.3314 19.4398 9.23049 19.4398 9.12526C19.4398 9.02004 19.398 8.91912 19.3236 8.84472C19.2492 8.77032 19.1482 8.72852 19.043 8.72852H4.76003C4.65481 8.72852 4.55389 8.77032 4.47949 8.84472C4.40508 8.91912 4.36328 9.02004 4.36328 9.12526C4.36328 9.23049 4.40508 9.3314 4.47949 9.40581C4.55389 9.48021 4.65481 9.52201 4.76003 9.52201Z" fill="url(#paint4_linear_1081_418)"/>
</g>
</g>
<defs>
<linearGradient id="paint0_linear_1081_418" x1="11.7222" y1="24.2191" x2="12.1293" y2="-0.658653" gradientUnits="userSpaceOnUse">
<stop stop-color="#006DF0"/>
<stop offset="1" stop-color="#00E7F0"/>
</linearGradient>
<linearGradient id="paint1_linear_1081_418" x1="10.8905" y1="17.0019" x2="10.9483" y2="13.8012" gradientUnits="userSpaceOnUse">
<stop stop-color="#006DF0"/>
<stop offset="1" stop-color="#00E7F0"/>
</linearGradient>
<linearGradient id="paint2_linear_1081_418" x1="11.7874" y1="4.76851" x2="11.7881" y2="3.94577" gradientUnits="userSpaceOnUse">
<stop stop-color="#006DF0"/>
<stop offset="1" stop-color="#00E7F0"/>
</linearGradient>
<linearGradient id="paint3_linear_1081_418" x1="11.7874" y1="7.14841" x2="11.7881" y2="6.32567" gradientUnits="userSpaceOnUse">
<stop stop-color="#006DF0"/>
<stop offset="1" stop-color="#00E7F0"/>
</linearGradient>
<linearGradient id="paint4_linear_1081_418" x1="11.7874" y1="9.52926" x2="11.7881" y2="8.70652" gradientUnits="userSpaceOnUse">
<stop stop-color="#006DF0"/>
<stop offset="1" stop-color="#00E7F0"/>
</linearGradient>
<clipPath id="clip0_1081_418">
<rect width="24" height="24" fill="white"/>
</clipPath>
</defs>
</svg>
