<svg width="24" height="24" viewBox="0 0 24 24" fill="none" xmlns="http://www.w3.org/2000/svg">
<g clip-path="url(#clip0_1081_439)">
<mask id="mask0_1081_439" style="mask-type:luminance" maskUnits="userSpaceOnUse" x="0" y="0" width="24" height="24">
<path d="M24 0H0V24H24V0Z" fill="white"/>
</mask>
<g mask="url(#mask0_1081_439)">
<path d="M15.7324 15.1668C15.9544 15.1864 16.1768 15.2 16.4 15.2C20.5974 15.2 24 11.7973 24 7.59998C24 3.40264 20.5974 0 16.4 0C12.2027 0 8.80003 3.40264 8.80003 7.59998C8.80003 7.82318 8.81363 8.04558 8.83323 8.26758L8.69883 8.13318L0.682849 0.1172C0.607408 0.0443367 0.506367 0.00401901 0.401489 0.00493037C0.29661 0.00584174 0.196285 0.0479092 0.122122 0.122072C0.0479592 0.196235 0.00589171 0.29656 0.00498035 0.401439C0.00406898 0.506317 0.0443867 0.607358 0.11725 0.682799L7.46163 8.02718C3.05589 8.32203 -0.276699 12.1326 0.0181499 16.5384C0.312999 20.9441 4.12359 24.2767 8.52933 23.9819C12.5243 23.7145 15.7055 20.5333 15.9728 16.5384L23.3172 23.8828C23.3935 23.9565 23.496 23.9968 23.602 23.995C23.7081 23.9932 23.8091 23.9493 23.8828 23.873C23.9548 23.7984 23.9951 23.6987 23.9951 23.5951C23.9951 23.4914 23.9548 23.3917 23.8828 23.3172L15.7324 15.1668ZM9.60003 7.59998C9.59143 3.83584 12.6359 0.777448 16.4 0.768848C20.1642 0.760248 23.2226 3.80469 23.2312 7.56883C23.2398 11.333 20.1953 14.3914 16.4312 14.4C15.8685 14.4013 15.3079 14.3329 14.762 14.1964L9.80203 9.23638C9.66827 8.70118 9.60044 8.15164 9.60003 7.59998ZM15.2 16C15.2 19.9764 11.9765 23.2 8.00003 23.2C4.02359 23.2 0.800048 19.9764 0.800048 16C0.800048 12.0235 4.02359 8.79998 8.00003 8.79998C8.08003 8.79998 8.16003 8.80278 8.24003 8.80478L15.1952 15.76C15.1972 15.84 15.2 15.92 15.2 16Z" fill="url(#paint0_linear_1081_439)"/>
<path d="M8.00154 9.60059C4.46695 9.60059 1.60156 12.466 1.60156 16.0006C1.60156 19.5352 4.46695 22.4006 8.00154 22.4006C11.5361 22.4006 14.4015 19.5352 14.4015 16.0006C14.4015 15.8945 14.3594 15.7928 14.2844 15.7177C14.2093 15.6427 14.1076 15.6006 14.0015 15.6006C13.8954 15.6006 13.7937 15.6427 13.7187 15.7177C13.6437 15.7928 13.6015 15.8945 13.6015 16.0006C13.6015 19.0934 11.0943 21.6006 8.00154 21.6006C4.90875 21.6006 2.40155 19.0934 2.40155 16.0006C2.40155 12.9078 4.90875 10.4006 8.00154 10.4006C8.10763 10.4006 8.20937 10.3585 8.28439 10.2834C8.3594 10.2084 8.40154 10.1067 8.40154 10.0006C8.40154 9.8945 8.3594 9.79276 8.28439 9.71774C8.20937 9.64273 8.10763 9.60059 8.00154 9.60059Z" fill="url(#paint1_linear_1081_439)"/>
<path d="M14.8661 13.4003C18.0723 14.2497 21.36 12.3391 22.2094 9.13285C23.0587 5.92666 21.1481 2.63897 17.9419 1.78962C14.7357 0.940266 11.448 2.85087 10.5987 6.05706C10.3317 7.06475 10.3317 8.12458 10.5985 9.1323C10.6265 9.234 10.6936 9.32052 10.7851 9.37303C10.8766 9.42554 10.9851 9.43979 11.087 9.41269C11.189 9.38558 11.2761 9.31931 11.3294 9.22829C11.3827 9.13727 11.3979 9.02888 11.3717 8.9267C10.6374 6.14846 12.2943 3.30096 15.0726 2.56667C17.8508 1.83237 20.6983 3.48926 21.4326 6.26751C22.1669 9.04575 20.51 11.8933 17.7318 12.6276C16.8598 12.8581 15.9428 12.8579 15.0709 12.6271C14.9688 12.6013 14.8606 12.6168 14.7698 12.6702C14.679 12.7237 14.613 12.8108 14.586 12.9126C14.5591 13.0145 14.5733 13.1229 14.6258 13.2142C14.6782 13.3056 14.7646 13.3722 14.8661 13.4003Z" fill="url(#paint2_linear_1081_439)"/>
<path d="M16.5288 4.02177C16.4499 3.99461 16.3645 3.99282 16.2845 4.01663C16.2045 4.04045 16.134 4.08867 16.0828 4.15457L14.6828 5.95456C14.6192 6.03849 14.5913 6.14409 14.605 6.24849C14.6188 6.35288 14.6731 6.44765 14.7562 6.51226C14.8394 6.57687 14.9446 6.60613 15.0492 6.59368C15.1537 6.58123 15.2492 6.52809 15.3148 6.44576L15.9988 5.56576V10.4002H15.1988C15.0927 10.4002 14.991 10.4423 14.916 10.5173C14.841 10.5923 14.7988 10.6941 14.7988 10.8002C14.7988 10.9062 14.841 11.008 14.916 11.083C14.991 11.158 15.0927 11.2001 15.1988 11.2001H17.5988C17.7049 11.2001 17.8066 11.158 17.8817 11.083C17.9567 11.008 17.9988 10.9062 17.9988 10.8002C17.9988 10.6941 17.9567 10.5923 17.8817 10.5173C17.8066 10.4423 17.7049 10.4002 17.5988 10.4002H16.7988V4.40016C16.7988 4.31683 16.7728 4.23556 16.7244 4.16772C16.676 4.09988 16.6076 4.04885 16.5288 4.02177Z" fill="url(#paint3_linear_1081_439)"/>
<path d="M8.39847 11.6006H7.59847V12.4406C6.51598 12.6604 5.81668 13.7161 6.03648 14.7986C6.22588 15.7315 7.04658 16.4015 7.99847 16.4006C8.66122 16.4006 9.19848 16.9378 9.19848 17.6006C9.19848 18.2633 8.66122 18.8006 7.99847 18.8006C7.33572 18.8006 6.79848 18.2633 6.79848 17.6006H5.99848C5.99968 18.5506 6.66793 19.3692 7.59847 19.5606V20.4006H8.39847V19.5606C9.48097 19.3408 10.1802 18.2851 9.96048 17.2026C9.77108 16.2697 8.95037 15.5996 7.99847 15.6006C7.33572 15.6006 6.79848 15.0633 6.79848 14.4006C6.79848 13.7378 7.33572 13.2006 7.99847 13.2006C8.66122 13.2006 9.19848 13.7378 9.19848 14.4006H9.99844C9.99727 13.4505 9.32902 12.6319 8.39847 12.4406V11.6006Z" fill="url(#paint4_linear_1081_439)"/>
</g>
</g>
<defs>
<linearGradient id="paint0_linear_1081_439" x1="11.8183" y1="24.2191" x2="12.2221" y2="-0.65876" gradientUnits="userSpaceOnUse">
<stop stop-color="#006DF0"/>
<stop offset="1" stop-color="#00E7F0"/>
</linearGradient>
<linearGradient id="paint1_linear_1081_439" x1="7.90462" y1="22.5174" x2="8.12" y2="9.24925" gradientUnits="userSpaceOnUse">
<stop stop-color="#006DF0"/>
<stop offset="1" stop-color="#00E7F0"/>
</linearGradient>
<linearGradient id="paint2_linear_1081_439" x1="16.3138" y1="13.7117" x2="16.516" y2="1.25813" gradientUnits="userSpaceOnUse">
<stop stop-color="#006DF0"/>
<stop offset="1" stop-color="#00E7F0"/>
</linearGradient>
<linearGradient id="paint3_linear_1081_439" x1="16.2745" y1="11.2659" x2="16.531" y2="3.80923" gradientUnits="userSpaceOnUse">
<stop stop-color="#006DF0"/>
<stop offset="1" stop-color="#00E7F0"/>
</linearGradient>
<linearGradient id="paint4_linear_1081_439" x1="7.96816" y1="20.4809" x2="8.29321" y2="11.3682" gradientUnits="userSpaceOnUse">
<stop stop-color="#006DF0"/>
<stop offset="1" stop-color="#00E7F0"/>
</linearGradient>
<clipPath id="clip0_1081_439">
<rect width="24" height="24" fill="white"/>
</clipPath>
</defs>
</svg>
