<svg width="24" height="24" viewBox="0 0 24 24" fill="none" xmlns="http://www.w3.org/2000/svg">
<g clip-path="url(#clip0_1081_429)">
<mask id="mask0_1081_429" style="mask-type:luminance" maskUnits="userSpaceOnUse" x="0" y="0" width="24" height="24">
<path d="M24 0H0V24H24V0Z" fill="white"/>
</mask>
<g mask="url(#mask0_1081_429)">
<path d="M11.625 5.625V0.375C11.625 0.167859 11.7929 0 12 0C12.2071 0 12.375 0.167859 12.375 0.375V5.625C12.375 5.83214 12.2071 6 12 6C11.7929 6 11.625 5.83214 11.625 5.625ZM12.375 23.625V18.375C12.375 18.1679 12.2071 18 12 18C11.7929 18 11.625 18.1679 11.625 18.375V23.625C11.625 23.8321 11.7929 24 12 24C12.2071 24 12.375 23.8321 12.375 23.625ZM23.625 11.625H18.375C18.1679 11.625 18 11.7929 18 12C18 12.2071 18.1679 12.375 18.375 12.375H23.625C23.8321 12.375 24 12.2071 24 12C24 11.7929 23.8321 11.625 23.625 11.625ZM0.375 12.375H5.625C5.83214 12.375 6 12.2071 6 12C6 11.7929 5.83214 11.625 5.625 11.625H0.375C0.167859 11.625 0 11.7929 0 12C0 12.2071 0.167859 12.375 0.375 12.375ZM1.53806 11.0241C1.63671 11.0367 1.73632 11.0096 1.81501 10.9488C1.8937 10.888 1.94502 10.7984 1.95769 10.6998C2.54236 6.13748 6.13702 2.54264 10.6993 1.95773C10.7967 1.94365 10.8847 1.89184 10.9442 1.81347C11.0038 1.73511 11.0301 1.63647 11.0176 1.53885C11.0051 1.44122 10.9547 1.35242 10.8773 1.29162C10.7999 1.23082 10.7017 1.20288 10.6039 1.21383C5.70314 1.84209 1.84177 5.70366 1.21373 10.6044C1.20111 10.7031 1.22818 10.8027 1.289 10.8814C1.34982 10.9601 1.43941 11.0114 1.53806 11.0241ZM1.53816 12.977C1.48931 12.9832 1.44218 12.9991 1.39945 13.0235C1.35672 13.048 1.31923 13.0807 1.28912 13.1197C1.25901 13.1586 1.23688 13.2031 1.22397 13.2507C1.21107 13.2982 1.20766 13.3478 1.21392 13.3966C1.84237 18.2969 5.7037 22.158 10.604 22.7862C10.7027 22.7988 10.8023 22.7718 10.881 22.711C10.9597 22.6501 11.011 22.5606 11.0236 22.4619C11.0363 22.3633 11.0092 22.2637 10.9484 22.185C10.8876 22.1063 10.798 22.055 10.6994 22.0423C6.13748 21.4575 2.54283 17.8631 1.95783 13.3013C1.94515 13.2026 1.89382 13.113 1.81512 13.0522C1.73643 12.9914 1.6368 12.9644 1.53816 12.977ZM22.462 12.9758C22.2565 12.9496 22.0687 13.0946 22.0424 13.3001C21.4578 17.8625 17.8631 21.4574 13.3007 22.0423C13.2034 22.0564 13.1154 22.1082 13.0559 22.1866C12.9964 22.2649 12.97 22.3635 12.9826 22.4611C12.9951 22.5587 13.0454 22.6475 13.1228 22.7083C13.2001 22.7691 13.2983 22.7971 13.3961 22.7862C18.2969 22.1579 22.1583 18.2963 22.7863 13.3954C22.7989 13.2967 22.7718 13.1971 22.711 13.1184C22.6502 13.0397 22.5606 12.9884 22.462 12.9758ZM13.3007 1.95773C17.863 2.54264 21.4577 6.13744 22.0423 10.6997C22.055 10.7984 22.1063 10.8879 22.185 10.9488C22.2637 11.0096 22.3633 11.0366 22.4619 11.024C22.5606 11.0114 22.6502 10.9601 22.711 10.8814C22.7718 10.8027 22.7989 10.703 22.7863 10.6044C22.1582 5.70361 18.2969 1.84205 13.3961 1.21378C13.2975 1.20114 13.1978 1.2282 13.1192 1.28902C13.0405 1.34983 12.9891 1.43941 12.9765 1.53806C12.9702 1.58691 12.9736 1.63651 12.9866 1.68404C12.9995 1.73156 13.0216 1.77608 13.0517 1.81505C13.0818 1.85402 13.1193 1.88668 13.162 1.91116C13.2048 1.93564 13.2519 1.95147 13.3007 1.95773ZM11.0211 4.17623C11.0042 4.07824 10.949 3.99099 10.8677 3.93366C10.7865 3.87632 10.6858 3.85359 10.5878 3.87047C7.16095 4.46175 4.46142 7.16142 3.87038 10.5884C3.86107 10.6422 3.86367 10.6975 3.87797 10.7503C3.89228 10.8031 3.91796 10.8521 3.9532 10.8939C3.98845 10.9357 4.03241 10.9693 4.08201 10.9923C4.1316 11.0153 4.18563 11.0272 4.24031 11.0272C4.32864 11.027 4.41409 10.9957 4.48161 10.9388C4.54913 10.8818 4.59438 10.8029 4.60941 10.7159C5.14664 7.60097 7.60045 5.14702 10.7153 4.60955C10.7638 4.60118 10.8102 4.58333 10.8519 4.55702C10.8935 4.53072 10.9296 4.49647 10.958 4.45623C10.9863 4.41599 11.0065 4.37056 11.0174 4.32251C11.0282 4.27447 11.0295 4.22477 11.0211 4.17623ZM4.17628 12.9794C4.12775 12.9877 4.08135 13.0056 4.03972 13.0319C3.99809 13.0582 3.96206 13.0925 3.93367 13.1327C3.90528 13.173 3.88509 13.2184 3.87427 13.2664C3.86344 13.3145 3.86218 13.3642 3.87056 13.4127C4.46198 16.8391 7.16147 19.5383 10.5878 20.1295C10.6858 20.1464 10.7865 20.1237 10.8678 20.0664C10.9491 20.009 11.0042 19.9218 11.0212 19.8238C11.0295 19.7752 11.0283 19.7255 11.0174 19.6775C11.0066 19.6295 10.9864 19.584 10.958 19.5438C10.9296 19.5035 10.8936 19.4693 10.852 19.443C10.8103 19.4167 10.7639 19.3988 10.7154 19.3905C7.60092 18.8531 5.14725 16.3995 4.60964 13.2851C4.57439 13.081 4.38042 12.9443 4.17628 12.9794ZM19.8237 12.9794C19.6196 12.944 19.4256 13.081 19.3904 13.2851C18.8528 16.3995 16.3991 18.853 13.2846 19.3905C13.1884 19.4093 13.1034 19.465 13.0477 19.5457C12.9921 19.6265 12.9703 19.7258 12.9869 19.8224C13.0036 19.919 13.0575 20.0052 13.1369 20.0626C13.2164 20.12 13.3152 20.1441 13.4122 20.1295C16.8385 19.5383 19.538 16.839 20.1294 13.4127C20.1378 13.3642 20.1366 13.3145 20.1257 13.2664C20.1149 13.2184 20.0947 13.173 20.0663 13.1327C20.0379 13.0925 20.0019 13.0582 19.9603 13.0319C19.9187 13.0056 19.8722 12.9877 19.8237 12.9794ZM19.7596 11.0272C19.8143 11.0272 19.8684 11.0153 19.918 10.9923C19.9676 10.9693 20.0115 10.9357 20.0468 10.8939C20.082 10.8521 20.1077 10.8031 20.122 10.7503C20.1363 10.6975 20.1389 10.6422 20.1296 10.5884C19.5386 7.16142 16.839 4.46175 13.4122 3.87047C13.3637 3.86208 13.314 3.86334 13.2659 3.87417C13.2179 3.88499 13.1724 3.90518 13.1322 3.93358C13.092 3.96197 13.0577 3.99802 13.0314 4.03965C13.0051 4.08129 12.9873 4.1277 12.9789 4.17623C12.9705 4.22476 12.9718 4.27447 12.9826 4.32251C12.9934 4.37054 13.0136 4.41598 13.042 4.45622C13.0704 4.49645 13.1065 4.5307 13.1481 4.55701C13.1897 4.58332 13.2361 4.60117 13.2847 4.60955C16.3995 5.14702 18.8533 7.60092 19.3905 10.7159C19.4056 10.8029 19.4508 10.8818 19.5184 10.9388C19.5859 10.9957 19.6713 11.027 19.7596 11.0272ZM9.5625 10.125V10.6875C9.5625 11.618 10.3195 12.375 11.25 12.375H12.75C13.2669 12.375 13.6875 12.7956 13.6875 13.3125V13.875C13.6875 14.3919 13.2669 14.8125 12.75 14.8125H11.25C10.7331 14.8125 10.3125 14.3919 10.3125 13.875V13.6875C10.3125 13.4804 10.1446 13.3125 9.9375 13.3125C9.73036 13.3125 9.5625 13.4804 9.5625 13.6875V13.875C9.5625 14.8055 10.3195 15.5625 11.25 15.5625H11.625V16.3125C11.625 16.5196 11.7929 16.6875 12 16.6875C12.2071 16.6875 12.375 16.5196 12.375 16.3125V15.5625H12.75C13.6805 15.5625 14.4375 14.8055 14.4375 13.875V13.3125C14.4375 12.382 13.6805 11.625 12.75 11.625H11.25C10.7331 11.625 10.3125 11.2044 10.3125 10.6875V10.125C10.3125 9.60806 10.7331 9.1875 11.25 9.1875H12.75C13.2669 9.1875 13.6875 9.60806 13.6875 10.125V10.3125C13.6875 10.5196 13.8554 10.6875 14.0625 10.6875C14.2696 10.6875 14.4375 10.5196 14.4375 10.3125V10.125C14.4375 9.19453 13.6805 8.4375 12.75 8.4375H12.375V7.6875C12.375 7.48036 12.2071 7.3125 12 7.3125C11.7929 7.3125 11.625 7.48036 11.625 7.6875V8.4375H11.25C10.3195 8.4375 9.5625 9.19453 9.5625 10.125Z" fill="url(#paint0_linear_1081_429)"/>
</g>
</g>
<defs>
<linearGradient id="paint0_linear_1081_429" x1="11.8183" y1="24.2191" x2="12.2221" y2="-0.65876" gradientUnits="userSpaceOnUse">
<stop stop-color="#006DF0"/>
<stop offset="1" stop-color="#00E7F0"/>
</linearGradient>
<clipPath id="clip0_1081_429">
<rect width="24" height="24" fill="white"/>
</clipPath>
</defs>
</svg>
