<svg width="24" height="24" viewBox="0 0 24 24" fill="none" xmlns="http://www.w3.org/2000/svg">
<g clip-path="url(#clip0_1081_462)">
<mask id="path-1-outside-1_1081_462" maskUnits="userSpaceOnUse" x="-0.71875" y="0.0664062" width="25" height="24" fill="black">
<rect fill="white" x="-0.71875" y="0.0664062" width="25" height="24"/>
<path d="M21.3405 23.0184H4.21512C2.88712 23.0184 1.80445 21.9357 1.80445 20.6077C1.80445 19.2797 2.88712 18.1971 4.21512 18.1971C4.36445 18.1971 4.48179 18.3144 4.48179 18.4637C4.48179 18.6131 4.36445 18.7304 4.21512 18.7304C3.18045 18.7304 2.33779 19.5731 2.33779 20.6077C2.33779 21.6424 3.18045 22.4851 4.21512 22.4851H21.3405C22.3751 22.4851 23.2178 21.6424 23.2178 20.6077C23.2178 19.5731 22.3751 18.7304 21.3405 18.7304C21.1911 18.7304 21.0738 18.6131 21.0738 18.4637C21.0738 18.3144 21.1911 18.1971 21.3405 18.1971C22.6685 18.1971 23.7511 19.2797 23.7511 20.6077C23.7511 21.9357 22.6685 23.0184 21.3405 23.0184ZM20.1458 20.8744H5.40979C5.26045 20.8744 5.14312 20.7571 5.14312 20.6077C5.14312 20.4584 5.26045 20.3411 5.40979 20.3411H20.1458C20.2951 20.3411 20.4125 20.4584 20.4125 20.6077C20.4125 20.7571 20.2951 20.8744 20.1458 20.8744ZM21.3405 18.7304H4.21512C2.88712 18.7304 1.80445 17.6477 1.80445 16.3197C1.80445 14.9917 2.88712 13.9091 4.21512 13.9091C4.36445 13.9091 4.48179 14.0264 4.48179 14.1757C4.48179 14.3251 4.36445 14.4424 4.21512 14.4424C3.18045 14.4424 2.33779 15.2851 2.33779 16.3197C2.33779 17.3544 3.18045 18.1971 4.21512 18.1971H21.3405C22.3751 18.1971 23.2178 17.3544 23.2178 16.3197C23.2178 15.2851 22.3751 14.4424 21.3405 14.4424C21.1911 14.4424 21.0738 14.3251 21.0738 14.1757C21.0738 14.0264 21.1911 13.9091 21.3405 13.9091C22.6685 13.9091 23.7511 14.9917 23.7511 16.3197C23.7511 17.6477 22.6685 18.7304 21.3405 18.7304ZM20.1458 16.5864H5.40979C5.26045 16.5864 5.14312 16.4691 5.14312 16.3197C5.14312 16.1704 5.26045 16.0531 5.40979 16.0531H20.1458C20.2951 16.0531 20.4125 16.1704 20.4125 16.3197C20.4125 16.4691 20.2951 16.5864 20.1458 16.5864ZM21.3405 14.4424H4.21512C2.88712 14.4424 1.80445 13.3597 1.80445 12.0317C1.80445 10.7037 2.88712 9.62107 4.21512 9.62107C4.36445 9.62107 4.48179 9.73841 4.48179 9.88774C4.48179 10.0371 4.36445 10.1544 4.21512 10.1544C3.18045 10.1544 2.33779 10.9971 2.33779 12.0317C2.33779 13.0664 3.18045 13.9091 4.21512 13.9091H21.3405C22.3751 13.9091 23.2178 13.0664 23.2178 12.0317C23.2178 10.9971 22.3751 10.1544 21.3405 10.1544C21.1911 10.1544 21.0738 10.0371 21.0738 9.88774C21.0738 9.73841 21.1911 9.62107 21.3405 9.62107C22.6685 9.62107 23.7511 10.7037 23.7511 12.0317C23.7511 13.3597 22.6685 14.4424 21.3405 14.4424ZM20.1458 12.3037H5.40979C5.26045 12.3037 5.14312 12.1864 5.14312 12.0371C5.14312 11.8877 5.26045 11.7704 5.40979 11.7704H20.1458C20.2951 11.7704 20.4125 11.8877 20.4125 12.0371C20.4125 12.1811 20.2951 12.3037 20.1458 12.3037ZM21.3405 10.1597H4.21512C2.88712 10.1597 1.80445 9.07707 1.80445 7.74907C1.80445 6.94374 2.20445 6.19174 2.88179 5.74374C3.00445 5.66374 3.16979 5.69574 3.24979 5.81841C3.32979 5.94107 3.29779 6.10641 3.17512 6.18641C2.64712 6.53841 2.33779 7.11974 2.33779 7.74907C2.33779 8.78374 3.18045 9.62641 4.21512 9.62641H21.3405C22.3751 9.62641 23.2178 8.78374 23.2178 7.74907C23.2178 6.71441 22.3751 5.87174 21.3405 5.87174H16.3218C16.1725 5.87174 16.0551 5.75441 16.0551 5.60507C16.0551 5.45574 16.1725 5.33841 16.3218 5.33841H21.3405C22.6685 5.33841 23.7511 6.42107 23.7511 7.74907C23.7511 9.07707 22.6685 10.1597 21.3405 10.1597ZM15.1751 5.87174H4.21512C4.07112 5.87174 3.94845 5.75441 3.94845 5.60507C3.94845 5.46107 4.06045 5.33841 4.20979 5.33841H15.1751C15.3245 5.33841 15.4418 5.45574 15.4418 5.60507C15.4418 5.75441 15.3245 5.87174 15.1751 5.87174ZM20.1458 8.01574H5.40979C5.26045 8.01574 5.14312 7.89841 5.14312 7.74907C5.14312 7.59974 5.26045 7.48241 5.40979 7.48241H20.1458C20.2951 7.48241 20.4125 7.59974 20.4125 7.74907C20.4125 7.89841 20.2951 8.01574 20.1458 8.01574ZM3.98579 7.44507C3.90579 7.44507 3.82579 7.40774 3.77779 7.34374L2.51912 5.74907L0.508454 5.46107C0.401787 5.44507 0.316454 5.37041 0.289787 5.26374C0.26312 5.16241 0.300454 5.05041 0.380454 4.98641L1.97512 3.72774L2.26312 1.71707C2.27912 1.61041 2.35379 1.52507 2.46045 1.49841C2.56179 1.47174 2.67379 1.50907 2.73779 1.58907L3.99645 3.18374L6.00712 3.47174C6.11379 3.48774 6.19912 3.56241 6.22579 3.66907C6.25245 3.77574 6.21512 3.88241 6.13512 3.94641L4.54045 5.20507L4.25245 7.21574C4.23645 7.32241 4.16179 7.40774 4.05512 7.43441C4.03379 7.43974 4.00712 7.44507 3.98579 7.44507ZM1.20179 5.01841L2.70045 5.23707C2.76979 5.24774 2.82845 5.27974 2.87112 5.33841L3.80979 6.52774L4.02845 5.02907C4.03912 4.95974 4.07112 4.90107 4.12979 4.85841L5.31912 3.91974L3.82045 3.70107C3.75112 3.69041 3.69245 3.65841 3.64979 3.59974L2.70579 2.40507L2.48712 3.90374C2.47645 3.97307 2.44445 4.03174 2.38579 4.07441L1.20179 5.01841ZM15.7511 7.21041C15.6445 7.21041 15.5485 7.14641 15.5058 7.05041L14.7058 5.18374L12.8391 4.38374C12.7431 4.34107 12.6791 4.24507 12.6791 4.13841C12.6791 4.03174 12.7431 3.93574 12.8391 3.89307L14.7058 3.09307L15.5058 1.22641C15.5485 1.13041 15.6445 1.06641 15.7511 1.06641C15.8578 1.06641 15.9538 1.13041 15.9965 1.22641L16.7965 3.09307L18.6631 3.89307C18.7591 3.93574 18.8231 4.03174 18.8231 4.13841C18.8231 4.24507 18.7591 4.34107 18.6631 4.38374L16.7965 5.18374L15.9965 7.05041C15.9538 7.14641 15.8578 7.21041 15.7511 7.21041ZM13.6178 4.13307L15.0098 4.73041C15.0738 4.75707 15.1218 4.80507 15.1485 4.86907L15.7458 6.26107L16.3431 4.86907C16.3698 4.80507 16.4178 4.75707 16.4818 4.73041L17.8738 4.13307L16.4818 3.53574C16.4178 3.50907 16.3698 3.46107 16.3431 3.39707L15.7458 2.00507L15.1485 3.39707C15.1218 3.46107 15.0738 3.50907 15.0098 3.53574L13.6178 4.13307Z"/>
</mask>
<path d="M21.3405 23.0184H4.21512C2.88712 23.0184 1.80445 21.9357 1.80445 20.6077C1.80445 19.2797 2.88712 18.1971 4.21512 18.1971C4.36445 18.1971 4.48179 18.3144 4.48179 18.4637C4.48179 18.6131 4.36445 18.7304 4.21512 18.7304C3.18045 18.7304 2.33779 19.5731 2.33779 20.6077C2.33779 21.6424 3.18045 22.4851 4.21512 22.4851H21.3405C22.3751 22.4851 23.2178 21.6424 23.2178 20.6077C23.2178 19.5731 22.3751 18.7304 21.3405 18.7304C21.1911 18.7304 21.0738 18.6131 21.0738 18.4637C21.0738 18.3144 21.1911 18.1971 21.3405 18.1971C22.6685 18.1971 23.7511 19.2797 23.7511 20.6077C23.7511 21.9357 22.6685 23.0184 21.3405 23.0184ZM20.1458 20.8744H5.40979C5.26045 20.8744 5.14312 20.7571 5.14312 20.6077C5.14312 20.4584 5.26045 20.3411 5.40979 20.3411H20.1458C20.2951 20.3411 20.4125 20.4584 20.4125 20.6077C20.4125 20.7571 20.2951 20.8744 20.1458 20.8744ZM21.3405 18.7304H4.21512C2.88712 18.7304 1.80445 17.6477 1.80445 16.3197C1.80445 14.9917 2.88712 13.9091 4.21512 13.9091C4.36445 13.9091 4.48179 14.0264 4.48179 14.1757C4.48179 14.3251 4.36445 14.4424 4.21512 14.4424C3.18045 14.4424 2.33779 15.2851 2.33779 16.3197C2.33779 17.3544 3.18045 18.1971 4.21512 18.1971H21.3405C22.3751 18.1971 23.2178 17.3544 23.2178 16.3197C23.2178 15.2851 22.3751 14.4424 21.3405 14.4424C21.1911 14.4424 21.0738 14.3251 21.0738 14.1757C21.0738 14.0264 21.1911 13.9091 21.3405 13.9091C22.6685 13.9091 23.7511 14.9917 23.7511 16.3197C23.7511 17.6477 22.6685 18.7304 21.3405 18.7304ZM20.1458 16.5864H5.40979C5.26045 16.5864 5.14312 16.4691 5.14312 16.3197C5.14312 16.1704 5.26045 16.0531 5.40979 16.0531H20.1458C20.2951 16.0531 20.4125 16.1704 20.4125 16.3197C20.4125 16.4691 20.2951 16.5864 20.1458 16.5864ZM21.3405 14.4424H4.21512C2.88712 14.4424 1.80445 13.3597 1.80445 12.0317C1.80445 10.7037 2.88712 9.62107 4.21512 9.62107C4.36445 9.62107 4.48179 9.73841 4.48179 9.88774C4.48179 10.0371 4.36445 10.1544 4.21512 10.1544C3.18045 10.1544 2.33779 10.9971 2.33779 12.0317C2.33779 13.0664 3.18045 13.9091 4.21512 13.9091H21.3405C22.3751 13.9091 23.2178 13.0664 23.2178 12.0317C23.2178 10.9971 22.3751 10.1544 21.3405 10.1544C21.1911 10.1544 21.0738 10.0371 21.0738 9.88774C21.0738 9.73841 21.1911 9.62107 21.3405 9.62107C22.6685 9.62107 23.7511 10.7037 23.7511 12.0317C23.7511 13.3597 22.6685 14.4424 21.3405 14.4424ZM20.1458 12.3037H5.40979C5.26045 12.3037 5.14312 12.1864 5.14312 12.0371C5.14312 11.8877 5.26045 11.7704 5.40979 11.7704H20.1458C20.2951 11.7704 20.4125 11.8877 20.4125 12.0371C20.4125 12.1811 20.2951 12.3037 20.1458 12.3037ZM21.3405 10.1597H4.21512C2.88712 10.1597 1.80445 9.07707 1.80445 7.74907C1.80445 6.94374 2.20445 6.19174 2.88179 5.74374C3.00445 5.66374 3.16979 5.69574 3.24979 5.81841C3.32979 5.94107 3.29779 6.10641 3.17512 6.18641C2.64712 6.53841 2.33779 7.11974 2.33779 7.74907C2.33779 8.78374 3.18045 9.62641 4.21512 9.62641H21.3405C22.3751 9.62641 23.2178 8.78374 23.2178 7.74907C23.2178 6.71441 22.3751 5.87174 21.3405 5.87174H16.3218C16.1725 5.87174 16.0551 5.75441 16.0551 5.60507C16.0551 5.45574 16.1725 5.33841 16.3218 5.33841H21.3405C22.6685 5.33841 23.7511 6.42107 23.7511 7.74907C23.7511 9.07707 22.6685 10.1597 21.3405 10.1597ZM15.1751 5.87174H4.21512C4.07112 5.87174 3.94845 5.75441 3.94845 5.60507C3.94845 5.46107 4.06045 5.33841 4.20979 5.33841H15.1751C15.3245 5.33841 15.4418 5.45574 15.4418 5.60507C15.4418 5.75441 15.3245 5.87174 15.1751 5.87174ZM20.1458 8.01574H5.40979C5.26045 8.01574 5.14312 7.89841 5.14312 7.74907C5.14312 7.59974 5.26045 7.48241 5.40979 7.48241H20.1458C20.2951 7.48241 20.4125 7.59974 20.4125 7.74907C20.4125 7.89841 20.2951 8.01574 20.1458 8.01574ZM3.98579 7.44507C3.90579 7.44507 3.82579 7.40774 3.77779 7.34374L2.51912 5.74907L0.508454 5.46107C0.401787 5.44507 0.316454 5.37041 0.289787 5.26374C0.26312 5.16241 0.300454 5.05041 0.380454 4.98641L1.97512 3.72774L2.26312 1.71707C2.27912 1.61041 2.35379 1.52507 2.46045 1.49841C2.56179 1.47174 2.67379 1.50907 2.73779 1.58907L3.99645 3.18374L6.00712 3.47174C6.11379 3.48774 6.19912 3.56241 6.22579 3.66907C6.25245 3.77574 6.21512 3.88241 6.13512 3.94641L4.54045 5.20507L4.25245 7.21574C4.23645 7.32241 4.16179 7.40774 4.05512 7.43441C4.03379 7.43974 4.00712 7.44507 3.98579 7.44507ZM1.20179 5.01841L2.70045 5.23707C2.76979 5.24774 2.82845 5.27974 2.87112 5.33841L3.80979 6.52774L4.02845 5.02907C4.03912 4.95974 4.07112 4.90107 4.12979 4.85841L5.31912 3.91974L3.82045 3.70107C3.75112 3.69041 3.69245 3.65841 3.64979 3.59974L2.70579 2.40507L2.48712 3.90374C2.47645 3.97307 2.44445 4.03174 2.38579 4.07441L1.20179 5.01841ZM15.7511 7.21041C15.6445 7.21041 15.5485 7.14641 15.5058 7.05041L14.7058 5.18374L12.8391 4.38374C12.7431 4.34107 12.6791 4.24507 12.6791 4.13841C12.6791 4.03174 12.7431 3.93574 12.8391 3.89307L14.7058 3.09307L15.5058 1.22641C15.5485 1.13041 15.6445 1.06641 15.7511 1.06641C15.8578 1.06641 15.9538 1.13041 15.9965 1.22641L16.7965 3.09307L18.6631 3.89307C18.7591 3.93574 18.8231 4.03174 18.8231 4.13841C18.8231 4.24507 18.7591 4.34107 18.6631 4.38374L16.7965 5.18374L15.9965 7.05041C15.9538 7.14641 15.8578 7.21041 15.7511 7.21041ZM13.6178 4.13307L15.0098 4.73041C15.0738 4.75707 15.1218 4.80507 15.1485 4.86907L15.7458 6.26107L16.3431 4.86907C16.3698 4.80507 16.4178 4.75707 16.4818 4.73041L17.8738 4.13307L16.4818 3.53574C16.4178 3.50907 16.3698 3.46107 16.3431 3.39707L15.7458 2.00507L15.1485 3.39707C15.1218 3.46107 15.0738 3.50907 15.0098 3.53574L13.6178 4.13307Z" fill="url(#paint0_linear_1081_462)"/>
<path d="M2.88179 5.74374L2.82716 5.65998L2.82662 5.66033L2.88179 5.74374ZM3.17512 6.18641L3.12049 6.10264L3.11965 6.1032L3.17512 6.18641ZM3.77779 7.34374L3.85781 7.28372L3.85628 7.28178L3.77779 7.34374ZM2.51912 5.74907L2.59762 5.68712L2.57286 5.65575L2.5333 5.65008L2.51912 5.74907ZM0.508454 5.46107L0.493619 5.55997L0.494275 5.56006L0.508454 5.46107ZM0.289787 5.26374L0.386809 5.23948L0.386494 5.23829L0.289787 5.26374ZM0.380454 4.98641L0.318496 4.90791L0.317984 4.90832L0.380454 4.98641ZM1.97512 3.72774L2.03708 3.80623L2.06844 3.78148L2.07411 3.74192L1.97512 3.72774ZM2.26312 1.71707L2.16422 1.70224L2.16413 1.70289L2.26312 1.71707ZM2.46045 1.49841L2.48471 1.59543L2.4859 1.59511L2.46045 1.49841ZM2.73779 1.58907L2.81628 1.52712L2.81587 1.5266L2.73779 1.58907ZM3.99645 3.18374L3.91796 3.2457L3.94272 3.27706L3.98228 3.28273L3.99645 3.18374ZM6.00712 3.47174L6.02196 3.37284L6.0213 3.37275L6.00712 3.47174ZM6.13512 3.94641L6.19708 4.0249L6.19759 4.02449L6.13512 3.94641ZM4.54045 5.20507L4.4785 5.12658L4.44713 5.15134L4.44146 5.19089L4.54045 5.20507ZM4.25245 7.21574L4.35135 7.23057L4.35144 7.22992L4.25245 7.21574ZM4.05512 7.43441L4.03087 7.33739L4.05512 7.43441ZM1.20179 5.01841L1.13945 4.94022L0.959048 5.08405L1.18735 5.11736L1.20179 5.01841ZM2.70045 5.23707L2.71566 5.13823L2.71489 5.13812L2.70045 5.23707ZM2.87112 5.33841L2.79018 5.39727L2.79262 5.40036L2.87112 5.33841ZM3.80979 6.52774L3.73129 6.58969L3.8752 6.77204L3.90874 6.54218L3.80979 6.52774ZM4.02845 5.02907L3.92961 5.01387L3.9295 5.01464L4.02845 5.02907ZM4.12979 4.85841L4.18865 4.93934L4.19174 4.9369L4.12979 4.85841ZM5.31912 3.91974L5.38107 3.99824L5.56342 3.85433L5.33356 3.82079L5.31912 3.91974ZM3.82045 3.70107L3.80525 3.79991L3.80602 3.80003L3.82045 3.70107ZM3.64979 3.59974L3.73073 3.54088L3.72825 3.53774L3.64979 3.59974ZM2.70579 2.40507L2.78425 2.34307L2.64035 2.16096L2.60684 2.39063L2.70579 2.40507ZM2.48712 3.90374L2.58596 3.91895L2.58607 3.91818L2.48712 3.90374ZM2.38579 4.07441L2.32691 3.99345L2.32345 3.99622L2.38579 4.07441ZM15.5058 7.05041L15.4139 7.0898L15.4144 7.09102L15.5058 7.05041ZM14.7058 5.18374L14.7977 5.14435L14.7819 5.10758L14.7452 5.09183L14.7058 5.18374ZM12.8391 4.38374L12.7985 4.47513L12.7997 4.47565L12.8391 4.38374ZM12.8391 3.89307L12.7997 3.80115L12.7985 3.80169L12.8391 3.89307ZM14.7058 3.09307L14.7452 3.18499L14.7819 3.16923L14.7977 3.13246L14.7058 3.09307ZM15.5058 1.22641L15.4144 1.18579L15.4139 1.18701L15.5058 1.22641ZM15.9965 1.22641L16.0884 1.18701L16.0878 1.18579L15.9965 1.22641ZM16.7965 3.09307L16.7045 3.13246L16.7203 3.16923L16.7571 3.18499L16.7965 3.09307ZM18.6631 3.89307L18.7037 3.80168L18.7025 3.80116L18.6631 3.89307ZM18.6631 4.38374L18.7025 4.47566L18.7037 4.47512L18.6631 4.38374ZM16.7965 5.18374L16.7571 5.09183L16.7203 5.10758L16.7045 5.14435L16.7965 5.18374ZM15.9965 7.05041L16.0878 7.09102L16.0884 7.0898L15.9965 7.05041ZM13.6178 4.13307L13.5784 4.04118L13.3642 4.13307L13.5784 4.22497L13.6178 4.13307ZM15.0098 4.73041L14.9704 4.82231L14.9713 4.82271L15.0098 4.73041ZM15.1485 4.86907L15.0561 4.90754L15.0566 4.90851L15.1485 4.86907ZM15.7458 6.26107L15.6539 6.30051L15.7458 6.51466L15.8377 6.30051L15.7458 6.26107ZM16.3431 4.86907L16.435 4.90851L16.4354 4.90753L16.3431 4.86907ZM16.4818 4.73041L16.5203 4.82272L16.5212 4.8223L16.4818 4.73041ZM17.8738 4.13307L17.9132 4.22497L18.1274 4.13307L17.9132 4.04118L17.8738 4.13307ZM16.4818 3.53574L16.5212 3.44384L16.5203 3.44343L16.4818 3.53574ZM16.3431 3.39707L16.4354 3.35861L16.435 3.35764L16.3431 3.39707ZM15.7458 2.00507L15.8377 1.96564L15.7458 1.75149L15.6539 1.96564L15.7458 2.00507ZM15.1485 3.39707L15.0566 3.35764L15.0561 3.35861L15.1485 3.39707ZM15.0098 3.53574L14.9713 3.44343L14.9704 3.44384L15.0098 3.53574ZM21.3405 23.0184V22.9184H4.21512V23.0184V23.1184H21.3405V23.0184ZM4.21512 23.0184V22.9184C2.94235 22.9184 1.90445 21.8805 1.90445 20.6077H1.80445H1.70445C1.70445 21.991 2.83189 23.1184 4.21512 23.1184V23.0184ZM1.80445 20.6077H1.90445C1.90445 19.335 2.94235 18.2971 4.21512 18.2971V18.1971V18.0971C2.83189 18.0971 1.70445 19.2245 1.70445 20.6077H1.80445ZM4.21512 18.1971V18.2971C4.30923 18.2971 4.38179 18.3696 4.38179 18.4637H4.48179H4.58179C4.58179 18.2592 4.41968 18.0971 4.21512 18.0971V18.1971ZM4.48179 18.4637H4.38179C4.38179 18.5578 4.30923 18.6304 4.21512 18.6304V18.7304V18.8304C4.41968 18.8304 4.58179 18.6683 4.58179 18.4637H4.48179ZM4.21512 18.7304V18.6304C3.12523 18.6304 2.23779 19.5178 2.23779 20.6077H2.33779H2.43779C2.43779 19.6283 3.23568 18.8304 4.21512 18.8304V18.7304ZM2.33779 20.6077H2.23779C2.23779 21.6976 3.12523 22.5851 4.21512 22.5851V22.4851V22.3851C3.23568 22.3851 2.43779 21.5872 2.43779 20.6077H2.33779ZM4.21512 22.4851V22.5851H21.3405V22.4851V22.3851H4.21512V22.4851ZM21.3405 22.4851V22.5851C22.4304 22.5851 23.3178 21.6976 23.3178 20.6077H23.2178H23.1178C23.1178 21.5872 22.3199 22.3851 21.3405 22.3851V22.4851ZM23.2178 20.6077H23.3178C23.3178 19.5178 22.4304 18.6304 21.3405 18.6304V18.7304V18.8304C22.3199 18.8304 23.1178 19.6283 23.1178 20.6077H23.2178ZM21.3405 18.7304V18.6304C21.2464 18.6304 21.1738 18.5578 21.1738 18.4637H21.0738H20.9738C20.9738 18.6683 21.1359 18.8304 21.3405 18.8304V18.7304ZM21.0738 18.4637H21.1738C21.1738 18.3696 21.2464 18.2971 21.3405 18.2971V18.1971V18.0971C21.1359 18.0971 20.9738 18.2592 20.9738 18.4637H21.0738ZM21.3405 18.1971V18.2971C22.6132 18.2971 23.6511 19.335 23.6511 20.6077H23.7511H23.8511C23.8511 19.2245 22.7237 18.0971 21.3405 18.0971V18.1971ZM23.7511 20.6077H23.6511C23.6511 21.8805 22.6132 22.9184 21.3405 22.9184V23.0184V23.1184C22.7237 23.1184 23.8511 21.991 23.8511 20.6077H23.7511ZM20.1458 20.8744V20.7744H5.40979V20.8744V20.9744H20.1458V20.8744ZM5.40979 20.8744V20.7744C5.31568 20.7744 5.24312 20.7018 5.24312 20.6077H5.14312H5.04312C5.04312 20.8123 5.20523 20.9744 5.40979 20.9744V20.8744ZM5.14312 20.6077H5.24312C5.24312 20.5136 5.31568 20.4411 5.40979 20.4411V20.3411V20.2411C5.20523 20.2411 5.04312 20.4032 5.04312 20.6077H5.14312ZM5.40979 20.3411V20.4411H20.1458V20.3411V20.2411H5.40979V20.3411ZM20.1458 20.3411V20.4411C20.2399 20.4411 20.3125 20.5136 20.3125 20.6077H20.4125H20.5125C20.5125 20.4032 20.3504 20.2411 20.1458 20.2411V20.3411ZM20.4125 20.6077H20.3125C20.3125 20.7018 20.2399 20.7744 20.1458 20.7744V20.8744V20.9744C20.3504 20.9744 20.5125 20.8123 20.5125 20.6077H20.4125ZM21.3405 18.7304V18.6304H4.21512V18.7304V18.8304H21.3405V18.7304ZM4.21512 18.7304V18.6304C2.94235 18.6304 1.90445 17.5925 1.90445 16.3197H1.80445H1.70445C1.70445 17.703 2.83189 18.8304 4.21512 18.8304V18.7304ZM1.80445 16.3197H1.90445C1.90445 15.047 2.94235 14.0091 4.21512 14.0091V13.9091V13.8091C2.83189 13.8091 1.70445 14.9365 1.70445 16.3197H1.80445ZM4.21512 13.9091V14.0091C4.30923 14.0091 4.38179 14.0816 4.38179 14.1757H4.48179H4.58179C4.58179 13.9712 4.41968 13.8091 4.21512 13.8091V13.9091ZM4.48179 14.1757H4.38179C4.38179 14.2698 4.30923 14.3424 4.21512 14.3424V14.4424V14.5424C4.41968 14.5424 4.58179 14.3803 4.58179 14.1757H4.48179ZM4.21512 14.4424V14.3424C3.12523 14.3424 2.23779 15.2298 2.23779 16.3197H2.33779H2.43779C2.43779 15.3403 3.23568 14.5424 4.21512 14.5424V14.4424ZM2.33779 16.3197H2.23779C2.23779 17.4096 3.12523 18.2971 4.21512 18.2971V18.1971V18.0971C3.23568 18.0971 2.43779 17.2992 2.43779 16.3197H2.33779ZM4.21512 18.1971V18.2971H21.3405V18.1971V18.0971H4.21512V18.1971ZM21.3405 18.1971V18.2971C22.4304 18.2971 23.3178 17.4096 23.3178 16.3197H23.2178H23.1178C23.1178 17.2992 22.3199 18.0971 21.3405 18.0971V18.1971ZM23.2178 16.3197H23.3178C23.3178 15.2298 22.4304 14.3424 21.3405 14.3424V14.4424V14.5424C22.3199 14.5424 23.1178 15.3403 23.1178 16.3197H23.2178ZM21.3405 14.4424V14.3424C21.2464 14.3424 21.1738 14.2698 21.1738 14.1757H21.0738H20.9738C20.9738 14.3803 21.1359 14.5424 21.3405 14.5424V14.4424ZM21.0738 14.1757H21.1738C21.1738 14.0816 21.2464 14.0091 21.3405 14.0091V13.9091V13.8091C21.1359 13.8091 20.9738 13.9712 20.9738 14.1757H21.0738ZM21.3405 13.9091V14.0091C22.6132 14.0091 23.6511 15.047 23.6511 16.3197H23.7511H23.8511C23.8511 14.9365 22.7237 13.8091 21.3405 13.8091V13.9091ZM23.7511 16.3197H23.6511C23.6511 17.5925 22.6132 18.6304 21.3405 18.6304V18.7304V18.8304C22.7237 18.8304 23.8511 17.703 23.8511 16.3197H23.7511ZM20.1458 16.5864V16.4864H5.40979V16.5864V16.6864H20.1458V16.5864ZM5.40979 16.5864V16.4864C5.31568 16.4864 5.24312 16.4138 5.24312 16.3197H5.14312H5.04312C5.04312 16.5243 5.20523 16.6864 5.40979 16.6864V16.5864ZM5.14312 16.3197H5.24312C5.24312 16.2256 5.31568 16.1531 5.40979 16.1531V16.0531V15.9531C5.20523 15.9531 5.04312 16.1152 5.04312 16.3197H5.14312ZM5.40979 16.0531V16.1531H20.1458V16.0531V15.9531H5.40979V16.0531ZM20.1458 16.0531V16.1531C20.2399 16.1531 20.3125 16.2256 20.3125 16.3197H20.4125H20.5125C20.5125 16.1152 20.3504 15.9531 20.1458 15.9531V16.0531ZM20.4125 16.3197H20.3125C20.3125 16.4138 20.2399 16.4864 20.1458 16.4864V16.5864V16.6864C20.3504 16.6864 20.5125 16.5243 20.5125 16.3197H20.4125ZM21.3405 14.4424V14.3424H4.21512V14.4424V14.5424H21.3405V14.4424ZM4.21512 14.4424V14.3424C2.94235 14.3424 1.90445 13.3045 1.90445 12.0317H1.80445H1.70445C1.70445 13.415 2.83189 14.5424 4.21512 14.5424V14.4424ZM1.80445 12.0317H1.90445C1.90445 10.759 2.94235 9.72107 4.21512 9.72107V9.62107V9.52107C2.83189 9.52107 1.70445 10.6485 1.70445 12.0317H1.80445ZM4.21512 9.62107V9.72107C4.30923 9.72107 4.38179 9.79363 4.38179 9.88774H4.48179H4.58179C4.58179 9.68318 4.41968 9.52107 4.21512 9.52107V9.62107ZM4.48179 9.88774H4.38179C4.38179 9.98184 4.30923 10.0544 4.21512 10.0544V10.1544V10.2544C4.41968 10.2544 4.58179 10.0923 4.58179 9.88774H4.48179ZM4.21512 10.1544V10.0544C3.12523 10.0544 2.23779 10.9418 2.23779 12.0317H2.33779H2.43779C2.43779 11.0523 3.23568 10.2544 4.21512 10.2544V10.1544ZM2.33779 12.0317H2.23779C2.23779 13.1216 3.12523 14.0091 4.21512 14.0091V13.9091V13.8091C3.23568 13.8091 2.43779 13.0112 2.43779 12.0317H2.33779ZM4.21512 13.9091V14.0091H21.3405V13.9091V13.8091H4.21512V13.9091ZM21.3405 13.9091V14.0091C22.4304 14.0091 23.3178 13.1216 23.3178 12.0317H23.2178H23.1178C23.1178 13.0112 22.3199 13.8091 21.3405 13.8091V13.9091ZM23.2178 12.0317H23.3178C23.3178 10.9418 22.4304 10.0544 21.3405 10.0544V10.1544V10.2544C22.3199 10.2544 23.1178 11.0523 23.1178 12.0317H23.2178ZM21.3405 10.1544V10.0544C21.2464 10.0544 21.1738 9.98184 21.1738 9.88774H21.0738H20.9738C20.9738 10.0923 21.1359 10.2544 21.3405 10.2544V10.1544ZM21.0738 9.88774H21.1738C21.1738 9.79363 21.2464 9.72107 21.3405 9.72107V9.62107V9.52107C21.1359 9.52107 20.9738 9.68318 20.9738 9.88774H21.0738ZM21.3405 9.62107V9.72107C22.6132 9.72107 23.6511 10.759 23.6511 12.0317H23.7511H23.8511C23.8511 10.6485 22.7237 9.52107 21.3405 9.52107V9.62107ZM23.7511 12.0317H23.6511C23.6511 13.3045 22.6132 14.3424 21.3405 14.3424V14.4424V14.5424C22.7237 14.5424 23.8511 13.415 23.8511 12.0317H23.7511ZM20.1458 12.3037V12.2037H5.40979V12.3037V12.4037H20.1458V12.3037ZM5.40979 12.3037V12.2037C5.31568 12.2037 5.24312 12.1312 5.24312 12.0371H5.14312H5.04312C5.04312 12.2416 5.20523 12.4037 5.40979 12.4037V12.3037ZM5.14312 12.0371H5.24312C5.24312 11.943 5.31568 11.8704 5.40979 11.8704V11.7704V11.6704C5.20523 11.6704 5.04312 11.8325 5.04312 12.0371H5.14312ZM5.40979 11.7704V11.8704H20.1458V11.7704V11.6704H5.40979V11.7704ZM20.1458 11.7704V11.8704C20.2399 11.8704 20.3125 11.943 20.3125 12.0371H20.4125H20.5125C20.5125 11.8325 20.3504 11.6704 20.1458 11.6704V11.7704ZM20.4125 12.0371H20.3125C20.3125 12.1271 20.2386 12.2037 20.1458 12.2037V12.3037V12.4037C20.3516 12.4037 20.5125 12.235 20.5125 12.0371H20.4125ZM21.3405 10.1597V10.0597H4.21512V10.1597V10.2597H21.3405V10.1597ZM4.21512 10.1597V10.0597C2.94235 10.0597 1.90445 9.02184 1.90445 7.74907H1.80445H1.70445C1.70445 9.1323 2.83189 10.2597 4.21512 10.2597V10.1597ZM1.80445 7.74907H1.90445C1.90445 6.9771 2.28779 6.25652 2.93695 5.82715L2.88179 5.74374L2.82662 5.66033C2.12112 6.12696 1.70445 6.91038 1.70445 7.74907H1.80445ZM2.88179 5.74374L2.93641 5.8275C3.01442 5.77662 3.11723 5.79821 3.16603 5.87303L3.24979 5.81841L3.33355 5.76378C3.22234 5.59327 2.99448 5.55085 2.82716 5.65998L2.88179 5.74374ZM3.24979 5.81841L3.16603 5.87303C3.2169 5.95104 3.19531 6.05385 3.12049 6.10265L3.17512 6.18641L3.22975 6.27017C3.40026 6.15896 3.44267 5.9311 3.33355 5.76378L3.24979 5.81841ZM3.17512 6.18641L3.11965 6.1032C2.5638 6.47377 2.23779 7.08635 2.23779 7.74907H2.33779H2.43779C2.43779 7.15313 2.73045 6.60304 3.23059 6.26961L3.17512 6.18641ZM2.33779 7.74907H2.23779C2.23779 8.83897 3.12523 9.72641 4.21512 9.72641V9.62641V9.52641C3.23568 9.52641 2.43779 8.72851 2.43779 7.74907H2.33779ZM4.21512 9.62641V9.72641H21.3405V9.62641V9.52641H4.21512V9.62641ZM21.3405 9.62641V9.72641C22.4304 9.72641 23.3178 8.83897 23.3178 7.74907H23.2178H23.1178C23.1178 8.72851 22.3199 9.52641 21.3405 9.52641V9.62641ZM23.2178 7.74907H23.3178C23.3178 6.65918 22.4304 5.77174 21.3405 5.77174V5.87174V5.97174C22.3199 5.97174 23.1178 6.76963 23.1178 7.74907H23.2178ZM21.3405 5.87174V5.77174H16.3218V5.87174V5.97174H21.3405V5.87174ZM16.3218 5.87174V5.77174C16.2277 5.77174 16.1551 5.69918 16.1551 5.60507H16.0551H15.9551C15.9551 5.80963 16.1172 5.97174 16.3218 5.97174V5.87174ZM16.0551 5.60507H16.1551C16.1551 5.51097 16.2277 5.43841 16.3218 5.43841V5.33841V5.23841C16.1172 5.23841 15.9551 5.40051 15.9551 5.60507H16.0551ZM16.3218 5.33841V5.43841H21.3405V5.33841V5.23841H16.3218V5.33841ZM21.3405 5.33841V5.43841C22.6132 5.43841 23.6511 6.4763 23.6511 7.74907H23.7511H23.8511C23.8511 6.36584 22.7237 5.23841 21.3405 5.23841V5.33841ZM23.7511 7.74907H23.6511C23.6511 9.02184 22.6132 10.0597 21.3405 10.0597V10.1597V10.2597C22.7237 10.2597 23.8511 9.1323 23.8511 7.74907H23.7511ZM15.1751 5.87174V5.77174H4.21512V5.87174V5.97174H15.1751V5.87174ZM4.21512 5.87174V5.77174C4.12504 5.77174 4.04845 5.69788 4.04845 5.60507H3.94845H3.84845C3.84845 5.81093 4.0172 5.97174 4.21512 5.97174V5.87174ZM3.94845 5.60507H4.04845C4.04845 5.51231 4.1196 5.43841 4.20979 5.43841V5.33841V5.23841C4.00131 5.23841 3.84845 5.40984 3.84845 5.60507H3.94845ZM4.20979 5.33841V5.43841H15.1751V5.33841V5.23841H4.20979V5.33841ZM15.1751 5.33841V5.43841C15.2692 5.43841 15.3418 5.51097 15.3418 5.60507H15.4418H15.5418C15.5418 5.40051 15.3797 5.23841 15.1751 5.23841V5.33841ZM15.4418 5.60507H15.3418C15.3418 5.69918 15.2692 5.77174 15.1751 5.77174V5.87174V5.97174C15.3797 5.97174 15.5418 5.80963 15.5418 5.60507H15.4418ZM20.1458 8.01574V7.91574H5.40979V8.01574V8.11574H20.1458V8.01574ZM5.40979 8.01574V7.91574C5.31568 7.91574 5.24312 7.84318 5.24312 7.74907H5.14312H5.04312C5.04312 7.95364 5.20523 8.11574 5.40979 8.11574V8.01574ZM5.14312 7.74907H5.24312C5.24312 7.65497 5.31568 7.58241 5.40979 7.58241V7.48241V7.38241C5.20523 7.38241 5.04312 7.54451 5.04312 7.74907H5.14312ZM5.40979 7.48241V7.58241H20.1458V7.48241V7.38241H5.40979V7.48241ZM20.1458 7.48241V7.58241C20.2399 7.58241 20.3125 7.65497 20.3125 7.74907H20.4125H20.5125C20.5125 7.54451 20.3504 7.38241 20.1458 7.38241V7.48241ZM20.4125 7.74907H20.3125C20.3125 7.84318 20.2399 7.91574 20.1458 7.91574V8.01574V8.11574C20.3504 8.11574 20.5125 7.95364 20.5125 7.74907H20.4125ZM3.98579 7.44507V7.34507C3.93501 7.34507 3.88559 7.32081 3.85779 7.28374L3.77779 7.34374L3.69779 7.40374C3.76599 7.49467 3.87657 7.54507 3.98579 7.54507V7.44507ZM3.77779 7.34374L3.85628 7.28178L2.59762 5.68712L2.51912 5.74907L2.44063 5.81103L3.69929 7.4057L3.77779 7.34374ZM2.51912 5.74907L2.5333 5.65008L0.522633 5.36208L0.508454 5.46107L0.494275 5.56006L2.50494 5.84806L2.51912 5.74907ZM0.508454 5.46107L0.523288 5.36218C0.45539 5.35199 0.40338 5.3058 0.386801 5.23949L0.289787 5.26374L0.192773 5.28799C0.229527 5.43501 0.348184 5.53815 0.49362 5.55997L0.508454 5.46107ZM0.289787 5.26374L0.386494 5.23829C0.369822 5.17494 0.39402 5.10362 0.442923 5.06449L0.380454 4.98641L0.317984 4.90832C0.206888 4.9972 0.156418 5.14988 0.19308 5.28919L0.289787 5.26374ZM0.380454 4.98641L0.44241 5.0649L2.03708 3.80623L1.97512 3.72774L1.91316 3.64924L0.318498 4.90791L0.380454 4.98641ZM1.97512 3.72774L2.07411 3.74192L2.36211 1.73125L2.26312 1.71707L2.16413 1.70289L1.87613 3.71356L1.97512 3.72774ZM2.26312 1.71707L2.36201 1.73191C2.3722 1.66401 2.41839 1.612 2.48471 1.59542L2.46045 1.49841L2.4362 1.40139C2.28918 1.43815 2.18604 1.5568 2.16423 1.70224L2.26312 1.71707ZM2.46045 1.49841L2.4859 1.59511C2.54926 1.57844 2.62058 1.60264 2.6597 1.65154L2.73779 1.58907L2.81587 1.5266C2.727 1.41551 2.57432 1.36504 2.435 1.4017L2.46045 1.49841ZM2.73779 1.58907L2.65929 1.65103L3.91796 3.2457L3.99645 3.18374L4.07495 3.12178L2.81628 1.52712L2.73779 1.58907ZM3.99645 3.18374L3.98228 3.28273L5.99294 3.57073L6.00712 3.47174L6.0213 3.37275L4.01063 3.08475L3.99645 3.18374ZM6.00712 3.47174L5.99229 3.57063C6.06018 3.58082 6.11219 3.62701 6.12877 3.69333L6.22579 3.66907L6.3228 3.64482C6.28605 3.4978 6.16739 3.39466 6.02195 3.37285L6.00712 3.47174ZM6.22579 3.66907L6.12877 3.69333C6.1461 3.76264 6.12165 3.82912 6.07265 3.86832L6.13512 3.94641L6.19759 4.02449C6.30859 3.93569 6.35881 3.78884 6.3228 3.64482L6.22579 3.66907ZM6.13512 3.94641L6.07317 3.86791L4.4785 5.12658L4.54045 5.20507L4.60241 5.28357L6.19708 4.0249L6.13512 3.94641ZM4.54045 5.20507L4.44146 5.19089L4.15346 7.20156L4.25245 7.21574L4.35144 7.22992L4.63944 5.21925L4.54045 5.20507ZM4.25245 7.21574L4.15356 7.20091C4.14338 7.2688 4.09718 7.32081 4.03087 7.33739L4.05512 7.43441L4.07937 7.53142C4.22639 7.49467 4.32953 7.37601 4.35135 7.23057L4.25245 7.21574ZM4.05512 7.43441L4.03087 7.33739C4.01094 7.34237 3.99421 7.34507 3.98579 7.34507V7.44507V7.54507C4.02003 7.54507 4.05663 7.53711 4.07937 7.53142L4.05512 7.43441ZM1.20179 5.01841L1.18735 5.11736L2.68602 5.33603L2.70045 5.23707L2.71489 5.13812L1.21622 4.91945L1.20179 5.01841ZM2.70045 5.23707L2.68525 5.33591C2.73126 5.34299 2.76497 5.36247 2.79025 5.39722L2.87112 5.33841L2.95199 5.27959C2.89193 5.19701 2.80831 5.15249 2.71566 5.13824L2.70045 5.23707ZM2.87112 5.33841L2.79262 5.40036L3.73129 6.58969L3.80979 6.52774L3.88828 6.46579L2.94962 5.27645L2.87112 5.33841ZM3.80979 6.52774L3.90874 6.54218L4.12741 5.04351L4.02845 5.02907L3.9295 5.01464L3.71084 6.5133L3.80979 6.52774ZM4.02845 5.02907L4.12729 5.04428C4.13437 4.99827 4.15386 4.96455 4.1886 4.93928L4.12979 4.85841L4.07097 4.77753C3.98839 4.83759 3.94387 4.92121 3.92962 5.01387L4.02845 5.02907ZM4.12979 4.85841L4.19174 4.9369L5.38107 3.99824L5.31912 3.91974L5.25717 3.84124L4.06783 4.77991L4.12979 4.85841ZM5.31912 3.91974L5.33356 3.82079L3.83489 3.60212L3.82045 3.70107L3.80602 3.80003L5.30468 4.01869L5.31912 3.91974ZM3.82045 3.70107L3.83566 3.60224C3.78965 3.59516 3.75593 3.57567 3.73066 3.54092L3.64979 3.59974L3.56891 3.65856C3.62897 3.74114 3.71259 3.78566 3.80525 3.79991L3.82045 3.70107ZM3.64979 3.59974L3.72825 3.53774L2.78425 2.34307L2.70579 2.40507L2.62733 2.46707L3.57133 3.66174L3.64979 3.59974ZM2.70579 2.40507L2.60684 2.39063L2.38817 3.8893L2.48712 3.90374L2.58607 3.91818L2.80474 2.41951L2.70579 2.40507ZM2.48712 3.90374L2.38828 3.88853C2.3812 3.93455 2.36172 3.96826 2.32697 3.99353L2.38579 4.07441L2.4446 4.15528C2.52719 4.09522 2.5717 4.0116 2.58596 3.91895L2.48712 3.90374ZM2.38579 4.07441L2.32345 3.99622L1.13945 4.94022L1.20179 5.01841L1.26413 5.0966L2.44813 4.1526L2.38579 4.07441ZM15.7511 7.21041V7.11041C15.6847 7.11041 15.6241 7.07033 15.5972 7.00979L15.5058 7.05041L15.4144 7.09102C15.4728 7.22248 15.6042 7.31041 15.7511 7.31041V7.21041ZM15.5058 7.05041L15.5977 7.01101L14.7977 5.14435L14.7058 5.18374L14.6139 5.22313L15.4139 7.0898L15.5058 7.05041ZM14.7058 5.18374L14.7452 5.09183L12.8785 4.29182L12.8391 4.38374L12.7997 4.47565L14.6664 5.27565L14.7058 5.18374ZM12.8391 4.38374L12.8797 4.29236C12.8192 4.26545 12.7791 4.20485 12.7791 4.13841H12.6791H12.5791C12.5791 4.2853 12.667 4.41669 12.7985 4.47512L12.8391 4.38374ZM12.6791 4.13841H12.7791C12.7791 4.07197 12.8192 4.01136 12.8797 3.98445L12.8391 3.89307L12.7985 3.80169C12.667 3.86012 12.5791 3.99151 12.5791 4.13841H12.6791ZM12.8391 3.89307L12.8785 3.98499L14.7452 3.18499L14.7058 3.09307L14.6664 3.00116L12.7997 3.80116L12.8391 3.89307ZM14.7058 3.09307L14.7977 3.13246L15.5977 1.2658L15.5058 1.22641L15.4139 1.18701L14.6139 3.05368L14.7058 3.09307ZM15.5058 1.22641L15.5972 1.26702C15.6241 1.20648 15.6847 1.16641 15.7511 1.16641V1.06641V0.966406C15.6042 0.966406 15.4728 1.05433 15.4144 1.18579L15.5058 1.22641ZM15.7511 1.06641V1.16641C15.8176 1.16641 15.8782 1.20648 15.9051 1.26702L15.9965 1.22641L16.0878 1.18579C16.0294 1.05433 15.898 0.966406 15.7511 0.966406V1.06641ZM15.9965 1.22641L15.9045 1.2658L16.7045 3.13246L16.7965 3.09307L16.8884 3.05368L16.0884 1.18701L15.9965 1.22641ZM16.7965 3.09307L16.7571 3.18499L18.6237 3.98499L18.6631 3.89307L18.7025 3.80116L16.8358 3.00116L16.7965 3.09307ZM18.6631 3.89307L18.6225 3.98445C18.683 4.01136 18.7231 4.07197 18.7231 4.13841H18.8231H18.9231C18.9231 3.99151 18.8352 3.86012 18.7037 3.80169L18.6631 3.89307ZM18.8231 4.13841H18.7231C18.7231 4.20485 18.683 4.26545 18.6225 4.29236L18.6631 4.38374L18.7037 4.47512C18.8352 4.41669 18.9231 4.2853 18.9231 4.13841H18.8231ZM18.6631 4.38374L18.6237 4.29182L16.7571 5.09183L16.7965 5.18374L16.8358 5.27565L18.7025 4.47565L18.6631 4.38374ZM16.7965 5.18374L16.7045 5.14435L15.9045 7.01101L15.9965 7.05041L16.0884 7.0898L16.8884 5.22313L16.7965 5.18374ZM15.9965 7.05041L15.9051 7.00979C15.8782 7.07033 15.8176 7.11041 15.7511 7.11041V7.21041V7.31041C15.898 7.31041 16.0294 7.22248 16.0878 7.09102L15.9965 7.05041ZM13.6178 4.13307L13.5784 4.22497L14.9704 4.8223L15.0098 4.73041L15.0492 4.63851L13.6572 4.04118L13.6178 4.13307ZM15.0098 4.73041L14.9713 4.82271C15.011 4.83924 15.0396 4.86788 15.0561 4.90753L15.1485 4.86907L15.2408 4.83061C15.204 4.74226 15.1366 4.67491 15.0482 4.6381L15.0098 4.73041ZM15.1485 4.86907L15.0566 4.90851L15.6539 6.30051L15.7458 6.26107L15.8377 6.22164L15.2404 4.82964L15.1485 4.86907ZM15.7458 6.26107L15.8377 6.30051L16.435 4.90851L16.3431 4.86907L16.2512 4.82964L15.6539 6.22164L15.7458 6.26107ZM16.3431 4.86907L16.4354 4.90753C16.452 4.86788 16.4806 4.83924 16.5203 4.82271L16.4818 4.73041L16.4433 4.6381C16.355 4.67491 16.2876 4.74226 16.2508 4.83061L16.3431 4.86907ZM16.4818 4.73041L16.5212 4.8223L17.9132 4.22497L17.8738 4.13307L17.8344 4.04118L16.4424 4.63851L16.4818 4.73041ZM17.8738 4.13307L17.9132 4.04118L16.5212 3.44384L16.4818 3.53574L16.4424 3.62764L17.8344 4.22497L17.8738 4.13307ZM16.4818 3.53574L16.5203 3.44343C16.4806 3.42691 16.452 3.39826 16.4354 3.35861L16.3431 3.39707L16.2508 3.43553C16.2876 3.52388 16.355 3.59124 16.4433 3.62805L16.4818 3.53574ZM16.3431 3.39707L16.435 3.35764L15.8377 1.96564L15.7458 2.00507L15.6539 2.04451L16.2512 3.43651L16.3431 3.39707ZM15.7458 2.00507L15.6539 1.96564L15.0566 3.35764L15.1485 3.39707L15.2404 3.43651L15.8377 2.04451L15.7458 2.00507ZM15.1485 3.39707L15.0561 3.35861C15.0396 3.39826 15.011 3.42691 14.9713 3.44343L15.0098 3.53574L15.0482 3.62805C15.1366 3.59124 15.204 3.52388 15.2408 3.43553L15.1485 3.39707ZM15.0098 3.53574L14.9704 3.44384L13.5784 4.04118L13.6178 4.13307L13.6572 4.22497L15.0492 3.62764L15.0098 3.53574Z" fill="url(#paint1_linear_1081_462)" mask="url(#path-1-outside-1_1081_462)"/>
</g>
<defs>
<linearGradient id="paint0_linear_1081_462" x1="11.8385" y1="23.2188" x2="12.184" y2="0.46311" gradientUnits="userSpaceOnUse">
<stop stop-color="#006DF0"/>
<stop offset="1" stop-color="#00E7F0"/>
</linearGradient>
<linearGradient id="paint1_linear_1081_462" x1="12.0162" y1="1.06641" x2="12.0162" y2="23.0184" gradientUnits="userSpaceOnUse">
<stop stop-color="#00E7F0"/>
<stop offset="1" stop-color="#006DF0"/>
</linearGradient>
<clipPath id="clip0_1081_462">
<rect width="24" height="24" fill="white"/>
</clipPath>
</defs>
</svg>
