<svg width="36" height="36" viewBox="0 0 36 36" fill="none" xmlns="http://www.w3.org/2000/svg">
<ellipse cx="18.3127" cy="17.7585" rx="14.8186" ry="13.814" transform="rotate(45 18.3127 17.7585)" fill="#F4F8FF"/>
<path fill-rule="evenodd" clip-rule="evenodd" d="M30.7137 5.38735C37.7258 12.3994 37.7258 23.809 30.7137 30.8211C23.7016 37.8332 12.292 37.8332 5.27994 30.8211C-1.73216 23.809 -1.73216 12.3994 5.27994 5.38735C12.292 -1.62475 23.7016 -1.62475 30.7137 5.38735ZM21.2854 17.359L21.2854 20.6476C21.2936 21.1191 21.4867 21.5685 21.823 21.8991C22.1593 22.2296 22.612 22.4148 23.0836 22.4148C23.5552 22.4148 24.0079 22.2296 24.3442 21.8991C24.6805 21.5685 24.8736 21.1191 24.8818 20.6476L24.8818 13.0175C24.8824 12.7812 24.8364 12.547 24.7463 12.3286C24.6561 12.1101 24.5237 11.9116 24.3566 11.7445C24.1895 11.5774 23.991 11.4449 23.7725 11.3548C23.5541 11.2647 23.3199 11.2186 23.0836 11.2193L15.4535 11.2193C14.982 11.2275 14.5326 11.4206 14.202 11.7569C13.8715 12.0932 13.6863 12.5459 13.6863 13.0175C13.6863 13.489 13.8715 13.9417 14.202 14.2781C14.5326 14.6144 14.982 14.8075 15.4535 14.8157L18.742 14.8157L11.6384 21.9193C11.3011 22.2566 11.1116 22.714 11.1116 23.191C11.1116 23.668 11.3011 24.1254 11.6384 24.4627C11.9757 24.8 12.4331 24.9894 12.9101 24.9894C13.3871 24.9894 13.8445 24.8 14.1818 24.4627L21.2854 17.359Z" fill="url(#paint0_linear_154_5)"/>
<defs>
<linearGradient id="paint0_linear_154_5" x1="42.3069" y1="9.76433" x2="-11.459" y2="15.2651" gradientUnits="userSpaceOnUse">
<stop stop-color="#23CAFF"/>
<stop offset="1" stop-color="#E12496" stop-opacity="0.91"/>
</linearGradient>
</defs>
</svg>
