<svg width="309" height="46" viewBox="0 0 309 46" fill="none" xmlns="http://www.w3.org/2000/svg">
<path d="M0.375046 1.57096C0.375046 1.73473 0.500061 1.93125 0.656331 1.99676C1.37517 2.25879 16.002 17.7187 16.002 18.21C16.002 18.5048 12.4078 22.468 8.00098 27.0536L0 35.3403H11.4702L19.5336 26.8898C23.9404 22.2715 27.5659 18.341 27.5659 18.21C27.5659 18.079 23.9717 14.214 19.5962 9.62845L11.5952 1.27617H6.00074C2.78159 1.27617 0.375046 1.40719 0.375046 1.57096Z" fill="#EC1515"/>
<path d="M30.3162 9.56294C34.6293 14.083 38.1922 18.0462 38.1922 18.3083C38.1922 18.5703 34.598 22.5335 30.1912 27.0536L22.1902 35.3403H33.6604L41.6301 27.0208C46.0057 22.4353 49.6311 18.5375 49.6936 18.341C49.7561 18.1772 46.1932 14.2468 41.7864 9.62845L33.7854 1.27617H22.409L30.3162 9.56294Z" fill="#EC1515"/>
<path d="M61.9451 35.1766L64.4767 35.1438L67.0082 35.0783L66.977 31.1478C66.9457 28.9861 66.852 26.8243 66.977 26.333V25.5141H71.3525C76.6206 25.5141 81.3286 25.1875 84.6354 18.603C85.448 16.9981 85.5105 16.5068 85.5418 13.3952C85.5418 10.5456 85.4167 9.69395 84.8542 8.41655C83.9166 6.25478 81.51 3.66722 79.291 2.45532C77.072 1.24342 69.6961 1.34168 69.6961 1.34168L61.9451 1.21066V35.1766ZM75.7281 6.58232C78.7916 7.58118 80.5099 9.7917 80.5099 13.1004C80.5099 18.3998 76.0722 20.2735 71.4775 20.2735C67.9458 20.2735 67.5708 20.208 67.2583 19.6512C67.0707 19.2581 66.9457 16.5395 66.9457 13.1004C66.9457 8.18727 67.0395 7.13914 67.4458 6.71334C68.0709 6.05826 73.7903 5.99275 75.7281 6.58232Z" fill="#EC1515"/>
<path d="M97.9808 9.79221C95.0429 10.2508 92.3551 12.0195 90.6361 14.6726C87.7871 18.9216 87.6633 25.378 90.1361 29.8377C93.3022 35.4442 102.517 38.6034 107.294 33.2113C108.357 32.0649 108.826 32.1632 108.826 33.5389C108.826 34.273 108.826 34.9114 108.826 35.3404C109.451 35.3404 109.357 35.3403 111.014 35.3403H113.826V9.79221H111.014C109.357 9.79221 109.607 9.79223 108.826 9.79223C108.826 10.2155 108.826 10.8711 108.826 11.5937C108.826 12.216 108.701 12.7401 108.513 12.7401C108.045 12.7401 107.544 12.2488 106.732 11.6592C104.146 9.7522 101.126 9.25192 97.9808 9.79221ZM103.982 14.9346C109.211 17.6747 110.101 24.4726 106.107 28.6585C103.825 31.0496 100.262 31.7046 97.512 30.2307C94.8867 28.8223 92.8864 25.4486 92.8864 22.4025C92.8864 19.6874 94.9372 16.6458 97.0119 15.2621C98.9184 14.0175 101.95 13.8865 103.982 14.9346Z" fill="#EC1515"/>
<path d="M120.452 18.3738C120.577 25.6452 120.671 27.2174 121.14 28.5275C123.429 34.858 134.034 38.8354 137.704 32.4252C138.504 31.1676 139.142 32.753 139.142 33.5061C139.142 37.9354 135.448 40.9085 131.485 40.9085C129.615 40.9085 127.222 40.1223 125.547 39.2708L123.703 38.2882L122.921 39.2053C122.515 39.6966 121.89 40.4172 121.577 40.7775C120.984 41.4653 120.984 41.4981 122.484 42.448C125.578 44.446 127.359 44.9373 131.547 44.97C135.576 45.0122 139.431 45.0466 142.142 39.5656C143.611 36.5522 143.611 36.4867 143.736 22.7956L143.861 9.79222H139.142V16.8016C139.142 26.1692 137.324 34.0987 128.953 29.9032C124.362 27.6177 125.078 21.7828 125.078 17.4567V9.79222H120.359L120.452 18.3738Z" fill="#EC1515"/>
<path d="M150.393 1.01414C150.393 1.24342 150.393 9.03888 150.393 18.3083L150.362 35.1766L155.707 35.3731V18.5048C155.707 9.2354 155.613 1.43995 155.519 1.14516C155.363 0.719358 154.832 0.621096 152.863 0.621096C151.081 0.621096 150.393 0.752112 150.393 1.01414Z" fill="#ECC115"/>
<path d="M169.74 1.83299C169.115 2.52083 166.395 6.02551 163.676 9.62845C160.926 13.2314 158.519 16.3758 158.301 16.6051C158.082 16.8671 157.738 17.3584 157.551 17.7187C157.207 18.3738 157.269 18.5048 158.676 20.1425C158.863 20.339 161.52 23.8437 164.614 27.9052L170.24 35.3076L173.928 35.3403H177.616L176.428 33.7682C175.772 32.9165 175.178 32.1632 175.084 32.0649C174.99 31.9667 174.303 31.0823 173.521 30.0997C172.74 29.1171 171.959 28.1017 171.74 27.8724C171.521 27.6432 170.833 26.7588 170.177 25.9072C169.521 25.0556 168.521 23.8109 167.927 23.1559C167.333 22.468 166.645 21.5837 166.364 21.1906C166.114 20.7648 165.489 19.9787 165.02 19.4546C164.551 18.8978 164.145 18.341 164.145 18.21C164.145 18.079 165.52 16.2448 167.208 14.1485C168.865 12.0522 170.677 9.82497 171.177 9.16989C171.709 8.51481 172.365 7.66321 172.677 7.33567C173.803 6.02551 176.99 1.83299 177.303 1.24342C177.584 0.653848 177.428 0.621094 174.209 0.621094H170.833L169.74 1.83299Z" fill="#ECC115"/>
<path d="M177.897 22.599C177.897 26.464 179.147 29.8377 181.397 32.0649C186.804 35.8316 191.805 35.9954 198.056 33.9974C199.837 33.1458 201.337 32.1305 201.337 31.8029C201.337 31.6719 200.868 31.0823 200.087 30.1652C199.462 29.2808 199.462 29.1171 198.837 28.3965C195.555 29.7722 190.521 31.5615 186.804 29.9032C185.429 29.2809 184.648 28.4948 183.866 26.9226C183.085 25.2849 183.022 24.335 183.71 24.073C183.991 23.9747 188.117 23.8764 192.93 23.8764C201.368 23.8764 201.681 23.8437 202.306 23.1886C205.459 19.8843 199.148 11.1024 193.899 9.62845C187.011 8.25361 177.897 10.0322 177.897 22.599ZM192.961 14.5088C195.118 15.4587 197.681 18.7341 196.868 19.5857C196.649 19.8149 194.586 19.946 190.367 19.946C183.491 19.946 183.21 19.8805 184.054 18.0462C185.483 14.9765 189.957 13.2209 192.961 14.5088Z" fill="#ECC115"/>
<path d="M206.338 22.599C206.338 26.464 207.588 29.8377 209.838 32.065C215.245 35.8317 220.246 35.9954 226.497 33.9974C228.278 33.1458 229.778 32.1305 229.778 31.8029C229.778 31.6719 229.309 31.0823 228.528 30.1652C227.903 29.2809 227.903 29.1171 227.278 28.3965C223.996 29.7722 218.962 31.5615 215.245 29.9032C213.87 29.2809 213.089 28.4948 212.307 26.9226C211.526 25.2849 211.464 24.335 212.151 24.073C212.432 23.9747 216.558 23.8765 221.371 23.8765C229.81 23.8765 230.122 23.8437 230.747 23.1886C233.9 19.8843 227.589 11.1024 222.34 9.62846C215.452 8.25362 206.338 10.0322 206.338 22.599ZM221.402 14.5088C223.559 15.4587 226.122 18.7341 225.309 19.5857C225.09 19.815 223.027 19.946 218.808 19.946C211.932 19.946 211.651 19.8805 212.495 18.0462C213.924 14.9765 218.398 13.2209 221.402 14.5088Z" fill="#ECC115"/>
<path d="M234.779 21.1906C234.591 21.2561 234.466 25.6452 234.466 33.0476V45.1665C236.337 45.1665 238.211 45.1665 240.092 45.1665V39.1398C240.092 35.7334 240.217 33.0148 240.373 32.8838C243.999 35.0774 256.188 36.6505 259.751 26.202C260.688 23.1231 260.344 17.1469 257.969 14.7053C246.343 2.7501 234.779 14.214 234.779 21.1906ZM254.062 18.5375C261.97 29.1171 240.092 36.3616 240.092 22.5335C240.092 13.6295 250.555 12.1658 254.062 18.5375Z" fill="#ECC115"/>
<path d="M298.38 9.62844H293.38L293.286 22.3698C293.255 29.7722 293.349 35.2093 293.505 35.3076C293.661 35.4059 294.849 35.4714 296.13 35.4059L298.474 35.3076L298.599 28.0362C298.724 21.2889 298.787 20.6338 299.443 19.2254C300.818 16.2775 303.1 14.7708 306.506 14.6398L308.694 14.5415L308.882 8.4493C298.068 11.7575 298.38 14.5156 298.38 9.62844Z" fill="#ECC115"/>
<path d="M264.157 22.599C264.157 26.464 265.408 29.8377 267.658 32.065C273.065 35.8317 278.065 35.9954 284.316 33.9974C286.098 33.1458 287.598 32.1305 287.598 31.8029C287.598 31.6719 287.129 31.0823 286.348 30.1652C285.723 29.2809 285.723 29.1171 285.098 28.3965C281.816 29.7722 276.781 31.5615 273.065 29.9032C271.69 29.2809 270.908 28.4948 270.127 26.9226C269.346 25.2849 269.283 24.335 269.971 24.073C270.252 23.9747 274.377 23.8765 279.191 23.8765C287.629 23.8765 287.942 23.8437 288.567 23.1886C291.72 19.8843 285.408 11.1024 280.159 9.62846C273.272 8.25362 264.157 10.0322 264.157 22.599ZM279.222 14.5088C281.378 15.4587 283.941 18.7341 283.129 19.5857C282.91 19.815 280.847 19.946 276.628 19.946C269.752 19.946 269.471 19.8805 270.314 18.0462C271.743 14.9765 276.218 13.2209 279.222 14.5088Z" fill="#ECC115"/>
</svg>
