<svg width="291" height="33" viewBox="0 0 291 33" fill="none" xmlns="http://www.w3.org/2000/svg">
<path d="M3.5805 0.454974C2.45392 0.941616 1.44913 1.94353 1.02286 3.00269C0.80972 3.54658 0.687927 8.64202 0.687927 17.9741V32.1154H7.69099V23.2413H17.0081L19.444 27.6783L21.8494 32.1154H25.899C28.0912 32.1154 29.9181 32.0295 29.9181 31.9436C29.9181 31.8291 28.6697 29.4818 27.1169 26.7337L24.3461 21.6955L25.0769 21.2661C29.1874 18.7184 31.0142 13.7088 29.9181 7.98362C29.2178 4.49124 27.4214 2.02941 24.6506 0.884364C23.0977 0.225965 22.8237 0.197339 13.7806 0.140087C6.47307 0.0828352 4.31125 0.140087 3.5805 0.454974ZM21.2404 6.92446C21.7276 7.09621 22.2147 7.61148 22.4888 8.26988C23.0673 9.55805 23.1282 12.85 22.6106 13.8233C21.3013 16.1993 19.6875 16.6573 12.8063 16.6573H7.69099V6.6382H14.0546C17.5562 6.6382 20.7837 6.7527 21.2404 6.92446ZM40.2705 0.311843C37.2561 1.17062 35.0943 3.20307 34.1808 5.9798C33.4501 8.21263 32.6584 13.4798 32.6584 16.0275C32.6584 18.4894 33.3892 23.4989 34.0286 25.5314C35.1552 29.0524 37.0734 30.8558 40.6054 31.7146C42.1278 32.0867 43.7415 32.144 48.9177 32.0581C54.8551 31.9722 55.4641 31.8864 56.956 31.2852C61.2492 29.4818 63.1065 24.9016 63.1065 16.0848C63.0761 6.80995 61.1579 2.22979 56.6211 0.655356C55.0073 0.111461 54.307 0.0542091 47.9434 0.0828352C44.1374 0.0828352 40.6967 0.197339 40.2705 0.311843ZM54.4288 7.29659C56.4689 9.93019 56.4384 22.8978 54.3679 24.8157C53.759 25.4169 42.0365 25.4455 41.5188 24.873C40.0878 23.2413 39.5702 13.8233 40.6663 9.41492C41.123 7.66873 41.3666 7.12484 41.8842 6.92446C42.2496 6.78133 45.1422 6.69545 48.2783 6.72407C53.424 6.78133 54.0635 6.83858 54.4288 7.29659ZM69.6833 0.683982C69.0135 1.05612 68.1914 1.8004 67.8564 2.34429C67.2475 3.31758 67.217 3.83285 67.1257 15.2833C67.0648 23.2699 67.1561 27.5925 67.3693 28.394C67.8869 30.1688 69.2266 31.457 71.0535 31.8005C72.9413 32.2012 86.3689 32.2012 88.7743 31.8291C93.4633 31.1135 95.8687 28.5371 96.2036 23.8138C96.4168 21.1516 95.96 19.1764 94.7726 17.4016L93.8896 16.1134L95.0162 14.0523C96.1123 12.0771 96.1427 11.8768 96.1427 9.10003C96.1427 6.72407 95.9905 5.95117 95.4424 4.7775C94.5594 2.97406 93.4937 1.9149 91.5755 0.970242L90.0531 0.197339L80.462 0.111461C70.9622 0.0542091 70.8708 0.0542092 69.6833 0.683982ZM88.5307 6.98171C88.957 7.38247 89.231 9.30042 88.957 10.1878C88.8047 10.7031 88.3176 11.4187 87.8913 11.8195C87.1301 12.5065 87.0083 12.5065 80.736 12.5924L74.3723 12.6783V6.60957L81.345 6.69545C85.1814 6.7527 88.4089 6.8672 88.5307 6.98171ZM87.191 19.7489C88.4089 20.2069 89.0788 21.4379 89.0483 23.0695C89.0179 24.1001 88.8656 24.6153 88.5003 24.873C88.1044 25.1592 86.1862 25.2451 81.1623 25.2451H74.3723V19.1764L80.4011 19.2909C83.6895 19.3768 86.7647 19.5772 87.191 19.7489ZM106.404 0.655356C103.45 1.74314 101.958 3.68972 100.801 7.98362C100.223 10.1592 100.131 11.3042 100.131 16.0848C100.131 21.2947 100.192 21.8672 100.954 24.5295C101.897 27.7642 102.78 29.1669 104.546 30.3978C106.739 31.8577 107.409 31.9722 115.173 31.9722C122.937 31.9722 123.607 31.8577 125.799 30.3978C127.565 29.1669 128.448 27.7642 129.392 24.5295C130.153 21.8672 130.214 21.2947 130.214 16.0848C130.214 11.3042 130.123 10.1592 129.544 7.98362C128.387 3.63246 126.895 1.71452 123.851 0.655356C122.298 0.111461 121.536 0.0542091 115.081 0.0828352C108.718 0.0828352 107.865 0.140087 106.404 0.655356ZM121.08 6.92446C121.902 7.21072 122.267 8.09812 122.846 11.3329C123.576 15.3119 122.937 22.8119 121.719 24.5581C121.262 25.2451 121.232 25.2451 115.173 25.2451C108.048 25.2451 108.474 25.4455 107.683 21.6382C106.556 16.371 107.469 7.58285 109.175 6.92446C110.088 6.58094 120.105 6.58094 121.08 6.92446Z" fill="#276EB8"/>
<path d="M136.11 1.09407L135.166 1.98148V30.3213L136.049 31.1514C136.84 31.8671 137.175 31.9816 138.728 31.9816C140.22 31.9816 140.646 31.8671 141.194 31.3232C142.26 30.264 142.473 29.0331 142.473 24.0522V19.3861H146.949L149.202 21.2182C153.709 24.8537 155.261 26.8002 155.261 28.7468C155.261 29.8346 155.414 30.1781 156.297 31.0083C157.21 31.8671 157.515 31.9816 158.885 31.9816C160.164 31.9816 160.59 31.8384 161.412 31.1514C162.386 30.3499 162.417 30.2354 162.386 28.1457C162.356 26.3422 162.204 25.6838 161.412 24.1667C160.346 22.1628 157.241 18.5846 155.292 17.1247L154.013 16.18L155.992 14.4911C158.367 12.43 160.559 9.76776 161.595 7.67806C162.173 6.47577 162.356 5.61699 162.386 4.01393C162.417 1.95286 162.386 1.83835 161.412 1.03682C160.529 0.292544 160.194 0.206666 158.489 0.206666C156.723 0.206666 156.449 0.292544 155.901 0.950943C155.475 1.46621 155.261 2.12461 155.261 2.98339C155.261 3.67042 155.079 4.6437 154.835 5.15897C154.318 6.36126 152.004 8.73722 149.202 10.9987L146.949 12.8021H142.473V8.13608C142.473 5.58836 142.321 3.01202 142.169 2.4395C141.712 0.893691 140.616 0.206666 138.637 0.206666C137.267 0.206666 136.901 0.32117 136.11 1.09407ZM174.87 0.607431C170.76 1.83835 168.506 4.58645 166.923 10.1972C166.192 12.7162 166.131 13.575 166.01 20.846C165.827 29.4338 165.949 30.3785 167.349 31.409C168.354 32.1533 170.942 32.1819 171.886 31.4663C172.982 30.6361 173.226 29.8346 173.226 26.8575V23.9663H189.059V27.1438C189.059 30.264 189.059 30.3213 189.942 31.1514C190.733 31.8671 191.068 31.9816 192.56 31.9816C194.113 31.9816 194.387 31.8957 195.209 31.0655L196.092 30.1495L196.001 20.9892C195.879 12.5159 195.818 11.6285 195.209 9.71051C193.748 5.1876 191.616 2.35362 188.754 1.09407C187.171 0.407048 186.745 0.349796 181.599 0.292544C177.702 0.235292 175.753 0.32117 174.87 0.607431ZM185.375 7.10554C187.049 7.64944 188.48 11.1132 188.876 15.4357L189.028 17.3823H173.134L173.348 15.0922C173.713 11.0559 175.388 7.2773 176.941 6.99104C178.432 6.7334 184.461 6.81928 185.375 7.10554ZM205.653 0.607431C202.669 1.49484 200.995 2.86889 199.959 5.35935C199.442 6.6189 199.289 7.53493 199.289 9.79639C199.289 14.3766 200.751 16.9815 204.192 18.556C205.562 19.1857 206.11 19.243 212.108 19.3861C218.319 19.5292 218.594 19.5579 219.263 20.1876C220.146 21.0178 220.238 23.451 219.416 24.6247L218.898 25.3976H210.707C202.974 25.3976 202.486 25.4262 201.756 25.9701C200.051 27.2296 199.99 29.9777 201.603 31.2659L202.517 31.9816H211.377C216.31 31.9816 220.755 31.8384 221.364 31.6953C223.039 31.2659 224.835 29.6056 225.962 27.4586C226.906 25.6552 226.967 25.3976 226.967 22.3918C226.967 19.5865 226.875 19.0712 226.175 17.6685C225.17 15.6647 223.8 14.1762 222.308 13.4891C221.334 13.0311 220.207 12.9166 214.239 12.8021C206.171 12.6304 206.414 12.7449 206.414 9.79639C206.414 6.81928 205.958 6.96241 215.671 6.79066L224.074 6.64752L224.896 5.87462C225.627 5.1876 225.718 4.84408 225.84 2.6685L225.992 0.206666L216.432 0.235292C209.611 0.235292 206.536 0.349796 205.653 0.607431ZM235.797 0.607431C235.127 0.807813 234.183 1.17995 233.665 1.40896C229.738 3.35553 228.093 9.88227 230.346 14.5197C231.29 16.4663 232.326 17.4968 234.274 18.4701C235.736 19.2144 235.979 19.243 241.886 19.3289C245.236 19.3575 248.341 19.5579 248.798 19.701C249.864 20.1018 250.381 21.5617 250.107 23.2792C249.772 25.4548 250.016 25.3976 240.79 25.3976H232.539L231.656 26.2277C230.895 26.972 230.773 27.2869 230.773 28.6896C230.773 30.0922 230.895 30.4071 231.656 31.1514L232.539 31.9816H241.734C251.965 31.9816 252.208 31.9529 254.34 30.035C256.197 28.3461 257.049 26.3422 257.202 23.0502C257.384 19.243 256.623 17.0101 254.37 14.9204C253.365 13.9758 252.36 13.3174 251.599 13.117C250.929 12.9453 247.885 12.8021 244.748 12.8021C241.612 12.8021 238.659 12.7162 238.141 12.6304C237.045 12.43 236.558 11.5426 236.558 9.79639C236.558 8.0502 237.045 7.16279 238.141 6.96241C238.659 6.87653 242.343 6.79066 246.362 6.79066C255.832 6.79066 256.045 6.67615 256.045 2.35362V0.206666L246.545 0.235292C239.755 0.235292 236.649 0.349796 235.797 0.607431ZM269.168 0.779187C268.285 1.06545 267.067 1.66659 266.488 2.09598C264.053 3.84217 261.86 8.42234 261.251 13.0884C260.795 16.3517 260.825 29.0617 261.251 30.2354C261.678 31.3518 262.896 31.9816 264.692 31.9816C265.788 31.9816 266.275 31.8098 267.067 31.1514L268.072 30.3213L268.163 27.1438L268.285 23.9663H283.692L283.813 27.1438L283.905 30.3213L284.909 31.1514C285.701 31.8384 286.158 31.9816 287.406 31.9816C288.655 31.9816 289.111 31.8384 289.903 31.1514L290.908 30.3213L290.877 21.3327C290.847 13.117 290.816 12.201 290.207 10.1399C288.837 5.41661 286.797 2.554 283.844 1.17995C282.108 0.378422 281.956 0.349796 276.445 0.292544C271.482 0.206666 270.629 0.263918 269.168 0.779187ZM281.347 7.9357C282.565 9.28112 283.478 12.1437 283.661 15.0063L283.844 17.3823H268.224V15.6361C268.224 12.0006 269.929 7.76394 271.634 7.07692C272.03 6.93378 274.161 6.84791 276.414 6.87653L280.464 6.93378L281.347 7.9357Z" fill="#D61E2F"/>
</svg>
