<svg width="203" height="59" viewBox="0 0 203 59" fill="none" xmlns="http://www.w3.org/2000/svg">
<path fill-rule="evenodd" clip-rule="evenodd" d="M47.4073 27.175C46.4814 24.4711 46.1619 21.6053 46.4701 18.7709C46.7738 15.9362 47.6989 13.1979 49.1827 10.741C54.4974 1.94029 65.9244 -1.85091 76.6643 0.863545L79.7844 5.44246L74.79 9.27322C64.5272 6.60411 53.9328 10.4066 49.5145 17.6999C47.8024 20.5626 47.0649 23.8794 47.4073 27.175Z" fill="#F35C22"/>
<path d="M0 19.0088C0.0165789 17.7341 0.540341 16.5152 1.46111 15.6088C2.38623 14.6977 3.63827 14.1716 4.95379 14.141C6.28305 14.1554 7.55358 14.6761 8.49301 15.5918C9.43355 16.5062 9.96855 17.7432 9.98326 19.0372C9.95737 20.3168 9.42077 21.5363 8.48719 22.4374C7.54437 23.3397 6.27587 23.8463 4.95379 23.8484C3.64274 23.8344 2.3893 23.3218 1.46111 22.4204C0.534421 21.513 0.00987685 20.2884 0 19.0088ZM0.943021 27.5093H9.05183V58.1106H0.943021V27.5093Z" fill="#1A1717"/>
<path d="M45.6025 39.3189V58.1105H37.4879V40.2993C37.4879 36.1398 34.9149 33.9977 31.2651 33.9977C27.3066 33.9977 24.3495 36.2644 24.3495 41.5857V58.1105H16.2407V27.509H24.3495V30.9092C26.2357 28.1552 29.5071 26.625 33.7157 26.625C40.4216 26.6534 45.6025 31.1813 45.6025 39.3189Z" fill="#1A1717"/>
<path d="M50.4809 48.3803L57.9028 44.1528C59.4745 48.1196 62.5597 50.7038 68.0199 50.7038C73.2589 50.7038 75.0634 48.5616 75.0634 46.1703C75.0634 42.9854 72.1064 41.7614 65.5692 39.9366C58.8458 38.0383 52.3029 35.284 52.3029 27.1463C52.3029 19.0087 59.2183 14.4185 66.7625 14.4185C73.9923 14.4185 79.5282 18.0283 82.4796 24.0523L75.1915 28.155C73.6197 24.9079 71.2273 22.6469 66.7625 22.6469C63.1185 22.6469 60.9822 24.4829 60.9822 26.9311C60.9822 29.5605 62.676 30.9716 69.3413 32.9267C76.3267 35.0687 83.7428 37.3356 83.7428 46.0852C83.7428 54.104 77.1357 59 67.7695 59C58.7818 58.9661 52.8733 54.7556 50.4809 48.3803Z" fill="#1A1717"/>
<path d="M121.714 27.5089V58.1102H113.599V54.5004C111.341 57.2546 107.941 58.966 103.354 58.966C94.9892 58.966 88.0738 51.9276 88.0738 42.8095C88.0738 33.6915 94.9892 26.6531 103.354 26.6531C107.941 26.6531 111.341 28.3533 113.599 31.1187V27.5089H121.714ZM113.599 42.8095C113.599 37.6697 109.891 34.1788 104.868 34.1788C99.844 34.1788 96.1943 37.6697 96.1943 42.8095C96.1943 47.9494 99.9023 51.4403 104.868 51.4403C109.833 51.4403 113.599 47.9552 113.599 42.8095Z" fill="#1A1717"/>
<path d="M128.845 13.433H136.994V58.1109H128.845V13.433Z" fill="#1A1717"/>
<path d="M159.935 51.803C163.08 51.803 165.594 50.5222 166.973 48.7428L173.517 52.4149C170.559 56.5801 165.844 58.966 159.807 58.966C149.247 58.966 142.582 51.9276 142.582 42.8095C142.582 33.6915 149.307 26.6531 159.179 26.6531C168.493 26.6531 175.088 33.8105 175.088 42.8095C175.082 43.897 174.978 44.9817 174.774 46.051H151.07C152.199 50.0916 155.622 51.803 159.935 51.803ZM166.973 39.9023C165.972 35.4992 162.573 33.7197 159.179 33.7197C154.842 33.7197 151.885 35.9866 150.942 39.9023H166.973Z" fill="#1A1717"/>
<path d="M203 49.1737C203 55.7813 197.091 58.9661 190.363 58.9661C184.075 58.9661 179.424 56.3933 177.16 51.6841L184.203 47.8249C185.083 50.3354 187.218 51.7918 190.363 51.7918C192.941 51.7918 194.7 50.9361 194.7 49.1623C194.7 44.6968 178.481 47.1449 178.481 36.3722C178.481 30.1385 183.947 26.642 190.426 26.642C195.52 26.642 199.92 28.9088 202.371 33.1251L195.455 36.7972C195.031 35.8495 194.325 35.0464 193.43 34.4907C192.534 33.935 191.488 33.6529 190.426 33.6803C188.412 33.6803 186.776 34.5361 186.776 36.1852C186.776 40.73 203 37.9135 203 49.1737Z" fill="#1A1717"/>
</svg>
