<svg width="347" height="37" viewBox="0 0 347 37" fill="none" xmlns="http://www.w3.org/2000/svg">
<path d="M195.127 19.8969C195.127 18.1382 194.742 16.7392 193.949 15.6757C193.156 14.6132 192 14.0843 190.437 14.0843C189.929 14.0843 189.449 14.11 189.016 14.1317C188.582 14.1796 188.22 14.2266 187.957 14.2767V24.5766C188.316 24.8174 188.774 25.0111 189.352 25.1551C189.929 25.2996 190.506 25.3972 191.085 25.3972C193.78 25.3976 195.127 23.5633 195.127 19.8969ZM200.95 19.754C200.95 21.3201 200.757 22.7205 200.375 23.9986C199.989 25.2765 199.434 26.3853 198.688 27.3016C197.967 28.2174 197.03 28.9414 195.946 29.4498C194.839 29.9547 193.587 30.2219 192.146 30.2219C191.375 30.2219 190.629 30.1493 189.931 29.9799C189.256 29.835 188.582 29.6169 187.959 29.3282V36.9272H182.254V10.3686C182.76 10.1997 183.338 10.0561 184.011 9.91114C184.685 9.79186 185.358 9.67042 186.104 9.54898C186.827 9.45321 187.573 9.38008 188.317 9.30695C189.065 9.23643 189.786 9.21075 190.484 9.21075C192.12 9.21075 193.611 9.45321 194.91 9.96077C196.211 10.4674 197.317 11.1652 198.208 12.0571C199.099 12.9747 199.771 14.0839 200.251 15.3854C200.71 16.6895 200.95 18.1382 200.95 19.754ZM215.798 14.7346C215.291 14.6132 214.691 14.47 213.992 14.3268C213.317 14.1801 212.572 14.11 211.779 14.11C211.417 14.11 211.008 14.157 210.503 14.2053C209.998 14.2771 209.637 14.349 209.372 14.4221V29.835H203.67V10.756C204.704 10.3939 205.907 10.0565 207.279 9.71917C208.673 9.40489 210.214 9.2595 211.921 9.2595C212.234 9.2595 212.619 9.2595 213.051 9.30739C213.486 9.35657 213.919 9.40488 214.352 9.45365C214.785 9.52546 215.218 9.59729 215.652 9.69437C216.084 9.79186 216.445 9.88676 216.758 10.0087L215.798 14.7346ZM236.946 19.7044C236.946 21.2957 236.729 22.7427 236.271 24.07C235.791 25.3723 235.141 26.5067 234.275 27.4466C233.409 28.3641 232.373 29.088 231.147 29.5943C229.944 30.1241 228.597 30.3661 227.081 30.3661C225.613 30.3661 224.266 30.1236 223.063 29.5943C221.835 29.088 220.801 28.3645 219.935 27.4466C219.067 26.5067 218.394 25.3723 217.913 24.07C217.431 22.7427 217.191 21.2957 217.191 19.7044C217.191 18.1382 217.431 16.6899 217.937 15.3863C218.419 14.0847 219.118 12.9756 219.982 12.058C220.874 11.1178 221.908 10.4183 223.134 9.91158C224.337 9.38052 225.662 9.13892 227.082 9.13892C228.548 9.13892 229.871 9.38094 231.076 9.91158C232.304 10.4183 233.336 11.1178 234.204 12.058C235.068 12.9756 235.743 14.0847 236.224 15.3863C236.704 16.6895 236.946 18.1382 236.946 19.7044ZM231.147 19.7044C231.147 17.9437 230.786 16.5685 230.089 15.5569C229.391 14.5435 228.38 14.0373 227.081 14.0373C225.782 14.0373 224.772 14.544 224.073 15.5569C223.35 16.5685 222.99 17.9437 222.99 19.7044C222.99 21.4646 223.35 22.8877 224.073 23.9029C224.772 24.9393 225.782 25.4698 227.081 25.4698C228.38 25.4698 229.39 24.9393 230.089 23.9029C230.786 22.8877 231.147 21.4643 231.147 19.7044ZM244.526 19.6069C244.526 21.3694 244.933 22.7902 245.705 23.8531C246.498 24.9388 247.679 25.4695 249.242 25.4695C249.746 25.4695 250.203 25.4451 250.636 25.3976C251.069 25.3723 251.431 25.3245 251.721 25.2765V14.8813C251.359 14.6645 250.9 14.4704 250.325 14.3015C249.746 14.1574 249.169 14.0847 248.591 14.0847C245.872 14.0843 244.526 15.9165 244.526 19.6069ZM257.422 29.1837C256.916 29.3282 256.315 29.4732 255.666 29.6169C254.99 29.7635 254.294 29.8846 253.573 29.9799C252.851 30.1005 252.105 30.1705 251.359 30.2442C250.613 30.2938 249.89 30.3404 249.193 30.3404C247.533 30.3404 246.065 30.1005 244.766 29.5938C243.466 29.112 242.36 28.4116 241.47 27.5192C240.578 26.602 239.905 25.5165 239.425 24.2149C238.944 22.9368 238.728 21.4643 238.728 19.8712C238.728 18.233 238.918 16.761 239.328 15.4354C239.736 14.1317 240.314 12.9969 241.084 12.0828C241.854 11.1652 242.793 10.4674 243.9 9.98253C245.006 9.5011 246.281 9.25906 247.701 9.25906C248.494 9.25906 249.193 9.33263 249.819 9.47585C250.445 9.6221 251.069 9.83931 251.721 10.1288V1.01155L257.422 0.0939533V29.1837ZM268.779 25.8542C269.334 25.8542 269.887 25.8307 270.391 25.8081C270.897 25.7829 271.305 25.7349 271.618 25.6875V21.3694C271.375 21.3201 271.039 21.2488 270.582 21.2C270.127 21.1525 269.694 21.1273 269.309 21.1273C268.779 21.1273 268.273 21.1743 267.816 21.2244C267.334 21.2957 266.926 21.4168 266.564 21.5862C266.206 21.7785 265.915 22.0192 265.723 22.3092C265.507 22.6234 265.41 23.0092 265.41 23.4662C265.41 24.3585 265.723 24.9862 266.326 25.3245C266.901 25.6875 267.743 25.8542 268.779 25.8542ZM268.322 9.13848C270.007 9.13848 271.403 9.33307 272.533 9.71873C273.639 10.1035 274.553 10.6346 275.226 11.3576C275.901 12.0828 276.382 12.9495 276.645 13.9629C276.935 14.9767 277.081 16.1345 277.081 17.3652V29.256C276.262 29.4488 275.13 29.6426 273.663 29.8841C272.22 30.1231 270.462 30.2437 268.393 30.2437C267.096 30.2437 265.915 30.1484 264.857 29.9064C263.798 29.6896 262.883 29.3038 262.137 28.7725C261.367 28.2671 260.766 27.5672 260.355 26.7231C259.971 25.8781 259.755 24.8425 259.755 23.6124C259.755 22.4537 259.995 21.4407 260.453 20.6456C260.933 19.825 261.559 19.1729 262.355 18.6667C263.148 18.1857 264.064 17.8475 265.072 17.6293C266.083 17.4126 267.141 17.2928 268.249 17.2928C268.995 17.2928 269.643 17.3408 270.222 17.3883C270.799 17.4617 271.257 17.5318 271.618 17.6532V17.0988C271.618 16.1345 271.305 15.3615 270.726 14.7599C270.149 14.1796 269.115 13.8893 267.672 13.8893C266.71 13.8893 265.747 13.9624 264.808 14.1095C263.869 14.2266 263.052 14.4456 262.355 14.6854L261.632 10.1031C261.97 9.98253 262.379 9.88633 262.883 9.76576C263.363 9.6443 263.918 9.54897 264.497 9.45321C265.072 9.38008 265.7 9.28475 266.348 9.23644C266.999 9.16374 267.647 9.13848 268.322 9.13848ZM291.613 19.1477C291.613 17.2933 291.373 15.9896 290.916 15.2191C290.434 14.47 289.64 14.0847 288.485 14.0847C288.123 14.0847 287.765 14.1104 287.378 14.1322C286.992 14.1801 286.632 14.2271 286.272 14.2771V29.835H280.569V10.3686C281.049 10.225 281.628 10.1035 282.276 9.96077C282.928 9.81363 283.601 9.69437 284.323 9.57291C285.069 9.45365 285.814 9.38008 286.559 9.30695C287.331 9.23643 288.075 9.21075 288.821 9.21075C290.29 9.21075 291.469 9.40446 292.357 9.76576C293.273 10.1288 294.019 10.5867 294.595 11.093C295.415 10.4892 296.353 10.0317 297.413 9.71829C298.47 9.37964 299.432 9.21031 300.322 9.21031C301.934 9.21031 303.259 9.42709 304.293 9.8859C305.328 10.3194 306.146 10.9719 306.748 11.7668C307.374 12.5886 307.783 13.5772 308.022 14.685C308.238 15.8194 308.358 17.0739 308.358 18.449V29.8337H302.655V19.1464C302.655 17.292 302.44 15.9883 301.958 15.2178C301.477 14.4687 300.684 14.0834 299.527 14.0834C299.216 14.0834 298.806 14.1561 298.253 14.3002C297.7 14.4687 297.244 14.6628 296.883 14.88C297.074 15.4825 297.196 16.0849 297.244 16.7382C297.29 17.3883 297.316 18.0877 297.316 18.8351V29.8341H291.611L291.613 19.1477ZM329.029 29.1354C328.041 29.4262 326.814 29.6901 325.275 29.9303C323.733 30.171 322.147 30.2942 320.461 30.2942C318.755 30.2942 317.333 30.053 316.203 29.5943C315.047 29.1354 314.157 28.5082 313.51 27.6642C312.835 26.844 312.354 25.8546 312.089 24.6972C311.801 23.5402 311.656 22.2839 311.656 20.911V9.67086H317.359V20.2111C317.359 22.0436 317.599 23.3713 318.081 24.1896C318.561 25.0119 319.477 25.4198 320.798 25.4198C321.208 25.4198 321.641 25.3976 322.099 25.3728C322.554 25.3248 322.965 25.2765 323.326 25.2288V9.67086H329.029V29.1354ZM338.484 25.7349C339.518 25.7349 340.264 25.6374 340.699 25.4194C341.13 25.2283 341.346 24.8173 341.346 24.2383C341.346 23.7813 341.059 23.3708 340.504 23.0322C339.951 22.6948 339.085 22.2831 337.929 21.8495C337.041 21.5378 336.246 21.174 335.5 20.8144C334.777 20.4767 334.177 20.0417 333.647 19.5345C333.141 19.0523 332.757 18.4499 332.468 17.7504C332.18 17.0747 332.06 16.2303 332.06 15.2661C332.06 13.3839 332.757 11.8878 334.153 10.7787C335.547 9.69393 337.474 9.13762 339.927 9.13762C341.153 9.13762 342.332 9.236 343.441 9.45277C344.571 9.66955 345.46 9.91026 346.11 10.1771L345.126 14.6123C344.474 14.3955 343.754 14.1792 342.959 14.0103C342.189 13.8196 341.323 13.7456 340.36 13.7456C338.555 13.7456 337.665 14.2262 337.665 15.2182C337.665 15.4568 337.712 15.6749 337.787 15.8442C337.858 16.0131 338.027 16.1824 338.242 16.3509C338.484 16.5189 338.797 16.7125 339.181 16.9058C339.567 17.0983 340.071 17.3151 340.697 17.5318C341.947 17.9907 342.982 18.4494 343.801 18.9087C344.594 19.3674 345.244 19.8484 345.727 20.3556C346.183 20.8848 346.52 21.4643 346.713 22.1163C346.906 22.7423 347 23.4914 347 24.3359C347 26.3117 346.254 27.809 344.762 28.8451C343.272 29.8584 341.153 30.3656 338.437 30.3656C336.655 30.3656 335.163 30.2216 333.984 29.9064C332.805 29.5933 331.964 29.3518 331.505 29.135L332.468 24.5048C333.43 24.8905 334.44 25.1803 335.452 25.3972C336.462 25.6143 337.474 25.7349 338.484 25.7349Z" fill="#1A1717"/>
<path d="M61.0783 37C71.2704 37 79.5329 28.7172 79.5329 18.4999C79.5329 8.28273 71.2704 0 61.0783 0C50.8861 0 42.6236 8.28273 42.6236 18.4999C42.6236 28.7172 50.8861 37 61.0783 37Z" fill="#FBBA00"/>
<path d="M18.4546 37C28.6468 37 36.9093 28.7172 36.9093 18.4999C36.9093 8.28273 28.6468 0 18.4546 0C8.26243 0 0 8.28273 0 18.4999C0 28.7172 8.26243 37 18.4546 37Z" fill="#008FCA"/>
<path d="M103.675 37C113.867 37 122.13 28.7172 122.13 18.4999C122.13 8.28273 113.867 0 103.675 0C93.4828 0 85.2203 8.28273 85.2203 18.4999C85.2203 28.7172 93.4828 37 103.675 37Z" fill="#3D935E"/>
<path d="M146.291 37C156.484 37 164.746 28.7172 164.746 18.4999C164.746 8.28273 156.484 0 146.291 0C136.099 0 127.837 8.28273 127.837 18.4999C127.837 28.7172 136.099 37 146.291 37Z" fill="#E41D36"/>
<path d="M94.2911 9.71974H113.034C113.42 9.71974 113.733 10.0314 113.733 10.4184V15.6045C113.733 15.9906 113.42 16.3031 113.034 16.3031H94.2911C93.9068 16.3031 93.5947 15.9902 93.5947 15.6045V10.4184C93.5947 10.0314 93.9068 9.71974 94.2911 9.71974Z" fill="#FEFEFE"/>
<path d="M94.2911 20.6945H113.034C113.42 20.6945 113.733 21.0066 113.733 21.3939V26.5784C113.733 26.9657 113.42 27.2778 113.034 27.2778H94.2911C93.9068 27.2778 93.5947 26.9653 93.5947 26.5784V21.3939C93.5947 21.0066 93.9068 20.6945 94.2911 20.6945Z" fill="#FEFEFE"/>
<path d="M136.904 15.2191H155.649C156.035 15.2191 156.345 15.5308 156.345 15.9169V21.1021C156.345 21.4908 156.035 21.8026 155.649 21.8026H136.904C136.519 21.8026 136.206 21.4905 136.206 21.1021V15.9169C136.206 15.5308 136.519 15.2191 136.904 15.2191Z" fill="#FEFEFE"/>
<path d="M143.004 27.8967V9.11423C143.004 8.72421 143.317 8.40689 143.703 8.40689H148.876C149.262 8.40689 149.575 8.72421 149.575 9.11423V27.8967C149.575 28.2868 149.262 28.6028 148.876 28.6028H143.703C143.317 28.6028 143.004 28.2868 143.004 27.8967Z" fill="#FEFEFE"/>
<path d="M51.7015 15.2191H70.4467C70.831 15.2191 71.1441 15.5308 71.1441 15.9169V21.1021C71.1441 21.4908 70.8305 21.8026 70.4467 21.8026H51.7015C51.3172 21.8026 51.0051 21.4905 51.0051 21.1021V15.9169C51.0051 15.5308 51.3172 15.2191 51.7015 15.2191Z" fill="#FEFEFE"/>
<path d="M9.53397 22.8222L22.784 9.53925C23.058 9.26413 23.5026 9.26239 23.7757 9.53621L27.432 13.2014C27.7045 13.4752 27.7037 13.9213 27.4289 14.1969L14.1785 27.4781C13.9053 27.7554 13.4598 27.7554 13.1871 27.4817L9.52962 23.8161C9.25738 23.5426 9.25736 23.096 9.53397 22.8222Z" fill="#FEFEFE"/>
<path d="M22.765 27.4736L9.518 14.1931C9.2414 13.9154 9.24009 13.4727 9.51235 13.1989L13.1707 9.53026C13.4443 9.25688 13.8881 9.25994 14.1625 9.53591L27.4125 22.8162C27.6861 23.0935 27.6895 23.5384 27.4164 23.811L23.759 27.4792C23.487 27.753 23.0416 27.7499 22.765 27.4736Z" fill="#FEFEFE"/>
</svg>
