<svg width="271" height="49" viewBox="0 0 271 49" fill="none" xmlns="http://www.w3.org/2000/svg">
<path d="M55.4908 40.9906C58.481 40.9906 60.944 39.8854 62.505 38.2775C62.6912 38.0935 62.9324 37.9757 63.192 37.9417C63.4515 37.9079 63.7151 37.96 63.9422 38.0898L69.3835 41.214C69.485 41.2707 69.5727 41.3489 69.6407 41.443C69.7087 41.5369 69.7553 41.6448 69.7774 41.7588C69.7994 41.8728 69.7962 41.9901 69.7683 42.1028C69.7403 42.2154 69.6879 42.3207 69.6151 42.4109C66.4214 46.5644 61.5189 48.9265 55.363 48.9265C43.9612 48.9265 36.7673 41.1262 36.7673 31.0198C36.7673 20.9135 44.0291 13.1132 54.6924 13.1132C64.7366 13.1132 71.8587 21.0491 71.8587 31.0198C71.8566 31.995 71.7806 32.9687 71.6312 33.9324C71.6031 34.1234 71.5068 34.2978 71.36 34.4233C71.2132 34.5488 71.0259 34.6168 70.8327 34.6147H46.4804C46.4159 34.6141 46.3522 34.6291 46.2949 34.6584C46.2375 34.6877 46.1882 34.7304 46.1508 34.783C46.1135 34.8355 46.0896 34.8963 46.0809 34.9601C46.0722 35.0239 46.0792 35.0889 46.1011 35.1493C47.4545 39.243 51.0713 40.9906 55.4908 40.9906ZM62.5808 27.824C62.6424 27.8257 62.7036 27.8133 62.7596 27.7875C62.8154 27.7617 62.8647 27.7236 62.9033 27.6756C62.942 27.6277 62.969 27.5714 62.9824 27.5113C62.9957 27.4514 62.995 27.389 62.9801 27.3292C61.7824 22.8086 58.2253 20.9733 54.6843 20.9733C50.1851 20.9733 47.0632 23.2915 45.9214 27.3252C45.9058 27.3851 45.9046 27.4481 45.9175 27.5087C45.9304 27.5692 45.9575 27.626 45.9962 27.6744C46.0349 27.7229 46.0844 27.7616 46.1407 27.7875C46.1971 27.8135 46.2586 27.8259 46.3207 27.824H62.5808Z" fill="#0068FF"/>
<path d="M86.6712 22.4649V37.2274C86.6712 40.6827 89.0226 40.938 93.502 40.7306C93.6101 40.7252 93.7182 40.7417 93.8198 40.7794C93.9213 40.8172 94.0141 40.8751 94.0926 40.9496C94.171 41.0244 94.2333 41.1142 94.276 41.2137C94.3185 41.3132 94.3405 41.4204 94.3403 41.5286V47.9124C94.3414 48.1109 94.2682 48.3026 94.1353 48.4502C94.0024 48.5978 93.8193 48.6905 93.6217 48.7104C81.8927 49.8475 77.9165 46.2167 77.9165 37.2394V22.4649H72.8105C72.5986 22.4649 72.3956 22.3807 72.2458 22.2312C72.096 22.0815 72.012 21.8785 72.012 21.6669V14.8841C72.012 14.6724 72.096 14.4695 72.2458 14.3198C72.3956 14.1702 72.5986 14.0861 72.8105 14.0861H77.9165V8.10126C77.9165 7.84446 77.9993 7.59452 78.1524 7.38834C78.3055 7.18214 78.5208 7.03061 78.7667 6.95616L85.6414 4.87742C85.7605 4.84133 85.8864 4.83359 86.0091 4.85483C86.1319 4.87608 86.2478 4.92571 86.3479 4.99976C86.448 5.07381 86.5295 5.17022 86.5856 5.2813C86.6418 5.39238 86.671 5.51505 86.6712 5.6395V14.0861H93.5419C93.7536 14.0861 93.9567 14.1702 94.1065 14.3198C94.2561 14.4695 94.3403 14.6724 94.3403 14.8841V21.6669C94.3403 21.8785 94.2561 22.0815 94.1065 22.2312C93.9567 22.3807 93.7536 22.4649 93.5419 22.4649H86.6712Z" fill="#0068FF"/>
<path d="M130.789 14.8807V47.1989C130.789 47.4105 130.705 47.6135 130.555 47.763C130.405 47.9127 130.203 47.9969 129.991 47.9969H122.833C122.621 47.9969 122.418 47.9127 122.268 47.763C122.118 47.6135 122.034 47.4105 122.034 47.1989V44.0069C119.591 47.0591 115.926 48.9583 110.972 48.9583C101.945 48.9583 94.4802 41.1581 94.4802 31.0518C94.4802 20.9454 101.945 13.1132 110.98 13.1132C115.934 13.1132 119.599 15.0124 122.042 18.0647V14.8807C122.042 14.6691 122.126 14.4661 122.276 14.3165C122.426 14.1668 122.629 14.0827 122.841 14.0827H129.999C130.209 14.0849 130.41 14.1698 130.558 14.3193C130.706 14.4687 130.789 14.6705 130.789 14.8807ZM122.034 31.0398C122.034 25.3421 118.042 21.464 112.601 21.464C107.239 21.464 103.235 25.3303 103.235 31.0398C103.235 36.7493 107.227 40.6156 112.601 40.6156C118.03 40.5837 122.034 36.7174 122.034 31.0198V31.0398Z" fill="#0068FF"/>
<path d="M133.838 5.6219C133.818 4.89086 133.945 4.16327 134.211 3.48211C134.477 2.80093 134.878 2.17999 135.388 1.65594C135.898 1.13189 136.509 0.715362 137.183 0.430947C137.857 0.146534 138.581 0 139.313 0C140.045 0 140.769 0.146534 141.443 0.430947C142.117 0.715362 142.728 1.13189 143.238 1.65594C143.748 2.17999 144.148 2.80093 144.415 3.48211C144.681 4.16327 144.808 4.89086 144.788 5.6219C144.75 7.04762 144.156 8.40202 143.133 9.39682C142.111 10.3916 140.74 10.9483 139.313 10.9483C137.886 10.9483 136.515 10.3916 135.492 9.39682C134.47 8.40202 133.876 7.04762 133.838 5.6219ZM135.734 14.0805H142.896C143.108 14.0805 143.311 14.1645 143.46 14.3142C143.61 14.4638 143.694 14.6668 143.694 14.8784V47.1966C143.694 47.4082 143.61 47.6112 143.46 47.7607C143.311 47.9104 143.108 47.9944 142.896 47.9944H135.734C135.522 47.9944 135.319 47.9104 135.169 47.7607C135.02 47.6112 134.936 47.4082 134.936 47.1966V14.8784C134.936 14.6668 135.02 14.4638 135.169 14.3142C135.319 14.1645 135.522 14.0805 135.734 14.0805Z" fill="#0068FF"/>
<path d="M148.563 0.119132H155.717C155.924 0.119038 156.124 0.199817 156.273 0.344327C156.422 0.488839 156.509 0.68571 156.515 0.893171V47.1998C156.509 47.4073 156.422 47.6041 156.273 47.7487C156.124 47.8932 155.924 47.9739 155.717 47.9739H148.563C148.355 47.9739 148.155 47.8932 148.006 47.7487C147.857 47.6041 147.77 47.4073 147.764 47.1998V0.893171C147.77 0.68571 147.857 0.488839 148.006 0.344327C148.155 0.199817 148.355 0.119038 148.563 0.119132Z" fill="#0068FF"/>
<path d="M160.587 31.0198C160.587 20.9135 168.172 13.1132 178.504 13.1132C184.847 13.1132 190.392 16.3051 193.303 21.1528C193.358 21.2436 193.397 21.3447 193.413 21.4501C193.428 21.5554 193.423 21.6631 193.397 21.7664C193.371 21.8698 193.325 21.967 193.261 22.052C193.196 22.1373 193.116 22.2085 193.024 22.262L187.203 25.6534C186.942 25.8076 186.631 25.8568 186.335 25.7909C186.038 25.7248 185.777 25.5488 185.606 25.2984C184.092 23.0799 181.47 21.7075 178.42 21.7075C173.194 21.7075 169.326 25.5736 169.326 30.9999C169.326 36.3583 173.194 40.2245 178.42 40.2245C181.531 40.2245 184.166 38.9079 185.674 36.6934C185.845 36.4475 186.101 36.2741 186.392 36.2077C186.685 36.1413 186.99 36.1864 187.25 36.3344L193.123 39.6898C193.217 39.7433 193.299 39.8151 193.365 39.9012C193.43 39.9873 193.477 40.0858 193.503 40.1907C193.529 40.2954 193.535 40.4045 193.517 40.5112C193.5 40.6178 193.461 40.7198 193.402 40.8111C191.814 43.3201 189.608 45.3812 186.997 46.7989C184.385 48.2165 181.456 48.9434 178.484 48.9104C168.188 48.9265 160.587 41.1262 160.587 31.0198Z" fill="black"/>
<path d="M216.571 14.2142V22.2898C216.571 22.3983 216.548 22.5058 216.507 22.6055C216.463 22.7054 216.4 22.7955 216.322 22.8701C216.243 22.9448 216.149 23.0027 216.048 23.04C215.945 23.0775 215.837 23.0937 215.729 23.0877C211.336 22.8802 206.255 25.0826 206.255 31.7697V47.2026C206.255 47.4143 206.171 47.6171 206.021 47.7668C205.872 47.9165 205.668 48.0005 205.457 48.0005H198.298C198.086 48.0005 197.883 47.9165 197.734 47.7668C197.584 47.6171 197.5 47.4143 197.5 47.2026V14.8845C197.5 14.6729 197.584 14.4699 197.734 14.3203C197.883 14.1706 198.086 14.0865 198.298 14.0865H205.457C205.668 14.0865 205.872 14.1706 206.021 14.3203C206.171 14.4699 206.255 14.6729 206.255 14.8845V19.8998C207.903 15.5907 211.744 13.6516 215.729 13.4122C215.837 13.4063 215.947 13.4226 216.048 13.4603C216.151 13.4979 216.243 13.5561 216.323 13.6312C216.402 13.7064 216.465 13.7969 216.507 13.8971C216.55 13.9974 216.571 14.1053 216.571 14.2142Z" fill="black"/>
<path d="M271 27.0897V47.2027C271 47.4143 270.916 47.6173 270.766 47.767C270.616 47.9165 270.414 48.0007 270.203 48.0007H263.045C262.832 48.0007 262.63 47.9165 262.48 47.767C262.33 47.6173 262.246 47.4143 262.246 47.2027V27.7C262.246 23.7102 260.21 21.2565 256.544 21.2565C252.677 21.2565 250.234 23.834 250.234 28.921V47.2027C250.234 47.4143 250.148 47.6173 250 47.767C249.85 47.9165 249.646 48.0007 249.435 48.0007H242.277C242.064 48.0007 241.862 47.9165 241.712 47.767C241.562 47.6173 241.479 47.4143 241.479 47.2027V27.7C241.479 23.7102 239.442 21.2565 235.778 21.2565C232.045 21.2565 229.389 23.834 229.389 28.921V47.2027C229.389 47.4143 229.306 47.6173 229.156 47.767C229.006 47.9165 228.803 48.0007 228.592 48.0007H221.441C221.23 48.0007 221.026 47.9165 220.876 47.767C220.728 47.6173 220.643 47.4143 220.643 47.2027V14.8846C220.643 14.673 220.728 14.47 220.876 14.3203C221.026 14.1707 221.23 14.0866 221.441 14.0866H228.599C228.812 14.0866 229.014 14.1707 229.164 14.3203C229.314 14.47 229.398 14.673 229.398 14.8846V17.6775C231.299 14.8287 234.488 13.133 238.832 13.133C243.039 13.133 246.161 14.8966 248.061 18.0166C250.166 14.9644 253.559 13.133 258.173 13.133C265.91 13.1171 271 18.6112 271 27.0897Z" fill="black"/>
<path d="M35.1672 13.047H6.21585C4.56621 13.0502 2.98521 13.7074 1.81986 14.8743C0.654497 16.0412 -3.13871e-06 17.6226 0 19.2714V48.202C0 48.4136 0.0841211 48.6166 0.233858 48.7663C0.383594 48.9158 0.58668 49 0.798439 49H8.01633C8.22808 49 8.43118 48.9158 8.58091 48.7663C8.73065 48.6166 8.81476 48.4136 8.81476 48.202V32.4378C8.81386 30.7869 8.30057 29.1768 7.34565 27.8295L4.41937 23.6961L28.4204 47.6794C28.4948 47.7546 28.5832 47.8146 28.6809 47.8554C28.7787 47.8963 28.8835 47.9174 28.9894 47.9174C29.0952 47.9174 29.2 47.8963 29.2976 47.8554C29.3953 47.8146 29.4839 47.7546 29.5582 47.6794L34.6523 42.5842C34.7276 42.5099 34.7876 42.4214 34.8286 42.3238C34.8694 42.2262 34.8905 42.1215 34.8905 42.0157C34.8905 41.9099 34.8694 41.805 34.8286 41.7074C34.7876 41.6098 34.7276 41.5213 34.6523 41.447L10.6751 17.4878L14.7711 20.3884C16.1191 21.3428 17.7302 21.8558 19.3821 21.8567H35.1672C35.3791 21.8567 35.5821 21.7727 35.7319 21.623C35.8816 21.4733 35.9657 21.2704 35.9657 21.0587V13.845C35.9657 13.6334 35.8816 13.4304 35.7319 13.2808C35.5821 13.1311 35.3791 13.047 35.1672 13.047Z" fill="#0068FF"/>
<path d="M35.1514 0.119132H0.798439C0.357473 0.119132 0 0.476399 0 0.917109V8.1787C0 8.61942 0.357473 8.97668 0.798439 8.97668H35.1514C35.5922 8.97668 35.9496 8.61942 35.9496 8.1787V0.917109C35.9496 0.476399 35.5922 0.119132 35.1514 0.119132Z" fill="#0068FF"/>
</svg>
