<svg width="296" height="59" viewBox="0 0 296 59" fill="none" xmlns="http://www.w3.org/2000/svg">
<path fill-rule="evenodd" clip-rule="evenodd" d="M116.376 27.6863C114.029 27.6863 112.123 29.6193 112.123 32.0009C112.123 34.3877 114.029 36.319 116.376 36.319C118.726 36.319 120.629 34.3877 120.629 32.0009C120.629 29.6193 118.726 27.6863 116.376 27.6863ZM289.424 24.5181C292.213 24.5181 294.252 26.1026 295.589 27.6863V20.0354C293.398 18.5275 290.759 17.9238 288.464 17.9238C281.415 17.9238 275.289 23.0485 275.289 31.865C275.289 40.3069 280.856 45.8097 288.574 45.8097C290.8 45.8097 293.249 45.4673 295.589 43.8497V36.346C294.252 37.7432 292.14 39.2145 289.424 39.2145C285.271 39.2145 282.782 36.0881 282.782 32.0915C282.782 27.7577 285.418 24.5181 289.424 24.5181ZM276.086 18.6791H267.55L259.718 29.7552V18.6791H252.445L252.448 45.0553H259.718V33.7109L267.249 45.0553H276.347L266.213 31.4512L276.086 18.6791ZM230.966 34.5053V18.6791H223.952V45.0553H231.077L241.136 29.2281V45.0553H248.15V18.6791H241.023L230.966 34.5053ZM209.888 30.5461H207.814V24.4824H209.888C213.006 24.4824 213.45 26.1758 213.45 27.4955C213.45 28.6253 213.117 30.5461 209.888 30.5461ZM211.482 18.6791H200.536V45.0553H207.814V36.346H211.482C218.833 36.346 220.949 31.1524 220.949 27.4955C220.949 23.8769 218.87 18.6791 211.482 18.6791ZM178.865 25.0068H184.576V45.0553H191.853V25.0068H197.566V18.6791H178.865V25.0068ZM158.709 34.5053V18.6791H151.697V45.0553H158.824L168.877 29.2281V45.0553H175.893V18.6791H168.769L158.709 34.5053ZM137.037 39.7764H133.921V34.2396H137.037C139.339 34.2396 140.676 34.9191 140.676 36.9932C140.676 39.1013 139.303 39.7764 137.037 39.7764ZM137.744 28.9642H133.921V25.0068H145.833V18.6791H126.647L126.647 45.0553L137.744 45.0553C139.634 45.0553 147.949 45.1285 147.949 36.8791C147.949 28.9267 139.711 28.9642 137.744 28.9642ZM85.9352 31.865C85.9352 40.3069 91.502 45.8097 99.2206 45.8097C101.45 45.8097 103.898 45.4673 106.237 43.8497V36.346C104.897 37.7432 102.782 39.2145 100.074 39.2145C95.9164 39.2145 93.4316 36.0881 93.4316 32.0915C93.4316 27.7577 96.0657 24.5181 100.074 24.5181C102.857 24.5181 104.897 26.1026 106.237 27.6863V20.0354C104.043 18.5275 101.41 17.9238 99.109 17.9238C92.0571 17.9238 85.9352 23.0485 85.9352 31.865ZM70.7057 24.7446H74.6791V45.0553H81.3973V18.6791H70.7057V24.7446Z" fill="#231F20"/>
<path fill-rule="evenodd" clip-rule="evenodd" d="M29.1509 0.208984C27.023 0.208984 24.9535 0.452023 22.9595 0.901514V29.229C22.9595 32.7004 25.7472 35.5315 29.1672 35.5315C32.5855 35.5315 35.3723 32.7004 35.3723 29.2308C35.3723 25.8962 32.806 23.1592 29.5799 22.9414V17.8968C35.5413 18.1163 40.3384 23.1234 40.3384 29.2308C40.3384 35.4766 35.3199 40.5743 29.1672 40.5743C23.0119 40.5743 17.9943 35.4766 17.9943 29.229V2.50435C17.289 2.80837 16.6 3.14548 15.9248 3.50786V29.229C15.9257 36.6325 21.875 42.6702 29.1672 42.6702C36.4602 42.6702 42.407 36.6326 42.407 29.2308C42.407 21.9666 36.6841 16.0178 29.5799 15.7939V10.7511C39.4177 10.9767 47.3706 19.1913 47.3706 29.2308C47.3706 39.4123 39.1929 47.713 29.1672 47.713C19.1389 47.713 10.9587 39.4123 10.9587 29.229V6.85291C4.62662 12.1693 0.588867 20.2087 0.588867 29.2072C0.588867 45.2225 13.3765 58.209 29.1517 58.209C44.9295 58.209 57.7138 45.2225 57.7138 29.2072C57.7138 13.192 44.9295 0.208984 29.1509 0.208984Z" fill="#D91935"/>
</svg>
