<svg width="272" height="50" viewBox="0 0 272 50" fill="none" xmlns="http://www.w3.org/2000/svg">
<path d="M6.67323 31.3766V20.2594H9.34293C11.7333 20.2594 13.7012 20.5377 15.1048 21.3863C16.5084 22.228 17.3562 23.6401 17.3562 25.8869C17.3562 29.6849 15.1048 31.3766 9.7668 31.3766H6.67323ZM0.203977 36.7189H9.62088C20.1649 36.7189 23.9644 32.0722 23.9644 25.6017C23.9644 21.2389 22.1369 18.2839 18.9058 16.5922C16.3764 15.1871 13.1439 14.7627 9.20396 14.7627H6.67462V6.31807H20.8722L22.5608 1.10658H0.0650024V36.7133H0.203977V36.7189ZM28.3227 36.7189H34.507L42.5203 25.1774C44.0698 23.0683 45.19 20.955 45.8974 19.8282H46.0363C45.8974 21.3794 45.7584 23.3479 45.7584 25.3165V36.5742H52.0831V11.2499H45.8987L37.8855 22.7915C36.4818 24.9005 35.2158 27.0138 34.5084 28.1407H34.3694C34.5084 26.5909 34.6474 24.6209 34.6474 22.6523V11.3946H28.3227V36.7328V36.7189ZM62.9106 36.7189H69.3799V16.5936H76.9692L78.6578 11.2458H55.1767V16.595H62.9106V36.7217V36.7189ZM87.2339 49.5264V36.7189C88.4986 37.1432 89.7632 37.2824 91.1669 37.2824C99.1815 37.2824 104.386 31.794 104.386 23.9114C104.386 16.0288 99.6054 10.5404 90.4664 10.5404C86.9504 10.5404 83.5789 11.243 80.7646 12.0902L80.9036 49.5278L87.2339 49.5264ZM87.2339 31.2306V16.3153C88.2206 16.0371 89.0614 15.891 90.1871 15.891C94.8288 15.891 97.7765 18.423 97.7765 23.9128C97.7765 28.8377 95.3861 31.9345 90.6054 31.9345C89.3407 31.9345 88.354 31.6563 87.2283 31.2306H87.2339ZM108.18 36.7189H114.366L122.379 25.1774C123.929 23.0683 125.047 20.955 125.756 19.8282H125.895C125.756 21.3794 125.617 23.3479 125.617 25.3165V36.5742H131.941V11.2499H125.756L117.743 22.7915C116.339 24.9005 115.075 27.0138 114.366 28.1407H114.227C114.366 26.5909 114.505 24.6209 114.505 22.6523V11.3946H108.181V36.7328V36.7217L108.18 36.7189ZM137.006 36.7189H143.477V26.1651H147.271C147.974 26.1651 148.676 26.8677 149.522 28.558L152.755 36.7189H159.642L155.001 27.0082C154.158 25.3165 153.312 24.3357 152.046 23.9114V23.7723C154.153 22.5063 154.438 18.8474 155.702 17.0165C156.126 16.4531 156.689 16.1734 157.53 16.1734C157.954 16.1734 158.517 16.1734 158.934 16.4517V10.9661C158.232 10.6879 156.967 10.5432 156.265 10.5432C154.014 10.5432 152.609 11.3849 151.623 12.797C149.517 15.8924 149.517 21.2416 146.419 21.2416H143.464V11.2499H136.995V36.7259L137.006 36.7189ZM173.98 37.2824C177.496 37.2824 180.727 36.1555 182.695 34.7503L180.866 30.3875C179.039 31.3753 177.35 32.0778 174.96 32.0778C170.603 32.0778 167.789 29.2606 167.789 24.0561C167.789 19.4094 170.603 15.7505 175.378 15.7505C177.908 15.7505 179.735 16.4531 181.563 17.7191V12.2335C180.159 11.3904 177.908 10.5432 174.677 10.5432C167.086 10.5432 161.179 16.1707 161.179 24.1924C161.179 31.5102 165.677 37.2796 173.973 37.2796L173.98 37.2851V37.2824Z" fill="#0BBBEF"/>
<path d="M257.284 28.1184C249.695 28.1184 243.648 22.0652 243.504 14.3231C243.504 6.7243 249.689 0.527832 257.284 0.527832C264.879 0.527832 271.065 6.71874 271.065 14.3231C271.065 21.9261 264.879 28.1184 257.284 28.1184ZM257.284 3.89736C251.557 3.89736 246.87 8.58992 246.87 14.3231C246.997 20.1885 251.557 24.7489 257.284 24.7489C263.011 24.7489 267.699 20.0549 267.699 14.3231C267.699 8.58992 263.011 3.89736 257.284 3.89736Z" fill="#005893"/>
<path d="M255.537 7.26549H258.224V16.3376H255.537V7.26549Z" fill="#005893"/>
<path d="M264.607 13.6484V16.3376H255.544V13.6484H264.607ZM186.356 36.7203H211.103V31.232H194.793C197.044 22.2224 210.82 20.2539 210.82 10.2622C210.82 4.91294 207.163 0.974412 199.429 0.974412C194.647 0.974412 190.429 2.37954 187.621 3.79162L189.309 8.85565C191.84 7.58964 194.793 6.46276 198.448 6.46276C201.262 6.46276 203.932 7.72876 203.932 10.9647C203.932 18.2839 187.76 18.8474 186.356 36.7203ZM227.687 27.996V36.7203H234.012V27.996H239.355V22.6468H234.012V0.974412H229.369L211.794 23.7737V27.996H227.687ZM218.972 22.932L227.97 10.8256C227.97 11.8134 227.692 14.9088 227.692 17.7205V22.7845H223.473C222.209 22.7845 219.818 22.925 218.977 22.925L218.972 22.932Z" fill="#005893"/>
</svg>
