<svg width="294" height="30" viewBox="0 0 294 30" fill="none" xmlns="http://www.w3.org/2000/svg">
<path d="M25.9674 27.0688C23.4449 28.8235 20.5407 29.7009 17.2549 29.7009C14.9648 29.7009 12.7742 29.3719 10.6832 28.7139C8.5922 28.0285 6.76673 27.0414 5.20679 25.7528C3.64682 24.4641 2.40219 22.8876 1.47285 21.0232C0.543523 19.1589 0.0788574 17.034 0.0788574 14.6488C0.0788574 12.5924 0.543523 10.6869 1.47285 8.9322C2.40219 7.15007 3.68003 5.6147 5.30635 4.32608C6.93268 3.01004 8.84113 1.98189 11.0317 1.24162C13.2555 0.473931 15.6451 0.0900879 18.2008 0.0900879C19.7939 0.0900879 21.3208 0.240883 22.7812 0.542474C24.2414 0.816649 25.5857 1.24162 26.8137 1.81738C28.075 2.36573 29.2035 3.03745 30.1991 3.83256C31.1949 4.60025 32.008 5.47761 32.6387 6.46463L25.4198 11.0296C24.7228 9.8781 23.6773 8.95962 22.2832 8.27418C20.8892 7.56133 19.4122 7.2049 17.8523 7.2049C16.6907 7.2049 15.6285 7.39683 14.6661 7.78068C13.7035 8.16451 12.8738 8.69916 12.1768 9.38459C11.4798 10.07 10.9321 10.8926 10.5338 11.8521C10.1356 12.7844 9.93641 13.8125 9.93641 14.9366C9.93641 16.0882 10.1356 17.13 10.5338 18.0621C10.9321 18.9944 11.4798 19.8032 12.1768 20.4886C12.907 21.1466 13.7699 21.6676 14.7656 22.0515C15.7614 22.4079 16.8733 22.586 18.1013 22.586C20.9225 22.586 23.4117 21.6265 25.5691 19.7072H19.4455V13.9496H33.9829V29.4953H25.9674V27.0688Z" fill="#013A4C"/>
<path d="M62.7951 22.6717V29.6631H37.6035V0.46363H62.3469V7.45507H47.3117V11.5677H60.1563V18.0656H47.3117V22.6717H62.7951Z" fill="#013A4C"/>
<path d="M95.5813 7.45507H85.425V29.6631H75.7167V7.45507H65.5107V0.46363H95.5813V7.45507Z" fill="#013A4C"/>
<path d="M96.9393 14.6076C96.9393 12.8255 97.3376 11.0707 98.1341 9.34346C98.964 7.61617 100.159 6.06708 101.719 4.69621C103.279 3.32534 105.171 2.21494 107.394 1.365C109.618 0.515057 112.157 0.0900879 115.011 0.0900879C118.43 0.0900879 121.384 0.679562 123.873 1.85851C126.396 3.01004 128.271 4.54542 129.499 6.46463L122.081 10.824C121.749 10.1112 121.301 9.52167 120.737 9.05558C120.206 8.58949 119.608 8.21935 118.944 7.94517C118.281 7.671 117.584 7.47908 116.854 7.36941C116.157 7.25974 115.476 7.2049 114.812 7.2049C113.418 7.2049 112.207 7.43795 111.178 7.90405C110.182 8.34272 109.353 8.9322 108.689 9.67247C108.058 10.3853 107.577 11.2078 107.245 12.14C106.946 13.0448 106.797 13.9496 106.797 14.8543C106.797 15.8688 106.979 16.8421 107.344 17.7743C107.71 18.7065 108.241 19.5291 108.938 20.2419C109.635 20.9548 110.481 21.5305 111.477 21.9692C112.506 22.3805 113.651 22.586 114.912 22.586C115.576 22.586 116.256 22.5312 116.953 22.4216C117.65 22.2845 118.314 22.0789 118.944 21.8046C119.608 21.5031 120.189 21.1329 120.687 20.6942C121.218 20.2282 121.633 19.6661 121.932 19.0081L129.848 22.915C129.317 23.9844 128.504 24.944 127.408 25.7939C126.346 26.6438 125.118 27.3567 123.724 27.9325C122.363 28.5082 120.886 28.9469 119.293 29.2485C117.733 29.55 116.206 29.7009 114.713 29.7009C112.091 29.7009 109.684 29.2759 107.494 28.426C105.336 27.5486 103.461 26.3971 101.868 24.9714C100.308 23.5457 99.0967 21.928 98.2338 20.1185C97.3707 18.309 96.9393 16.472 96.9393 14.6076Z" fill="#22C2B5"/>
<path d="M148.174 29.7009C145.485 29.7009 143.046 29.2759 140.855 28.426C138.664 27.5761 136.789 26.4656 135.229 25.0948C133.67 23.6964 132.458 22.1063 131.594 20.3241C130.732 18.542 130.301 16.705 130.301 14.8132C130.301 12.894 130.749 11.0433 131.644 9.26121C132.541 7.47908 133.786 5.91629 135.379 4.57283C137.005 3.20196 138.914 2.11897 141.104 1.32387C143.328 0.501349 145.751 0.0900879 148.372 0.0900879C151.062 0.0900879 153.5 0.515057 155.692 1.365C157.882 2.21494 159.757 3.33905 161.317 4.73734C162.877 6.13563 164.072 7.72583 164.902 9.50797C165.764 11.2901 166.196 13.1134 166.196 14.9778C166.196 16.897 165.748 18.7477 164.852 20.5298C163.955 22.2845 162.711 23.8473 161.118 25.2181C159.525 26.5616 157.616 27.6446 155.392 28.4671C153.202 29.2896 150.796 29.7009 148.174 29.7009ZM140.159 14.8955C140.159 15.8825 140.324 16.8421 140.656 17.7743C140.988 18.6791 141.486 19.4879 142.149 20.2008C142.813 20.9136 143.644 21.4893 144.639 21.928C145.668 22.3667 146.879 22.586 148.274 22.586C149.667 22.586 150.878 22.3667 151.907 21.928C152.936 21.4619 153.766 20.8725 154.397 20.1596C155.061 19.4194 155.542 18.5831 155.84 17.651C156.172 16.7187 156.338 15.7729 156.338 14.8132C156.338 13.8262 156.172 12.8803 155.84 11.9755C155.508 11.0433 154.994 10.2345 154.297 9.54909C153.634 8.83624 152.787 8.27418 151.758 7.86292C150.762 7.42424 149.585 7.2049 148.224 7.2049C146.829 7.2049 145.618 7.42424 144.589 7.86292C143.594 8.3016 142.763 8.89108 142.1 9.63135C141.436 10.3442 140.938 11.1667 140.606 12.099C140.307 13.0037 140.159 13.9359 140.159 14.8955Z" fill="#22C2B5"/>
<path d="M185.295 22.7951C186.424 22.7951 187.386 22.5894 188.182 22.1782C188.979 21.767 189.627 21.2323 190.124 20.5743C190.622 19.8889 190.987 19.1075 191.22 18.2301C191.452 17.3527 191.568 16.4343 191.568 15.4747V0.46363H201.277V15.4747C201.277 17.5035 200.961 19.4091 200.33 21.1912C199.7 22.9459 198.721 24.4675 197.393 25.7562C196.065 27.0448 194.389 28.0593 192.365 28.7996C190.374 29.5398 188.016 29.91 185.295 29.91C182.473 29.91 180.051 29.5261 178.026 28.7584C176.034 27.9633 174.392 26.9077 173.097 25.5917C171.803 24.2757 170.857 22.754 170.259 21.0267C169.663 19.2719 169.364 17.4213 169.364 15.4747V0.46363H179.072V15.4747C179.072 16.4343 179.188 17.3664 179.421 18.2712C179.653 19.1486 180.017 19.93 180.516 20.6155C181.014 21.2735 181.644 21.808 182.407 22.2193C183.204 22.6032 184.167 22.7951 185.295 22.7951Z" fill="#22C2B5"/>
<path d="M204.896 29.6631V0.46363H221.127C222.853 0.46363 224.446 0.765221 225.907 1.3684C227.367 1.94416 228.611 2.71186 229.64 3.67147C230.703 4.60366 231.532 5.68664 232.13 6.92043C232.727 8.1268 233.025 9.34687 233.025 10.5807C233.025 12.2805 232.577 13.8708 231.682 15.3513C230.785 16.8044 229.54 17.9971 227.947 18.9292L235.415 29.6631H224.462L218.239 20.6976H214.606V29.6631H204.896ZM214.606 13.7062H220.729C221.326 13.7062 221.874 13.4321 222.372 12.8838C222.903 12.3354 223.169 11.5677 223.169 10.5807C223.169 9.56621 222.869 8.79851 222.272 8.27758C221.674 7.72924 221.077 7.45507 220.48 7.45507H214.606V13.7062Z" fill="#22C2B5"/>
<path d="M293.506 22.6717V29.6631H268.315V0.46363H293.058V7.45507H278.023V11.5677H290.868V18.0656H278.023V22.6717H293.506Z" fill="#22C2B5"/>
<path d="M260.118 9.8781C259.123 9.38459 258.094 8.94591 257.032 8.56206C256.135 8.23305 255.122 7.93146 253.995 7.65729C252.9 7.3557 251.821 7.2049 250.758 7.2049C249.896 7.2049 249.199 7.31457 248.667 7.53391C248.17 7.75325 247.92 8.12339 247.92 8.64432C247.92 9.02816 248.07 9.34346 248.369 9.59021C248.667 9.83697 249.099 10.07 249.663 10.2894C250.228 10.4813 250.908 10.6732 251.705 10.8651C252.534 11.057 253.463 11.2901 254.492 11.5643C256.119 11.9755 257.58 12.4279 258.873 12.9214C260.201 13.4149 261.329 14.0044 262.26 14.6899C263.189 15.3479 263.901 16.1567 264.4 17.1163C264.898 18.0759 265.146 19.2411 265.146 20.6121C265.146 22.3667 264.748 23.8473 263.951 25.0537C263.189 26.2325 262.16 27.1785 260.865 27.8913C259.604 28.6042 258.16 29.1252 256.533 29.4542C254.94 29.7557 253.331 29.9065 251.705 29.9065C250.41 29.9065 249.083 29.8243 247.722 29.6597C246.361 29.4953 245 29.2622 243.639 28.9606C242.311 28.659 241.017 28.3026 239.755 27.8913C238.528 27.4801 237.383 27.0139 236.321 26.4931L240.502 19.4605C241.665 20.0637 242.876 20.5983 244.137 21.0644C245.2 21.4756 246.394 21.8458 247.722 22.1748C249.083 22.5038 250.46 22.6683 251.853 22.6683C252.916 22.6683 253.646 22.5586 254.045 22.3393C254.476 22.0926 254.692 21.7772 254.692 21.3934C254.692 20.9822 254.476 20.6395 254.045 20.3652C253.646 20.0637 253.082 19.8032 252.352 19.5838C251.621 19.3645 250.775 19.1452 249.812 18.9258C248.883 18.7065 247.888 18.446 246.825 18.1444C245.266 17.7057 243.921 17.2397 242.792 16.7462C241.665 16.2252 240.734 15.6495 240.005 15.0189C239.275 14.3608 238.727 13.6205 238.362 12.7981C238.03 11.9755 237.864 11.0296 237.864 9.96036C237.864 8.34272 238.212 6.91702 238.909 5.68324C239.639 4.44945 240.618 3.4213 241.847 2.59878C243.074 1.77625 244.469 1.15937 246.029 0.748104C247.622 0.309426 249.298 0.0900879 251.057 0.0900879C252.352 0.0900879 253.613 0.199758 254.841 0.419098C256.069 0.611018 257.248 0.871484 258.375 1.20049C259.538 1.50209 260.616 1.84481 261.611 2.22864C262.608 2.58507 263.503 2.92778 264.3 3.25679L260.118 9.8781Z" fill="#22C2B5"/>
</svg>
