<svg width="96" height="96" viewBox="0 0 96 96" fill="none" xmlns="http://www.w3.org/2000/svg">
<path d="M65.7014 68.3791C65.8014 68.3791 66.0014 68.3791 66.1014 68.3791C68.1014 68.1791 69.5014 66.3791 69.3014 64.3791C68.8014 59.5791 66.6014 54.9791 63.1014 51.4791C61.6014 49.9791 59.9014 48.6791 58.1014 47.6791C60.1014 45.2791 61.4014 42.2791 61.4014 38.9791C61.4014 31.5791 55.4014 25.5791 48.0014 25.5791C40.6014 25.5791 34.6014 31.5791 34.6014 38.9791C34.6014 42.2791 35.8014 45.3791 37.9014 47.6791C31.8014 50.9791 27.5014 57.0791 26.7014 64.3791C26.5014 66.3791 27.9014 68.1791 29.9014 68.3791C31.9014 68.579 33.7014 67.1791 33.9014 65.1791C34.6014 57.9791 40.9014 52.3791 48.1014 52.3791C51.9014 52.3791 55.5014 53.8791 58.2014 56.5791C60.5014 58.8791 62.0014 61.9791 62.3014 65.1791C62.3014 66.9791 63.9014 68.3791 65.7014 68.3791ZM41.7014 38.8791C41.7014 35.479 44.5014 32.6791 47.9014 32.6791C51.3014 32.6791 54.1014 35.479 54.1014 38.8791C54.1014 42.2791 51.4014 44.9791 48.0014 45.0791H47.8014C44.4014 44.9791 41.7014 42.2791 41.7014 38.8791Z" fill="url(#paint0_linear_405_488)"/>
<path d="M12.0014 36.3791C12.5014 36.5791 12.9014 36.6791 13.4014 36.6791C14.8014 36.6791 16.1014 35.8791 16.7014 34.4791C20.1014 26.3791 26.5014 20.0791 34.6014 16.5791C36.4014 15.7791 37.3014 13.6791 36.5014 11.7791C35.7014 9.97905 33.6014 9.07905 31.7014 9.87905C21.9014 14.0791 14.2014 21.7791 10.0014 31.5791C9.30137 33.4791 10.1014 35.5791 12.0014 36.3791Z" fill="url(#paint1_linear_405_488)"/>
<path d="M61.2014 16.5791C69.3014 19.9791 75.6014 26.3791 79.1014 34.4791C79.7014 35.8791 81.0014 36.6791 82.4014 36.6791C82.9014 36.6791 83.4014 36.5791 83.8014 36.3791C85.6014 35.5791 86.5014 33.4791 85.7014 31.5791C81.6014 21.7791 73.9014 14.0791 64.1014 9.87905C62.2014 9.07905 60.1014 9.97905 59.3014 11.7791C58.5014 13.6791 59.4014 15.7791 61.2014 16.5791Z" fill="url(#paint2_linear_405_488)"/>
<path d="M34.6014 78.979C26.5014 75.579 20.2014 69.1791 16.7014 61.0791C15.9014 59.2791 13.8014 58.3791 11.9014 59.1791C10.1014 59.9791 9.20137 62.079 10.0014 63.979C14.2014 73.7791 21.9014 81.4791 31.7014 85.6791C32.2014 85.8791 32.6014 85.979 33.1014 85.979C34.5014 85.979 35.8014 85.1791 36.4014 83.7791C37.3014 81.8791 36.4014 79.7791 34.6014 78.979Z" fill="url(#paint3_linear_405_488)"/>
<path d="M83.8014 59.1791C81.9014 58.3791 79.8014 59.2791 79.0014 61.0791C75.6014 69.1791 69.2014 75.479 61.1014 78.979C59.3014 79.7791 58.4014 81.8791 59.2014 83.7791C59.8014 85.1791 61.1014 85.979 62.5014 85.979C63.0014 85.979 63.5014 85.8791 63.9014 85.6791C73.9014 81.4791 81.6014 73.7791 85.8014 63.979C86.5014 62.079 85.7014 59.9791 83.8014 59.1791Z" fill="url(#paint4_linear_405_488)"/>
<path d="M47.9014 20.1791C49.9014 20.1791 51.5014 18.5791 51.5014 16.5791V3.87905C51.5014 1.87905 49.9014 0.279053 47.9014 0.279053C45.9014 0.279053 44.3014 1.87905 44.3014 3.87905V16.4791C44.3014 18.5791 45.9014 20.1791 47.9014 20.1791Z" fill="url(#paint5_linear_405_488)"/>
<path d="M47.9014 75.3791C45.9014 75.3791 44.3014 76.979 44.3014 78.979V91.5791C44.3014 93.5791 45.9014 95.1791 47.9014 95.1791C49.9014 95.1791 51.5014 93.5791 51.5014 91.5791V78.979C51.5014 76.979 49.9014 75.3791 47.9014 75.3791Z" fill="url(#paint6_linear_405_488)"/>
<path d="M91.8014 44.1791H79.1014C77.1014 44.1791 75.5014 45.7791 75.5014 47.7791C75.5014 49.7791 77.1014 51.3791 79.1014 51.3791H91.7014C93.7014 51.3791 95.3014 49.7791 95.3014 47.7791C95.3014 45.7791 93.8014 44.1791 91.8014 44.1791Z" fill="url(#paint7_linear_405_488)"/>
<path d="M20.3014 47.7791C20.3014 45.7791 18.7014 44.1791 16.7014 44.1791H4.00137C2.00137 44.1791 0.401367 45.7791 0.401367 47.7791C0.401367 49.7791 2.00137 51.3791 4.00137 51.3791H16.6014C18.7014 51.3791 20.3014 49.7791 20.3014 47.7791Z" fill="url(#paint8_linear_405_488)"/>
<defs>
<linearGradient id="paint0_linear_405_488" x1="0.401365" y1="55.2213" x2="95.3086" y2="55.1286" gradientUnits="userSpaceOnUse">
<stop stop-color="#0094FF"/>
<stop offset="1" stop-color="#FF00C7"/>
</linearGradient>
<linearGradient id="paint1_linear_405_488" x1="0.401365" y1="55.2213" x2="95.3086" y2="55.1286" gradientUnits="userSpaceOnUse">
<stop stop-color="#0094FF"/>
<stop offset="1" stop-color="#FF00C7"/>
</linearGradient>
<linearGradient id="paint2_linear_405_488" x1="0.401365" y1="55.2213" x2="95.3086" y2="55.1286" gradientUnits="userSpaceOnUse">
<stop stop-color="#0094FF"/>
<stop offset="1" stop-color="#FF00C7"/>
</linearGradient>
<linearGradient id="paint3_linear_405_488" x1="0.401365" y1="55.2213" x2="95.3086" y2="55.1286" gradientUnits="userSpaceOnUse">
<stop stop-color="#0094FF"/>
<stop offset="1" stop-color="#FF00C7"/>
</linearGradient>
<linearGradient id="paint4_linear_405_488" x1="0.401365" y1="55.2213" x2="95.3086" y2="55.1286" gradientUnits="userSpaceOnUse">
<stop stop-color="#0094FF"/>
<stop offset="1" stop-color="#FF00C7"/>
</linearGradient>
<linearGradient id="paint5_linear_405_488" x1="0.401365" y1="55.2213" x2="95.3086" y2="55.1286" gradientUnits="userSpaceOnUse">
<stop stop-color="#0094FF"/>
<stop offset="1" stop-color="#FF00C7"/>
</linearGradient>
<linearGradient id="paint6_linear_405_488" x1="0.401365" y1="55.2213" x2="95.3086" y2="55.1286" gradientUnits="userSpaceOnUse">
<stop stop-color="#0094FF"/>
<stop offset="1" stop-color="#FF00C7"/>
</linearGradient>
<linearGradient id="paint7_linear_405_488" x1="0.401365" y1="55.2213" x2="95.3086" y2="55.1286" gradientUnits="userSpaceOnUse">
<stop stop-color="#0094FF"/>
<stop offset="1" stop-color="#FF00C7"/>
</linearGradient>
<linearGradient id="paint8_linear_405_488" x1="0.401365" y1="55.2213" x2="95.3086" y2="55.1286" gradientUnits="userSpaceOnUse">
<stop stop-color="#0094FF"/>
<stop offset="1" stop-color="#FF00C7"/>
</linearGradient>
</defs>
</svg>
