<svg width="99" height="87" viewBox="0 0 99 87" fill="none" xmlns="http://www.w3.org/2000/svg">
<path fill-rule="evenodd" clip-rule="evenodd" d="M16.002 44.9228C16.469 44.9481 16.9364 44.8811 17.3775 44.7257C17.8186 44.5703 18.2247 44.3295 18.5727 44.0171C18.9207 43.7047 19.2038 43.3268 19.4057 42.905C19.6076 42.4832 19.7245 42.0257 19.7496 41.5587C20.1582 33.8944 23.0327 26.5673 27.9445 20.6696C32.8564 14.7719 39.5426 10.6194 47.0066 8.83105C54.4706 7.04269 62.3126 7.71424 69.3639 10.7456C76.4151 13.7769 82.298 19.0058 86.1356 25.6527C89.9732 32.2997 91.5601 40.0088 90.6597 47.631C89.7593 55.2532 86.4198 62.3804 81.1391 67.9502C75.8583 73.5201 68.9191 77.2342 61.3556 78.5392C53.7921 79.8441 46.0094 78.67 39.1676 75.1917C38.3254 74.7642 37.348 74.6888 36.4502 74.9819C35.5524 75.2751 34.8079 75.913 34.3804 76.7551C33.9529 77.5972 33.8775 78.5747 34.1707 79.4725C34.4639 80.3702 35.1017 81.1147 35.9438 81.5422C44.1542 85.715 53.4931 87.1229 62.5687 85.5563C71.6443 83.9896 79.9707 79.5322 86.3069 72.8483C92.6431 66.1645 96.6498 57.6121 97.73 48.4658C98.8101 39.3196 96.9058 30.0691 92.3009 22.0932C87.696 14.1172 80.637 7.8428 72.176 4.20511C63.715 0.567408 54.3051 -0.238823 45.3486 1.90657C36.3921 4.05197 28.3687 9.03413 22.4741 16.1105C16.5795 23.1869 13.1294 31.9786 12.638 41.1753C12.6127 41.6423 12.6797 42.1096 12.8351 42.5507C12.9905 42.9918 13.2313 43.3979 13.5437 43.746C13.8561 44.094 14.234 44.377 14.6558 44.5789C15.0776 44.7809 15.5351 44.8977 16.002 44.9228ZM64.2033 58.871C62.0436 60.1218 59.6432 60.9003 57.1605 61.1552C54.6779 61.4101 52.1694 61.1355 49.8006 60.3496C49.3568 60.2009 48.8881 60.1411 48.4212 60.1735C47.9543 60.206 47.4984 60.3301 47.0794 60.5388C46.6605 60.7474 46.2867 61.0366 45.9795 61.3897C45.6723 61.7428 45.4377 62.1529 45.289 62.5967C45.1403 63.0405 45.0805 63.5092 45.1129 63.9761C45.1454 64.443 45.2695 64.899 45.4782 65.3179C45.6868 65.7368 45.976 66.1106 46.3291 66.4178C46.6822 66.725 47.0923 66.9596 47.5361 67.1083C52.3316 68.6878 57.4937 68.7735 62.3389 67.3541C67.1842 65.9347 71.4841 63.0772 74.6693 59.1599C77.8545 55.2425 79.7748 50.4502 80.176 45.4173C80.5772 40.3843 79.4403 35.3483 76.9159 30.9758C74.3914 26.6034 70.5985 23.1008 66.0393 20.9317C61.4801 18.7627 56.3696 18.0296 51.3845 18.8294C46.3994 19.6292 41.7747 21.9243 38.1229 25.4107C35.8176 27.6116 33.9686 30.2216 32.6594 33.0906L31.7287 31.1651C30.9223 29.4084 28.8445 28.6379 27.0877 29.4443C25.3309 30.2507 24.5605 32.3285 25.3669 34.0853L29.0887 44.5722C29.8364 46.2012 31.6939 47.002 33.3917 46.4274L44.0942 41.7398C45.9252 41.1201 46.9071 39.1335 46.2874 37.3025C45.6676 35.4715 43.681 34.4896 41.85 35.1093L39.0717 36.2066C39.762 34.6524 40.674 33.1991 41.7846 31.8942C43.71 29.6321 46.1708 27.8877 48.9429 26.8201C51.7149 25.7524 54.7101 25.3954 57.6554 25.7817C60.6008 26.1679 63.4027 27.285 65.8057 29.0313C68.2088 30.7775 70.1367 33.0974 71.4137 35.7795C72.6907 38.4615 73.2763 41.4205 73.117 44.3868C72.9577 47.3531 72.0586 50.2323 70.5017 52.7622C68.9448 55.2921 66.7795 57.3921 64.2033 58.871ZM10.9545 78.4852L13.9427 67.3333L2.79067 64.3451C2.11063 64.1628 1.49992 63.7829 1.03573 63.2536C0.57155 62.7242 0.274739 62.0691 0.18282 61.371C0.0909003 60.673 0.208004 59.9634 0.519322 59.3319C0.83064 58.7004 1.32219 58.1754 1.93185 57.8233L17.3485 48.9225C18.1663 48.4506 19.138 48.3228 20.05 48.5673L33.2155 52.095L53.5223 40.3708C54.34 39.8987 55.3118 39.7708 56.2239 40.0152C57.136 40.2596 57.9136 40.8563 58.3858 41.674C58.8579 42.4918 58.9858 43.4636 58.7414 44.3756C58.4971 45.2877 57.9003 46.0654 57.0826 46.5375L36.7758 58.2616L33.2481 71.4271C33.0039 72.3392 32.4074 73.1168 31.5898 73.5891L16.1731 82.4899C15.5633 82.8418 14.8629 83.005 14.1603 82.9589C13.4578 82.9127 12.7847 82.6593 12.2262 82.2307C11.6676 81.8021 11.2487 81.2175 11.0223 80.5508C10.796 79.8842 10.7724 79.1653 10.9545 78.4852ZM12.9353 59.6926L19.2238 61.3776C20.1357 61.6221 20.9131 62.2187 21.3852 63.0363C21.8572 63.8539 21.9852 64.8255 21.741 65.7374L20.056 72.0259L26.753 68.1594L29.3593 58.4324L19.6323 55.8261L12.9353 59.6926Z" fill="url(#paint0_linear_407_497)"/>
<defs>
<linearGradient id="paint0_linear_407_497" x1="88.9124" y1="13.6279" x2="-8.51168" y2="70.0396" gradientUnits="userSpaceOnUse">
<stop stop-color="#0094FF"/>
<stop offset="1" stop-color="#FF00C7"/>
</linearGradient>
</defs>
</svg>
