<svg width="150" height="93" viewBox="0 0 150 93" fill="none" xmlns="http://www.w3.org/2000/svg">
<path d="M31.7234 13.3988C31.6359 13.397 31.5502 13.3951 31.4628 13.3951C25.113 13.3951 19.7035 18.0792 18.823 24.3874C18.741 24.9724 18.7009 25.5684 18.7009 26.1626C18.7009 28.2767 20.4142 29.99 22.5283 29.99C24.6425 29.99 26.3558 28.2767 26.3558 26.1626C26.3558 25.922 26.3722 25.6796 26.405 25.4444C26.7567 22.922 28.922 21.0502 31.4646 21.0502C31.4992 21.0502 31.5339 21.0502 31.5685 21.052C34.2294 21.1048 36.4219 23.23 36.5604 25.8853C36.6352 27.3069 36.1376 28.6556 35.1625 29.6836C34.1875 30.7097 32.8734 31.2747 31.4627 31.2747C29.3485 31.2747 27.6352 32.988 27.6352 35.1021V42.6384C27.6352 44.7525 29.3485 46.4658 31.4627 46.4658C33.5768 46.4658 35.2901 44.7525 35.2901 42.6384V38.337C37.3368 37.69 39.2141 36.5327 40.7141 34.9543C43.1491 32.3899 44.3903 29.0292 44.2062 25.4897C43.8599 18.8446 38.3776 13.5335 31.7233 13.4006L31.7234 13.3988Z" fill="#00B6EF"/>
<path d="M31.4622 48.1963C29.348 48.1963 27.6348 49.9095 27.6348 52.0237V53.6203C27.6348 55.7345 29.348 57.4477 31.4622 57.4477C33.5764 57.4477 35.2896 55.7345 35.2896 53.6203V52.0237C35.2896 49.9095 33.5764 48.1963 31.4622 48.1963Z" fill="#00B6EF"/>
<path d="M58.3838 24.7297H82.6554C84.7696 24.7297 86.4828 23.0164 86.4828 20.9023C86.4828 18.7881 84.7696 17.0748 82.6554 17.0748H58.3838C56.2696 17.0748 54.5564 18.7881 54.5564 20.9023C54.5564 23.0164 56.2696 24.7297 58.3838 24.7297Z" fill="#00B6EF"/>
<path d="M58.3838 39.2248H82.6554C84.7696 39.2248 86.4828 37.5115 86.4828 35.3974C86.4828 33.2832 84.7696 31.5699 82.6554 31.5699H58.3838C56.2696 31.5699 54.5564 33.2832 54.5564 35.3974C54.5564 37.5115 56.2696 39.2248 58.3838 39.2248Z" fill="#00B6EF"/>
<path d="M58.3838 53.721H82.6554C84.7696 53.721 86.4828 52.0078 86.4828 49.8936C86.4828 47.7794 84.7696 46.0662 82.6554 46.0662H58.3838C56.2696 46.0662 54.5564 47.7794 54.5564 49.8936C54.5564 52.0078 56.2696 53.721 58.3838 53.721Z" fill="#00B6EF"/>
<path d="M100.423 24.7297H124.695C126.809 24.7297 128.522 23.0164 128.522 20.9023C128.522 18.7881 126.809 17.0748 124.695 17.0748H100.423C98.3089 17.0748 96.5957 18.7881 96.5957 20.9023C96.5957 23.0164 98.3089 24.7297 100.423 24.7297Z" fill="#00B6EF"/>
<path d="M100.423 39.2248H124.695C126.809 39.2248 128.522 37.5115 128.522 35.3974C128.522 33.2832 126.809 31.5699 124.695 31.5699H100.423C98.3089 31.5699 96.5957 33.2832 96.5957 35.3974C96.5957 37.5115 98.3089 39.2248 100.423 39.2248Z" fill="#00B6EF"/>
<path d="M100.423 53.721H124.695C126.809 53.721 128.522 52.0078 128.522 49.8936C128.522 47.7794 126.809 46.0662 124.695 46.0662H100.423C98.3089 46.0662 96.5957 47.7794 96.5957 49.8936C96.5957 52.0078 98.3089 53.721 100.423 53.721Z" fill="#00B6EF"/>
<path d="M9.51105 73.1024H30.9519C30.9938 73.1024 31.0321 73.1242 31.0521 73.1607L40.0978 88.8276C41.503 91.2607 44.0181 92.7133 46.8268 92.7133C49.6354 92.7133 52.1524 91.2607 53.5577 88.8276L62.6015 73.1626C62.6215 73.1261 62.6616 73.1042 62.7017 73.1042H140.271C145.188 73.1042 149.189 69.1037 149.189 64.1865V9.37238C149.189 4.45507 145.188 0.45459 140.271 0.45459H53.776C51.6618 0.45459 49.9486 2.16783 49.9486 4.28201C49.9486 6.39619 51.6618 8.10943 53.776 8.10943H140.271C140.967 8.10943 141.534 8.67623 141.534 9.37429V64.1884C141.534 64.8846 140.967 65.4514 140.271 65.4514H62.7017C59.935 65.4514 57.3561 66.9405 55.9708 69.3371L46.9252 85.004C46.9015 85.0441 46.8924 85.0624 46.825 85.0624C46.7575 85.0624 46.7484 85.0441 46.7247 85.004L37.6791 69.3371C36.2958 66.9405 33.7168 65.4532 30.95 65.4532H9.51105C8.81481 65.4532 8.24801 64.8864 8.24801 64.1902V9.37611C8.24801 8.67987 8.81481 8.11125 9.51105 8.11125H38.9785C41.0927 8.11125 42.8059 6.39801 42.8059 4.28383C42.8059 2.16965 41.0927 0.45641 38.9785 0.45641H9.51105C4.59374 0.45641 0.593262 4.45698 0.593262 9.3742V64.1883C0.593262 69.1056 4.59383 73.1061 9.51105 73.1061V73.1024Z" fill="#00B6EF"/>
</svg>
