<svg width="150" height="93" viewBox="0 0 150 93" fill="none" xmlns="http://www.w3.org/2000/svg">
<path d="M35.4388 38.3363C37.4855 37.6893 39.3646 36.532 40.8628 34.9536C43.2978 32.3892 44.5371 29.0285 44.3549 25.489C44.0104 18.8439 38.5282 13.5328 31.8738 13.3998C25.4 13.2522 19.8668 17.9928 18.9751 24.3883C18.8931 24.9734 18.853 25.5693 18.853 26.1635C18.853 28.2777 20.5663 29.9909 22.6804 29.9909C24.7946 29.9909 26.5079 28.2777 26.5079 26.1635C26.5079 25.9229 26.5243 25.6805 26.5571 25.4454C26.9088 22.923 29.0741 21.0511 31.6167 21.0511C31.6513 21.0511 31.686 21.0511 31.7206 21.053C34.3816 21.1058 36.574 23.2291 36.7107 25.8863C36.7854 27.3079 36.2878 28.6566 35.3127 29.6827C34.3377 30.7088 33.0236 31.2739 31.6129 31.2739C29.4987 31.2739 27.7855 32.9871 27.7855 35.1013V42.6375C27.7855 44.7517 29.4987 46.4649 31.6129 46.4649C33.7271 46.4649 35.4403 44.7517 35.4403 42.6375V38.3362L35.4388 38.3363Z" fill="#00B6EF" fill-opacity="0.5"/>
<path d="M31.6082 48.1997C29.494 48.1997 27.7808 49.9129 27.7808 52.0271V53.6219C27.7808 55.7361 29.494 57.4493 31.6082 57.4493C33.7224 57.4493 35.4356 55.7361 35.4356 53.6219V52.0271C35.4356 49.9129 33.7224 48.1997 31.6082 48.1997Z" fill="#00B6EF" fill-opacity="0.5"/>
<path d="M82.8017 17.0786H58.5301C56.4159 17.0786 54.7026 18.7919 54.7026 20.906C54.7026 23.0202 56.4159 24.7335 58.5301 24.7335H82.8017C84.9158 24.7335 86.6291 23.0202 86.6291 20.906C86.6291 18.7919 84.9158 17.0786 82.8017 17.0786Z" fill="#00B6EF" fill-opacity="0.5"/>
<path d="M82.8017 31.5708H58.5301C56.4159 31.5708 54.7026 33.284 54.7026 35.3982C54.7026 37.5124 56.4159 39.2256 58.5301 39.2256H82.8017C84.9158 39.2256 86.6291 37.5124 86.6291 35.3982C86.6291 33.284 84.9158 31.5708 82.8017 31.5708Z" fill="#00B6EF" fill-opacity="0.5"/>
<path d="M82.8017 46.0674H58.5301C56.4159 46.0674 54.7026 47.7806 54.7026 49.8948C54.7026 52.009 56.4159 53.7222 58.5301 53.7222H82.8017C84.9158 53.7222 86.6291 52.009 86.6291 49.8948C86.6291 47.7806 84.9158 46.0674 82.8017 46.0674Z" fill="#00B6EF" fill-opacity="0.5"/>
<path d="M100.573 24.7305H124.845C126.959 24.7305 128.673 23.0173 128.673 20.9031C128.673 18.7889 126.959 17.0757 124.845 17.0757H100.573C98.4593 17.0757 96.7461 18.7889 96.7461 20.9031C96.7461 23.0173 98.4593 24.7305 100.573 24.7305Z" fill="#00B6EF" fill-opacity="0.5"/>
<path d="M100.573 39.2271H124.845C126.959 39.2271 128.673 37.5139 128.673 35.3997C128.673 33.2855 126.959 31.5723 124.845 31.5723H100.573C98.4593 31.5723 96.7461 33.2855 96.7461 35.3997C96.7461 37.5139 98.4593 39.2271 100.573 39.2271Z" fill="#00B6EF" fill-opacity="0.5"/>
<path d="M100.573 53.7193H124.845C126.959 53.7193 128.673 52.006 128.673 49.8919C128.673 47.7777 126.959 46.0645 124.845 46.0645H100.573C98.4593 46.0645 96.7461 47.7777 96.7461 49.8919C96.7461 52.006 98.4593 53.7193 100.573 53.7193Z" fill="#00B6EF" fill-opacity="0.5"/>
<path d="M140.42 0.454414H9.66046C4.74315 0.454414 0.742676 4.45499 0.742676 9.3722V64.1863C0.742676 69.1036 4.74325 73.1041 9.66046 73.1041H31.1013C31.1432 73.1041 31.1815 73.1259 31.2015 73.1624L40.2472 88.8274C41.6524 91.2605 44.1675 92.7132 46.9762 92.7132C49.7849 92.7132 52.3018 91.2605 53.7071 88.8274L62.7528 73.1605C62.7728 73.1259 62.8111 73.1022 62.853 73.1022H101.399C103.513 73.1022 105.226 71.3889 105.226 69.2748C105.226 67.1606 103.513 65.4474 101.399 65.4474H62.8511C60.0826 65.4474 57.5055 66.9364 56.1202 69.3331L47.0746 84.9981C47.0509 85.0382 47.0418 85.0564 46.9744 85.0564C46.9069 85.0564 46.8978 85.0382 46.8741 84.9981L37.8285 69.3312C36.4452 66.9345 33.8662 65.4455 31.0994 65.4455H9.65858C8.96235 65.4455 8.39374 64.8787 8.39374 64.1825V9.36837C8.39374 8.67214 8.96053 8.10533 9.65858 8.10533H140.418C141.114 8.10533 141.681 8.67214 141.681 9.36837V64.1825C141.681 64.8787 141.114 65.4455 140.418 65.4455H116.194C114.08 65.4455 112.367 67.1587 112.367 69.2729C112.367 71.3871 114.08 73.1003 116.194 73.1003H140.418C145.336 73.1003 149.336 69.0998 149.336 64.1825V9.36846C149.338 4.45116 145.335 0.450684 140.418 0.450684L140.42 0.454414Z" fill="#00B6EF" fill-opacity="0.5"/>
</svg>
