<svg width="48" height="49" viewBox="0 0 48 49" fill="none" xmlns="http://www.w3.org/2000/svg">
<path d="M35.4946 6.91765C40.4898 5.5367 42.9852 8.85097 41.6295 12.9892C44.6487 17.7121 45.6229 22.9505 44.6992 28.5802C45.0898 29.1234 45.4942 29.6435 45.8527 30.1913C48.3572 34.012 48.7248 38.0167 46.6707 42.1227C44.6165 46.2288 41.124 48.3094 36.6021 48.5672C34.1567 48.681 31.7429 47.9765 29.7412 46.5648C29.1944 46.1965 28.6751 45.7915 28.0593 45.3404C22.5449 46.1643 17.2877 45.3726 12.5085 42.2516C11.8835 42.3667 11.3182 42.5048 10.7392 42.5646C7.83492 42.8823 5.7716 40.8339 6.04733 37.897C6.09328 37.3907 6.24493 36.8935 6.38738 36.1939C3.40957 31.5446 2.36184 26.3247 3.30389 20.6075C2.96383 20.1472 2.57328 19.604 2.21024 19.0608C-0.331011 15.2586 -0.740001 11.2354 1.29116 7.134C3.35449 2.95432 6.89295 0.795429 11.5205 0.588286C13.9677 0.487576 16.3771 1.21747 18.3584 2.65972C18.8961 3.03257 19.4292 3.41923 19.9852 3.81971C25.5686 2.98654 30.8257 3.7967 35.4946 6.91765ZM26.0144 42.7672C23.7167 37.4919 24.0062 32.7046 27.9674 28.6769C32.0068 24.5754 36.8503 24.2992 41.965 26.4857C42.7416 22.573 41.4456 17.3392 39.1158 14.8121C38.3714 15.0066 37.5892 15.0027 36.8468 14.8008C36.1044 14.599 35.4275 14.2061 34.8834 13.6613C33.5967 12.4138 33.5462 10.8165 33.7622 9.25606C30.0307 6.78415 25.4353 5.75305 22.1404 6.65527C22.4161 7.47463 22.7332 8.2848 22.9584 9.11797C23.9924 13.0031 23.3123 16.5613 20.7802 19.7053C19.3188 21.5237 17.3425 22.8568 15.1109 23.5296C12.8793 24.2025 10.4968 24.1835 8.27614 23.4753C7.52709 23.2451 6.79177 22.9689 6.03813 22.7066C5.29367 26.4581 6.32772 30.8864 8.76328 34.4354C9.52253 34.1972 10.3326 34.1735 11.1045 34.3668C11.8764 34.5601 12.5801 34.9629 13.1381 35.531C14.3972 36.7877 14.4753 38.3804 14.2594 40.0237C17.83 42.2608 21.5982 43.1354 26.0144 42.7672ZM32.4708 37.6484C32.3146 36.9396 32.1216 36.3089 32.0389 35.6691C31.8988 34.7921 32.0438 33.8933 32.4524 33.1051C32.9166 32.2174 33.6758 31.5199 34.5988 31.1333C35.5218 30.7467 36.5505 30.6952 37.5074 30.9877C38.4671 31.2659 39.2978 31.8748 39.8528 32.707C40.4077 33.5392 40.6513 34.541 40.5404 35.5356C40.4287 36.268 40.2753 36.9934 40.0808 37.7083C41.7168 38.7026 42.4842 40.3643 43.4952 42.0491C43.8422 41.4963 44.1613 40.9263 44.4511 40.3413C45.226 38.499 45.3624 36.4497 44.8385 34.5206C44.3145 32.5916 43.1605 30.8939 41.5605 29.6988C39.9391 28.5052 37.9611 27.8984 35.9505 27.9778C33.9399 28.0572 32.0158 28.818 30.4931 30.1358C28.9705 31.4535 27.9396 33.25 27.5693 35.2311C27.1989 37.2123 27.511 39.2607 28.4545 41.041C28.7237 41.4008 29.0319 41.7297 29.3736 42.0215C29.8996 40.2631 30.9878 38.7266 32.4708 37.6484ZM18.6847 17.3945C21.7498 14.2321 20.8721 8.64845 17.8897 5.85893C16.2411 4.30537 14.0658 3.43577 11.8025 3.42552C9.53906 3.41527 7.35596 4.26512 5.69347 5.80368C2.38479 8.91082 1.91154 14.048 4.73771 17.3991C5.39366 15.681 6.50601 14.1752 7.95448 13.0445C7.75038 12.3851 7.58918 11.7132 7.47195 11.0329C7.35816 10.2227 7.48638 9.3969 7.8405 8.65962C8.19461 7.92234 8.75879 7.3066 9.46179 6.89004C10.1753 6.424 11.0138 6.1871 11.8653 6.21095C12.7168 6.2348 13.5407 6.51828 14.2272 7.02353C14.9001 7.48215 15.4231 8.12948 15.7304 8.88444C16.0378 9.6394 16.1159 10.4684 15.955 11.2676C15.8677 11.843 15.6701 12.4 15.4955 13.0629C16.9967 14.1258 18.1139 15.6471 18.6801 17.3991L18.6847 17.3945ZM15.9274 20.0091C16.2353 18.1402 15.6609 16.6073 13.9974 15.544C13.27 15.1114 12.4328 14.8998 11.5876 14.935C10.7424 14.9701 9.92571 15.2505 9.23662 15.7419C7.80745 16.8697 7.15949 18.3105 7.61903 20.0965C10.845 21.6478 12.9312 21.6202 15.9136 20.0137L15.9274 20.0091ZM40.4944 44.5947C40.7655 42.5693 40.0855 41.0594 38.422 40.0513C37.7175 39.6362 36.9079 39.4347 36.0914 39.4714C35.2749 39.508 34.4865 39.7812 33.822 40.2578C33.1574 40.7344 32.6452 41.3939 32.3474 42.1564C32.0497 42.9188 31.9792 43.7514 32.1446 44.5532C34.7732 46.0907 37.388 46.1183 40.4807 44.5993L40.4944 44.5947ZM36.2024 36.6173C36.5899 36.6381 36.9703 36.5075 37.2636 36.2529C37.5569 35.9983 37.7401 35.6396 37.7746 35.2524C37.8092 34.8652 37.6924 34.4797 37.4488 34.1771C37.2053 33.8744 36.854 33.6783 36.4689 33.6299C36.2718 33.6057 36.0719 33.6215 35.881 33.6766C35.6902 33.7316 35.5124 33.8247 35.3583 33.9502C35.2043 34.0757 35.0772 34.2311 34.9845 34.407C34.8918 34.5829 34.8356 34.7758 34.8191 34.974C34.7917 35.3725 34.9188 35.7662 35.1739 36.0731C35.429 36.3801 35.7924 36.5767 36.1886 36.6219L36.2024 36.6173ZM11.7687 12.0042C11.9547 12.0123 12.1404 11.9825 12.3146 11.9167C12.4888 11.851 12.6479 11.7505 12.7823 11.6215C12.9168 11.4924 13.0236 11.3375 13.0966 11.1659C13.1696 10.9943 13.2072 10.8097 13.207 10.6232C13.2181 10.4221 13.1889 10.2208 13.1209 10.0313C13.053 9.84172 12.9478 9.66777 12.8115 9.51968C12.6752 9.37159 12.5107 9.25239 12.3276 9.16916C12.1445 9.08593 11.9467 9.04035 11.7457 9.03512C11.3782 9.06012 11.0305 9.21103 10.7611 9.46251C10.4916 9.71398 10.3168 10.0507 10.266 10.4161C10.2567 10.6192 10.2881 10.8221 10.3584 11.0129C10.4287 11.2037 10.5364 11.3784 10.6751 11.5269C10.8139 11.6753 10.9809 11.7944 11.1663 11.8772C11.3518 11.9599 11.5519 12.0047 11.7549 12.0088L11.7687 12.0042ZM11.4929 38.362C11.4837 38.181 11.4372 38.004 11.3563 37.8419C11.2753 37.6799 11.1617 37.5364 11.0227 37.4205C10.8837 37.3046 10.7222 37.2188 10.5485 37.1685C10.3747 37.1183 10.1925 37.1045 10.0132 37.1283C9.68893 37.1632 9.38865 37.316 9.1693 37.5578C8.94995 37.7996 8.82672 38.1135 8.82296 38.4402C8.82293 38.6203 8.85881 38.7985 8.92842 38.9646C8.99804 39.1306 9.10004 39.281 9.22843 39.4071C9.35682 39.5331 9.50896 39.6322 9.67607 39.6986C9.84319 39.7649 10.0219 39.7972 10.2016 39.7935C10.3807 39.7892 10.5572 39.7481 10.7199 39.6729C10.8827 39.5977 11.0283 39.49 11.1479 39.3564C11.2676 39.2227 11.3588 39.066 11.4157 38.8957C11.4727 38.7255 11.4942 38.5454 11.4791 38.3665L11.4929 38.362ZM39.2032 10.6186C39.1888 10.4412 39.1391 10.2684 39.0573 10.1104C38.9755 9.95233 38.8631 9.81222 38.7266 9.69823C38.5901 9.58424 38.4322 9.49866 38.2623 9.44646C38.0924 9.39427 37.9138 9.37652 37.7369 9.39426C37.5601 9.41201 37.3886 9.46489 37.2324 9.5498C37.0762 9.63471 36.9385 9.74995 36.8273 9.8888C36.716 10.0277 36.6335 10.1873 36.5846 10.3585C36.5357 10.5296 36.5214 10.7088 36.5424 10.8856C36.5837 11.2106 36.7456 11.508 36.996 11.7187C37.2464 11.9294 37.5668 12.0379 37.8934 12.0226C38.0731 12.0252 38.2513 11.9901 38.4165 11.9193C38.5817 11.8485 38.7302 11.7438 38.8523 11.6118C38.9745 11.4799 39.0677 11.3237 39.1258 11.1534C39.1838 10.9831 39.2055 10.8025 39.1894 10.6232L39.2032 10.6186Z" fill="url(#paint0_linear_88_22)"/>
<defs>
<linearGradient id="paint0_linear_88_22" x1="-9.94788e-07" y1="28.3687" x2="48.0037" y2="28.3218" gradientUnits="userSpaceOnUse">
<stop stop-color="#0094FF"/>
<stop offset="1" stop-color="#FF00C7"/>
</linearGradient>
</defs>
</svg>
