<svg width="25" height="25" viewBox="0 0 25 25" fill="none" xmlns="http://www.w3.org/2000/svg">
<circle cx="12.9595" cy="12.7576" r="12" fill="#7982A1"/>
<path fill-rule="evenodd" clip-rule="evenodd" d="M12.9597 5.11027C11.4595 5.11027 10.2434 6.27657 10.2434 7.71528C10.2434 9.15399 11.4595 10.3203 12.9597 10.3203C14.4598 10.3203 15.6759 9.15399 15.6759 7.71528C15.6759 6.27657 14.4598 5.11027 12.9597 5.11027ZM8.98974 7.71528C8.98974 5.61255 10.7671 3.90796 12.9597 3.90796C15.1522 3.90796 16.9296 5.61255 16.9296 7.71528C16.9296 9.818 15.1522 11.5226 12.9597 11.5226C10.7671 11.5226 8.98974 9.818 8.98974 7.71528Z" fill="white"/>
<path fill-rule="evenodd" clip-rule="evenodd" d="M10.9081 14.328C9.15626 14.328 7.73608 15.69 7.73608 17.3701C7.73608 17.4584 7.75289 17.5206 7.77052 17.5569C7.7854 17.5875 7.79816 17.5962 7.80881 17.6017C8.29595 17.856 9.66179 18.3357 12.9597 18.3357C16.2575 18.3357 17.6234 17.856 18.1105 17.6017C18.1212 17.5962 18.1339 17.5875 18.1488 17.5569C18.1664 17.5206 18.1833 17.4584 18.1833 17.3701C18.1833 15.69 16.7631 14.328 15.0112 14.328H10.9081ZM6.48242 17.3701C6.48242 15.026 8.46388 13.1257 10.9081 13.1257H15.0112C17.4555 13.1257 19.4369 15.026 19.4369 17.3701C19.4369 17.8005 19.2745 18.3631 18.7097 18.6578C17.9617 19.0482 16.3569 19.538 12.9597 19.538C9.56247 19.538 7.95766 19.0482 7.20959 18.6578C6.64487 18.3631 6.48242 17.8005 6.48242 17.3701Z" fill="white"/>
</svg>
