<svg width="24" height="24" viewBox="0 0 24 24" fill="none" xmlns="http://www.w3.org/2000/svg">
<path d="M4.66883 14.9459C4.79942 14.5829 4.89018 14.2443 5.04069 13.93C5.80432 12.2721 7.08808 11.3558 8.92964 11.2739C9.70654 11.2451 10.479 11.2739 11.2515 11.2739C11.3954 10.9396 11.1099 10.902 10.9638 10.8002C9.89472 10.0836 9.11133 9.01426 8.75037 7.7789C7.63038 3.92093 10.6074 0.74247 13.7682 0.607452C16.4243 0.492355 18.7417 2.22988 19.4079 4.55396C19.5238 5.03046 19.8085 5.4488 20.2092 5.7315C20.5722 5.98919 20.8705 6.3276 21.0806 6.72013C21.2907 7.11265 21.4069 7.54857 21.4199 7.99359C21.4465 8.45177 21.4509 8.91216 21.4531 9.37255C21.4531 10.1827 21.4531 10.995 21.4531 11.794C21.7232 12.0397 21.971 12.2367 22.1924 12.458C22.5926 12.8361 22.9133 13.2902 23.1356 13.7938C23.358 14.2974 23.4775 14.8404 23.4872 15.3908C23.5049 17.7968 23.5071 20.2028 23.516 22.6087C23.5175 22.7145 23.5124 22.8202 23.5005 22.9252C23.4496 23.3546 23.2482 23.5693 22.8365 23.6114C22.5908 23.6357 22.3407 23.6247 22.0928 23.6247L6.27576 23.6468C4.79057 23.6468 3.30318 23.6689 1.81799 23.6689C0.565198 23.6689 0.489925 23.5804 0.472218 22.363C0.456724 20.4883 0.436816 18.6135 0.430176 16.7388C0.430176 15.0167 0.443455 15.0012 2.11679 14.999C2.71884 14.999 3.32089 14.999 3.92072 14.999C4.16641 15.0123 4.40765 14.968 4.66883 14.9459ZM19.0316 22.2502C20.0568 22.3618 21.0915 22.3544 22.1149 22.228C22.1475 22.0768 22.1712 21.9238 22.1857 21.7699C22.1857 21.1058 22.1857 20.4263 22.1857 19.7556C22.1857 18.3767 22.1857 16.9977 22.157 15.6188C22.1149 14.0915 21.1853 12.9627 19.7554 12.655C19.3707 12.6079 18.9832 12.5865 18.5956 12.5908C18.4371 12.5807 18.2783 12.6054 18.1303 12.6631C17.9823 12.7209 17.8488 12.8103 17.739 12.9251C17.3295 13.3124 16.9023 13.6843 16.4862 14.0672C15.8318 14.6464 14.9894 14.9685 14.1155 14.9738C13.2416 14.9791 12.3954 14.6672 11.734 14.096C11.4013 13.833 11.0863 13.5483 10.7911 13.2438C10.2732 12.6263 9.61137 12.5333 8.88095 12.6108C7.70342 12.7391 6.82248 13.3058 6.30676 14.3815C6.24971 14.5657 6.21407 14.7558 6.20052 14.9481C6.5768 14.968 6.88667 14.9703 7.19433 15.0012C7.74769 15.0588 7.94469 15.2646 7.97567 15.8047C7.99117 16.1234 7.97567 16.4422 7.97567 16.7609C8.01551 17.3851 7.92255 18.0203 8.05978 18.6976C8.45156 18.7131 8.79685 18.7397 9.14436 18.7397C10.2754 18.7397 11.4065 18.7397 12.5375 18.753C13.0864 18.764 13.3078 18.9854 13.3388 19.5299C13.3697 20.0744 13.3387 20.6609 13.3587 21.2276C13.3587 21.5729 13.2812 21.9359 13.507 22.2767C13.8924 22.3634 14.2939 22.3473 14.6712 22.2302C14.6889 21.969 14.7199 21.7278 14.7199 21.4865C14.7199 20.4617 14.7199 19.4369 14.7199 18.4121C14.7199 18.0934 14.7089 17.7724 14.7376 17.4581C14.7731 17.0796 14.9767 16.8494 15.3419 16.8406C16.3313 16.8118 17.3207 16.803 18.3101 16.8207C18.7771 16.8317 18.9852 17.0796 19.0139 17.5777C19.0361 17.965 19.0139 18.3546 19.0139 18.7441C19.0339 19.8818 19.0316 21.0018 19.0316 22.2457V22.2502ZM9.91462 6.44421C9.92189 6.98283 10.0425 7.5139 10.2687 8.00281C10.4948 8.49171 10.8214 8.92749 11.2272 9.2818C11.6361 9.67592 12.1232 9.97984 12.657 10.1739C13.1908 10.368 13.7593 10.4479 14.3259 10.4084C16.5393 10.2712 18.4053 8.3079 18.1397 6.39109C17.6239 6.39109 17.0971 6.36231 16.5725 6.39109C15.2666 6.4752 14.1223 6.13876 13.1883 5.19364C13.1683 5.17151 13.1241 5.17593 13.0134 5.1538C12.221 6.00818 11.1608 6.41323 9.91462 6.43979V6.44421ZM11.9797 22.2457C12.0584 21.5624 12.0458 20.8717 11.9421 20.1917C11.7973 20.1504 11.6492 20.1215 11.4994 20.1054C9.31111 20.1054 7.12204 20.115 4.93224 20.1341C4.82118 20.1542 4.71373 20.1907 4.61349 20.2426C4.50621 20.921 4.5167 21.6129 4.64448 22.2878C5.82423 22.394 11.0766 22.3675 11.9797 22.2413V22.2457ZM1.83568 16.378C1.77742 17.3686 1.77077 18.3615 1.81577 19.3528C1.84233 20.3311 1.71615 21.3161 1.9065 22.3033C2.31602 22.3864 2.73949 22.3704 3.1416 22.2568C3.15709 21.8916 3.17922 21.5441 3.18586 21.1966C3.18586 20.6676 3.17038 20.1341 3.19915 19.6051C3.23235 19.0053 3.45369 18.8017 4.08451 18.7729C4.61352 18.7485 5.14694 18.7729 5.67816 18.7508C5.98361 18.7508 6.29128 18.7087 6.65649 18.6844C6.65649 17.8897 6.78708 17.166 6.57017 16.4289C6.34882 16.4112 6.18281 16.3802 6.01017 16.3802C4.65556 16.3713 3.31203 16.3736 1.83568 16.3736V16.378ZM17.9936 4.93688C18.0223 4.36139 17.6992 3.98068 17.4114 3.59334C16.9473 2.9667 16.3081 2.49151 15.5743 2.22767C15.0254 2.03067 14.4499 1.82041 13.8036 2.05503C13.6687 2.59959 13.7058 3.17254 13.9098 3.69516C14.011 4.01628 14.2 4.30272 14.4554 4.52213C14.7108 4.74155 15.0225 4.8852 15.3552 4.93688C16.232 5.06914 17.1238 5.06765 18.0002 4.93246L17.9936 4.93688ZM16.1077 18.2173C16.0344 18.8788 16.0226 19.5457 16.0723 20.2094C16.0989 20.8955 15.9373 21.5994 16.1963 22.259C17.0816 22.3276 17.0816 22.3276 17.666 22.0974C17.666 20.8823 17.666 19.6627 17.666 18.432C17.666 18.3435 17.573 18.2572 17.5022 18.1266C17.0617 18.1554 16.6146 18.069 16.1144 18.224L16.1077 18.2173ZM20.0653 11.2495C20.1074 10.0831 20.1118 9.00291 20.0653 7.92941C20.0493 7.78986 20.0032 7.65544 19.9303 7.53542C19.8429 7.41902 19.7435 7.31219 19.6337 7.2167C19.4655 7.67487 19.3592 8.04229 19.191 8.38537C19.0122 8.76616 18.8004 9.13055 18.558 9.47436C18.3151 9.77487 18.0565 10.0623 17.7833 10.3354C17.5154 10.6342 17.0949 10.7781 16.8559 11.1322C16.9687 11.1964 17.0241 11.254 17.0772 11.254C18.0356 11.2606 18.9807 11.2495 20.0653 11.2495ZM12.3383 2.36933C11.7628 2.57556 11.2561 2.9381 10.8752 3.41627C10.4888 3.82117 10.2242 4.32666 10.1116 4.87491C10.9748 4.96566 11.36 4.8572 11.8027 4.38574C12.0616 4.12831 12.2482 3.80728 12.3438 3.45489C12.4394 3.1025 12.4405 2.73116 12.3472 2.37818L12.3383 2.36933ZM15.8598 12.7059C14.8262 12.5333 13.1661 12.551 12.3737 12.7414C12.6446 13.1573 13.0671 13.4511 13.5512 13.5603C13.9606 13.6845 14.4 13.6657 14.7974 13.5072C15.2383 13.3803 15.6167 13.095 15.8598 12.7059Z" fill="#0094FF"/>
</svg>
