<svg width="25" height="26" viewBox="0 0 25 26" fill="none" xmlns="http://www.w3.org/2000/svg">
<path d="M10.8662 1.14388C12.4187 0.378246 12.9087 0.378246 14.3999 1.14388C15.3681 0.524305 16.4353 0.241609 17.5048 0.981329C18.5744 1.72105 18.7487 2.78116 18.4307 4.04386C19.3588 4.02266 20.2399 3.92843 20.9608 4.42786C21.3189 4.30536 21.5968 4.19228 21.889 4.11454C22.0621 4.06476 22.2444 4.05537 22.4218 4.0871C22.5991 4.11882 22.7668 4.19082 22.912 4.29754C23.0572 4.40426 23.176 4.54286 23.2592 4.70268C23.3424 4.8625 23.3878 5.03928 23.392 5.21941C23.4461 6.27009 23.432 7.32784 23.4367 8.38088C23.4367 9.96398 23.4367 11.5447 23.4367 13.1278C23.4367 13.5 23.4579 13.8722 23.4744 14.3057C23.7524 14.3528 24.0021 14.3811 24.2424 14.4376C24.4105 14.4637 24.5635 14.5495 24.6735 14.6794C24.7834 14.8092 24.8428 14.9743 24.8408 15.1444C24.8322 15.3151 24.7604 15.4764 24.6393 15.5971C24.5182 15.7177 24.3566 15.789 24.1859 15.7969C23.9244 15.8205 23.6582 15.8111 23.3967 15.8134C21.5874 15.8134 19.7805 15.8464 17.9783 15.8323C17.7363 15.817 17.4939 15.8573 17.2698 15.95C17.0456 16.0426 16.8456 16.1853 16.685 16.367C16.1762 16.9206 15.632 17.4413 15.0972 17.9713C14.9862 18.0731 14.8988 18.198 14.8414 18.3372C14.784 18.4764 14.7579 18.6266 14.765 18.777C14.7792 19.3024 14.765 19.8277 14.765 20.4096C14.98 20.4725 15.1999 20.5175 15.4223 20.5439C15.9877 20.5627 16.5531 20.5627 17.1185 20.5439C17.3263 20.5198 17.536 20.5686 17.7118 20.6821C17.8875 20.7955 18.0184 20.9665 18.082 21.1658C18.4118 22.0893 18.7228 23.0174 19.0243 23.9456C19.0659 24.0902 19.0843 24.2405 19.0785 24.3909C19.0783 24.5427 19.0249 24.6897 18.9276 24.8063C18.8304 24.9229 18.6954 25.0018 18.5461 25.0293C18.3596 25.0549 18.1713 25.0651 17.9831 25.0599C14.4446 25.0599 10.9047 25.0646 7.36311 25.0741C6.16165 25.0741 5.97555 24.8031 6.33599 23.6347C6.55429 22.9138 6.78439 22.1968 7.02625 21.4838C7.3113 20.6404 7.40554 20.5768 8.32901 20.5627C8.85435 20.5627 9.38204 20.5627 9.90974 20.5627C10.0768 20.5478 10.2428 20.5226 10.4068 20.4873C10.4257 20.0963 10.4492 19.7288 10.4586 19.3636C10.4681 18.9985 10.4586 18.6898 10.4586 18.3318C9.78252 17.6509 9.10641 16.996 8.46328 16.3128C8.3105 16.1475 8.12204 16.0191 7.91223 15.9375C7.70242 15.8558 7.47676 15.8231 7.25239 15.8417C5.4455 15.8629 3.6386 15.8582 1.83406 15.8582C1.53357 15.8625 1.23309 15.8492 0.934164 15.8181C0.785603 15.7947 0.648381 15.7245 0.542461 15.6178C0.43654 15.511 0.367444 15.3732 0.345215 15.2245C0.347323 15.0738 0.392907 14.9269 0.476492 14.8016C0.560077 14.6762 0.678104 14.5776 0.816374 14.5177C0.961775 14.4814 1.1099 14.457 1.25926 14.4447L1.76577 14.3575C1.76577 13.9688 1.79167 13.5966 1.78932 13.2244C1.78932 10.8521 1.75633 8.47983 1.74926 6.10754C1.7367 5.73257 1.77074 5.35749 1.85057 4.9909C1.89047 4.83562 1.96163 4.69013 2.05972 4.56332C2.15781 4.43651 2.28076 4.33106 2.42103 4.25342C2.5613 4.17579 2.71594 4.12761 2.87548 4.11183C3.03502 4.09605 3.1961 4.113 3.34885 4.16165C3.63626 4.23939 3.91659 4.35247 4.2252 4.45613C4.9979 3.98497 5.87426 4.00617 6.78595 4.06271C6.79788 3.83829 6.79788 3.61338 6.78595 3.38895C6.67287 2.36418 6.98854 1.50432 7.86725 0.950709C8.74597 0.397098 9.64826 0.439502 10.5387 0.950709L10.8662 1.14388ZM3.21456 7.95213C3.6174 7.82963 3.90482 7.66237 4.17574 7.68121C4.44666 7.70006 4.7152 7.90501 4.9814 8.03694C5.27892 8.20447 5.61889 8.28146 5.95955 8.25844C6.30022 8.23542 6.62675 8.11341 6.89903 7.90737C7.06938 7.75744 7.28739 7.67278 7.51429 7.66847C7.74118 7.66415 7.96225 7.74046 8.13818 7.88381C8.45583 8.12711 8.84584 8.25698 9.24593 8.25271C9.64603 8.24844 10.0332 8.11027 10.3456 7.86025C10.505 7.72663 10.7064 7.6534 10.9145 7.6534C11.1225 7.6534 11.324 7.72663 11.4834 7.86025C11.7993 8.10592 12.1881 8.23929 12.5883 8.23929C12.9885 8.23929 13.3773 8.10592 13.6932 7.86025C13.8512 7.7253 14.0509 7.64902 14.2586 7.6443C14.4664 7.63958 14.6694 7.70671 14.8334 7.83434C15.146 8.08308 15.5323 8.22103 15.9318 8.22657C16.3313 8.23211 16.7213 8.10493 17.0407 7.86496C17.2166 7.72227 17.4362 7.64439 17.6627 7.64439C17.8891 7.64439 18.1087 7.72227 18.2846 7.86496C18.5876 8.09464 18.9574 8.21895 19.3376 8.21895C19.7179 8.21895 20.0877 8.09464 20.3907 7.86496C20.7676 7.60818 21.128 7.51867 21.5427 7.76838C21.6905 7.81928 21.8457 7.84554 22.002 7.84612C22.002 7.42914 22.002 7.09227 22.002 6.75774C22.002 6.42322 21.9596 6.11461 21.9337 5.74946C21.578 5.86254 21.2906 6.03687 21.0197 6.01567C20.7488 5.99447 20.4778 5.79423 20.2163 5.65523C19.9411 5.48521 19.6219 5.39991 19.2985 5.40996C18.9751 5.42002 18.6618 5.52498 18.3977 5.71177C17.903 6.06043 17.4907 6.14524 16.9842 5.75889C16.3387 5.27595 15.6461 5.34191 14.9723 5.74475C14.9087 5.78363 14.8474 5.8261 14.7886 5.87196C14.642 5.99401 14.4561 6.05866 14.2654 6.0539C14.0748 6.04913 13.8923 5.97527 13.7521 5.84605C13.6908 5.80129 13.6272 5.7636 13.5612 5.72355C13.2763 5.5356 12.9425 5.43542 12.6012 5.43542C12.2599 5.43542 11.9261 5.5356 11.6412 5.72355C11.5423 5.78009 11.4528 5.84841 11.3586 5.90966C11.2355 5.99845 11.0886 6.04817 10.9369 6.05237C10.7853 6.05657 10.6359 6.01506 10.5081 5.93322C10.3762 5.85783 10.2725 5.75888 10.1312 5.68585C9.85581 5.5181 9.53887 5.43114 9.21646 5.43489C8.89405 5.43864 8.57917 5.53295 8.30779 5.70706C8.17822 5.7848 8.07221 5.88374 7.93086 5.95442C7.81747 6.02284 7.68795 6.05999 7.55552 6.06206C7.4231 6.06412 7.2925 6.03104 7.17702 5.96619C7.07808 5.91201 6.98854 5.83898 6.89431 5.77773C6.58507 5.55271 6.2111 5.43426 5.82871 5.44021C5.44631 5.44616 5.07619 5.57618 4.77409 5.81071C4.71049 5.85311 4.65161 5.89788 4.58801 5.93792C4.47808 6.012 4.35074 6.05617 4.21856 6.06608C4.08638 6.076 3.95388 6.05132 3.83413 5.99447C3.66923 5.92379 3.50669 5.84605 3.28288 5.74475C3.13447 6.50096 3.21456 7.1653 3.21456 7.95213ZM3.26641 9.67422C3.17624 10.2946 3.18736 10.9255 3.29936 11.5424C3.75403 11.5589 4.15923 11.5848 4.56678 11.5848L18.6851 11.5494C19.5497 11.5494 20.4166 11.5494 21.2765 11.5494C21.5003 11.533 21.7229 11.5031 21.9431 11.4599C22.0342 10.8452 22.0246 10.2199 21.9149 9.60826L20.9443 9.23369C19.8323 9.91216 18.7063 9.7496 17.6132 9.24546C16.4588 9.87446 15.3328 9.79436 14.2444 9.24546C13.083 9.90744 11.9569 9.76845 10.8497 9.26666C9.70714 9.91686 8.58342 9.77316 7.49269 9.26666C6.98437 9.54545 6.41396 9.6916 5.8342 9.6916C5.25445 9.6916 4.68406 9.54545 4.17574 9.26666L3.26641 9.67422ZM3.26641 14.4047C3.73757 14.4211 4.098 14.4447 4.46786 14.4471C6.50955 14.4471 8.54418 14.4471 10.5717 14.4471C14.0379 14.4471 17.5032 14.4392 20.9678 14.4235C21.2929 14.4235 21.6487 14.5248 21.9526 14.235C21.9691 13.851 22.1128 13.4411 21.8348 13.0736C15.7474 13.0736 9.67653 13.0736 3.62213 13.0736C3.49928 13.095 3.37971 13.1323 3.26641 13.1844V14.4047ZM16.8099 22.0728C15.255 21.9126 9.31607 21.9833 8.39731 22.1599C8.01096 23.0057 8.01096 23.0057 8.07456 23.6064C9.12054 23.7195 16.2987 23.71 17.2151 23.5899C17.3305 23.0386 17.0337 22.5934 16.8169 22.0728H16.8099ZM15.0148 15.8841H10.4987C10.4728 15.8841 10.4398 15.9194 10.4186 15.943C10.3961 15.9738 10.3772 16.007 10.3621 16.0419C11.2926 17.3211 11.4386 17.373 13.2031 17.2976C14.0889 17.2622 14.4281 16.5932 15.0218 15.8841H15.0148ZM13.639 3.01438C13.6424 2.8833 13.6196 2.75285 13.572 2.63068C13.5244 2.50851 13.4528 2.39709 13.3615 2.30295C13.2702 2.20881 13.1611 2.13385 13.0404 2.08247C12.9198 2.03109 12.7901 2.00433 12.659 2.00375C12.3949 1.99859 12.1393 2.09704 11.9468 2.278C11.7544 2.45897 11.6405 2.70807 11.6295 2.97198C11.6401 3.23508 11.7465 3.48522 11.9288 3.67527C12.111 3.86533 12.3565 3.98219 12.6189 4.00382C12.8847 4.00341 13.1401 3.9002 13.3315 3.71577C13.523 3.53135 13.6357 3.28001 13.646 3.01438H13.639ZM9.16294 2.00375C8.90611 2.01622 8.66393 2.12702 8.48657 2.3132C8.30921 2.49938 8.2103 2.74665 8.2103 3.00378C8.2103 3.26092 8.30921 3.50819 8.48657 3.69437C8.66393 3.88055 8.90611 3.99135 9.16294 4.00382C9.42534 3.98911 9.6731 3.87809 9.85872 3.69204C10.0443 3.50598 10.1548 3.25798 10.1689 2.99554C10.1584 2.73584 10.0506 2.4896 9.8668 2.30582C9.68302 2.12204 9.43678 2.0142 9.17709 2.00375H9.16294ZM17.0902 3.03794C17.0981 2.90761 17.0799 2.77701 17.0365 2.65384C16.9932 2.53068 16.9256 2.41744 16.8378 2.32083C16.7499 2.22421 16.6436 2.14617 16.5251 2.09131C16.4067 2.03645 16.2784 2.00587 16.1479 2.00139C16.0176 1.99027 15.8864 2.0064 15.7626 2.04876C15.6389 2.09111 15.5253 2.15875 15.4292 2.24739C15.333 2.33603 15.2563 2.44371 15.204 2.56359C15.1518 2.68347 15.125 2.81293 15.1255 2.94371C15.1098 3.20541 15.1971 3.46284 15.3688 3.66095C15.5405 3.85907 15.783 3.98213 16.0442 4.00382C16.3099 4.00863 16.5673 3.911 16.7629 3.73116C16.9585 3.55133 17.0774 3.30309 17.0949 3.03794H17.0902ZM11.8863 18.8218C11.8721 19.439 11.792 19.9808 12.004 20.5132C12.4253 20.6045 12.8628 20.5884 13.2762 20.4661C13.2927 20.1222 13.3209 19.7971 13.3186 19.4696C13.3074 19.2578 13.2831 19.047 13.2456 18.8383C12.8115 18.7084 12.3501 18.7011 11.9122 18.8171L11.8863 18.8218Z" fill="#0094FF"/>
</svg>
