<svg width="24" height="24" viewBox="0 0 24 24" fill="none" xmlns="http://www.w3.org/2000/svg">
<path d="M3.86164 23.7533C3.44867 23.5627 3.36017 23.2201 3.36017 22.7958C3.36017 19.0926 3.36017 15.3895 3.36017 11.6773C3.3709 11.5914 3.35486 11.5044 3.31425 11.4281C3.27363 11.3517 3.21042 11.2897 3.13326 11.2507C1.92095 10.5578 0.984839 9.46778 0.482978 8.16472C-0.112935 6.69248 -0.108048 5.04532 0.496592 3.57664C1.07257 2.13373 2.16664 0.957928 3.56439 0.279668C4.22469 -0.0606944 4.77381 0.329588 4.75112 1.00351C4.70801 2.24696 4.75112 3.49949 4.7307 4.73387C4.72292 4.77715 4.7239 4.82154 4.73357 4.86443C4.74325 4.90732 4.76142 4.94783 4.78701 4.98358C4.81261 5.01933 4.84511 5.04958 4.88259 5.07256C4.92008 5.09554 4.96179 5.11076 5.00526 5.11735C5.33654 5.21492 5.66102 5.32384 5.98323 5.44637C6.36897 5.59386 6.68211 5.34653 7.02701 5.27619C7.07047 5.26251 7.11293 5.24583 7.15407 5.22627C7.76673 4.99936 7.76672 4.99936 7.76672 4.36175C7.76672 3.22721 7.76672 2.11082 7.76672 0.985355C7.76672 0.256981 8.25912 -0.0448105 8.90127 0.272861C9.69795 0.646829 10.4054 1.18698 10.976 1.85701C11.5466 2.52705 11.9672 3.31146 12.2096 4.15753C12.4752 5.06735 12.5295 6.02583 12.3684 6.95984C12.3684 7.00522 12.3525 7.04834 12.3503 7.09372C12.348 7.1391 12.3503 7.12775 12.373 7.17767H12.6816C14.3879 7.17767 16.0852 7.17767 17.8006 7.17767C18.7082 7.17767 19.389 7.52939 19.7815 8.34625C19.9066 8.64535 19.9876 8.96102 20.022 9.28339C20.0969 9.79393 20.1378 10.309 20.1967 10.849H20.9501C21.5764 10.849 22.2026 10.849 22.8289 10.849C22.9288 10.8385 23.0298 10.8496 23.1251 10.8817C23.2203 10.9139 23.3074 10.9662 23.3805 11.0352C23.4535 11.1042 23.5108 11.1882 23.5484 11.2814C23.586 11.3746 23.6029 11.4748 23.5981 11.5752C23.6102 12.5372 23.6102 13.4993 23.5981 14.4614C23.6016 14.5572 23.5853 14.6527 23.5503 14.742C23.5153 14.8312 23.4623 14.9123 23.3946 14.9802C23.327 15.0481 23.246 15.1013 23.1569 15.1366C23.0678 15.1719 22.9723 15.1884 22.8765 15.1853C22.7427 15.1853 22.6088 15.1853 22.4431 15.1853V15.5143C22.4431 16.3675 22.4431 17.2206 22.4431 18.0738C22.4487 18.1907 22.4289 18.3074 22.385 18.4159C22.3411 18.5244 22.2743 18.6221 22.189 18.7023C21.7125 19.172 21.2405 19.6463 20.7822 20.1296C20.6881 20.2318 20.6321 20.3631 20.6233 20.5017C20.6075 21.2823 20.6233 22.0628 20.6233 22.8434C20.6233 23.4288 20.3624 23.6852 19.7724 23.6852H16.3688C15.8174 23.6852 15.5451 23.4152 15.5429 22.8706C15.5429 22.2534 15.5429 21.6363 15.5429 21.0191V20.7105H9.15087V22.5688C9.15087 22.6959 9.15087 22.823 9.15087 22.9478C9.16035 23.115 9.11791 23.2811 9.02935 23.4232C8.9408 23.5654 8.81047 23.6767 8.65621 23.742L3.86164 23.7533ZM7.76672 22.3487V21.9812C7.76672 18.3597 7.76672 14.739 7.76672 11.1191C7.75136 10.9421 7.79251 10.7649 7.88424 10.6128C7.97598 10.4607 8.11358 10.3416 8.27727 10.2727C8.92606 9.98775 9.50078 9.55765 9.95713 9.01555C10.4135 8.47344 10.7393 7.83379 10.9094 7.14591C11.3496 5.48267 10.9752 3.99415 9.8679 2.68943C9.66822 2.46252 9.42769 2.25831 9.15313 1.99283V2.38537C9.15313 3.40797 9.15313 4.43285 9.15313 5.45998C9.16636 5.62442 9.12229 5.78837 9.02841 5.92403C8.93453 6.05968 8.79661 6.15868 8.63805 6.20424C8.07986 6.38804 7.5262 6.58998 6.96347 6.75563C6.65941 6.84412 6.37578 7.0438 6.02407 6.919C5.35923 6.68075 4.68985 6.46518 4.02274 6.23828C3.47363 6.05221 3.37152 5.91607 3.37152 5.33064V2.38084C3.37152 2.28554 3.37152 2.18797 3.3579 2.0609C3.29334 2.09043 3.23179 2.12615 3.17411 2.16754C2.39686 2.82823 1.84221 3.71249 1.58575 4.69984C1.30592 5.7877 1.41598 6.93921 1.89682 7.95436C2.37766 8.96951 3.1989 9.78416 4.21788 10.2568C4.38332 10.3193 4.52427 10.4333 4.61989 10.582C4.71551 10.7308 4.76073 10.9063 4.74885 11.0828C4.73977 14.7224 4.73977 18.362 4.74885 22.0016V22.3419L7.76672 22.3487ZM19.1348 13.7898C19.0849 13.3223 19.0395 12.8821 18.9919 12.4601C18.8739 11.38 18.765 10.2977 18.6311 9.21758C18.6298 9.12806 18.6102 9.03974 18.5735 8.95808C18.5368 8.87643 18.4837 8.80315 18.4176 8.74277C18.3515 8.6824 18.2737 8.63621 18.189 8.60704C18.1044 8.57787 18.0147 8.56634 17.9254 8.57316C15.9589 8.56409 13.9923 8.56409 12.0258 8.57316C11.9803 8.57687 11.9363 8.59084 11.897 8.61403C11.8577 8.63722 11.8241 8.66902 11.7989 8.70704C11.3162 9.68486 10.5674 10.5067 9.63872 11.0782C9.45666 11.1642 9.30837 11.3083 9.21718 11.4878C9.12598 11.6673 9.09707 11.8721 9.13498 12.0698C9.16902 12.6371 9.13498 13.2044 9.13498 13.7898H19.1348ZM9.15087 19.3036C9.1935 19.3132 9.2367 19.32 9.2802 19.3241C12.6717 19.3241 16.064 19.3241 19.457 19.3241C19.5541 19.3194 19.6464 19.2809 19.718 19.2151C20.1196 18.8271 20.5167 18.4346 20.9002 18.0307C20.9935 17.9283 21.0488 17.7969 21.0567 17.6586C21.0726 16.9438 21.0567 16.2268 21.0703 15.5097C21.0703 15.2511 20.9887 15.1943 20.7459 15.1943C16.9807 15.1943 13.2163 15.1943 9.45265 15.1943C9.35508 15.1943 9.25978 15.1943 9.15087 15.2102V19.3036ZM19.1938 22.2943V20.7264H16.9247V22.2943H19.1938ZM22.2162 13.7898V12.8821C22.2162 12.2309 22.2162 12.2309 21.5627 12.2309H20.3556L20.5439 13.783L22.2162 13.7898Z" fill="#0094FF"/>
</svg>
